<svg id="Layer_15" data-name="Layer 15" xmlns="http://www.w3.org/2000/svg" viewBox="0 0 2004 2000"><defs><style>.cls-1{fill:#bc7b5b;}.cls-2{fill:#91674c;}.cls-3,.cls-4{fill:#a36f55;}.cls-4{opacity:0.48;}.cls-5{fill:#91653d;}.cls-6{fill:#e09f73;}.cls-7{fill:#e8c489;}.cls-8{fill:#a57955;}.cls-10,.cls-9{fill:#8e5a3d;}.cls-10,.cls-11{opacity:0.5;}.cls-11,.cls-12,.cls-13{fill:#cc8e6a;}.cls-13{opacity:0.51;}</style></defs><path class="cls-1" d="M569,1707l41,21s4.7,3.21,16-3c21.64-11.9,50-17,41-23-8.55-5.7-40.41-23.54-63.87-37a203.38,203.38,0,0,0-58.61-22.54L492,1629C510.1,1664.32,534.49,1687.41,569,1707Z"/><path class="cls-2" d="M484,1604s109,30,183,80v23s-67.28-52.38-152.64-69.19C514.36,1637.81,496,1630,484,1604Z"/><path class="cls-3" d="M671.73,1703.65,667,1684c-9.33,23.18-52,28-52,28l-2.3,20.68C632.55,1723.41,656.66,1720.1,671.73,1703.65Z"/><path class="cls-4" d="M671.73,1703.65c-15.07,16.45-39.18,19.76-59,29l-.76,6.8c17.94,2.48,24.36-2.69,24.36-2.69s23.7-13.79,30.37-17.54,6.05-11.5,6.05-11.5Z"/><path class="cls-5" d="M488,1606s125,40,178,79l1-1s-84-59-183-80Z"/><path class="cls-5" d="M615,1709s39.25-3,49.62-25H667s-7,22-52,28Z"/><path class="cls-6" d="M560.45,1685.49C561,1684,600,1664,600,1664l15,7.74L573,1694Z"/><polygon class="cls-7" points="615 1674.96 615 1671.74 573 1694 575.5 1696.48 615 1674.96"/><path class="cls-8" d="M488,1606s83,98,127,103v3s-37-5-96-66c0,0-34-33-35-42Z"/><path class="cls-9" d="M493,1637c10,17,20,31,34,42,26.91,22.1,51,47,85.74,53.31L615,1712c-57-17-131-108-131-108l3,25.84C489.5,1632.17,491.69,1634.37,493,1637Z"/><path class="cls-10" d="M527,1679c-14-11-24-25-34-42-1.31-2.63-3.5-4.83-6-7.16l0,.2c36.05,76,124.89,109.44,124.89,109.44l.8-7.17C578.05,1726,553.91,1701.1,527,1679Z"/><path class="cls-11" d="M497.16,1738.86a1.51,1.51,0,0,0,.18,2.13l9.25,8.81a1.5,1.5,0,0,0,2.18-.25l10.51-14A29.8,29.8,0,0,1,504,1731.3Z"/><path class="cls-12" d="M527.63,1724.05l1.26-8.81a1.55,1.55,0,0,1,.3-.71l43.82-57.1a1.51,1.51,0,0,0-2.39-1.85l-44.22,56.17a1.49,1.49,0,0,1-.71.5l-7.3,2.46a1.55,1.55,0,0,0-.67.46L504,1731.3a29.8,29.8,0,0,0,15.25,4.21l8.07-10.77A1.49,1.49,0,0,0,527.63,1724.05Z"/><path class="cls-12" d="M659.33,1661.56l-13.88-4a1.23,1.23,0,0,0-.54,0l-6.35,1.4a1.18,1.18,0,0,1-.56,0l-50.29-15.34a1.11,1.11,0,0,0-1.42.94,1.09,1.09,0,0,0,.76,1.16l49.76,15.86a1,1,0,0,1,.52.35l3.56,4.37a1.17,1.17,0,0,0,.48.34l9.29,3.34C655.51,1669.3,659.84,1666.16,659.33,1661.56Z"/><path class="cls-13" d="M666.68,1663.83l-7.35-2.27c.51,4.6-3.82,7.74-8.67,8.33l12.37,4.37a1.12,1.12,0,0,0,1.41-.67l3-8.33A1.11,1.11,0,0,0,666.68,1663.83Z"/></svg>