<svg id="Layer_17" data-name="Layer 17" xmlns="http://www.w3.org/2000/svg" viewBox="0 0 2004 2000"><defs><style>.cls-1{fill:#fff;}</style></defs><circle class="cls-1" cx="289" cy="1157" r="3"/><circle class="cls-1" cx="270.5" cy="1214.5" r="1.5"/><circle class="cls-1" cx="332.5" cy="1351.5" r="2.5"/><circle class="cls-1" cx="288.5" cy="1356.5" r="2.5"/><circle class="cls-1" cx="299.5" cy="1387.5" r="2.5"/><circle class="cls-1" cx="244" cy="1392" r="2"/><circle class="cls-1" cx="289.5" cy="1417.5" r="3.5"/><circle class="cls-1" cx="303" cy="884" r="2"/><circle class="cls-1" cx="734.5" cy="496.5" r="1.5"/><circle class="cls-1" cx="757.5" cy="517.5" r="1.5"/><circle class="cls-1" cx="467" cy="740" r="3"/><circle class="cls-1" cx="580" cy="688" r="3"/><circle class="cls-1" cx="293.5" cy="1284.5" r="2.5"/><circle class="cls-1" cx="749" cy="556" r="3"/><circle class="cls-1" cx="715" cy="617" r="2"/><circle class="cls-1" cx="719.5" cy="549.5" r="2.5"/><circle class="cls-1" cx="287" cy="987" r="2"/><circle class="cls-1" cx="306.5" cy="934.5" r="3.5"/><circle class="cls-1" cx="279.5" cy="934.5" r="3.5"/><circle class="cls-1" cx="320.5" cy="955.5" r="2.5"/><circle class="cls-1" cx="319.5" cy="921.5" r="1.5"/><circle class="cls-1" cx="290" cy="946" r="2"/><circle class="cls-1" cx="292" cy="912" r="2"/><circle class="cls-1" cx="272" cy="1456" r="2"/><circle class="cls-1" cx="311" cy="1508" r="5"/><circle class="cls-1" cx="266" cy="1438" r="3"/><circle class="cls-1" cx="315.5" cy="1428.5" r="3.5"/><circle class="cls-1" cx="341" cy="1430" r="5"/><circle class="cls-1" cx="249" cy="1447" r="3"/><circle class="cls-1" cx="320" cy="1401" r="4"/></svg>