<svg id="Layer_18" data-name="Layer 18" xmlns="http://www.w3.org/2000/svg" viewBox="0 0 2004 2000"><defs><style>.cls-1{fill:#fff;}</style></defs><circle class="cls-1" cx="278" cy="1452" r="4"/><circle class="cls-1" cx="313" cy="1405" r="4"/><circle class="cls-1" cx="274" cy="1396" r="4"/><circle class="cls-1" cx="235.5" cy="1437.5" r="2.5"/><circle class="cls-1" cx="335" cy="1385" r="3"/><circle class="cls-1" cx="300.5" cy="1460.5" r="3.5"/><circle class="cls-1" cx="329.5" cy="1496.5" r="3.5"/><circle class="cls-1" cx="356.5" cy="1411.5" r="2.5"/><circle class="cls-1" cx="239" cy="1413" r="4"/><circle class="cls-1" cx="295" cy="1424" r="3"/><circle class="cls-1" cx="259.5" cy="1356.5" r="3.5"/><circle class="cls-1" cx="364.5" cy="1482.5" r="5.5"/><circle class="cls-1" cx="286.5" cy="990.5" r="2.5"/><circle class="cls-1" cx="319.5" cy="944.5" r="4.5"/><circle class="cls-1" cx="331.5" cy="923.5" r="3.5"/><circle class="cls-1" cx="296.5" cy="915.5" r="2.5"/><circle class="cls-1" cx="276.5" cy="938.5" r="2.5"/><circle class="cls-1" cx="302" cy="947" r="3"/><circle class="cls-1" cx="738" cy="540" r="4"/><circle class="cls-1" cx="758" cy="570" r="3"/><circle class="cls-1" cx="730" cy="557" r="2"/><circle class="cls-1" cx="770.5" cy="584.5" r="3.5"/><circle class="cls-1" cx="769.5" cy="545.5" r="1.5"/><circle class="cls-1" cx="743" cy="563" r="2"/><circle class="cls-1" cx="840" cy="381" r="3"/><circle class="cls-1" cx="420" cy="759" r="4"/><circle class="cls-1" cx="568.5" cy="688.5" r="3.5"/><circle class="cls-1" cx="280" cy="1074" r="3"/><circle class="cls-1" cx="305.5" cy="1345.5" r="3.5"/></svg>