<svg id="Layer_16" data-name="Layer 16" xmlns="http://www.w3.org/2000/svg" viewBox="0 0 2004 2000"><defs><style>.cls-1{fill:#fff;}</style></defs><circle class="cls-1" cx="259.5" cy="1438.5" r="3.5"/><circle class="cls-1" cx="296" cy="1446" r="4"/><circle class="cls-1" cx="312.5" cy="1434.5" r="3.5"/><circle class="cls-1" cx="329.5" cy="1420.5" r="3.5"/><circle class="cls-1" cx="236" cy="1457" r="3"/><circle class="cls-1" cx="259.5" cy="1417.5" r="3.5"/><circle class="cls-1" cx="223" cy="1490" r="6"/><circle class="cls-1" cx="350" cy="1444" r="4"/><circle class="cls-1" cx="352.5" cy="1483.5" r="6.5"/><circle class="cls-1" cx="311" cy="935" r="4"/><circle class="cls-1" cx="283.5" cy="936.5" r="3.5"/><circle class="cls-1" cx="310.5" cy="954.5" r="3.5"/><circle class="cls-1" cx="328.5" cy="955.5" r="2.5"/><circle class="cls-1" cx="258" cy="955" r="3"/><circle class="cls-1" cx="282.5" cy="987.5" r="3.5"/><circle class="cls-1" cx="297.5" cy="943.5" r="3.5"/><circle class="cls-1" cx="722.5" cy="554.5" r="2.5"/><circle class="cls-1" cx="745" cy="565" r="3"/><circle class="cls-1" cx="749.5" cy="546.5" r="2.5"/><circle class="cls-1" cx="767" cy="584" r="5"/><circle class="cls-1" cx="716.5" cy="614.5" r="1.5"/><circle class="cls-1" cx="763" cy="569" r="4"/><circle class="cls-1" cx="733.5" cy="569.5" r="3.5"/><circle class="cls-1" cx="280.5" cy="1099.5" r="2.5"/><circle class="cls-1" cx="304" cy="1351" r="3"/><circle class="cls-1" cx="343.5" cy="806.5" r="2.5"/><circle class="cls-1" cx="682" cy="634" r="2"/><circle class="cls-1" cx="852" cy="374" r="4"/><circle class="cls-1" cx="808" cy="420" r="3"/></svg>