<svg xmlns="http://www.w3.org/2000/svg" xmlns:xlink="http://www.w3.org/1999/xlink" viewBox="0 0 215.23 165.15"><defs><style>.cls-1{fill:url(#linear-gradient);}.cls-2{fill:url(#linear-gradient-2);}.cls-3{fill:url(#linear-gradient-3);}.cls-4{fill:url(#linear-gradient-4);}.cls-5{fill:#26827b;}.cls-6{fill:#abffbd;}.cls-7{fill:#8deaff;}.cls-8{fill:url(#linear-gradient-5);}.cls-9{fill:#3ab5bf;}</style><linearGradient id="linear-gradient" x1="164.1" y1="15.92" x2="217.11" y2="60.36" gradientUnits="userSpaceOnUse"><stop offset="0" stop-color="#a9ffbd"/><stop offset="0.58" stop-color="#7ae2be"/><stop offset="0.64" stop-color="#72debe"/><stop offset="0.73" stop-color="#5dd2be"/><stop offset="0.85" stop-color="#39bebf"/><stop offset="0.98" stop-color="#09a3bf"/><stop offset="1" stop-color="#019fbf"/></linearGradient><linearGradient id="linear-gradient-2" x1="94.36" y1="52.63" x2="169.07" y2="150.24" gradientUnits="userSpaceOnUse"><stop offset="0" stop-color="#a9ffbd"/><stop offset="0.52" stop-color="#7ae2be"/><stop offset="0.59" stop-color="#72debe"/><stop offset="0.7" stop-color="#5dd2be"/><stop offset="0.83" stop-color="#39bebf"/><stop offset="0.98" stop-color="#09a3bf"/><stop offset="1" stop-color="#019fbf"/></linearGradient><linearGradient id="linear-gradient-3" x1="37.49" y1="102.91" x2="91.67" y2="149.81" gradientUnits="userSpaceOnUse"><stop offset="0" stop-color="#a9ffbd"/><stop offset="0.54" stop-color="#7ae2be"/><stop offset="0.61" stop-color="#6cdabe"/><stop offset="0.74" stop-color="#48c6be"/><stop offset="0.92" stop-color="#0ea6bf"/><stop offset="0.95" stop-color="#019fbf"/></linearGradient><linearGradient id="linear-gradient-4" x1="15.29" y1="104.82" x2="40.84" y2="144.27" gradientUnits="userSpaceOnUse"><stop offset="0" stop-color="#a9ffbd"/><stop offset="0.25" stop-color="#94f2bd"/><stop offset="0.59" stop-color="#7ae2be"/><stop offset="0.89" stop-color="#019fbf"/></linearGradient><linearGradient id="linear-gradient-5" x1="65.35" y1="27.07" x2="147.34" y2="86.71" gradientUnits="userSpaceOnUse"><stop offset="0" stop-color="#a9ffbd"/><stop offset="0.14" stop-color="#a3fbbd"/><stop offset="0.33" stop-color="#91f0be"/><stop offset="0.52" stop-color="#7ae2be"/><stop offset="0.59" stop-color="#6cdabe"/><stop offset="0.73" stop-color="#48c6be"/><stop offset="0.91" stop-color="#0ea6bf"/><stop offset="0.95" stop-color="#019fbf"/></linearGradient></defs><g id="Layer_2" data-name="Layer 2"><g id="Layer_2-2" data-name="Layer 2"><path class="cls-1" d="M159.56,10.14c1.25-4.31,37.17-27,47.59,14s13.92,47.5-9.08,58.5l-13.5-17.5s20,1,17-14A191.86,191.86,0,0,0,194,24.84a8.39,8.39,0,0,0-12.47-4.19,20.9,20.9,0,0,0-3.92,3.49S156.56,20.52,159.56,10.14Z"/><path class="cls-2" d="M204.25,96.65l-24.8-70.92A1.22,1.22,0,0,0,178,25L55.86,59.56l3,79,0,0c-.49,5.51,2.3,11.67,12.18,17.46,27.52,16.12,45.24,7.49,60.75,0,15.27-7.38,60.75-35.08,60.75-35.08S210.07,109.64,204.25,96.65Z"/><path class="cls-3" d="M23,120.59s16.31,46.31,54.59,33.55c12-4,21.41-12.21,15-40-3-13-17-16.43-23-14-4.24,1.73-7,5.39-8.68,9.63a26,26,0,0,0-1.58,6.63l-.73,6.38a4.4,4.4,0,0,1-3.44,3.86c-4,.82-11.46-1.13-19.13-20.54Z"/><path class="cls-4" d="M1,126.33s7.6,17.81,29.6,9.81S52,106.92,38.29,102Z"/><path class="cls-5" d="M109.5,17.82s-6.43-3.18-8.08-2.11c-1.39.92,1.81,5.72,1.81,5.72Z"/><path class="cls-6" d="M39.07,101.64s-14-11-28.77,1.76S1,126.33,1,126.33s12.18,12.75,37.73-4a18.51,18.51,0,0,0,5.42-5.34C46.72,112.93,48.44,106.64,39.07,101.64Z"/><path class="cls-5" d="M104.07,37.64c1.42-.58,28.79-31.28,55.2-17.71,15.58,8,18.17,12.41,18.26,14.39,3.38-5.76,3.86-13.53-8.74-20.93-25.46-14.95-37.59-7.59-50.94-.27S66,43.27,66,43.27,48.15,56.14,69.07,70.64c22.21,15.41,35.82,10.06,48.31,2.5,6.1-3.69,18.49-10.89,29.58-17.3a1.42,1.42,0,0,1-.89-.2C144.27,54.3,104.07,37.64,104.07,37.64Z"/><path class="cls-7" d="M177.53,34.32a27.11,27.11,0,0,1-5.33,6.28,30.37,30.37,0,0,1-5.09,3.63c-3.36,1.93-11.34,6.52-20.15,11.61"/><path class="cls-7" d="M172.2,40.6a27.11,27.11,0,0,0,5.33-6.28c-.09-2-2.68-6.38-18.26-14.39-26.41-13.57-54.78,14.13-56.2,14.71,0,0,41.2,19.66,43,21a1.42,1.42,0,0,0,.89.2c8.81-5.09,16.79-9.68,20.15-11.61A30.37,30.37,0,0,0,172.2,40.6Z"/><path class="cls-8" d="M159.74,48.49C131.36,35.08,116.45,27,110.22,23a47.14,47.14,0,0,1-6.36-4.65,17,17,0,0,1-1.5-1.56l-.94-1.11C64.61,32,57.19,47.54,55.92,55a21.33,21.33,0,0,0-.34,4.63.6.6,0,0,0,0,.08,10.33,10.33,0,0,0,.13,1.13,6.33,6.33,0,0,0,.18.79,19.54,19.54,0,0,0,5.17,9c3,3,7.47,7.47,23.85,10.37a33.31,33.31,0,0,0,3.88.63,34.71,34.71,0,0,0,13.2-1h0c10.9-2.71,20.72-9.32,29.08-14s26.21-16.19,28.7-17.81A.19.19,0,0,0,159.74,48.49Z"/><path class="cls-9" d="M26.47,101.32a1.17,1.17,0,0,0,1-.68c.12-.35-.15-.62-.6-.59a1.19,1.19,0,0,0-1,.68C25.76,101.08,26,101.35,26.47,101.32Z"/><path class="cls-9" d="M25.25,105.08a1.15,1.15,0,0,0,1-.66c.12-.35-.15-.61-.59-.58a1.11,1.11,0,0,0-1,.66C24.55,104.84,24.81,105.1,25.25,105.08Z"/><path class="cls-9" d="M21.58,102c.45-.12.8-.48.8-.8s-.39-.51-.84-.4-.8.48-.79.81S21.13,102.06,21.58,102Z"/><path class="cls-9" d="M21.68,105.47c.44-.1.8-.45.79-.78s-.38-.49-.82-.38-.8.46-.79.78S21.24,105.58,21.68,105.47Z"/><path class="cls-9" d="M23.77,116.27a2.39,2.39,0,0,0,.55-.71,1.65,1.65,0,0,0,.23-.64,1.15,1.15,0,0,0,0-.61,1.07,1.07,0,0,0-.22-.54,1.26,1.26,0,0,0-.6-.53,2.39,2.39,0,0,0-.32-.16,2.31,2.31,0,0,0-.86-.21,3.32,3.32,0,0,0-.83,0,3.66,3.66,0,0,0-.86.18,3.54,3.54,0,0,0-.83.34,3.12,3.12,0,0,0-.91.62,1.72,1.72,0,0,0-.31.29,2.16,2.16,0,0,0-.53.71,1.76,1.76,0,0,0-.22.63,1.21,1.21,0,0,0,0,.6,1,1,0,0,0,.22.53,1.24,1.24,0,0,0,.6.52,1.28,1.28,0,0,0,.31.15,2.16,2.16,0,0,0,.84.21,3.23,3.23,0,0,0,.82,0,3.58,3.58,0,0,0,.84-.17,4.24,4.24,0,0,0,.82-.32,3.35,3.35,0,0,0,.92-.61A3,3,0,0,0,23.77,116.27Z"/><path class="cls-9" d="M17.3,102.64c-.13-.29-.57-.37-1-.17s-.66.57-.53.86.57.35,1,.17S17.42,102.92,17.3,102.64Z"/><path class="cls-9" d="M18.67,105.71c-.13-.28-.57-.36-1-.17s-.65.56-.53.84.57.36,1,.17S18.79,106,18.67,105.71Z"/><path class="cls-9" d="M11.32,105.88a.91.91,0,0,0,1.07-.06c.36-.25.47-.63.24-.85a.92.92,0,0,0-1.08,0C11.19,105.27,11.09,105.66,11.32,105.88Z"/><path class="cls-9" d="M13.8,108.26a.9.9,0,0,0,1.07-.05c.36-.24.48-.62.25-.84a.92.92,0,0,0-1.08,0C13.68,107.66,13.57,108,13.8,108.26Z"/><path class="cls-9" d="M8.74,108.73c.28-.29.25-.64-.06-.79a1,1,0,0,0-1.07.26c-.28.29-.25.65.06.79A1,1,0,0,0,8.74,108.73Z"/><path class="cls-9" d="M12.11,110.32c.29-.29.27-.64,0-.79a1,1,0,0,0-1.08.26c-.29.29-.27.64,0,.79A1,1,0,0,0,12.11,110.32Z"/><path class="cls-9" d="M5.7,111.32a1,1,0,0,0-1,.44.43.43,0,0,0,.33.68A1,1,0,0,0,6,112,.43.43,0,0,0,5.7,111.32Z"/><path class="cls-9" d="M9,113.16a1.05,1.05,0,0,0,1-.43.43.43,0,0,0-.32-.69,1,1,0,0,0-1,.44A.42.42,0,0,0,9,113.16Z"/><path class="cls-9" d="M3.85,114.87a.92.92,0,0,0-.86.58c-.08.31.17.55.57.53a.93.93,0,0,0,.86-.58C4.5,115.09,4.24,114.85,3.85,114.87Z"/><path class="cls-9" d="M8.18,114.71a1,1,0,0,0-.88.59c-.09.31.17.55.57.54a1,1,0,0,0,.88-.59C8.83,114.94,8.58,114.7,8.18,114.71Z"/><path class="cls-9" d="M3.19,118.35c-.4.09-.7.39-.68.68s.37.45.77.36.7-.39.67-.68S3.58,118.26,3.19,118.35Z"/><path class="cls-9" d="M7.62,118.42c.41-.09.72-.4.7-.69s-.37-.45-.77-.36-.72.4-.7.69S7.22,118.51,7.62,118.42Z"/><path class="cls-9" d="M4.62,121.73a.7.7,0,0,0-.9-.17c-.38.15-.58.48-.45.73a.7.7,0,0,0,.9.17C4.54,122.31,4.75,122,4.62,121.73Z"/><path class="cls-9" d="M8.75,120c-.12-.25-.53-.33-.92-.17s-.59.5-.47.75a.73.73,0,0,0,.92.17C8.67,120.6,8.88,120.27,8.75,120Z"/><path class="cls-9" d="M6.36,124.29a.87.87,0,0,0-1,0c-.33.21-.42.54-.2.74a.87.87,0,0,0,1,0C6.49,124.82,6.58,124.49,6.36,124.29Z"/><path class="cls-9" d="M10,122a.89.89,0,0,0-1,0c-.33.21-.43.55-.21.75a.85.85,0,0,0,1,0C10.12,122.51,10.22,122.17,10,122Z"/><path class="cls-9" d="M9.05,126.25a1,1,0,0,0-1,.2c-.26.26-.24.57.05.71a1,1,0,0,0,1-.21C9.37,126.7,9.35,126.39,9.05,126.25Z"/><path class="cls-9" d="M12,123.46a1,1,0,0,0-1,.22c-.27.26-.25.58.05.72a1,1,0,0,0,1-.22C12.3,123.93,12.28,123.6,12,123.46Z"/><path class="cls-9" d="M12.53,127.49a1,1,0,0,0-1,.38c-.19.28-.05.56.3.63a1,1,0,0,0,1-.38C13,127.85,12.89,127.56,12.53,127.49Z"/><path class="cls-9" d="M14.88,125.07c.19-.29,0-.58-.31-.65a1.05,1.05,0,0,0-1,.4c-.19.28-.05.57.31.64A1.05,1.05,0,0,0,14.88,125.07Z"/><path class="cls-9" d="M16.6,128a.94.94,0,0,0-.88.53c-.09.28.15.51.55.51a1,1,0,0,0,.88-.53C17.24,128.18,17,128,16.6,128Z"/><path class="cls-9" d="M17.62,124.79a1,1,0,0,0-.9.55c-.09.29.16.52.55.51a1,1,0,0,0,.9-.54C18.26,125,18,124.78,17.62,124.79Z"/><path class="cls-9" d="M21,127.6c-.41.08-.74.37-.73.65s.35.44.76.36.74-.37.73-.65S21.44,127.52,21,127.6Z"/><path class="cls-9" d="M20.93,124.53c-.42.09-.75.39-.74.67s.36.44.77.36.75-.38.74-.66S21.35,124.45,20.93,124.53Z"/><path class="cls-9" d="M26.5,126.6c-.11-.26-.53-.34-.94-.18s-.64.48-.53.73.54.33.94.18S26.61,126.85,26.5,126.6Z"/><path class="cls-9" d="M24.73,124.58c.41-.16.65-.49.53-.75s-.54-.33-1-.17-.64.49-.52.74S24.33,124.74,24.73,124.58Z"/><path class="cls-9" d="M31,124.44a1,1,0,0,0-1.07,0c-.37.22-.49.56-.28.77a1,1,0,0,0,1.06,0C31.07,125,31.2,124.65,31,124.44Z"/><path class="cls-9" d="M28.62,122.18a1,1,0,0,0-1.07,0c-.37.22-.49.57-.27.78a1,1,0,0,0,1.06,0C28.71,122.73,28.84,122.38,28.62,122.18Z"/><path class="cls-9" d="M25.58,120.3a1.59,1.59,0,0,0,.71-.81,2.37,2.37,0,0,0,1.34-.56,1.22,1.22,0,0,0,.46-.87,2.28,2.28,0,0,0,1.2-.78.88.88,0,0,0,.15-.87,1.86,1.86,0,0,0,1-.94.72.72,0,0,0-.17-.81,1.4,1.4,0,0,0,.68-1,.75.75,0,0,0-.48-.69,1,1,0,0,0,.32-1.06,1,1,0,0,0-.76-.51.8.8,0,0,0-.06-1,1.34,1.34,0,0,0-1-.31.75.75,0,0,0-.44-.88,1.87,1.87,0,0,0-1.16-.07.86.86,0,0,0-.78-.69,2.23,2.23,0,0,0-1.23.18,1.16,1.16,0,0,0-1.07-.45,2.37,2.37,0,0,0-1.22.41,1.53,1.53,0,0,0-1.28-.18,2.48,2.48,0,0,0-1.12.6,2,2,0,0,0-1.38.1,2.15,2.15,0,0,0-.94.76,2.27,2.27,0,0,0-1.39.37,1.63,1.63,0,0,0-.7.85,2.22,2.22,0,0,0-1.3.61,1.19,1.19,0,0,0-.41.89,2,2,0,0,0-1.13.79.91.91,0,0,0-.11.87,1.7,1.7,0,0,0-.88.92.75.75,0,0,0,.21.79,1.24,1.24,0,0,0-.58,1,.76.76,0,0,0,.48.66.92.92,0,0,0-.24,1A1,1,0,0,0,13,119a.76.76,0,0,0,.1.94,1.34,1.34,0,0,0,.94.29.73.73,0,0,0,.44.81,1.77,1.77,0,0,0,1.08.08.84.84,0,0,0,.75.64,2.1,2.1,0,0,0,1.15-.14,1.12,1.12,0,0,0,1,.43,2.28,2.28,0,0,0,1.15-.35,1.48,1.48,0,0,0,1.21.19,2.3,2.3,0,0,0,1.08-.54,1.91,1.91,0,0,0,1.34-.07,2,2,0,0,0,.93-.69A2.33,2.33,0,0,0,25.58,120.3Zm-6.4-.41a2.23,2.23,0,0,0-.77.19,1,1,0,0,0-.67-.42,2,2,0,0,0-.76,0,.75.75,0,0,0-.44-.56,1.46,1.46,0,0,0-.7-.11.72.72,0,0,0-.19-.68,1.1,1.1,0,0,0-.58-.25.85.85,0,0,0,.07-.74.79.79,0,0,0-.43-.37,1.17,1.17,0,0,0,.33-.76.73.73,0,0,0-.25-.48,1.56,1.56,0,0,0,.57-.73.78.78,0,0,0,0-.55,2,2,0,0,0,.78-.65,1,1,0,0,0,.15-.59,2.23,2.23,0,0,0,.94-.52,1.36,1.36,0,0,0,.35-.59,2.36,2.36,0,0,0,1-.36,1.8,1.8,0,0,0,.53-.54,2.15,2.15,0,0,0,1.06-.17,2.21,2.21,0,0,0,.67-.46,1.78,1.78,0,0,0,1,0,2.57,2.57,0,0,0,.77-.35,1.36,1.36,0,0,0,.88.25,2.55,2.55,0,0,0,.81-.21,1,1,0,0,0,.69.44,2.05,2.05,0,0,0,.81-.06.74.74,0,0,0,.45.6,1.56,1.56,0,0,0,.73.11.71.71,0,0,0,.18.71,1,1,0,0,0,.6.26.86.86,0,0,0-.1.78.79.79,0,0,0,.43.39,1.22,1.22,0,0,0-.38.79.74.74,0,0,0,.24.49,1.66,1.66,0,0,0-.62.74.76.76,0,0,0,0,.56,2.14,2.14,0,0,0-.82.65,1,1,0,0,0-.18.58,2.47,2.47,0,0,0-1,.51,1.27,1.27,0,0,0-.37.57,2.33,2.33,0,0,0-1,.34,1.78,1.78,0,0,0-.54.51,2.29,2.29,0,0,0-1,.15,2.1,2.1,0,0,0-.66.43,1.73,1.73,0,0,0-1-.05,2.3,2.3,0,0,0-.75.32A1.29,1.29,0,0,0,19.18,119.89Z"/><path class="cls-9" d="M34.93,121.6a1.15,1.15,0,0,0-1.13.23c-.31.27-.32.61,0,.75a1.15,1.15,0,0,0,1.13-.22C35.23,122.08,35.24,121.74,34.93,121.6Z"/><path class="cls-9" d="M31.56,120a1.13,1.13,0,0,0-1.12.24c-.31.27-.31.61,0,.75a1.11,1.11,0,0,0,1.12-.23C31.87,120.5,31.87,120.16,31.56,120Z"/><path class="cls-9" d="M37.22,119.35a1.24,1.24,0,0,0,1.12-.43.41.41,0,0,0-.29-.69,1.24,1.24,0,0,0-1.11.44A.4.4,0,0,0,37.22,119.35Z"/><path class="cls-9" d="M33.85,117.47a1.21,1.21,0,0,0-1.1.44.4.4,0,0,0,.29.68,1.21,1.21,0,0,0,1.1-.43A.41.41,0,0,0,33.85,117.47Z"/><path class="cls-9" d="M40.67,115.13c.12-.33-.13-.58-.57-.57a1.2,1.2,0,0,0-1,.62c-.13.33.13.58.57.56A1.2,1.2,0,0,0,40.67,115.13Z"/><path class="cls-9" d="M34.89,115.9a1.17,1.17,0,0,0,1-.61c.12-.33-.13-.58-.57-.56a1.15,1.15,0,0,0-1,.61C34.2,115.66,34.45,115.91,34.89,115.9Z"/><path class="cls-9" d="M40.82,112a1.05,1.05,0,0,0,.87-.76c0-.32-.37-.5-.83-.39s-.85.44-.86.76S40.36,112.1,40.82,112Z"/><path class="cls-9" d="M36.66,112.35c0-.31-.37-.49-.82-.38s-.83.43-.84.75.36.48.82.38S36.65,112.67,36.66,112.35Z"/><path class="cls-9" d="M39.61,108.22c.11.29.57.37,1,.18s.74-.57.62-.86-.57-.37-1-.18S39.5,107.94,39.61,108.22Z"/><path class="cls-9" d="M34.73,110.24c.12.28.57.36,1,.17s.72-.56.6-.84-.57-.36-1-.18S34.62,110,34.73,110.24Z"/><path class="cls-9" d="M37.9,105.29a1,1,0,0,0,1.16-.06c.41-.26.56-.66.33-.89a1,1,0,0,0-1.16.06C37.81,104.66,37.67,105.06,37.9,105.29Z"/><path class="cls-9" d="M33.5,108.08a1,1,0,0,0,1.14,0c.4-.25.54-.64.31-.87a1,1,0,0,0-1.14,0C33.41,107.47,33.28,107.86,33.5,108.08Z"/><path class="cls-9" d="M35,103.05a1.17,1.17,0,0,0,1.2-.29c.34-.31.35-.7,0-.85a1.19,1.19,0,0,0-1.21.29C34.65,102.52,34.64,102.9,35,103.05Z"/><path class="cls-9" d="M31.4,106.43a1.18,1.18,0,0,0,1.17-.28c.33-.31.33-.68,0-.84a1.18,1.18,0,0,0-1.18.29C31.08,105.9,31.08,106.27,31.4,106.43Z"/><path class="cls-9" d="M31.06,101.7a1.28,1.28,0,0,0,1.15-.51.45.45,0,0,0-.31-.75,1.25,1.25,0,0,0-1.15.51A.45.45,0,0,0,31.06,101.7Z"/><path class="cls-9" d="M28.27,104.67a.44.44,0,0,0,.31.73,1.22,1.22,0,0,0,1.12-.49.43.43,0,0,0-.31-.73A1.21,1.21,0,0,0,28.27,104.67Z"/></g></g></svg>