<svg xmlns="http://www.w3.org/2000/svg" xmlns:xlink="http://www.w3.org/1999/xlink" viewBox="0 0 245.01 136.29"><defs><style>.cls-1{fill:url(#linear-gradient);}.cls-2{fill:#379db5;}.cls-3{fill:url(#linear-gradient-2);}.cls-4{fill:#1c7d93;}.cls-5{fill:url(#linear-gradient-3);}.cls-6{fill:url(#linear-gradient-4);}</style><linearGradient id="linear-gradient" x1="44.9" y1="57.32" x2="87.65" y2="112.11" gradientUnits="userSpaceOnUse"><stop offset="0" stop-color="#a9ffbd"/><stop offset="0.32" stop-color="#7ae2be"/><stop offset="1" stop-color="#019fbf"/></linearGradient><linearGradient id="linear-gradient-2" x1="22.16" y1="24.4" x2="24.37" y2="38.87" xlink:href="#linear-gradient"/><linearGradient id="linear-gradient-3" x1="148.81" y1="37.74" x2="148.21" y2="126.78" xlink:href="#linear-gradient"/><linearGradient id="linear-gradient-4" x1="238.6" y1="52.2" x2="207.07" y2="72.51" xlink:href="#linear-gradient"/></defs><g id="Layer_2" data-name="Layer 2"><g id="Layer_2-2" data-name="Layer 2"><path class="cls-1" d="M88.51,74.7S49,72.2,40,48.2L36.09,36.29,19,40.2A75.84,75.84,0,0,0,24.6,64.72c5.41,13.48,24,44.59,63.21,54Z"/><path class="cls-2" d="M18.49,41.15l17.42-4.84s2.53-1.82,5-7.71L9.67,37.28S11.93,40,18.49,41.15Z"/><path class="cls-3" d="M9.67,37.28s-4.66.92-7-1.65c0,0-4.61-5.43-1.61-6.43,0,0,41-12,43-11,.9.45,1.76,9.06-3.06,10.4Z"/><path class="cls-4" d="M133.51,22.7s78-3,74,4c-.78,1.37-17,4-17,4S134.51,27.7,133.51,22.7Z"/><path class="cls-5" d="M209.28,38.2c0-4.11.23-8.5-1.77-12.5-8,3-33.35,2.3-43.55,2.11a16.63,16.63,0,0,1-15-10.12l-5.47-12.8A8,8,0,0,0,136,0c-4.07.05-7.77.12-10.91.19a39.71,39.71,0,0,0-24,8.68C94.4,14.24,87.7,21.93,87.81,31.07v87.69s.54,17.63,30.37,17.53,60.75,0,60.75,0,30.68,0,30.38-17.53C209.07,104.63,209.22,56.5,209.28,38.2Z"/><path class="cls-6" d="M207.51,25.7S245,17.1,245,53.2c0,29-2.17,57.91-36,55v-16s17.06,2,19-7c1.55-7.18,2-29.4,2-33,0-9.71-7-13-21-10Z"/></g></g></svg>