<svg xmlns="http://www.w3.org/2000/svg" viewBox="0 0 247 258"><defs><style>.cls-1{fill:#aeb0ff;}.cls-2{fill:#fff;stroke-width:6px;}.cls-2,.cls-3{stroke:#606060;stroke-linecap:round;stroke-linejoin:round;}.cls-3{fill:none;stroke-width:4px;}.cls-4{fill:#606060;}</style></defs><g id="Layer_2" data-name="Layer 2"><g id="Layer_1-2" data-name="Layer 1"><circle class="cls-1" cx="123.5" cy="123.5" r="123.5"/><rect class="cls-2" x="30" y="51.32" width="203.68" height="203.68" rx="19.51"/><line class="cls-3" x1="30" y1="94.33" x2="233.68" y2="94.33"/><rect class="cls-2" x="73.65" y="19.69" width="21.51" height="54.4" rx="6.96"/><rect class="cls-2" x="168.53" y="19.69" width="21.51" height="54.4" rx="6.96"/><path class="cls-4" d="M89,177H79.81c-4,0-6.49-2.62-6.49-6.83s2.5-6.83,6.49-6.83h9c8.54,0,12.76-4.22,12.76-10.71s-4.56-10.81-12-10.81c-4.55,0-9,1.7-13.55,4.44-3.76,2.27-7.74,1.59-10-1.82s-1.71-7.41,2-9.91c5.92-4,14.12-6.38,23-6.38,18.45,0,27.67,10,27.67,24.26,0,7.28-3.53,14.57-10.59,17.76,8,2.84,13,10.36,13,19.58,0,15.37-10.59,26.08-31,26.08-10.25,0-19-2.4-24.25-6.15C62.05,207,61,203,63.41,199.2a7,7,0,0,1,10-2.16A28.31,28.31,0,0,0,89,202.16c9.22,0,14.92-4.55,14.92-12.64S97.8,177,89,177Z"/><path class="cls-4" d="M133.21,172c0-28.47,13.32-43.84,33.13-43.84s33.13,15.37,33.13,43.84-13.32,43.84-33.13,43.84S133.21,200.46,133.21,172Zm49.19,0c0-19.58-6.72-30.17-16.06-30.17S150.29,152.41,150.29,172s6.71,30.17,16.05,30.17S182.4,191.57,182.4,172Z"/></g></g></svg>