<svg xmlns="http://www.w3.org/2000/svg" viewBox="0 0 265 251.35"><defs><style>.cls-1{fill:#aeb0ff;}.cls-2,.cls-4{fill:#fff;}.cls-2,.cls-3,.cls-4{stroke:#606060;stroke-linecap:round;stroke-linejoin:round;}.cls-2,.cls-3{stroke-width:6px;}.cls-3{fill:none;}.cls-4{stroke-width:4px;}</style></defs><g id="Layer_2" data-name="Layer 2"><g id="Layer_1-2" data-name="Layer 1"><circle class="cls-1" cx="123.5" cy="122.5" r="122.5"/><path class="cls-2" d="M3,126.91V227.05c0,11.76,32,21.3,71.47,21.3s71.47-9.54,71.47-21.3V126.91"/><ellipse class="cls-2" cx="74.47" cy="127.6" rx="71.47" ry="21.3"/><path class="cls-3" d="M3,143.05c0,11.76,32,21.3,71.47,21.3s71.47-9.54,71.47-21.3"/><path class="cls-3" d="M3,157.05c0,11.76,32,21.3,71.47,21.3s71.47-9.54,71.47-21.3"/><path class="cls-3" d="M3,171.05c0,11.76,32,21.3,71.47,21.3s71.47-9.54,71.47-21.3"/><path class="cls-3" d="M3,185.05c0,11.76,32,21.3,71.47,21.3s71.47-9.54,71.47-21.3"/><path class="cls-3" d="M3,199.05c0,11.76,32,21.3,71.47,21.3s71.47-9.54,71.47-21.3"/><path class="cls-3" d="M3,213.05c0,11.76,32,21.3,71.47,21.3s71.47-9.54,71.47-21.3"/><circle class="cls-2" cx="164.42" cy="114.3" r="97.58"/><circle class="cls-4" cx="164.42" cy="114.3" r="78.34"/><polyline class="cls-3" points="119.56 86.81 142.48 157.59 164.63 86.81 186.16 157.59 208.4 86.81"/><line class="cls-3" x1="109.44" y1="106.05" x2="219.39" y2="106.05"/><line class="cls-3" x1="109.44" y1="121.17" x2="219.39" y2="121.17"/></g></g></svg>