<svg xmlns="http://www.w3.org/2000/svg" viewBox="0 0 229 286.15"><defs><style>.cls-1{fill:#fff;stroke-width:6px;}.cls-1,.cls-2{stroke:#606060;stroke-linecap:round;stroke-linejoin:round;}.cls-2{fill:none;stroke-width:4px;}</style></defs><g id="Layer_2" data-name="Layer 2"><g id="Layer_1-2" data-name="Layer 1"><path class="cls-1" d="M213.7,17.91a2.7,2.7,0,0,0-2.51-2.33H166.58a2.7,2.7,0,0,0-2.51,2.33,637,637,0,0,0,0,249.14,2.7,2.7,0,0,0,2.51,2.33h44.61a2.7,2.7,0,0,0,2.51-2.33A637,637,0,0,0,213.7,17.91Z"/><path class="cls-1" d="M44.48,61.56H77.7A41.48,41.48,0,0,1,119.18,103v139.3A22.63,22.63,0,0,1,96.55,265H25.63A22.63,22.63,0,0,1,3,242.33V103A41.48,41.48,0,0,1,44.48,61.56Z"/><path class="cls-1" d="M42.69,36.52h35A6.45,6.45,0,0,1,84.13,43V61.66a0,0,0,0,1,0,0H36.24a0,0,0,0,1,0,0V43A6.45,6.45,0,0,1,42.69,36.52Z"/><rect class="cls-1" x="55.4" y="19.76" width="9.58" height="15.56"/><rect class="cls-1" x="42.23" y="3" width="33.52" height="16.76" rx="5.33"/><path class="cls-1" d="M75.75,8.33H87.94a21.38,21.38,0,0,1,9.36,1.85,13.63,13.63,0,0,1,6,6,13.39,13.39,0,0,1,.62,1.42,3.46,3.46,0,0,1-3.3,4.57h-.94A5.5,5.5,0,0,1,95,19.6l0-.07a4.68,4.68,0,0,0-4-2.16H75.75Z"/><path class="cls-1" d="M113.76,130.41h19a27.76,27.76,0,0,1,27.76,27.76v100a14.2,14.2,0,0,1-14.2,14.2H100.19A14.2,14.2,0,0,1,86,258.18v-100A27.76,27.76,0,0,1,113.76,130.41Z"/><path class="cls-1" d="M67.64,237.66h94a3.86,3.86,0,0,1,3.86,3.86v21.14a20.49,20.49,0,0,1-20.49,20.49H84.26a20.49,20.49,0,0,1-20.49-20.49V241.52A3.86,3.86,0,0,1,67.64,237.66Z"/><path class="cls-1" d="M161.57,237.66H67.74a4.93,4.93,0,0,1-4.81-3.88l-5-23.07a4.92,4.92,0,0,1,4.81-6h103.9a4.93,4.93,0,0,1,4.81,6l-5,23.07A4.94,4.94,0,0,1,161.57,237.66Z"/><path class="cls-1" d="M116.25,93.39h14a8,8,0,0,1,8,8V130.5a0,0,0,0,1,0,0H108.3a0,0,0,0,1,0,0V101.35A8,8,0,0,1,116.25,93.39Z"/><line class="cls-2" x1="154.77" y1="85.61" x2="221.81" y2="85.61"/><line class="cls-2" x1="153.57" y1="96.38" x2="221.81" y2="96.38"/></g></g></svg>