<svg xmlns="http://www.w3.org/2000/svg" viewBox="0 0 259.44 258.08"><defs><style>.cls-1{fill:#aeb0ff;}.cls-2,.cls-3{fill:#fff;stroke:#606060;stroke-miterlimit:10;}.cls-2{stroke-width:6.3px;}.cls-3{stroke-width:6px;}</style></defs><g id="Layer_2" data-name="Layer 2"><g id="Layer_1-2" data-name="Layer 1"><circle class="cls-1" cx="130.79" cy="119.5" r="119.5"/><path class="cls-2" d="M255.67,76.32,249.36,73a20.25,20.25,0,0,1-9.89-23.89l2.1-6.81A72.12,72.12,0,0,0,228.22,29l-6.81,2.11a20.25,20.25,0,0,1-23.88-9.9l-3.33-6.3a72.1,72.1,0,0,0-18.87,0L172,21.16a20.26,20.26,0,0,1-23.89,9.9L141.31,29A72.12,72.12,0,0,0,128,42.3l2.1,6.81A20.26,20.26,0,0,1,120.17,73l-6.31,3.32a72.18,72.18,0,0,0,0,18.88l6.31,3.33a20.25,20.25,0,0,1,9.89,23.88l-2.1,6.81a71.81,71.81,0,0,0,13.35,13.35l6.8-2.1A20.25,20.25,0,0,1,172,150.36l3.33,6.31a72.1,72.1,0,0,0,18.87,0l3.33-6.31a20.24,20.24,0,0,1,23.88-9.89l6.81,2.1a71.81,71.81,0,0,0,13.35-13.35l-2.1-6.81a20.24,20.24,0,0,1,9.89-23.88l6.31-3.33a72.18,72.18,0,0,0,0-18.88ZM184.76,122.7A36.94,36.94,0,1,1,221.7,85.76,36.94,36.94,0,0,1,184.76,122.7Z"/><path class="cls-3" d="M189,160.25a17.68,17.68,0,0,1-13.5-14.54L174,136.47a63.9,63.9,0,0,0-19.83-7.64l-7.2,5.72A17.65,17.65,0,0,1,127.23,136l-7.87-4.52a64.13,64.13,0,0,0-9.74,4.57,63.44,63.44,0,0,0-8.83,6.16l0,9.07A17.68,17.68,0,0,1,89.59,167.7L81,171.08a64,64,0,0,0-3.3,21l7.3,5.85a17.67,17.67,0,0,1,5.85,19l-2.83,9.24a63.47,63.47,0,0,0,14,15.32l9.6-2.16a17.65,17.65,0,0,1,18.47,7.25l5.69,8.3a63.28,63.28,0,0,0,20.34-1.44l4.43-9.15a17.7,17.7,0,0,1,17.19-9.92l10.14.74a63.73,63.73,0,0,0,11.42-16.9L195,209.07a17.65,17.65,0,0,1,3-19.62l6.67-7.23a63.6,63.6,0,0,0-6.27-19.8Zm-32.88,55.89A28.65,28.65,0,1,1,166.56,177,28.65,28.65,0,0,1,156.07,216.14Z"/><path class="cls-3" d="M84.28,71.19A13.33,13.33,0,0,1,73,61.31l-1.77-6.82a48,48,0,0,0-15.45-4.21l-5,4.84a13.31,13.31,0,0,1-14.73,2.62L29.89,55a48.18,48.18,0,0,0-7,4.17,47.65,47.65,0,0,0-6.15,5.29l.68,6.81a13.33,13.33,0,0,1-7.13,13.15L4.17,87.57a48.22,48.22,0,0,0-.86,16l5.92,3.82a13.35,13.35,0,0,1,5.84,13.78l-1.42,7.14a47.6,47.6,0,0,0,11.69,10.42l7-2.36a13.31,13.31,0,0,1,14.4,4l4.91,5.79a48,48,0,0,0,15.15-2.64l2.62-7.2a13.31,13.31,0,0,1,12.13-8.76l7.66-.22a48,48,0,0,0,7.27-13.55l-4-6.48a13.32,13.32,0,0,1,.72-14.94l4.45-5.93A47.82,47.82,0,0,0,91.5,72.09ZM63.9,115.62a21.6,21.6,0,1,1,4.87-30.15A21.6,21.6,0,0,1,63.9,115.62Z"/></g></g></svg>