<svg xmlns="http://www.w3.org/2000/svg" viewBox="0 0 258 239"><defs><style>.cls-1{fill:#aeb0ff;}.cls-2{fill:#fff;}.cls-2,.cls-4{stroke:#606060;stroke-linecap:round;stroke-linejoin:round;stroke-width:6px;}.cls-3{fill:#606060;}.cls-4{fill:none;}</style></defs><g id="Layer_2" data-name="Layer 2"><g id="Layer_1-2" data-name="Layer 1"><circle class="cls-1" cx="127.5" cy="119.5" r="119.5"/><rect class="cls-2" x="202.3" y="143.36" width="23.51" height="102.61" rx="8.8" transform="translate(-74.96 208.37) rotate(-45)"/><path class="cls-2" d="M188.82,51.4a83.46,83.46,0,1,0,0,118A83.46,83.46,0,0,0,188.82,51.4ZM175,155.6a63.9,63.9,0,1,1,0-90.37A63.9,63.9,0,0,1,175,155.6Z"/><path class="cls-3" d="M85.43,84.11l0,0A2,2,0,0,0,88,83.29a50.57,50.57,0,0,1,3-4.52,2,2,0,0,0-.76-3l0,0a2,2,0,0,0-2.43.6,56.42,56.42,0,0,0-3.23,4.88A2,2,0,0,0,85.43,84.11Z"/><path class="cls-3" d="M125.82,159.61A51,51,0,0,1,83.58,93a1.94,1.94,0,0,0-1.27-2.43l-.06,0a2,2,0,0,0-2.49,1.25,55,55,0,0,0,45.6,71.79,1.94,1.94,0,0,0,2.19-1.86v-.11A2,2,0,0,0,125.82,159.61Z"/><line class="cls-4" x1="23.65" y1="108.06" x2="3" y2="108.06"/><line class="cls-4" x1="55.62" y1="35.05" x2="40.28" y2="19.72"/><line class="cls-4" x1="51.68" y1="183.84" x2="34.26" y2="201.26"/><line class="cls-4" x1="129.8" y1="215.39" x2="129.8" y2="236"/></g></g></svg>