<svg xmlns="http://www.w3.org/2000/svg" viewBox="0 0 330.84 286.15"><defs><style>.cls-1{fill:#ffb6ce;}.cls-2,.cls-3{fill:#fff;stroke:#606060;stroke-linecap:round;stroke-linejoin:round;}.cls-2{stroke-width:6px;}.cls-3{stroke-width:4px;}</style></defs><g id="Layer_2" data-name="Layer 2"><g id="Layer_1-2" data-name="Layer 1"><path class="cls-1" d="M238.87,96.38S197.29,66,102.07,86.78-11.54,152,5.84,188.32c13,27.2,81.46,44.85,192.23,39s132.77-35.83,132.77-69.83C330.84,121.57,300.91,94.24,238.87,96.38Z"/><path class="cls-2" d="M273.54,17.91A2.69,2.69,0,0,0,271,15.58H226.42a2.71,2.71,0,0,0-2.51,2.33,637.33,637.33,0,0,0,0,249.14,2.71,2.71,0,0,0,2.51,2.33H271a2.69,2.69,0,0,0,2.51-2.33A637,637,0,0,0,273.54,17.91Z"/><path class="cls-2" d="M104.32,61.56h33.22A41.48,41.48,0,0,1,179,103v139.3A22.63,22.63,0,0,1,156.39,265H85.47a22.63,22.63,0,0,1-22.63-22.63V103A41.48,41.48,0,0,1,104.32,61.56Z"/><path class="cls-2" d="M102.53,36.52h35A6.45,6.45,0,0,1,144,43V61.66a0,0,0,0,1,0,0H96.08a0,0,0,0,1,0,0V43A6.45,6.45,0,0,1,102.53,36.52Z"/><rect class="cls-2" x="115.24" y="19.76" width="9.58" height="15.56"/><rect class="cls-2" x="102.07" y="3" width="33.52" height="16.76" rx="5.33"/><path class="cls-2" d="M135.59,8.33h12.19a21.35,21.35,0,0,1,9.36,1.85,13.65,13.65,0,0,1,6,6,13.17,13.17,0,0,1,.61,1.42,3.46,3.46,0,0,1-3.29,4.57h-.95a5.47,5.47,0,0,1-4.69-2.56l-.05-.07a4.68,4.68,0,0,0-4-2.16H135.59Z"/><path class="cls-2" d="M173.6,130.41h19a27.76,27.76,0,0,1,27.76,27.76v100a14.2,14.2,0,0,1-14.2,14.2H160a14.2,14.2,0,0,1-14.2-14.2v-100A27.76,27.76,0,0,1,173.6,130.41Z"/><path class="cls-2" d="M127.48,237.66h94a3.86,3.86,0,0,1,3.86,3.86v21.14a20.49,20.49,0,0,1-20.49,20.49H144.11a20.49,20.49,0,0,1-20.49-20.49V241.52A3.86,3.86,0,0,1,127.48,237.66Z"/><path class="cls-2" d="M221.42,237.66H127.58a4.94,4.94,0,0,1-4.81-3.88l-5-23.07a4.93,4.93,0,0,1,4.81-6h103.9a4.93,4.93,0,0,1,4.81,6l-5,23.07A4.94,4.94,0,0,1,221.42,237.66Z"/><path class="cls-2" d="M176.09,93.39h14a8,8,0,0,1,8,8V130.5a0,0,0,0,1,0,0H168.14a0,0,0,0,1,0,0V101.35A8,8,0,0,1,176.09,93.39Z"/><line class="cls-3" x1="214.61" y1="85.61" x2="281.65" y2="85.61"/><line class="cls-3" x1="213.41" y1="96.38" x2="281.65" y2="96.38"/></g></g></svg>