<svg xmlns="http://www.w3.org/2000/svg" viewBox="0 0 286 231.9"><defs><style>.cls-1,.cls-2{fill:#fff;}.cls-1,.cls-2,.cls-3,.cls-4,.cls-5{stroke:#606060;stroke-linecap:round;stroke-linejoin:round;}.cls-1,.cls-3{stroke-width:6px;}.cls-2,.cls-4,.cls-5{stroke-width:4px;}.cls-3,.cls-4{fill:#ccc;}.cls-5{fill:#aeb0ff;}</style></defs><g id="Layer_2" data-name="Layer 2"><g id="Layer_1-2" data-name="Layer 1"><path class="cls-1" d="M28.86,85.06h17.7a25.86,25.86,0,0,1,25.86,25.86v93.15A13.22,13.22,0,0,1,59.2,217.29h-43A13.22,13.22,0,0,1,3,204.07V110.92A25.86,25.86,0,0,1,28.86,85.06Z"/><rect class="cls-2" x="23.11" y="78.26" width="29.2" height="6.8" rx="3.4"/><rect class="cls-2" x="23.11" y="71.47" width="29.2" height="6.8" rx="3.4"/><rect class="cls-2" x="23.11" y="64.67" width="29.2" height="6.8" rx="3.4"/><rect class="cls-2" x="123.47" y="218.26" width="30.76" height="7.16" rx="3.58"/><rect class="cls-2" x="123.47" y="211.1" width="30.76" height="7.16" rx="3.58"/><rect class="cls-2" x="123.47" y="203.95" width="30.76" height="7.16" rx="3.58"/><path class="cls-3" d="M210.59,27.48h32.21A40.21,40.21,0,0,1,283,67.69v135a21.94,21.94,0,0,1-21.94,21.94H192.32a21.94,21.94,0,0,1-21.94-21.94v-135A40.21,40.21,0,0,1,210.59,27.48Z"/><rect class="cls-4" x="204.61" y="19.51" width="37.63" height="8.76" rx="4.38"/><rect class="cls-4" x="204.61" y="10.76" width="37.63" height="8.76" rx="4.38"/><rect class="cls-4" x="204.61" y="2" width="37.63" height="8.76" rx="4.38"/><path class="cls-1" d="M160.18,203.37H117a13.25,13.25,0,0,1-13.2-12.16L90.81,35a6.91,6.91,0,0,1,6.88-7.48h81.75A6.92,6.92,0,0,1,186.33,35l-12.94,156.2A13.25,13.25,0,0,1,160.18,203.37Z"/><line class="cls-5" x1="99.48" y1="41.1" x2="145.54" y2="41.1"/><line class="cls-5" x1="155.04" y1="41.1" x2="161.08" y2="41.1"/><path class="cls-3" d="M70.71,121.54H85.09a21,21,0,0,1,21,21v75.63A10.74,10.74,0,0,1,95.34,228.9H60.45a10.74,10.74,0,0,1-10.74-10.74V142.54A21,21,0,0,1,70.71,121.54Z"/><rect class="cls-4" x="66.05" y="115.22" width="23.71" height="6.32" rx="2.95"/><rect class="cls-4" x="66.05" y="108.89" width="23.71" height="6.32" rx="2.95"/><rect class="cls-4" x="66.05" y="102.57" width="23.71" height="6.32" rx="2.95"/></g></g></svg>