<svg xmlns="http://www.w3.org/2000/svg" viewBox="0 0 286 277.72"><defs><style>.cls-1{fill:#ffb6ce;}.cls-2,.cls-3{fill:#fff;}.cls-2,.cls-3,.cls-4{stroke:#606060;stroke-linecap:round;stroke-linejoin:round;}.cls-2{stroke-width:6px;}.cls-3,.cls-4{stroke-width:4px;}.cls-4{fill:#aeb0ff;}</style></defs><g id="Layer_2" data-name="Layer 2"><g id="Layer_1-2" data-name="Layer 1"><path class="cls-1" d="M210.32,95.16S159-20.73,79,3.27c-92.26,27.68-5.85,214.29,33,247,57,48,166.48,40.74,129.24-84.13Z"/><path class="cls-2" d="M28.86,102.76h17.7a25.86,25.86,0,0,1,25.86,25.86v93.15A13.22,13.22,0,0,1,59.2,235h-43A13.22,13.22,0,0,1,3,221.77V128.62A25.86,25.86,0,0,1,28.86,102.76Z"/><rect class="cls-3" x="23.11" y="95.97" width="29.2" height="6.8" rx="3.4"/><rect class="cls-3" x="23.11" y="89.17" width="29.2" height="6.8" rx="3.4"/><rect class="cls-3" x="23.11" y="82.37" width="29.2" height="6.8" rx="3.4"/><rect class="cls-3" x="123.47" y="235.96" width="30.76" height="7.16" rx="3.58"/><rect class="cls-3" x="123.47" y="228.8" width="30.76" height="7.16" rx="3.58"/><rect class="cls-3" x="123.47" y="221.65" width="30.76" height="7.16" rx="3.58"/><path class="cls-2" d="M210.59,45.18h32.21A40.21,40.21,0,0,1,283,85.39v135a21.94,21.94,0,0,1-21.94,21.94H192.32a21.94,21.94,0,0,1-21.94-21.94v-135a40.21,40.21,0,0,1,40.21-40.21Z"/><rect class="cls-3" x="204.61" y="37.21" width="37.63" height="8.76" rx="4.38"/><rect class="cls-3" x="204.61" y="28.46" width="37.63" height="8.76" rx="4.38"/><rect class="cls-3" x="204.61" y="19.7" width="37.63" height="8.76" rx="4.38"/><path class="cls-2" d="M160.18,221.07H117a13.25,13.25,0,0,1-13.2-12.16L90.81,52.71a6.9,6.9,0,0,1,6.88-7.47h81.75a6.91,6.91,0,0,1,6.89,7.47l-12.94,156.2A13.25,13.25,0,0,1,160.18,221.07Z"/><line class="cls-4" x1="99.48" y1="58.8" x2="145.54" y2="58.8"/><line class="cls-4" x1="155.04" y1="58.8" x2="161.08" y2="58.8"/><path class="cls-2" d="M70.71,139.24H85.09a21,21,0,0,1,21,21v75.63A10.74,10.74,0,0,1,95.34,246.6H60.45a10.74,10.74,0,0,1-10.74-10.74V160.24A21,21,0,0,1,70.71,139.24Z"/><rect class="cls-3" x="66.05" y="132.92" width="23.71" height="6.32" rx="2.95"/><rect class="cls-3" x="66.05" y="126.6" width="23.71" height="6.32" rx="2.95"/><rect class="cls-3" x="66.05" y="120.27" width="23.71" height="6.32" rx="2.95"/></g></g></svg>