<svg xmlns="http://www.w3.org/2000/svg" viewBox="0 0 288.36 255.25"><defs><style>.cls-1{fill:#ffb6ce;}.cls-2,.cls-7{fill:#fff;}.cls-3{fill:#606060;}.cls-4,.cls-6{fill:#aeb0ff;}.cls-4,.cls-5,.cls-6,.cls-7{stroke:#606060;stroke-linecap:round;stroke-linejoin:round;}.cls-4,.cls-5{stroke-width:4px;}.cls-5{fill:none;}.cls-6,.cls-7{stroke-width:6px;}</style></defs><g id="Layer_2" data-name="Layer 2"><g id="Layer_1-2" data-name="Layer 1"><path class="cls-1" d="M57.65,40.29S14.36,24,2.36,60.68s26,81.67,19,95.67-40.45,78.84-1.22,94.42,68.77-19.56,95.22-10.42,55,18,86.71,13.86c40-5.22,69.55-50,69.42-72.92s36.19-73.15-7-90-30.16-15.9-26.35-44C241.76,20.8,222.52,3,168.44,27.15S63.93,45.23,57.65,40.29Z"/><path class="cls-2" d="M73.6,206.78a10,10,0,0,1-10-10V13a10,10,0,0,1,10-10h116a10,10,0,0,1,10,10V35.32l-.5.07a11.2,11.2,0,0,0,.5,22.16V196.77a10,10,0,0,1-10,10Z"/><path class="cls-3" d="M189.62,6a7,7,0,0,1,7,7V32.92a14.2,14.2,0,0,0,0,27V196.77a7,7,0,0,1-7,7H73.6a7,7,0,0,1-7-7V13a7,7,0,0,1,7-7h116m0-6H73.6a13,13,0,0,0-13,13V196.77a13,13,0,0,0,13,13h116a13,13,0,0,0,13-13V56.25A1.63,1.63,0,0,0,201,54.63h0a8.2,8.2,0,0,1-1.37-16.28,9.14,9.14,0,0,1,1.37-.11h.13a1.54,1.54,0,0,0,1.51-1.56V13a13,13,0,0,0-13-13Z"/><line class="cls-4" x1="107.03" y1="14.75" x2="109.21" y2="14.75"/><path class="cls-5" d="M95.31,14.75H86s-9.56,0-9.56,10.93V36.6"/><path class="cls-4" d="M171,194.93s16.34,2.12,16.34-10.36"/><path class="cls-6" d="M76.44,174.57v9.3s-.87,11,10.36,11"/><line class="cls-6" x1="187.33" y1="176.45" x2="187.33" y2="174.14"/><path class="cls-7" d="M102.14,154.3A2.86,2.86,0,0,1,99.33,151a3,3,0,0,1,3-2.37h1.51a2.6,2.6,0,0,0,2.6-2.6v-7.34a11.5,11.5,0,0,0-11.5-11.5H17.87a11.5,11.5,0,0,0-11.51,11.5V215.7a11.51,11.51,0,0,0,11.51,11.51H94.93a11.5,11.5,0,0,0,11.5-11.51V156.9a2.6,2.6,0,0,0-2.6-2.6Z"/><line class="cls-4" x1="54.97" y1="215.77" x2="52.11" y2="215.77"/><path class="cls-5" d="M70.3,215.77H82.47S95,215.77,95,201.48v-14.3"/><path class="cls-7" d="M285.29,135.09c-.17-14.17-16.62-19.21-23.08-19.21s-9-9.11,1.29-9.11,10.33-12,10.33-12V81c0-9.11-6.45-13.61-16.83-13.61-5.18,0-8.23-3.59-10-7.17a23.47,23.47,0,0,1-2.21-10.27V39.83c0-11.88-8.08-13.06-11.73-13s-11.74,1.11-11.74,13v10.1a23.47,23.47,0,0,1-2.21,10.27c-1.76,3.58-4.81,7.17-10,7.17-10.37,0-16.83,4.5-16.83,13.61V94.73s0,12,10.33,12,7.75,9.11,1.29,9.11-22.91,5-23.08,19.21,0,90.91,0,90.91-.16,17.35,14,17.35h76.37c14.2,0,14-17.35,14-17.35S285.45,149.26,285.29,135.09Z"/><line class="cls-4" x1="240.35" y1="231.27" x2="239.43" y2="231.27"/><path class="cls-5" d="M249.23,231.27H261.4s11.72,0,12.52-14.3a53.48,53.48,0,0,0,0-9.13"/><path class="cls-5" d="M208.44,127.78H205.3s-11.71,0-12.52,14.3c-.37,6.55,0,5.07,0,5.07"/><line class="cls-4" x1="223.93" y1="69.68" x2="243.03" y2="69.68"/></g></g></svg>