<svg xmlns="http://www.w3.org/2000/svg" viewBox="0 0 285 246.35"><defs><style>.cls-1,.cls-3,.cls-5{fill:#aeb0ff;}.cls-2{fill:#606060;}.cls-3,.cls-4,.cls-5{stroke:#606060;stroke-linecap:round;stroke-linejoin:round;}.cls-3,.cls-4{stroke-width:4px;}.cls-4{fill:none;}.cls-5{stroke-width:6px;}</style></defs><g id="Layer_2" data-name="Layer 2"><g id="Layer_1-2" data-name="Layer 1"><path class="cls-1" d="M70.24,206.78a10,10,0,0,1-10-10V13a10,10,0,0,1,10-10h116a10,10,0,0,1,10,10V35.32l-.5.07a11.2,11.2,0,0,0,.5,22.16V196.77a10,10,0,0,1-10,10Z"/><path class="cls-2" d="M186.26,6a7,7,0,0,1,7,7V32.92a14.2,14.2,0,0,0,0,27V196.77a7,7,0,0,1-7,7h-116a7,7,0,0,1-7-7V13a7,7,0,0,1,7-7h116m0-6h-116a13,13,0,0,0-13,13V196.77a13,13,0,0,0,13,13h116a13,13,0,0,0,13-13V56.25a1.63,1.63,0,0,0-1.62-1.62h0a8.2,8.2,0,0,1-1.37-16.28,9.14,9.14,0,0,1,1.37-.11h.13a1.54,1.54,0,0,0,1.51-1.56V13a13,13,0,0,0-13-13Z"/><line class="cls-3" x1="103.67" y1="14.75" x2="105.85" y2="14.75"/><path class="cls-4" d="M92,14.75H82.64s-9.57,0-9.57,10.93V36.6"/><path class="cls-3" d="M167.63,194.93S184,197.05,184,184.57"/><path class="cls-5" d="M73.08,174.57v9.3s-.87,11,10.36,11"/><line class="cls-5" x1="183.97" y1="176.45" x2="183.97" y2="174.14"/><path class="cls-5" d="M98.78,154.3A2.87,2.87,0,0,1,96,151a3,3,0,0,1,3-2.37h1.51a2.61,2.61,0,0,0,2.6-2.6v-7.34a11.5,11.5,0,0,0-11.5-11.5H14.51A11.5,11.5,0,0,0,3,138.64V215.7a11.51,11.51,0,0,0,11.51,11.51H91.57a11.5,11.5,0,0,0,11.5-11.51V156.9a2.61,2.61,0,0,0-2.6-2.6Z"/><line class="cls-3" x1="51.61" y1="215.77" x2="48.75" y2="215.77"/><path class="cls-3" d="M66.94,215.77H79.11s12.52,0,12.52-14.29v-14.3"/><path class="cls-5" d="M281.93,135.09c-.17-14.17-16.62-19.21-23.08-19.21s-9-9.11,1.29-9.11,10.33-12,10.33-12V81c0-9.11-6.45-13.61-16.83-13.61-5.18,0-8.23-3.59-10-7.17a23.47,23.47,0,0,1-2.21-10.27V39.83c0-11.88-8.08-13.06-11.74-13S218,28,218,39.83v10.1a23.47,23.47,0,0,1-2.21,10.27c-1.76,3.58-4.81,7.17-10,7.17-10.38,0-16.83,4.5-16.83,13.61V94.73s0,12,10.33,12,7.75,9.11,1.29,9.11-22.91,5-23.08,19.21,0,90.91,0,90.91-.16,17.35,14,17.35h76.37c14.2,0,14-17.35,14-17.35S282.09,149.26,281.93,135.09Z"/><line class="cls-3" x1="236.99" y1="231.27" x2="236.07" y2="231.27"/><path class="cls-3" d="M245.87,231.27H258s11.72,0,12.52-14.3a53.48,53.48,0,0,0,0-9.13"/><path class="cls-3" d="M205.08,127.78h-3.14s-11.71,0-12.52,14.3c-.37,6.55,0,5.07,0,5.07"/><line class="cls-3" x1="220.57" y1="69.68" x2="239.67" y2="69.68"/></g></g></svg>