<svg xmlns="http://www.w3.org/2000/svg" xmlns:xlink="http://www.w3.org/1999/xlink" viewBox="0 0 2232.18 838.91"><defs><style>.cls-1{fill:url(#linear-gradient);}.cls-2{fill:#006837;}.cls-3{fill:url(#linear-gradient-2);}.cls-4{stroke-miterlimit:10;fill:url(#linear-gradient-3);stroke:url(#linear-gradient-4);}.cls-5{fill:#009245;}.cls-6{fill:#ffce80;}.cls-7{fill:#ffcf8a;}.cls-8{fill:#ffdb8a;}.cls-9{fill:#db3737;}.cls-10{fill:#d8274d;}.cls-11{fill:#d32e0d;}.cls-12{fill:#9dd643;}.cls-13{fill:#95d630;}.cls-14{fill:url(#linear-gradient-5);}.cls-15{fill:#39b54a;}.cls-16{fill:#604726;}.cls-17{fill:#935625;}.cls-18{fill:#ffbd66;}.cls-19{fill:#d32c0b;}.cls-20{fill:#825825;}.cls-21{fill:#fff;}.cls-22{fill:#db3c1d;}</style><linearGradient id="linear-gradient" x1="143.21" y1="759.32" x2="141" y2="488.11" gradientUnits="userSpaceOnUse"><stop offset="0" stop-color="#37aa00"/><stop offset="0.01" stop-color="#39ab02"/><stop offset="0.2" stop-color="#6bc425"/><stop offset="0.3" stop-color="#7ece33"/></linearGradient><linearGradient id="linear-gradient-2" x1="1935.36" y1="483" x2="2093.94" y2="757.29" gradientUnits="userSpaceOnUse"><stop offset="0" stop-color="#1b7f00"/><stop offset="0.33" stop-color="#197c03"/><stop offset="0.62" stop-color="#12710a"/><stop offset="0.88" stop-color="#075f17"/><stop offset="1" stop-color="#00551f"/></linearGradient><linearGradient id="linear-gradient-3" x1="1081.58" y1="193.94" x2="1081.58" y2="876.31" gradientUnits="userSpaceOnUse"><stop offset="0" stop-color="#cc9a4a"/><stop offset="0.41" stop-color="#ca9749"/><stop offset="0.76" stop-color="#c38c45"/><stop offset="1" stop-color="#bb8041"/></linearGradient><linearGradient id="linear-gradient-4" x1="194.49" y1="391.76" x2="1968.67" y2="391.76" gradientUnits="userSpaceOnUse"><stop offset="0" stop-color="#cc9a4a"/><stop offset="1" stop-color="#cc9a4a"/></linearGradient><linearGradient id="linear-gradient-5" x1="1933.2" y1="728.52" x2="1935.67" y2="639.55" gradientUnits="userSpaceOnUse"><stop offset="0" stop-color="#37aa00"/><stop offset="0.01" stop-color="#39ab02"/><stop offset="0.2" stop-color="#6bc425"/><stop offset="0.29" stop-color="#7ece33"/></linearGradient></defs><g id="Layer_2" data-name="Layer 2"><g id="Layer_1-2" data-name="Layer 1"><path class="cls-1" d="M156.39,754.69C162,757.2,74.32,702,24.77,690c0,0,34.07-8.43,99.1,26.91,0,0-61.93-136.53-123.87-144.28,0,0,88.26.44,156.39,105.51,0,0,6.19-131.83-78.2-200,0,0,88.45,32.56,116.81,176.31,0,0,12.48-246-57.19-283.15,0,0,116.49,51.47,114,241.92l33.08,147L247.1,783s-36.52-4.61-84.52-6.1c0,0-31-27.88-65-24.75C97.55,752.16,123.87,740.15,156.39,754.69Z"/><path class="cls-2" d="M263.37,558.65S173.42,451.23,96,466.23c0,0,90.9,39.77,116.68,106.35,0,0-36.16-41.8-126,0,0,0,95.55-1.32,126,54.31L240,734.08l52.7-152Z"/><path class="cls-3" d="M1915.35,490.52c4.65-13.94,102.2-69.68,102.2,56.52,0,0,48-20.91,54.19,25.54s-9.29,37.17-9.29,37.17,66.58-48.22,77.42-7.85-17,34.17-17,34.17,51.1-5.51,55.74,15-4.64,38.83-4.64,38.83,57.29,2.06,34.06,36.8c0,0,41.81,14.54,15.48,25.41s-142.45,9.66-181.16,2.53-106.43-14.56-106.43-14.56Z"/><path class="cls-4" d="M1964.14,609.26s-12-17-2.81-36-7.23-53-7.23-53l-24-5,21-7,4-41-1-20-24-5h24l1-8h-38l41.22-10s6.78-32,0-42-2.22-29-.22-47-10-37-10-37c12-43-15-65-15-65h-31l26-14s2-20-25-52-36-23-36-23-53.12,13-116.23,23.62l18.23-70.62,47-80v-16s-78,83-82,85c-3.49,1.74-46.21,70.2-57.35,91.83a552.08,552.08,0,0,1-59.65,3.17c-95-1-165,20-373,28s-233-14-393-19-480,19-480,19-118-28-130-22-17,18-17,18l10,42-15,62-24.1,98,7.1,61,63,7-45,7,13,11-32,6s-7,61-6,96,14,55,14,55l44,10-34,8s-8,8,0,57,28,57.75,28,57.75l163-11.75s111,7,155,10c41.19,2.81,635.53,3.87,803-9.93,34.65,4.24,67.1,7.86,69,6.93,4-2,290,.15,290,.15l52-11.58c74.36-4.14,169-15.57,169-15.57s5-4,7-7,5-52,5-52l4-28C1973.19,634.26,1964.14,609.26,1964.14,609.26Z"/><path class="cls-5" d="M1816.1,1.26s-3,81,109,93C1925.1,94.26,1908.1-1.74,1816.1,1.26Z"/><path class="cls-6" d="M481.1,748.61s18,21.65,7,45.65,26.76,27.63,32,6-14-61-14-61Z"/><path class="cls-6" d="M1383.1,709.26s-20.71,87,14,78,8-78,8-78Z"/><path class="cls-7" d="M1482.1,739.26s10,31.49,0,43.75,21,5.56,23,4.91,11-20.66-4-48.66S1482.1,739.26,1482.1,739.26Z"/><path class="cls-8" d="M1790.1,709.26s-20,56.3,0,67.65,55,2.65,58,0,21-9.65-3-67.65-10-56-13-58-43,18-43,18Z"/><path class="cls-9" d="M470,726.82s-17,47.44,31.07,37.44,11.92-59.46,10.05-63C505.1,690,469.87,643.37,470,726.82Z"/><path class="cls-10" d="M1364.1,716.86s47,43.4,63-7.6-22-108-42-70S1355.35,710.08,1364.1,716.86Z"/><path class="cls-11" d="M1465.1,734.08c0,3.23-27.48,47.8,29.76,24.49s26.24-34.11,21.24-41.71S1465.1,671.9,1465.1,734.08Z"/><path class="cls-12" d="M646.84,801.75c-1.11-.36-.78-52.26-38.32-85.94,0,0,23.61,6.19,41,53,0,0-.78-73.16-15.1-92.51,0,0,20.52,19.74,32.52,83.22,0,0-3.49-41,9.29-73.55,0,0-12,45.29,0,81.68,0,0,1.16-39.87,23.61-55.74,0,0-19.74,28.64-13.55,60,0,0,1.16-21.68,22.07-32.9,0,0-19,10.06-15.87,39.48S694.06,799,694.06,799,665.81,807.94,646.84,801.75Z"/><path class="cls-13" d="M1599.48,787.92c-3.56-1.77-3.09-16.37-24-34.17,0,0,25.53,7.62,31,23.93,0,0-5.43-27.08,0-45.64,0,0,6.19,35.61,9.29,45.69,0,0,0-34.1,9.3-45.69,0,0-3.87,31,0,40.29,0,0,15.49-37.39,12.39-55.47,0,0,7.79,35.34.41,51.6,0,0,1.91-11.62,22.82-27.88a63.19,63.19,0,0,0-14.71,47.34S1620.38,798.26,1599.48,787.92Z"/><path class="cls-14" d="M1916.13,771.55s-17.81-87.48,64.26-179.61c0,0-52.65,69.54-54.2,173.35l1.55,17.31s-13.79,7.95-24.7,0S1881.29,626,1908.39,547C1908.39,547,1890.58,728.2,1916.13,771.55Z"/><path class="cls-5" d="M300.39,783s-7.73,27.34,31.75,31.55C332.14,814.56,331.35,785.94,300.39,783Z"/><path class="cls-5" d="M428.9,786.13s-24.77,1-10.84,28.43C418.06,814.56,449,811.26,428.9,786.13Z"/><path class="cls-5" d="M273,814.56s-25.25,1.12-20.6,24.35C252.39,838.91,282.76,836.67,273,814.56Z"/><path class="cls-5" d="M456.77,790.32s-10.83,22.26,31,30C487.74,820.33,484.65,794.51,456.77,790.32Z"/><path class="cls-5" d="M1458.5,790.32s-35.53-18.68-54.11,24.24C1404.39,814.56,1458.5,825.29,1458.5,790.32Z"/><path class="cls-5" d="M1537.55,790.32s-18.74,4.55-8.6,24.24C1529,814.56,1549.94,803.23,1537.55,790.32Z"/><path class="cls-5" d="M1680,787.92s5.29,31.72,59.94,26.64C1739.94,814.56,1724.25,785,1680,787.92Z"/><path class="cls-5" d="M1881.29,783.48s-26.12,6.09-23.9,23.79C1857.39,807.27,1883.27,808.24,1881.29,783.48Z"/><path class="cls-2" d="M224.1,205.26c-.46-7.31-56.87,23.58-50.68,77.78C173.42,283,228.32,273,224.1,205.26Z"/><path class="cls-15" d="M241.1,187.26s-56.84,18.36-56.84-52.87C184.26,134.39,229.81,136.39,241.1,187.26Z"/><path class="cls-16" d="M284.9,224.2S271.29,249,299.78,250.52,316,224.2,316,224.2,297.29,213.36,284.9,224.2Z"/><path class="cls-16" d="M324.65,257.23v13.94s12.9,9.29,17,0-4.13-17-4.13-17H326.71Z"/><path class="cls-17" d="M198.64,523.63c.58-2.53,57.88,6.12,57.88,6.12L207,537.49l33,24.26-15.62-2.07,7.41,10.84-17.55,12.9,13.39,16-32.48-4.18S192.91,548.61,198.64,523.63Z"/><path class="cls-17" d="M234.1,247.26c2.29-.35,58.55,32.68,58.55,32.68l-63.73-11.29Z"/><path class="cls-17" d="M224,746.54c.43,1.38,130.63,23.72,130.63,23.72l-22.32,6.61L247.1,783l-17.94-17.36Z"/><path class="cls-2" d="M195,776.91s55.84-38.27,89.9,13.41C284.9,790.32,242.9,828,195,776.91Z"/><path class="cls-18" d="M354.1,706.26c-2,3-58,102,17,101s24-46,33-94S354.1,706.26,354.1,706.26Z"/><path class="cls-19" d="M287.1,721.26s98.49,70,172.49-.64c0,0,34-35.6-21-72.6s-44-71-102-21S255.74,699.64,287.1,721.26Z"/><path class="cls-20" d="M1683.1,640.71c-3.87.78-52.65,36.39-22.45,52.65s58.83-12.87,58.83-12.87,17.81-14.23,13.94-35.91S1683.1,640.71,1683.1,640.71Z"/><path class="cls-16" d="M1903,363.55s-2.39,37.23,17,21.71,5.1-30.22,5.1-30.22S1902.37,349.61,1903,363.55Z"/><path class="cls-21" d="M1497.29,709.26c-1.17,1.19-9.29,25.08,8.77,17.49S1503.48,703,1497.29,709.26Z"/><path class="cls-21" d="M1482.1,739.26s3.32,11.39,8.48,4.68S1483.94,732,1482.1,739.26Z"/><ellipse class="cls-21" cx="1392.92" cy="646.78" rx="2.98" ry="4.34"/><circle class="cls-21" cx="1417.18" cy="660.02" r="2.27"/><ellipse class="cls-21" cx="1386.06" cy="673.27" rx="3.87" ry="7.21"/><circle class="cls-21" cx="1410.68" cy="644.62" r="2.17"/><path class="cls-21" d="M1414.91,701.1s-23.29-13.61-19,16.94c0,0,2,18.16,14.74,3.19S1421.52,703.68,1414.91,701.1Z"/><path class="cls-21" d="M299.78,660c.42-.41,64.4,34.69,19.34,78.41,0,0-91.32-22.07-18.92-78.82Z"/><path class="cls-21" d="M394.32,699c-.77,5.54-5.49,56.29,41.38,26.88s8.17-57.3,8.17-57.3S403.61,632.39,394.32,699Z"/><path class="cls-21" d="M348.9,638.13c-1.46.51-18.06-.51-7.22,17s28.38-4.65,25.8-8.52S363.87,633,348.9,638.13Z"/><path class="cls-21" d="M393.83,628.33s-10.82,12.9,0,11.87,8.23-11.87,8.23-11.87S398.32,620.86,393.83,628.33Z"/><path class="cls-21" d="M481.1,744.46s-4.71,15.48,6.64,12.9,5.32-12.39,4.47-12.9S482.71,729,481.1,744.46Z"/><path class="cls-21" d="M505.29,729.49c-.34,2,2.58,9.19,6.71,4.59S506.84,720.2,505.29,729.49Z"/><path class="cls-21" d="M489.22,688a1.73,1.73,0,0,0-2.87.07c-1.66,2.55-3.64,6.7,1.39,6.34S490.87,690.31,489.22,688Z"/><path class="cls-22" d="M1759.1,716.86c4.23,1.45,57,33.78,122-26.91s-34.82-84.15-38-89.42c-5-8.27-41-49-83,26.36S1753.93,715.09,1759.1,716.86Z"/><path class="cls-21" d="M1759,661.62s-35.62,37.16,7,32.51,31.06-36.67,29.41-39.69C1793.55,651.12,1776.5,625.3,1759,661.62Z"/><path class="cls-21" d="M1781.21,597.45s50,74.39,61.89,3.08C1843.1,600.53,1812.74,558.83,1781.21,597.45Z"/><path class="cls-21" d="M1843.1,716.55s-28.45-43.75,14.16-62.11,28.38,31.06,28.38,31.06S1852.13,718.07,1843.1,716.55Z"/></g></g></svg>