<svg xmlns="http://www.w3.org/2000/svg" xmlns:xlink="http://www.w3.org/1999/xlink" viewBox="0 0 2099.77 685.99"><defs><style>.cls-1{fill:url(#linear-gradient);}.cls-2{fill:#006837;}.cls-3{fill:url(#linear-gradient-2);}.cls-4{stroke-miterlimit:10;fill:url(#linear-gradient-3);stroke:url(#linear-gradient-4);}.cls-5{fill:#009245;}.cls-6{fill:#ffce80;}.cls-7{fill:#ffcf8a;}.cls-8{fill:#ffdb8a;}.cls-9{fill:#db3737;}.cls-10{fill:#d8274d;}.cls-11{fill:#d32e0d;}.cls-12{fill:#9dd643;}.cls-13{fill:#95d630;}.cls-14{fill:url(#linear-gradient-5);}.cls-15{fill:#39b54a;}.cls-16{fill:#604726;}.cls-17{fill:#935625;}.cls-18{fill:#ffbd66;}.cls-19{fill:#d32c0b;}.cls-20{fill:#825825;}.cls-21{fill:#fff;}.cls-22{fill:#db3c1d;}</style><linearGradient id="linear-gradient" x1="132.66" y1="-80.34" x2="130.8" y2="148.14" gradientTransform="matrix(1, 0.01, 0.01, -1, -1.46, 537.02)" gradientUnits="userSpaceOnUse"><stop offset="0" stop-color="#37aa00"/><stop offset="0.01" stop-color="#39ab02"/><stop offset="0.2" stop-color="#6bc425"/><stop offset="0.3" stop-color="#7ece33"/></linearGradient><linearGradient id="linear-gradient-2" x1="1888.88" y1="142.98" x2="2011.43" y2="-68.98" gradientTransform="matrix(1, 0.01, 0.01, -1, -1.46, 537.02)" gradientUnits="userSpaceOnUse"><stop offset="0" stop-color="#1b7f00"/><stop offset="0.33" stop-color="#197c03"/><stop offset="0.62" stop-color="#12710a"/><stop offset="0.88" stop-color="#075f17"/><stop offset="1" stop-color="#00551f"/></linearGradient><linearGradient id="linear-gradient-3" x1="1059.17" y1="385.78" x2="1059.17" y2="-177.2" gradientTransform="matrix(1, 0.01, 0.01, -1, -1.46, 537.02)" gradientUnits="userSpaceOnUse"><stop offset="0" stop-color="#cc9a4a"/><stop offset="0.41" stop-color="#ca9749"/><stop offset="0.76" stop-color="#c38c45"/><stop offset="1" stop-color="#bb8041"/></linearGradient><linearGradient id="linear-gradient-4" x1="172.09" y1="222.35" x2="1946.25" y2="222.35" gradientTransform="matrix(1, 0.01, 0.01, -1, -1.46, 537.02)" gradientUnits="userSpaceOnUse"><stop offset="0" stop-color="#cc9a4a"/><stop offset="1" stop-color="#cc9a4a"/></linearGradient><linearGradient id="linear-gradient-5" x1="1911.24" y1="-54.43" x2="1913.32" y2="20.5" gradientTransform="matrix(1, 0.01, 0.01, -1, -1.46, 537.02)" gradientUnits="userSpaceOnUse"><stop offset="0" stop-color="#37aa00"/><stop offset="0.01" stop-color="#39ab02"/><stop offset="0.2" stop-color="#6bc425"/><stop offset="0.29" stop-color="#7ece33"/></linearGradient></defs><g id="Layer_2" data-name="Layer 2"><g id="Layer_1-2" data-name="Layer 1"><g id="Layer_2-2" data-name="Layer 2"><g id="Layer_1-2-2" data-name="Layer 1-2"><path class="cls-1" d="M143.29,614.44c5.12,2.15-75.93-44.93-121.29-55.37,0,0,31.29-6.87,90.7,23.33,0,0-55.95-115.41-112.7-122.35,0,0,81.93,1,143.75,89.91,0,0,5.49-111-71.48-169,0,0,81.91,28,107,149.29,0,0,12.95-207.12-50.71-238.87,0,0,106.5,44.13,103,204.52l29.44,124-34.79,18.94s-33.46-4.13-77.46-5.7c0,0-29.26-23.7-60.45-21.29C88.35,611.91,113.56,602,143.29,614.44Z"/><path class="cls-2" d="M242.58,450s-82.82-91.08-153.9-79c0,0,84.1,34.11,107.33,90.36,0,0-33.9-35.45-116.53-.85,0,0,88.62-.46,116.2,46.59l24.4,90.47L269.33,470Z"/><path class="cls-3" d="M1892.49,404.62c3.15-11.72,67.78-58.2,67,48.09,0,0,31.76-17.38,35.56,21.77s-6.35,31.26-6.35,31.26,44.17-40.29,51.07-6.24-11.41,28.7-11.41,28.7,33.71-4.39,36.64,12.9-3.3,32.69-3.3,32.69,37.75,2,22.22,31.15c0,0,27.47,12.45,10.05,21.48s-93.94,7.46-119.4,1.26-70-12.77-70-12.77Z"/><path class="cls-4" d="M1940.56,505s-11.9-14.4-2.59-30.34-6.91-44.69-6.91-44.69l-24-4.39,21-5.74,4.26-34.5-.88-16.86-24-4.38,24,.17,1-6.73-38-.27,41.28-8.13s7-26.9.25-35.37-2-24.45.07-39.59-9.77-31.24-9.77-31.24c12.26-36.13-14.6-54.85-14.6-54.85l-31-.23,26.08-11.6s2.12-16.83-24.68-44-35.86-19.63-35.86-19.63-53.2,10.56-116.37,19.05l18.66-59.35,47.49-67-10.85,1.64s-67.56,54.22-71.57,55.88c-3.5,1.44-46.64,58.79-57.91,76.93q-29.73,2.47-59.67,2.24c-95-1.54-165.12,15.64-373.16,20.87S990.07,149.37,830.11,144,350,156.52,350,156.52s-117.82-24.44-129.86-19.47a35.38,35.38,0,0,0-17.11,15l9.75,35.45L197.4,239.64,172.7,322l6.73,51.43,62.95,6.35-45,5.57,12.93,9.36-32,4.82s-7.38,51.33-6.59,80.82,13.66,46.42,13.66,46.42l43.94,8.74L195.2,542s-8,6.68-.35,48,27.65,48.84,27.65,48.84l163.07-8.71s111,6.7,154.93,9.54c41.17,2.67,635.49,7.87,803-2.54,34.63,3.83,67,7.11,69,6.34,4-1.65,290,2.23,290,2.23l52.07-9.37c74.38-3,169.09-11.89,169.09-11.89s5-3.33,7-5.85,5.32-43.76,5.32-43.76l4.17-23.55C1949.45,526.11,1940.56,505,1940.56,505Z"/><path class="cls-5" d="M1789.66,6.08s15.53,66.5,126.1,46C1915.76,52.09,1877.57-21.18,1789.66,6.08Z"/><path class="cls-6" d="M456.7,611.59s17.87,18.37,6.73,38.5,26.59,23.47,32,5.29-13.63-51.48-13.63-51.48Z"/><path class="cls-6" d="M1358.92,585s-21.24,73.13,13.52,65.8,8.48-65.64,8.48-65.64Z"/><path class="cls-7" d="M1457.74,611s9.8,26.6-.27,36.85,21,4.83,23,4.3,11.12-17.32-3.7-41S1457.74,611,1457.74,611Z"/><path class="cls-8" d="M1765.9,589.4s-20.35,48.68-.43,58.67,55,2.69,58,.42,21.06-8.22-2.57-58.69-9.65-48.64-12.64-50.4-43.11,15.3-43.11,15.3Z"/><path class="cls-9" d="M445.74,593.16S428.45,633,476.58,624.92s12.28-50,10.43-53C481.06,562.4,446.12,522.87,445.74,593.16Z"/><path class="cls-10" d="M1339.88,591.26s46.73,36.89,63-6-21.34-91.12-41.57-59.26S1331.17,585.48,1339.88,591.26Z"/><path class="cls-11" d="M1440.77,606.49c0,2.72-27.77,40.06,29.61,20.85s26.45-28.54,21.49-35S1441.15,554.12,1440.77,606.49Z"/><path class="cls-12" d="M622.12,657.55c-1.11-.31-.46-44-37.8-72.66,0,0,23.57,5.39,40.68,44.94,0,0-.34-61.63-14.54-78,0,0,20.4,16.78,32,70.33,0,0-3.24-34.56,9.74-61.88,0,0-12.27,38.06-.5,68.8,0,0,1.41-33.58,23.95-46.78,0,0-19.91,24-13.91,50.44,0,0,1.29-18.26,22.27-27.55,0,0-19.06,8.33-16.11,33.13s1.44,17.29,1.44,17.29S641.05,662.9,622.12,657.55Z"/><path class="cls-13" d="M1574.82,652.82c-3.55-1.52-3-13.81-23.8-29,0,0,25.49,6.61,30.86,20.38,0,0-5.27-22.85.28-38.44,0,0,6,30,9,38.55,0,0,.21-28.72,9.58-38.41,0,0-4.06,26.08-.25,33.93,0,0,15.72-31.38,12.73-46.63,0,0,7.57,29.82.09,43.46,0,0,2-9.77,23-23.31-11.22,11-16.64,25.33-15,39.76C1621.31,653.15,1595.65,661.68,1574.82,652.82Z"/><path class="cls-14" d="M1891.56,641.33s-17.28-73.81,65.35-150.82c0,0-53.07,58.19-55.25,145.62l1.44,14.59s-13.84,6.59-24.7-.18-20.79-132.06,6.79-198.4C1885.19,452.14,1866.27,604.63,1891.56,641.33Z"/><path class="cls-5" d="M275.79,639.25s-7.9,23,31.56,26.8C307.35,666.06,306.73,642,275.79,639.25Z"/><path class="cls-5" d="M404.28,642.82s-24.78.66-11,23.86C393.26,666.68,424.22,664.13,404.28,642.82Z"/><path class="cls-5" d="M248.21,665.63S223,666.39,227.46,686C227.45,686,257.83,684.32,248.21,665.63Z"/><path class="cls-5" d="M432.12,646.55s-11,18.67,30.82,25.49C462.91,672.05,460,650.28,432.12,646.55Z"/><path class="cls-5" d="M1433.82,653.82s-35.41-16-54.25,20C1379.57,673.84,1433.61,683.27,1433.82,653.82Z"/><path class="cls-5" d="M1512.87,654.39s-18.76,3.69-8.75,20.35C1504.17,674.74,1525.18,665.35,1512.87,654.39Z"/><path class="cls-5" d="M1655.33,653.4s5.1,26.76,59.78,22.87C1715.11,676.27,1699.6,651.26,1655.33,653.4Z"/><path class="cls-5" d="M1856.65,651.12s-26.16,4.94-24.05,19.87C1832.6,671,1858.47,672,1856.65,651.12Z"/><path class="cls-2" d="M203,152.08c-.41-6.16-57,19.45-51.15,65.15C151.88,217.19,206.84,209.17,203,152.08Z"/><path class="cls-15" d="M220.14,137.05s-56.95,15-56.51-45C163.63,92.1,209.16,94.12,220.14,137.05Z"/><path class="cls-16" d="M263.71,168.48S250,189.27,278.43,190.75s16.38-22.05,16.38-22.05S276.17,159.44,263.71,168.48Z"/><path class="cls-16" d="M303.26,196.59l-.08,11.74s12.84,7.91,17,.12-4-14.35-4-14.35L305.34,194Z"/><path class="cls-17" d="M175.63,420.05c.59-2.13,57.84,5.58,57.84,5.58l-49.57,6.16,32.85,20.67-15.6-1.86,7.34,9.19-17.63,10.73,13.29,13.58-32.45-3.76S169.74,441.05,175.63,420.05Z"/><path class="cls-17" d="M212.78,187.53c2.29-.28,58.34,27.95,58.34,27.95l-63.66-10Z"/><path class="cls-17" d="M199.62,608c.43,1.17,130.49,20.93,130.49,20.93l-22.36,5.41-85.25,4.54-17.83-14.75Z"/><path class="cls-2" d="M170.44,633.35s56.07-31.82,89.82,11.95C260.26,645.3,218,676.73,170.44,633.35Z"/><path class="cls-18" d="M330,575c-2,2.51-58.62,85.49,16.38,85.19s24.28-38.57,33.57-78.93S330,575,330,575Z"/><path class="cls-19" d="M262.88,587.15s98.06,59.67,172.49.71c0,0,34.21-29.74-20.56-61.3s-43.56-60.12-101.87-18.43S231.65,568.71,262.88,587.15Z"/><path class="cls-20" d="M1659.33,529.43c-3.87.63-52.87,30.27-22.77,44.19s58.91-10.42,58.91-10.42,17.9-11.85,14.16-30.14S1659.33,529.43,1659.33,529.43Z"/><path class="cls-16" d="M1880.92,297.59s-2.62,31.34,16.87,18.41,5.28-25.42,5.28-25.42S1880.38,285.84,1880.92,297.59Z"/><path class="cls-21" d="M1473.11,585.82c-1.18,1-9.44,21.06,8.66,14.8S1479.34,580.59,1473.11,585.82Z"/><path class="cls-21" d="M1457.74,611s3.25,9.62,8.45,4S1459.62,604.88,1457.74,611Z"/><ellipse class="cls-21" cx="1369.12" cy="532.44" rx="3.66" ry="2.98" transform="translate(826.76 1897.66) rotate(-89.58)"/><ellipse class="cls-21" cx="1393.3" cy="543.77" rx="1.91" ry="2.27" transform="translate(839.44 1933.09) rotate(-89.58)"/><ellipse class="cls-21" cx="1362.1" cy="554.7" rx="6.07" ry="3.87" transform="translate(797.53 1912.74) rotate(-89.58)"/><ellipse class="cls-21" cx="1386.9" cy="530.75" rx="1.83" ry="2.17" transform="translate(846.1 1913.76) rotate(-89.58)"/><path class="cls-21" d="M1390.78,578.35s-23.21-11.63-19.1,14.13c0,0,1.89,15.31,14.72,2.8S1397.37,580.57,1390.78,578.35Z"/><path class="cls-21" d="M275.93,535.64c.42-.34,64.19,29.69,18.86,66.19,0,0-91.18-19.25-18.44-66.53Z"/><path class="cls-21" d="M370.23,569.18c-.8,4.66-5.83,47.37,41.22,22.94s8.51-48.2,8.51-48.2S379.93,513.14,370.23,569.18Z"/><path class="cls-21" d="M325.18,517.58c-1.46.42-18.05-.56-7.32,14.27s28.41-3.71,25.85-7S340.18,513.37,325.18,517.58Z"/><path class="cls-21" d="M370.17,509.65s-10.9,10.79-.07,10,8.3-9.94,8.3-9.94S374.71,503.39,370.17,509.65Z"/><path class="cls-21" d="M456.73,608.1s-4.8,13,6.56,10.91,5.4-10.4,4.55-10.83S458.43,595.09,456.73,608.1Z"/><path class="cls-21" d="M481,595.66c-.35,1.69,2.52,7.76,6.68,3.92S482.62,587.85,481,595.66Z"/><path class="cls-21" d="M465.2,560.6a2,2,0,0,0-2.41-.36,1.66,1.66,0,0,0-.47.4c-1.67,2.14-3.68,5.62,1.36,5.35S466.83,562.56,465.2,560.6Z"/><path class="cls-22" d="M1734.87,594.12c4.22,1.26,56.79,28.87,122.16-21.78s-34.31-71.13-37.46-75.59c-5-7-40.7-41.57-83.15,21.6S1729.71,592.59,1734.87,594.12Z"/><path class="cls-21" d="M1735.1,547.6s-35.84,31,6.8,27.43,31.29-30.66,29.66-33.22C1769.72,539,1752.82,517.13,1735.1,547.6Z"/><path class="cls-21" d="M1757.7,493.71s49.55,63,61.87,3C1819.57,496.75,1789.47,461.41,1757.7,493.71Z"/><path class="cls-21" d="M1818.86,594.47s-28.18-37.05,14.54-52.21,28.19,26.37,28.19,26.37S1827.89,595.82,1818.86,594.47Z"/></g></g></g></g></svg>