<svg xmlns="http://www.w3.org/2000/svg" viewBox="0 0 265.04 81"><defs><style>.cls-1{fill:#369300;}</style></defs><g id="Layer_2" data-name="Layer 2"><g id="tape"><path class="cls-1" d="M2.7,4l-2.1,1A1.08,1.08,0,0,0,.55,7l4.1,2.35A1.08,1.08,0,0,1,4.93,11L.64,16a1.09,1.09,0,0,0,.29,1.65l4.39,2.51A1.08,1.08,0,0,1,5.41,22L1.77,24.59a1.08,1.08,0,0,0,.39,1.94l4,.88a1.09,1.09,0,0,1,.32,2L.81,32.79a1.08,1.08,0,0,0,.21,2L6,36.39a1.09,1.09,0,0,1,.36,1.86L2,41.94a1.08,1.08,0,0,0,.22,1.79l5.38,2.69A1.09,1.09,0,0,1,8,48L3.45,54.11a1.09,1.09,0,0,0,.24,1.53L8.44,59a1.08,1.08,0,0,1-.07,1.81L1.42,65a1.08,1.08,0,0,0,.05,1.88l10.12,5.46a1.08,1.08,0,0,1,.3,1.66L7.36,79.2A1.09,1.09,0,0,0,8.18,81h247a1.08,1.08,0,0,0,.77-1.85l-2-2a1.09,1.09,0,0,1,.33-1.76l5.93-2.64a1.08,1.08,0,0,0,.24-1.83l-2.52-2a1.08,1.08,0,0,1,0-1.71l5.38-4a1.08,1.08,0,0,0-.22-1.86l-3-1.28a1.08,1.08,0,0,1,0-2l4.06-1.8a1.09,1.09,0,0,0-.13-2l-4.91-1.47a1.09,1.09,0,0,1-.26-2L263.25,48a1.08,1.08,0,0,0,0-1.86l-4-2.28a1.08,1.08,0,0,1-.11-1.81l5.49-4.12a1.08,1.08,0,0,0,0-1.75l-4.33-3.09a1.08,1.08,0,0,1,.15-1.85l2.72-1.36a1.09,1.09,0,0,0,.11-1.88L257.34,24a1.09,1.09,0,0,1,.12-1.88l4.76-2.38a1.08,1.08,0,0,0,.17-1.83L257.12,14a1.08,1.08,0,0,1,.13-1.81l4.57-2.54a1.09,1.09,0,0,0-.41-2l-3.59-.39a1.09,1.09,0,0,1-.7-1.79l3.13-3.65A1.08,1.08,0,0,0,259.43,0H3.07a1.08,1.08,0,0,0-.43,2.08h0A1.08,1.08,0,0,1,2.7,4Z"/></g></g></svg>