<svg xmlns="http://www.w3.org/2000/svg" viewBox="0 0 192.67 81"><defs><style>.cls-1{fill:#d4feff;}</style></defs><g id="Layer_2" data-name="Layer 2"><g id="tape"><path class="cls-1" d="M190.22,77l1.89-1.08a1.09,1.09,0,0,0,.06-1.87l-3.66-2.38a1.09,1.09,0,0,1-.28-1.58l3.86-5.12a1.09,1.09,0,0,0-.27-1.58l-3.91-2.54a1.09,1.09,0,0,1-.1-1.77l3.29-2.67a1.1,1.1,0,0,0-.42-1.92l-3.43-.86a1.1,1.1,0,0,1-.35-2l5-3.43a1.1,1.1,0,0,0-.23-1.94l-4.34-1.64A1.1,1.1,0,0,1,187,42.8L190.88,39a1.1,1.1,0,0,0-.23-1.74l-4.75-2.7a1.09,1.09,0,0,1-.38-1.56l4.09-6.19a1.1,1.1,0,0,0-.22-1.46l-4.25-3.44a1.1,1.1,0,0,1,.08-1.76L191.4,16a1.1,1.1,0,0,0-.05-1.85L182.4,8.64A1.1,1.1,0,0,1,182.1,7l4.05-5.26A1.1,1.1,0,0,0,185.28,0H8.58a1.1,1.1,0,0,0-.84,1.81L9.56,4a1.11,1.11,0,0,1-.33,1.69L4.18,8.28a1.11,1.11,0,0,0-.25,1.78l2.25,2.11a1.1,1.1,0,0,1,0,1.63L1.48,17.93a1.1,1.1,0,0,0,.23,1.8L4.3,21a1.1,1.1,0,0,1,0,1.95L.8,24.83a1.1,1.1,0,0,0,.14,2L5.1,28.31a1.1,1.1,0,0,1,.28,1.92L1.52,33.08a1.09,1.09,0,0,0,0,1.79L5,37.21a1.1,1.1,0,0,1,.11,1.73L.37,43.16a1.1,1.1,0,0,0,0,1.66L4.17,48A1.1,1.1,0,0,1,4,49.79L1.65,51.18A1.1,1.1,0,0,0,1.53,53l5.11,4a1.11,1.11,0,0,1-.12,1.81l-4.1,2.41A1.1,1.1,0,0,0,2.25,63l4.57,4a1.1,1.1,0,0,1-.12,1.74L2.75,71.38a1.09,1.09,0,0,0,.45,2l2.87.38a1.1,1.1,0,0,1,.74,1.74L4.08,79.26A1.1,1.1,0,0,0,5,81H189.8a1.1,1.1,0,0,0,.48-2.09h0A1.09,1.09,0,0,1,190.22,77Z"/></g></g></svg>