<svg id="Layer_11" data-name="Layer 11" xmlns="http://www.w3.org/2000/svg" viewBox="0 0 1044 1282"><defs><style>.cls-1{fill:#fff;}</style></defs><circle class="cls-1" cx="519" cy="953" r="3"/><circle class="cls-1" cx="475" cy="975" r="4"/><circle class="cls-1" cx="498.5" cy="978.5" r="3.5"/><circle class="cls-1" cx="517.5" cy="931.5" r="1.5"/><circle class="cls-1" cx="471.5" cy="1049.5" r="3.5"/><circle class="cls-1" cx="580" cy="983" r="4"/><circle class="cls-1" cx="511.5" cy="1039.5" r="2.5"/><circle class="cls-1" cx="458.5" cy="948.5" r="4.5"/><circle class="cls-1" cx="489" cy="951" r="3"/><circle class="cls-1" cx="463" cy="991" r="4"/><circle class="cls-1" cx="541" cy="936" r="3"/><circle class="cls-1" cx="727" cy="1064" r="3"/><circle class="cls-1" cx="797.5" cy="1118.5" r="1.5"/><circle class="cls-1" cx="274.5" cy="884.5" r="2.5"/><circle class="cls-1" cx="312.5" cy="890.5" r="2.5"/><circle class="cls-1" cx="305.5" cy="902.5" r="2.5"/><circle class="cls-1" cx="180" cy="777" r="2"/><circle class="cls-1" cx="365.5" cy="675.5" r="2.5"/><circle class="cls-1" cx="334" cy="707" r="2"/><circle class="cls-1" cx="180" cy="463" r="2"/><circle class="cls-1" cx="262" cy="526" r="2"/><circle class="cls-1" cx="306" cy="534" r="2"/><circle class="cls-1" cx="311.5" cy="341.5" r="3.5"/><circle class="cls-1" cx="328" cy="348" r="2"/><circle class="cls-1" cx="484.5" cy="341.5" r="3.5"/><circle class="cls-1" cx="526" cy="373" r="3"/><circle class="cls-1" cx="483" cy="396" r="2"/><circle class="cls-1" cx="545" cy="477" r="2"/><circle class="cls-1" cx="495.5" cy="552.5" r="2.5"/><circle class="cls-1" cx="505.5" cy="563.5" r="1.5"/><circle class="cls-1" cx="546.5" cy="629.5" r="3.5"/><circle class="cls-1" cx="504" cy="682" r="4"/><circle class="cls-1" cx="531" cy="750" r="4"/></svg>