<svg id="Layer_12" data-name="Layer 12" xmlns="http://www.w3.org/2000/svg" viewBox="0 0 1044 1282"><defs><style>.cls-1{fill:#fff;}</style></defs><circle class="cls-1" cx="498.5" cy="924.5" r="3.5"/><circle class="cls-1" cx="508" cy="960" r="4"/><circle class="cls-1" cx="485.5" cy="991.5" r="3.5"/><circle class="cls-1" cx="483.5" cy="967.5" r="3.5"/><circle class="cls-1" cx="475" cy="922" r="3"/><circle class="cls-1" cx="513.5" cy="888.5" r="3.5"/><circle class="cls-1" cx="528.5" cy="969.5" r="5.5"/><circle class="cls-1" cx="522.5" cy="913.5" r="3.5"/><circle class="cls-1" cx="472.5" cy="900.5" r="4.5"/><circle class="cls-1" cx="554.5" cy="954.5" r="3.5"/><circle class="cls-1" cx="451.5" cy="1003.5" r="3.5"/><circle class="cls-1" cx="564" cy="1022" r="4"/><circle class="cls-1" cx="573.5" cy="1002.5" r="2.5"/><circle class="cls-1" cx="524" cy="1092" r="2"/><circle class="cls-1" cx="536.5" cy="1101.5" r="2.5"/><circle class="cls-1" cx="612.5" cy="1031.5" r="2.5"/><circle class="cls-1" cx="690.5" cy="1183.5" r="2.5"/><circle class="cls-1" cx="703" cy="1168" r="3"/><circle class="cls-1" cx="485.5" cy="777.5" r="2.5"/><circle class="cls-1" cx="176" cy="802" r="2"/><circle class="cls-1" cx="174" cy="819" r="4"/><circle class="cls-1" cx="404.5" cy="955.5" r="2.5"/><circle class="cls-1" cx="338" cy="677" r="2"/><circle class="cls-1" cx="198" cy="485" r="3"/><circle class="cls-1" cx="190.5" cy="417.5" r="2.5"/><circle class="cls-1" cx="181" cy="430" r="3"/><circle class="cls-1" cx="292" cy="364" r="2"/><circle class="cls-1" cx="507.5" cy="392.5" r="3.5"/><circle class="cls-1" cx="518.5" cy="403.5" r="1.5"/><circle class="cls-1" cx="483.5" cy="636.5" r="3.5"/><circle class="cls-1" cx="520.5" cy="848.5" r="2.5"/></svg>