<svg id="Layer_13" data-name="Layer 13" xmlns="http://www.w3.org/2000/svg" viewBox="0 0 1044 1282"><defs><style>.cls-1{fill:#fff;}</style></defs><circle class="cls-1" cx="502.5" cy="944.5" r="3.5"/><circle class="cls-1" cx="474.5" cy="961.5" r="3.5"/><circle class="cls-1" cx="476" cy="1001" r="4"/><circle class="cls-1" cx="446" cy="1018" r="3"/><circle class="cls-1" cx="455" cy="970" r="6"/><circle class="cls-1" cx="463" cy="921" r="4"/><circle class="cls-1" cx="499.5" cy="869.5" r="4.5"/><circle class="cls-1" cx="518.5" cy="979.5" r="4.5"/><circle class="cls-1" cx="533.5" cy="900.5" r="4.5"/><circle class="cls-1" cx="499" cy="1050" r="4"/><circle class="cls-1" cx="667" cy="1032" r="3"/><circle class="cls-1" cx="612.5" cy="1144.5" r="2.5"/><circle class="cls-1" cx="598.5" cy="1148.5" r="2.5"/><circle class="cls-1" cx="631.5" cy="997.5" r="4.5"/><circle class="cls-1" cx="768.5" cy="1117.5" r="4.5"/><circle class="cls-1" cx="270" cy="386" r="2"/><circle class="cls-1" cx="251" cy="383" r="3"/><circle class="cls-1" cx="401" cy="315" r="4"/><circle class="cls-1" cx="492" cy="482" r="3"/><circle class="cls-1" cx="534.5" cy="518.5" r="3.5"/><circle class="cls-1" cx="466.5" cy="712.5" r="3.5"/></svg>