<svg xmlns="http://www.w3.org/2000/svg" viewBox="0 0 145 186.41"><defs><style>.cls-1{fill:#ce6f30;}.cls-2{fill:#724520;}.cls-3{fill:#442f1f;}</style></defs><g id="Layer_2" data-name="Layer 2"><g id="도토리"><path class="cls-1" d="M139,97.11c0,42.05-28.83,89.3-65,89.3S8,139.16,8,97.11s30.83-51.7,67-51.7S139,55.06,139,97.11Z"/><path class="cls-2" d="M26,38.41c7.77-4.58,21.26-8.54,34.74-10.68L55,6.41s-2-4,5-6,8,4,8,4V26.75a94.32,94.32,0,0,1,20-.34c42.84,4.76,57,37.08,57,60s-31.41,24-72,24c-13,0-73-1.08-73-24C0,73.48,8.62,48.65,26,38.41Z"/><circle class="cls-3" cx="34" cy="82.41" r="3"/><circle class="cls-3" cx="44" cy="91.41" r="2"/><circle class="cls-3" cx="30" cy="57.41" r="3"/><circle class="cls-3" cx="52" cy="66.41" r="3"/></g></g></svg>