<svg xmlns="http://www.w3.org/2000/svg" viewBox="0 0 145 199.41"><defs><style>.cls-1{fill:#d18b2f;}.cls-2{fill:#875e29;}.cls-3{fill:#603813;}</style></defs><g id="Layer_2" data-name="Layer 2"><g id="도토리"><path class="cls-1" d="M138,104.41c0,44.73-28.83,95-65,95s-66-50.27-66-95,30.83-55,67-55S138,59.67,138,104.41Z"/><path class="cls-2" d="M119,38.41c-7.77-4.58-21.26-8.54-34.74-10.68L90,6.41s2-4-5-6-8,4-8,4V26.75a94.32,94.32,0,0,0-20-.34c-42.84,4.76-57,37.08-57,60s31.41,24,72,24c13,0,73-1.08,73-24C145,73.48,136.38,48.65,119,38.41Z"/><circle class="cls-3" cx="33" cy="86.41" r="3"/><circle class="cls-3" cx="43" cy="95.41" r="2"/><circle class="cls-3" cx="29" cy="61.41" r="3"/><circle class="cls-3" cx="51" cy="70.41" r="3"/></g></g></svg>