<svg xmlns="http://www.w3.org/2000/svg" viewBox="0 0 145 181.41"><defs><style>.cls-1{fill:#efaf3f;}.cls-2{fill:#b2732f;}.cls-3{fill:#965622;}</style></defs><g id="Layer_2" data-name="Layer 2"><g id="도토리"><path class="cls-1" d="M138,96.54c0,40-28.39,84.87-64,84.87S9,136.5,9,96.54,39.35,47.41,75,47.41,138,56.58,138,96.54Z"/><path class="cls-2" d="M119,38.41c-7.77-4.58-21.26-8.54-34.74-10.68L90,6.41s2-4-5-6-8,4-8,4V26.75a94.32,94.32,0,0,0-20-.34c-42.84,4.76-57,37.08-57,60s31.41,24,72,24c13,0,73-1.08,73-24C145,73.48,136.38,48.65,119,38.41Z"/><circle class="cls-3" cx="123.08" cy="63.65" r="2.89"/><circle class="cls-3" cx="115.89" cy="52.84" r="1.93"/><circle class="cls-3" cx="120.82" cy="87.96" r="2.89"/><circle class="cls-3" cx="102.43" cy="74.28" r="2.89"/></g></g></svg>