<svg xmlns="http://www.w3.org/2000/svg" viewBox="0 0 2452.88 438.5"><defs><style>.cls-1{fill:#19682c;}.cls-2{fill:#006837;}.cls-3{fill:#1d7f30;}.cls-4{fill:#7da820;}</style></defs><g id="Layer_2" data-name="Layer 2"><g id="Layer_1-2" data-name="Layer 1"><path class="cls-1" d="M2179,302.32a78.31,78.31,0,0,0,12.36-38.88c1.45-34.15-19.85-64.82-52.45-81.5a32.13,32.13,0,0,0,9.68-21.49c.79-18.7-15.12-34.56-35.54-35.42s-37.6,13.59-38.39,32.29a31.22,31.22,0,0,0,1.69,11.56,122.85,122.85,0,0,0-23.22,3.39,73.31,73.31,0,0,0-69.27-62.8,72.41,72.41,0,0,0-37.91,8.82c-3.05-25.81-20.31-45.87-42-46.79A37.8,37.8,0,0,0,1882,77.58c-6.1-16.44-20-28.18-36.55-28.88a37.46,37.46,0,0,0-21,5.46c-13.53-25.43-37-42.69-64.36-43.85-20.29-.85-39.19,7.29-54,21.42a75.1,75.1,0,0,0-52.86-21.48c-33.49,0-61.8,21.53-71,51.12a69.65,69.65,0,0,0-32.29-9.49c-31-1.31-58.28,17.89-69.51,45.91a50,50,0,0,0-8.17-.69,49.44,49.44,0,0,0-48.47,59.08c-24.2,4.95-42.24,24-42.24,46.73a42.61,42.61,0,0,0,2.58,14.58c0,.57-.08,1.15-.1,1.73-1.56,36.77,25.36,67.78,60.12,69.25a59.55,59.55,0,0,0,16-1.49,90,90,0,0,0,43.47,13,94.57,94.57,0,0,0,16.58-.76,37.05,37.05,0,0,0-3,13.1c-1.34,31.84,39.42,59.41,91,61.6,26.7,1.12,51.08-4.76,68.58-15.11a69.47,69.47,0,0,0,16.52-1.89,91.4,91.4,0,0,0,96.92,1.7,101.8,101.8,0,0,0,10.37-.17,60.27,60.27,0,0,0,25.27,6.73,61.39,61.39,0,0,0,8.49-.25c11.42,7.08,27.6,11.87,45.72,12.63,14.89.63,28.71-1.56,39.81-5.75a98.06,98.06,0,0,0,52.29,17.5,99.85,99.85,0,0,0,32.7-4c13.24,9.43,31.84,15.71,52.64,16.59,30.26,1.27,56.81-9.21,69.43-25.4a58.54,58.54,0,0,0,33.37,11.8c29,1.23,53.38-17.57,54.41-42C2215.61,326.24,2200.47,308.66,2179,302.32Z"/><path class="cls-2" d="M611.61,166.22c0-16.74-14.21-30.3-31.74-30.3a32.57,32.57,0,0,0-18.55,5.72c-4.06-17.48-16.86-31-32.49-32.39-12.82-1.14-24.33,6.15-30.94,18a14.67,14.67,0,0,0-8.25-3.64,13.56,13.56,0,0,0-9.71,3.06c-4.74-13.23-16.15-23.2-29.79-24.41a30.11,30.11,0,0,0-19.34,4.88C427.94,94,418.09,84.24,406.35,84.24c-10.63,0-19.71,8-23.46,19.25C374.56,84.39,354.83,71,331.81,71a56.17,56.17,0,0,0-43.17,19.82C275.79,62.09,249.45,42.4,219,42.4c-43.06,0-78,39.39-78,88A95.45,95.45,0,0,0,155.28,181c-.53-.13-1.06-.25-1.6-.36-35.74-7.12-68.22,13-72.52,44.92a55.4,55.4,0,0,0,3.78,28.34c-9,2-16.72,5.56-22.53,10.35l-.81-.17c-32-6.37-59.5.42-61.49,15.17s22.32,31.87,54.28,38.24a124.17,124.17,0,0,0,14.71,2.05c10.65,8.9,25.26,15.93,41.86,19.24a100,100,0,0,0,20.28,2,116.88,116.88,0,0,0,45.2,11.08c11.91,8.13,27.05,14.56,43.92,17.92a118.46,118.46,0,0,0,36.19,1.78c19.71,18.22,53.73,32.09,92.76,35.56,62.35,5.54,113.84-17.52,115-51.52.28-8.13-2.34-16.14-7.34-23.71,10.58-9.88,18.28-23.81,21.43-40a63.52,63.52,0,0,0,19.51,5c34.64,3.08,64.08-23.3,68.4-59.91a30.76,30.76,0,0,0,6.13,1.18c20.73,1.85,38.25-17.39,39.13-42.95a57.16,57.16,0,0,0-2.19-17.79A29,29,0,0,0,611.61,166.22Z"/><path class="cls-3" d="M1563.46,269.62a77,77,0,0,0-12.54,1c-3.94-31-34.24-55.13-71.06-55.13a82.6,82.6,0,0,0-13.46,1.11c0-.4,0-.79,0-1.19,0-15.48-15.45-28.3-35.68-30.7C1422,172,1405.9,163.5,1387.54,163.5a57,57,0,0,0-17.66,2.77c-5.46-25.72-31.43-45.2-62.67-45.2a70.64,70.64,0,0,0-34.59,8.85l-.41.11c-1.7-29-29.42-52.15-63.36-52.15-24.9,0-46.45,12.45-56.83,30.55a107.54,107.54,0,0,0-18.62-6.28,48,48,0,0,0-11.26-2.11,114.47,114.47,0,0,0-14.92-1c-27.34,0-52.07,9.67-69.9,25.28a60,60,0,0,0-37.9-.41c-9.25-8.2-22.42-13.34-37-13.34a63,63,0,0,0-6.34.34c-7.78-19.16-31-33.06-58.36-33.06a77,77,0,0,0-22.75,3.39,45.15,45.15,0,0,0-72.85-29C789,33.87,768.41,22,745.23,22a67.16,67.16,0,0,0-32.29,8.27C700.27,12.18,676.57,0,649.42,0c-22.17,0-42,8.12-55.48,21-12.19-13-28.34-21-46.08-21-30.94,0-57.1,24.16-65.68,57.37A66.55,66.55,0,0,0,446.68,47c-38.61,0-70.47,34-75.25,77.94-22.72.57-42.1,25.68-43.92,57.79a84.18,84.18,0,0,0,.36,13.9,73,73,0,0,0-66.9,99.8c-21.28,3.45-36.84,14.38-37.63,28.29-1,18.16,23.45,34.49,54.68,36.49a93,93,0,0,0,19.78-.8,9.55,9.55,0,0,0-2.53,6.1c0,21.4,91.63,38.75,204.66,38.75,68.43,0,129-6.36,166.16-16.13a62.82,62.82,0,0,0,66.63,1,78.45,78.45,0,0,0,39.33,13.79c16.29,1,31.91-3.22,45.82-11.58q2.65-.68,5.2-1.56a128.71,128.71,0,0,0,13.88.76c1.9,0,3.77-.06,5.63-.14a42.61,42.61,0,0,0,16,3.15,43.76,43.76,0,0,0,27.52-10A48.93,48.93,0,0,0,907,390.83c15.87,1,30.73-5.93,42.17-18l1.32-.55c8.08,13.7,19.86,22.64,33.42,23.51,10.6.68,20.68-3.68,29.15-11.61.49,0,1,0,1.46,0h.29a62.66,62.66,0,0,0,29.77,9.78,62,62,0,0,0,16.06-1.07c8.66,11.92,20.88,19.7,34.78,20.59,15.42,1,29.74-6.7,40-19.68A104.3,104.3,0,0,0,1180,378.12c4.71,34.21,30.81,60.38,62.3,60.38,26.31,0,48.85-18.28,58.31-44.25,2.23.17,4.47.29,6.75.29a87.87,87.87,0,0,0,45.13-12.47c12.07,13.11,33.21,21.81,57.29,21.81,16,0,30.63-3.83,42.23-10.22a51,51,0,0,0,9.37.88c17.4,0,33-8.81,43.29-22.65,5.49,7.5,13.73,12.28,23,12.28a26.72,26.72,0,0,0,11.82-2.78,75.8,75.8,0,0,0,24.07,3.89c36.84,0,66.71-25.89,66.71-57.83S1600.3,269.62,1563.46,269.62Z"/><path class="cls-4" d="M2452.88,297.89c0-26.72-27.34-48.41-61.27-48.84-9-11.8-22.23-19.26-37-19.26a43.29,43.29,0,0,0-13.1,2c-1.2-15.08-8.6-28.57-19.89-38.36a28.8,28.8,0,0,0,6.68-18.17c0-18.5-18.68-33.49-41.72-33.49a52,52,0,0,0-8.92.77c-5.91-30-35.85-52.85-71.93-52.85a81.54,81.54,0,0,0-32.57,6.69c-7.45-31.13-32.35-54-61.94-54-20.82,0-39.31,11.34-51,28.89a47.2,47.2,0,0,0-78,46.07c-15.36,4.59-27.17,19.21-29.78,37.37-34,2.5-61.6,24-67.86,51.83a38.28,38.28,0,0,0-27.13,57.25c-29.21,9.78-49.25,28.69-50.19,50.54a29.47,29.47,0,0,0-41.71,26.82,29.49,29.49,0,0,0,27.6,29.42,37.73,37.73,0,0,0,64.06-2.6,144,144,0,0,0,45.78,7.2c3,0,6-.1,9-.27,8.55,10.54,19.77,16.95,32.08,16.95,12.48,0,23.86-6.58,32.45-17.4a33.36,33.36,0,0,0,5.59.68,71.94,71.94,0,0,0,40.46,12c16.24,0,31-5,42.28-13.28a48.62,48.62,0,0,0,32.79-3.68,31.74,31.74,0,0,0,5.45.47A33.8,33.8,0,0,0,2127,360.32a175.79,175.79,0,0,0,97.45-.48c12.61,9.23,34.49,15.34,59.39,15.34,23.73,0,44.72-5.55,57.55-14.06,8.28,8.41,23.57,14.06,41.09,14.06,26.3,0,47.62-12.73,47.62-28.43a18.44,18.44,0,0,0-2.71-9.45C2442.85,328.41,2452.88,314.07,2452.88,297.89Z"/></g></g></svg>