<?xml version="1.0" encoding="utf-8"?>
<!-- Generator: Adobe Illustrator 25.2.3, SVG Export Plug-In . SVG Version: 6.00 Build 0)  -->
<svg version="1.1" id="Layer_1" xmlns="http://www.w3.org/2000/svg" xmlns:xlink="http://www.w3.org/1999/xlink" x="0px" y="0px"
	 viewBox="0 0 2452.9 438.5" style="enable-background:new 0 0 2452.9 438.5;" xml:space="preserve">
<style type="text/css">
	.st0{fill:#006837;}
	.st1{fill:#19682C;}
	.st2{fill:#1D7F30;}
	.st3{fill:#7DA820;}
</style>
<g>
	<path class="st0" d="M330.8,199.9c-16.6-0.1-32.4,7.2-43.2,19.8c-12.8-28.7-39.2-48.4-69.7-48.4c-43.1,0-78,39.4-78,88
		c-0.1,17.9,4.9,35.4,14.3,50.6c-0.5-0.1-1.1-0.2-1.6-0.4c-35.7-7.1-68.2,13-72.5,44.9c-1.2,9.6,0.1,19.4,3.8,28.3
		c-9,2-16.7,5.6-22.5,10.3l-0.8-0.2c-9.9-2-19.4-2.7-27.8-2.3c0,0-33.4-0.9-32.8,47.8h32.8h4.9H230c6.7-6.4,63.4-7.7,76-9.7
		c-3.2-8.2-0.7-12.8-0.8-21.7c-0.6-40.3,68.8-18.8,109.2-19.4c-0.5-4.6,23.7-52.7,24-57.3c1.8-32.1-50.6-42.8-27.9-43.4
		c1.1-10.2-36.4-53.2-32.6-62C368.2,210,350.7,199.9,330.8,199.9z"/>
	<g>
		<path class="st1" d="M1911.7,426.8c-2.5-4.2,8.1-33.1,7.4-37.9c-3.2-20.9-3.1-18.8,17.8-22.1c6.3-27.8,26-35.4,60-37.9
			c2.6-18.2,15.2-63.5,30.6-68.1c-0.7-2.6-47.3-19.8-47.5-22.4c-12.2,0-24.2,3-35,8.9c-3.1-25.8-20.3-45.9-42-46.8
			c-7.8-0.3-15.5,1.8-22,6.1c-6.1-16.4-20-28.2-36.6-28.9c-7.4-0.3-14.7,1.6-21,5.5c-13.5-25.4-37-42.7-64.4-43.8
			c-20.3-0.8-39.2,7.3-54,21.4c-14.1-13.8-33.1-21.6-52.9-21.5c-33.5,0-61.8,21.5-71,51.1c-9.8-5.8-20.9-9-32.3-9.5
			c-31-1.3-58.3,17.9-69.5,45.9c-2.7-0.4-5.4-0.7-8.2-0.7c-27.3,0.1-49.4,22.2-49.3,49.5c0,3.2,0.3,6.4,0.9,9.5
			c-8,1.6-15.4,4.8-21.6,9.2c12.1,3.2-23.4,39-17.1,48.1c20.2,2.4,27.5,0,27.5,15.5l11.6,16.6c4.4-0.7,52.8,23.8,57.3,24
			c36.3,1.4,40.2,48.4,70.1,10.8c4.1-0.7,9.3,10.8,13.5,10.8c29.6,0,42.8-4.9,51.5,18.2h191.2
			C1810.2,418.7,1884.6,435.9,1911.7,426.8z"/>
		<path class="st2" d="M1562.5,398.5c-4.2,0-8.4,0.3-12.5,1c-3.9-31-34.2-55.1-71.1-55.1c-4.5,0-9,0.4-13.5,1.1v-1.2
			c0-15.5-15.4-28.3-35.7-30.7c-6.3-9.2-16.5-16.1-28.5-19.3c-4.6-1.2-9.6-1.9-14.7-1.9c-6,0-12,0.9-17.7,2.8
			c-5.5-25.7-31.4-45.2-62.7-45.2c-12.1-0.1-24,3-34.6,8.9l-0.4,0.1c-1.7-29-29.4-52.1-63.4-52.1c-24.9,0-46.4,12.4-56.8,30.5
			c-6-2.7-12.2-4.8-18.6-6.3c-3.7-1.2-7.4-1.9-11.3-2.1c-4.9-0.7-9.9-1-14.9-1c-27.3,0-52.1,9.7-69.9,25.3
			c-12.3-4.2-25.6-4.4-37.9-0.4c-9.2-8.2-22.4-13.3-37-13.3c-2.1,0-4.2,0.1-6.3,0.3c-7.8-19.2-31-33.1-58.4-33.1
			c-7.7,0-15.4,1.1-22.8,3.4c-3.5-24.7-26.3-41.9-51-38.4c-8,1.1-15.5,4.4-21.8,9.4c-13.1-18.4-33.7-30.2-56.9-30.2
			c-11.3,0-22.4,2.8-32.3,8.3c-12.7-18.1-36.4-30.3-63.5-30.3c-22.2,0-42,8.1-55.5,21c-12.2-13-28.3-21-46.1-21
			c-30.9,0-57.1,24.2-65.7,57.4c-10.6-6.7-22.9-10.3-35.5-10.4c-29.6,0-55.2,20-67.7,49.1c-3.8,8.9-6.4,18.6-7.5,28.8
			c-22.7,0.6-42.1,25.7-43.9,57.8c-0.3,4.6-0.1,9.3,0.4,13.9c-40.3,0.6-72.5,33.7-72,74c0.1,8.8,1.8,17.6,5.1,25.8
			c-12.7,2.1-23.3,6.8-30,13.1h1396C1617.3,415.3,1592.1,398.5,1562.5,398.5z"/>
		<path class="st3" d="M2390.6,378c-9-11.8-22.2-19.3-37-19.3c-4.4,0-8.9,0.7-13.1,2c-1.2-15.1-8.6-28.6-19.9-38.4
			c4.3-5.1,6.6-11.5,6.7-18.2c0-18.5-18.7-33.5-41.7-33.5c-3,0-6,0.3-8.9,0.8c-5.9-30-35.9-52.9-71.9-52.9
			c-11.2,0-22.3,2.2-32.6,6.7c-7.4-31.1-32.4-54-61.9-54c-20.8,0-39.3,11.3-51,28.9c-19-17.8-48.9-16.8-66.7,2.2
			c-9.1,9.8-13.6,22.8-12.6,35.9c0.2,2.6,0.6,5.3,1.3,7.9c-15.4,4.6-27.2,19.2-29.8,37.4c-34,2.5-61.6,24-67.9,51.8
			c-20.9,3.2-35.2,22.8-32,43.6c0.7,4.8,2.4,9.4,4.9,13.6c-27.1,9.1-46.3,26-49.7,45.8h643.3c0.7-2.2,1.2-4.4,1.5-6.7v-10
			C2448.4,397.4,2422.4,378.4,2390.6,378z"/>
	</g>
</g>
</svg>
