<svg xmlns="http://www.w3.org/2000/svg" viewBox="0 0 430.26 474.85"><defs><style>.cls-1{fill:#22b573;}</style></defs><g id="Layer_2" data-name="Layer 2"><g id="Layer_2-2" data-name="Layer 2"><path class="cls-1" d="M34.09,80.47a113,113,0,0,1,37.2-38.9l0,0h0c6.41-4.08,23.45-10.64,24.48-9.86,18.21-3.21,36.92-7.1,55.28-6.08,9.82.54,19.3,3.2,29,4.4a44.49,44.49,0,0,0,18.62-1.32h0s3.59-1.72,9.74-4.23c7.87-4.5,15.26-9.61,23.57-13.34a124.63,124.63,0,0,1,23.93-8,131.88,131.88,0,0,1,51.95-1,119.43,119.43,0,0,1,14.8,3.69C335.8,8.29,369.46,25,379.53,33.87c11.63,10.28,40,35.56,40.59,51.18.23,5.71-.41,12-3,17.26h0c-.67,1.34-15.25,10-22.15,6-9.79-5.61-35.66-16.28-46.18-20.1-21.75-4.17-56.46-14.09-80.52,5.16-47.43,37.93,69.51,1.08,107.35,21.68,17.87,9.72,41.86,30.58,50.7,49.69,6.36,13.76,6.68,34.21-11,38.83-9,2.35-16.44-4-23.91-7.86-8.55-4.44-26.83-16.21-36.11-18.81s-71.64-13.81-81.17-14.37c-8.32-.5-16.44,4.62-21.55,12.31-4.41,6.63-1.43,11.57,4.28,15.24,7.55,2.68,46.36,6.46,58.13,10.38,15.19,3.59,34.68-1.91,49.08,4.31,14.86,6.41,36.5,31.37,44,45.84a68.4,68.4,0,0,1,7.15,22.82c.91,7,1.93,17-3.19,22.75-10.83,12.15-40.64-17.51-50.93-22.57C345.49,266,326,256.9,308.54,259c-4.47.55-13.61,5.84-15.6,12.32a14.51,14.51,0,0,0,4.63,15.36l.09.07a106.71,106.71,0,0,1,9,6.26c6,3.62,11.8,8.07,18.21,10.3,37.33,13,49.69,29.44,53.82,47a64.64,64.64,0,0,1,.79,24.52c-1,6.47-3,13.49-8,17.45-14.41,11.32-46.23-21.47-55.21-30.36-3.06-3-16.18-16.2-21.16-15.69-5.95.61-9.9,5.17-7.74,8.77,2.79,4.67,12.83,25.19,15.48,29.94,9.78,17.51,7.54,18.33,14.45,37.16,1.05,2.85,4.65,21.68,4.65,21.68,3.57,12.21-1,18.32-11.94,26.66-14.55,11.08-33.33-1.16-45.13-10.44-8.63-6.79-13.12-16.22-15.19-32.74-.83-6.63,15.88-40.74,3.61-49-10.17-6.87-12.74-18.87-23.74-5.16-10.86,13.54,17.67,14.33-7.22,50.06-1.15,1.65-3.59,8.69-13.42,10.84-20.16,4.42-29.67-25.94-36.43-43-6.54-16.55-6.5-35.26-1.83-52.29,4.76-17.37,25.51-25.6,38.77-37.84,6.37-5.87,16.94-11.21,18-20.64.47-4.13-12.52-17.46-17-18.56-5-1.24-11,2.09-15.21,4.55-15.7,9.27-24.93,26.41-31,43-3.11,8.55-4.75,17.68-8.22,26.06-2.94,7.1-8.29,14.57-16.81,14.49-9.24-.08-13.48-6.25-17.85-13.26-5.14-8.24-8.81-11.17-10.7-20.69-3.8-19.13-.69-37.81,7.38-55.54,9-19.69,22.12-46.67,40.47-57.9a119.86,119.86,0,0,1,14.89-7.71c5.24-2.28,11-3.87,15.8-7,7-4.54,8.76-12.17,8.7-19.94a5.59,5.59,0,0,0-6.74-5.41c-21.79,4.41-39.7,20.76-51.84,39.07-7.46,11.26-13.38,23.45-19,35.72-4.88,10.72-30.25,48.7-44.6,48.18-11.08-.41-20.78-7.92-26-17.39-6.16-11.16-6-24.35-3.2-36.48,4.3-18.77,35.51-60.77,47.17-76.36l0,0,0,0c3.23-4.31,6.64-8.45,10.2-12.36a157.57,157.57,0,0,1,26.18-22.95,144.77,144.77,0,0,1,14.95-9.2c5.07-2.72,10.64-5,14.94-8.94,2.91-2.66,5.49-6.75,2.73-10.5-2.53-3.44-8.11-4.05-12-4.05-10.76,0-21.8,5.75-30.44,11.74-9.54,6.62-37.09,28.34-42.81,38.41s-12.78,13.33-30.35,33.73c-3.36,3.9-3.23,10.14-7.8,12.94-5.3,3.25-10.87,3.39-16.67,2.27-10.95-2.13-17.85-7.47-20.7-15C-8,144.27,21.58,102.24,34.09,80.47Z"/></g></g></svg>