<svg xmlns="http://www.w3.org/2000/svg" viewBox="0 0 679.07 504.54"><defs><style>.cls-1{fill:#006837;}.cls-2{fill:#8cc63f;}</style></defs><g id="Layer_2" data-name="Layer 2"><g id="Layer_2-2" data-name="Layer 2"><path class="cls-1" d="M607.29,177.48a261.91,261.91,0,0,0-20-78.65C546.92,6.18,386.75-88.33,230.78,151.49,67.52,402.52,0,504.17,0,504.17l467.21.37s238.4-10,209.42-173a173.34,173.34,0,0,0-10.64-36c-8.5-20.53-27.69-64.55-42.1-80.23C615,205.68,608.73,191.81,607.29,177.48Z"/><path class="cls-2" d="M588.59,191.76C576.21,151.55,432.48,51.4,364.06,55.94a2.07,2.07,0,0,0-.64,3.91c33.08,15.21,211.76,94,203.62,129.57-9.18,40.09-260.95-85.06-263.6-78.34-6,15.23,180.75,90.48,192,117,1.41,3.34-28.15,15-29.64,15.59-16.3,6.61-220.54-74.68-223.36-73.94,0,0,150.26,91.17,150.43,91.26,12.59,7,8.47,20.94-17.75,24.94-25.08,3.83-184.56-34.53-184.56-34.53s92.05,39.42,104.1,46.41C300,301,310.14,309,269.21,329.75s-131.27-3.72-133.39,0c-2,3.56,72.82,21.52,78.71,22.93a1.65,1.65,0,0,1,.71.36c1.76,1.53,8.68,9.32-15.9,21.25-27.53,13.37-110.1,12.63-108,14.11s39.54,12.42,76.61,6.84a1.76,1.76,0,0,1,1.76.84c2.46,4.05,6.72,20-60,39.1-56.65,16.21-79.13,40.47-87.13,52.35-1.16,1.72.76,3.88,2.47,2.76,17.19-11.37,64.74-41.57,88.18-44,20.4-2.1,29.92-2,33.77-1.72a1.91,1.91,0,0,1,1.65,2.43c-2.31,8.82-14.27,47.6-12.36,47.3,7.76-1.24,13.64-43.56,38.35-63.61,18-14.62,28.52-23.32,32.89-27a1.79,1.79,0,0,1,2.92,1.19c1.92,12,7.89,54.91-.45,76.06a1.82,1.82,0,0,0-.11.4h0c-3.73,16.62,2.62,3.19,3.5,1.11,6.84-16.15,17.48-46.46,17-77.79-.71-46,52.93-47.44,57.17-43.07,11.76,12.13,51,81.53,40.74,121-.51,1.94-.73,14.89,1.13,14.42,4.94-1.24,22.86-4.42-2.36-99.05-.23-.87-8.7-31.87-8.58-40.77.12-9.47,25.76-34.41,49.29-21.79,17.15,9.2,46.09,140.33,45.87,146.76-.36,10.82,5.84,19.69,10.66-15.38,2.87-20.84.95-59.72-16.7-123.71-2-7.3-6.26-33.05.27-36.32,14.49-7.26,41.13-6.55,49.4-3,15.41,6.68,48.09,128.81,51.18,167,.1,1.3.23,14.1,2.82,8.16,12.94-29.69,2.39-122.3,2.09-127.46-.14-2.43-20.09-61.81,8.84-92.25s73.59,198.52,75.64,197C608.2,448.3,558.6,259,570.56,253.82c10.36-4.51,73.22,105.59,84,133.1,6.59,16.83,2.26-71.84-58.17-184.13C594.24,198.79,589.94,196.14,588.59,191.76Z"/></g></g></svg>