<svg xmlns="http://www.w3.org/2000/svg" viewBox="0 0 405.62 474.85"><defs><style>.cls-1{fill:#0e7548;}</style></defs><g id="Layer_2" data-name="Layer 2"><g id="Layer_2-2" data-name="Layer 2"><path class="cls-1" d="M396.17,80.47A113,113,0,0,0,359,41.57l0,0h0c-6.41-4.08-23.45-10.64-24.48-9.86-18.21-3.21-36.91-7.1-55.28-6.08-9.82.54-19.3,3.2-29,4.4a44.5,44.5,0,0,1-18.62-1.32h0s-3.59-1.72-9.74-4.23c-7.87-4.5-15.26-9.61-23.57-13.34a124.63,124.63,0,0,0-23.93-8,131.88,131.88,0,0,0-52-1,119.43,119.43,0,0,0-14.8,3.69c-13.06,2.48-43.62,16.06-53.69,25C42.2,41.05,13.89,66.33,13.25,82c-.24,5.71.4,12,3,17.26h0A20.18,20.18,0,0,0,18.71,103c5.37,6.57,12.82,6.2,19.72,2.24,9.79-5.62,32.57-13.18,43.09-17C103.26,84.09,138,74.17,162,93.42c47.43,37.93-69.51,1.08-107.35,21.68C36.81,124.82,12.82,145.68,4,164.79-2.38,178.55-2.7,199,15,203.62c9,2.35,16.44-4,23.91-7.86C47.44,191.32,65.72,179.55,75,177s43.63-13.37,53.16-13.94c8.32-.49,16.44,4.62,21.55,12.31,4.41,6.64,1.43,11.57-4.28,15.25-7.55,2.68-18.35,6-30.12,9.94-15.19,3.59-34.68-1.91-49.08,4.31-14.86,6.41-36.5,31.37-44,45.84a68.4,68.4,0,0,0-7.15,22.82c-.91,7-1.93,17,3.19,22.75,10.83,12.15,40.64-17.51,50.93-22.57C84.77,266,104.26,256.9,121.72,259c4.47.55,13.62,5.84,15.6,12.32a14.51,14.51,0,0,1-4.63,15.36l-.09.07a106.71,106.71,0,0,0-9,6.26c-6,3.62-11.79,8.07-18.21,10.3-37.33,13-49.69,29.44-53.82,47a64.64,64.64,0,0,0-.79,24.52c1,6.47,3,13.49,8,17.45C73.19,403.61,105,370.82,114,361.93c3.06-3,16.18-16.2,21.16-15.69,6,.61,9.9,5.17,7.74,8.77-2.79,4.67-12.83,25.19-15.48,29.94-9.78,17.51-7.54,18.33-14.45,37.16-1,2.85-4.65,21.68-4.65,21.68-3.57,12.21,1,18.32,11.94,26.66,14.56,11.08,33.33-1.16,45.14-10.44,8.62-6.79,13.12-16.22,15.18-32.74.83-6.63-15.88-40.74-3.61-49,10.17-6.87,12.74-18.87,23.74-5.16,10.86,13.54-17.67,14.33,7.22,50.06,1.15,1.65,3.59,8.69,13.42,10.84C241.49,438.4,251,408,257.76,391c6.54-16.55,6.5-35.26,1.83-52.29-4.76-17.37-25.51-25.6-38.77-37.84-6.37-5.87-16.94-11.21-18-20.64-.47-4.13,12.52-17.46,17-18.56,5-1.24,11,2.09,15.22,4.55,15.69,9.27,24.92,26.41,31,43,3.11,8.55,4.75,17.68,8.22,26.06,2.95,7.1,8.29,14.57,16.82,14.49,9.23-.08,13.48-6.25,17.84-13.26,5.14-8.24,8.81-11.17,10.7-20.69,3.8-19.13.69-37.81-7.38-55.54-9-19.69-22.12-46.67-40.47-57.9a119.86,119.86,0,0,0-14.89-7.71c-5.24-2.28-11-3.87-15.8-7-7-4.54-8.76-12.17-8.7-19.94a5.59,5.59,0,0,1,6.74-5.41c21.79,4.41,39.7,20.76,51.84,39.07,7.46,11.26,13.38,23.45,19,35.72,4.88,10.72,8.22,24.66,22.57,24.13,11.08-.41,20.78-7.91,26-17.39,6.16-11.16,6-24.34,3.2-36.47-4.3-18.78-13.47-36.73-25.14-52.32l0,0-.05,0c-3.23-4.31-6.63-8.45-10.2-12.36a157.91,157.91,0,0,0-26.17-22.95,146.93,146.93,0,0,0-14.95-9.2c-5.08-2.72-10.65-5-15-8.94-2.91-2.66-5.49-6.75-2.73-10.5,2.53-3.44,8.12-4.05,12-4.05,10.76,0,21.8,5.75,30.44,11.74,9.54,6.62,19.28,12.64,25,22.72s17.55,23.74,18.07,33a16.5,16.5,0,0,0,7.8,12.94c5.3,3.25,10.87,3.39,16.67,2.27,10.95-2.12,17.85-7.47,20.7-15C408.19,127.88,408.68,102.24,396.17,80.47Z"/></g></g></svg>