<svg xmlns="http://www.w3.org/2000/svg" viewBox="0 0 247.89 239.32"><defs><style>.cls-1{fill:#006837;}.cls-2{fill:#8cc63f;}</style></defs><g id="Layer_2" data-name="Layer 2"><g id="Layer_2-2" data-name="Layer 2"><path class="cls-1" d="M172.27,49.76A46.79,46.79,0,0,0,165.81,32c-12.55-20.33-44.67-55-92.65-9.81C12.77,79.06,0,239.32,0,239.32s4.65-11.61,92.9-7C174.7,236.66,289.42,212,232.73,115A69.27,69.27,0,0,0,193,83.71l-15.35-4.65Z"/><path class="cls-2" d="M172.26,81.09a25.46,25.46,0,0,0-4.69-4.87c-11.32-8.94-52.8-41.54-81.25-36-32.51,6.34-5.67,4.13,0,4.65,5.47.5,19.56-.92,65.81,29.89a4.22,4.22,0,0,1-.09,7.09l-12.36,7.71a7.92,7.92,0,0,1-7.32.65c-13.31-5.5-58.14-22.51-74.94-18-19.86,5.35-3.61,6.71,0,6.2S114.6,87.19,124,97c6,6.34-.62,14-6.09,18.55a13.06,13.06,0,0,1-11.33,2.76c-15.39-3.54-57-12.49-65.63-7.89-10.71,5.74-10.39,7.7-10.32,7.22.29-2.06,39.44-6.56,61.17,4,8.9,4.3,3.46,11.45,1.93,13.11L69.23,152.58a7.05,7.05,0,0,1-6.11,2.22c-8.88-1.18-31.83-3.43-40.48,3.17-10.84,8.26-3.93,6.13-3.93,6.13s16.79-5.88,33.34-1.73a3.86,3.86,0,0,1,2.16,6c-10,13.55-40.15,56.06-40.15,56.06,0,2.07,39.07-49.65,43.88-37.67,16.25,40.51,17,41.25,18.32,42.58,2.22,2.27-.26-4.82-.26-4.82s-12.9-38.8-4.65-50.67,22.72-13.35,23.51-11.8C114.71,201.26,110,217.24,109,219.84c-5.06,13.15,23.75,9.58,2.57-60-.82-2.69-2.51-9.49-.5-11.47l17-10.42a3.48,3.48,0,0,1,5.67,1.15c5.77,14,22,55.17,20.71,73-1.55,21.67,6.35,12.59,6.2,3.09-.52-31.74-10.36-71.73-14.46-90.32-1.84-8.34,18.4-18.64,21-17.35,1.46.73,46.12,55.54,40.44,91.16s7-7.47,6.71-19.36c-.4-14.13-23.88-57.51-34.07-75.7a1.47,1.47,0,0,1,2.28-1.8c16,14.75,54,50.24,54,53.5,0,0-20.52-57.29-52.65-65C178.85,89.08,174.56,84.21,172.26,81.09Z"/></g></g></svg>