<svg xmlns="http://www.w3.org/2000/svg" viewBox="0 0 322.56 305.37"><defs><style>.cls-1{fill:#1a1a1a;}</style></defs><g id="Layer_2" data-name="Layer 2"><g id="Layer_1-2" data-name="Layer 1"><path class="cls-1" d="M140.51,288.36a.68.68,0,0,0-.55-1.17c-4.56.59-15.36,2.81-16.29,10.78-.88,7.57,8.87,9.09,11.09,5.57C137.56,299.1,133.75,295.17,140.51,288.36Z"/><path class="cls-1" d="M148.66,293.2a.61.61,0,0,0-1.15.05c-.91,2.94-2.16,8.91,1.76,11.42s7.44-2.47,6.08-4.65C153.7,297.34,150.62,298.26,148.66,293.2Z"/><path class="cls-1" d="M186.43,260.5c-9.41,8.43-12.4,9.64-13.93,8.81a20.16,20.16,0,0,1-4-4.45c-.7-1.61.77-4.43,10.25-12.93,17.07-15.3,25.22-19.4,27.34-17S203.5,245.2,186.43,260.5Z"/><path class="cls-1" d="M164.77,271.74s-5-5.53-10.48-.57a12.35,12.35,0,0,0-3.86,7.39,18.33,18.33,0,0,1-2.62,6.67.82.82,0,0,0,.55,1.29,26.1,26.1,0,0,0,7.17.16,16.06,16.06,0,0,0,9.23-4.07C170.43,277.53,164.77,271.74,164.77,271.74Z"/><path class="cls-1" d="M17,148.16l3.75-3.75.08.09a1.23,1.23,0,0,0,1.74,0l1.86-1.87,4.14,4.14a1.82,1.82,0,0,0,0,2.4l7.13,7.29,7.93-7.93-7.34-7.08a1.82,1.82,0,0,0-2.34,0l-4.14-4.14,1.86-1.86a1.23,1.23,0,0,0,0-1.74l-.08-.09,2.69-2.69a1.61,1.61,0,0,0,1.15-.45l2.16-2.17a44.23,44.23,0,0,1,9.68-6.65,1.8,1.8,0,0,0-.25-3.19c-9.55-4.74-18,3.24-18,3.24l-1.21,1.2a1.68,1.68,0,0,0-.43.86l-2.85,2.85-.08-.09a1.23,1.23,0,0,0-1.74,0l-9.1,9.1a1.23,1.23,0,0,0,0,1.74l.08.09L10,141.15a1.64,1.64,0,0,0-2.08.21l-5.48,5.47a2,2,0,0,0,0,2.86l6,6a2,2,0,0,0,2.85,0l5.48-5.48A1.64,1.64,0,0,0,17,148.16Z"/><path class="cls-1" d="M58.07,162.65l-8.24,8.24,21.55,22.36A1.88,1.88,0,0,0,74,193.1l6.27-6.27a1.88,1.88,0,0,0,.15-2.66Z"/><path class="cls-1" d="M33.93,178.88,66.11,146.7a.73.73,0,0,1,.51-.21.67.67,0,0,1,.24,0,11.64,11.64,0,0,0,4,.69,11.57,11.57,0,0,0,11-15.11,1.82,1.82,0,0,0-1.74-1.26,1.78,1.78,0,0,0-1.29.54l-6.54,6.53a.6.6,0,0,1-.43.18.57.57,0,0,1-.43-.18L68.52,135a.62.62,0,0,1,0-.86l6.54-6.54a1.82,1.82,0,0,0-.72-3,11.63,11.63,0,0,0-12,3.13A12.15,12.15,0,0,0,60,139.53a.69.69,0,0,1-.18.73L27.56,172.52a1.5,1.5,0,0,1-1.1.44,1.79,1.79,0,0,1-.51-.07,11.21,11.21,0,1,0,7.61,7.62A1.64,1.64,0,0,1,33.93,178.88ZM25.15,186a3.31,3.31,0,1,1,0-4.67A3.31,3.31,0,0,1,25.15,186Z"/><path class="cls-1" d="M284.07,124.45a4.28,4.28,0,1,0-4.27-4.27A4.28,4.28,0,0,0,284.07,124.45Z"/><circle class="cls-1" cx="267.98" cy="129.32" r="4.27"/><circle class="cls-1" cx="300.17" cy="129.32" r="4.27"/><path class="cls-1" d="M312.51,141.61a3.07,3.07,0,0,0-2.82-1.82l-51.23,0h0a3.09,3.09,0,0,0-2.32,5.13l21.93,22.72a2.55,2.55,0,0,1,.61,1.67v23.33a3.26,3.26,0,0,0,3.26,3.26,3.23,3.23,0,0,0,1.89-.61l4.22-3a3.43,3.43,0,0,0,1.44-2.79V169.26a2.61,2.61,0,0,1,.62-1.69L312,145l0,0A3,3,0,0,0,312.51,141.61Z"/><path class="cls-1" d="M83.13,11.82A5.1,5.1,0,0,0,79.2,10H16.83L16,6.53a6.75,6.75,0,0,0-5.42-5.21L3.53.05A3,3,0,1,0,2.47,6L9.55,7.22a.8.8,0,0,1,.63.63l1.67,7.28a1.13,1.13,0,0,0,0,.18l.37,1.55,8.41,36.58a6,6,0,0,0,2.87,3.89,7.87,7.87,0,1,0,7.2.8H65.45a7.9,7.9,0,1,0,8.69,0,3,3,0,0,0-.46-6H26.51l-.76-3.33H73.56a5.64,5.64,0,0,0,5.6-4.61l5-28.32h0A5,5,0,0,0,83.13,11.82ZM76.06,27.4H65L66.69,16h11.4ZM50.86,42.79V31.4H60.3L58.56,42.79Zm-11.25,0L37.5,31.4h9.36V42.79Zm-4.07,0H24.67L21.92,31.4H33.43ZM36.76,27.4,34.65,16H46.86V27.4Zm14.1,0V16H62.64L60.91,27.4ZM30.59,16l2.1,11.4H21L18.21,16ZM73.31,42.79H62.61L64.34,31.4h11Z"/><path class="cls-1" d="M321.38,38.24c-1.09-2.56-2.8-4.24-4.88-4.8a7.56,7.56,0,0,0-.82-1.36,7.36,7.36,0,0,0-4.31-2.73v-.26a6.34,6.34,0,0,0,2.11-1.52A6.51,6.51,0,0,0,315,21.75C312.1,8.33,300.23,0,284.07,0s-28,8.33-31,21.75a6.55,6.55,0,0,0,1.57,5.82,6.18,6.18,0,0,0,2.11,1.53v.25a7.36,7.36,0,0,0-4.31,2.73,7,7,0,0,0-.82,1.36,7.7,7.7,0,0,0-4.88,4.8,17.48,17.48,0,0,0-1,8.95C246.66,54,250.63,58.93,255,59a7.42,7.42,0,0,0,5.64,2.63,7.89,7.89,0,0,0,1-.06h0a7.41,7.41,0,0,0,6.38-8.3l-2.32-17.6a7.34,7.34,0,0,0-2.84-4.9,7.23,7.23,0,0,0-1.91-1.07v-.2a6.48,6.48,0,0,0,4.85-5.27c1.83-10.92,13.4-12.1,18.29-12.1s16.47,1.18,18.3,12.1a6.47,6.47,0,0,0,4.85,5.27v.2a7.07,7.07,0,0,0-1.91,1.07,7.31,7.31,0,0,0-2.84,4.9l-2.32,17.6a7.4,7.4,0,0,0,2.7,6.72,19.06,19.06,0,0,1-10.8,6,8.43,8.43,0,1,0,.24,5.06,23.43,23.43,0,0,0,15.61-9.44A7.42,7.42,0,0,0,313.14,59c4.38,0,8.35-5,9.24-11.77A17.38,17.38,0,0,0,321.38,38.24Z"/><path class="cls-1" d="M196.59,122.74a15.56,15.56,0,1,0,.55,22A15.56,15.56,0,0,0,196.59,122.74Zm-6.93,14.88a5.24,5.24,0,1,1-.19-7.4A5.23,5.23,0,0,1,189.66,137.62Z"/><path class="cls-1" d="M165.62,126.65a1,1,0,0,0-1.25-1.3,7.94,7.94,0,0,0-3.15,2.1c-24.2,26.18-37.57,46.31-30.65,58.45a1,1,0,0,0,1.6.2L168.4,148a1,1,0,0,0,.07-1.29A21.59,21.59,0,0,1,165.62,126.65Z"/><path class="cls-1" d="M185.86,155.58A21.37,21.37,0,0,1,174,152a1,1,0,0,0-1.27.13l-36.24,38.09a1,1,0,0,0,.28,1.6c12.47,6.29,31.91-8.06,56.85-33.53a8,8,0,0,0,1.93-3.23,1,1,0,0,0-1.38-1.19A21.55,21.55,0,0,1,185.86,155.58Z"/><path class="cls-1" d="M182.92,36.67a1,1,0,0,0-1.22.17,23.76,23.76,0,0,1-33.22,0,1,1,0,0,0-1.22-.17A28.31,28.31,0,0,0,133,61.19h0a11.36,11.36,0,0,0,11.32,11.33h41.53a11.37,11.37,0,0,0,11.33-11.33h0A28.31,28.31,0,0,0,182.92,36.67Z"/><circle class="cls-1" cx="165.09" cy="19.79" r="17.82"/></g></g></svg>