<svg xmlns="http://www.w3.org/2000/svg" viewBox="0 0 265.04 81"><defs><style>.cls-1{fill:#004bd1;}</style></defs><g id="Layer_2" data-name="Layer 2"><g id="tape"><path class="cls-1" d="M262.34,77l2.1-1a1.09,1.09,0,0,0,.05-1.91l-4.1-2.35A1.09,1.09,0,0,1,260.1,70l4.3-5a1.09,1.09,0,0,0-.29-1.65l-4.39-2.51a1.08,1.08,0,0,1-.09-1.82l3.64-2.61a1.09,1.09,0,0,0-.39-1.94l-4-.88a1.09,1.09,0,0,1-.32-2l5.65-3.39a1.09,1.09,0,0,0-.22-2l-4.95-1.64a1.09,1.09,0,0,1-.36-1.86L263,39.06a1.08,1.08,0,0,0-.22-1.79l-5.38-2.69A1.08,1.08,0,0,1,257,33l4.55-6.07a1.08,1.08,0,0,0-.23-1.53L256.59,22a1.08,1.08,0,0,1,.08-1.81L263.62,16a1.08,1.08,0,0,0-.05-1.88L253.45,8.64A1.08,1.08,0,0,1,253.14,7l4.54-5.18a1.09,1.09,0,0,0-.82-1.8H9.87A1.08,1.08,0,0,0,9.1,1.85l2,2a1.09,1.09,0,0,1-.32,1.76L4.88,8.28a1.08,1.08,0,0,0-.24,1.83l2.52,2a1.08,1.08,0,0,1,0,1.71l-5.38,4A1.08,1.08,0,0,0,2,19.74L5,21a1.09,1.09,0,0,1,0,2L.92,24.81a1.09,1.09,0,0,0,.13,2L6,28.31a1.09,1.09,0,0,1,.26,2L1.79,33a1.08,1.08,0,0,0,0,1.86l4,2.28A1.09,1.09,0,0,1,5.93,39L.43,43.11a1.09,1.09,0,0,0,0,1.75L4.78,48a1.08,1.08,0,0,1-.14,1.85L1.92,51.16A1.09,1.09,0,0,0,1.8,53L7.7,57a1.09,1.09,0,0,1-.12,1.88L2.82,61.22a1.08,1.08,0,0,0-.17,1.83l5.26,4a1.08,1.08,0,0,1-.12,1.81L3.22,71.35a1.09,1.09,0,0,0,.4,2l3.59.39a1.09,1.09,0,0,1,.71,1.79L4.78,79.21A1.09,1.09,0,0,0,5.61,81H262a1.08,1.08,0,0,0,.43-2.08h0A1.08,1.08,0,0,1,262.34,77Z"/></g></g></svg>