<svg xmlns="http://www.w3.org/2000/svg" viewBox="0 0 358.04 81"><defs><style>.cls-1{fill:#fbb03b;}</style></defs><g id="Layer_2" data-name="Layer 2"><g id="tape"><path class="cls-1" d="M9.87,0h340a1.09,1.09,0,0,1,.82,1.8L346.14,7a1.08,1.08,0,0,0,.31,1.66l10.12,5.46a1.08,1.08,0,0,1,.05,1.88l-6.95,4.17a1.08,1.08,0,0,0-.08,1.81l4.76,3.4a1.08,1.08,0,0,1,.23,1.53L350,33a1.08,1.08,0,0,0,.38,1.62l5.38,2.69a1.08,1.08,0,0,1,.22,1.79l-4.31,3.69a1.09,1.09,0,0,0,.36,1.86L357,46.25a1.09,1.09,0,0,1,.22,2l-5.65,3.39a1.09,1.09,0,0,0,.32,2l4,.88a1.09,1.09,0,0,1,.39,1.94L352.63,59a1.08,1.08,0,0,0,.09,1.82l4.39,2.51A1.09,1.09,0,0,1,357.4,65l-4.3,5a1.09,1.09,0,0,0,.29,1.65l4.1,2.35a1.09,1.09,0,0,1-.05,1.91l-2.1,1a1.08,1.08,0,0,0,.06,2h0A1.08,1.08,0,0,1,355,81H5.61a1.09,1.09,0,0,1-.83-1.79l3.14-3.65a1.09,1.09,0,0,0-.71-1.79l-3.59-.39a1.09,1.09,0,0,1-.4-2l4.57-2.54A1.08,1.08,0,0,0,7.91,67l-5.26-4a1.08,1.08,0,0,1,.17-1.83l4.76-2.38A1.09,1.09,0,0,0,7.7,57L1.8,53a1.09,1.09,0,0,1,.12-1.88L4.64,49.8A1.08,1.08,0,0,0,4.78,48L.45,44.86a1.09,1.09,0,0,1,0-1.75L5.93,39a1.09,1.09,0,0,0-.11-1.81l-4-2.28a1.08,1.08,0,0,1,0-1.86l4.43-2.77a1.09,1.09,0,0,0-.26-2L1.05,26.84a1.09,1.09,0,0,1-.13-2L5,23a1.09,1.09,0,0,0,0-2L2,19.74a1.08,1.08,0,0,1-.22-1.86l5.38-4a1.08,1.08,0,0,0,0-1.71l-2.52-2a1.08,1.08,0,0,1,.24-1.83l5.93-2.64a1.09,1.09,0,0,0,.32-1.76l-2-2A1.08,1.08,0,0,1,9.87,0Z"/></g></g></svg>