<svg id="Layer_2" data-name="Layer 2" xmlns="http://www.w3.org/2000/svg" viewBox="0 0 800 1000"><defs><style>.cls-1{fill:none;stroke:#1d1d1b;stroke-miterlimit:10;stroke-width:10px;opacity:0.32;}</style></defs><rect class="cls-1" x="-44" y="128.49" width="260.76" height="62.03" rx="31.01"/><rect class="cls-1" x="105.37" y="215.84" width="260.76" height="62.03" rx="31.01"/><rect class="cls-1" x="583.85" y="277.86" width="260.76" height="62.03" rx="31.01"/><rect class="cls-1" x="430.68" y="366.47" width="260.76" height="62.03" rx="31.01"/><path class="cls-1" d="M208,839.84V799.58s-.09-24,23.95-24H256s31.84,1.5,31.74-26.37c-.1-26.91,27.48-27.49,27.48-27.49s22.16,2.33,22.07-22.06c0-8.13,0-14.71,0-14.71s-.78-17.81-17.81-17.81-16.26-12.38-16.26-12.38-.81-13.14,12.37-13.14h42.12s15.13,2.23,25.84-19c11.24-22.29.19-64.66-29.34-65.31-24.66-.54-137.42,0-137.42,0s-14.21-.11-14.21-15.6,14.07-14.07,14.07-14.07l74.85,0s34.18.94,34.18-40.86-74.33-35.53-74.33-35.53H224.23s-22.24-1-22.24-22.23,21.72-21.72,21.72-21.72h59.35s20.27-1.55,20.27-20.26-21-21-21-21H143.71s-31,.39-31-15.48c0-11.38-8.31-17.69-15.15-20.95a32.32,32.32,0,0,0-13.89-3.07h-91s-15.48-.76-15.48,21.7,20.49,20.49,20.49,20.49l74-2.25s16.81-1.55,16.81,16.81,20.37,20.37,20.37,20.37l42.56,1.09s13.16-.77,13.16,13.16-13.16,13.16-13.16,13.16H-22.74s-7.69,1-7.69,10.33,9.49,10.06,9.49,10.06l11.12-.17H167.39S206,452.54,206,489.89s-35.44,35.44-35.44,35.44H6a38.11,38.11,0,0,0-19.38,5.13c-6.69,3.94-13.38,10.62-13.38,21.62,0,11.6,7,18,13.67,21.43a35.11,35.11,0,0,0,16.19,3.8H332.35s25.55.52,25.33,25.33c-.2,22-21.45,21.46-21.45,21.46H65s-17.94,0-17.94,17.93S64,658.94,64,658.94H271.45s30.07-.78,30.07,30.06c0,27.26-26.58,26.58-26.58,26.58h-77s-16.84-.1-16.84-16.84c0-15.29,16.46-16.45,16.46-16.45h53s14.8.58,14.9,14.9c.08,11.81,0,35,0,35s0,19.06-19.06,19.06H109.65S87.32,748.93,87.32,729,108.26,708,108.26,708h33.9s14.61.78,14.61-14.61-15-15-15-15H50s-32.32-3.87-32.32-32.32,31.55-31.55,31.55-31.55,12.44-2.43,12.44-12.44c0-5-3-8.05-6.06-9.79a17.06,17.06,0,0,0-8.55-2.21h-69.3a15.57,15.57,0,0,0-3.27.33c-4.93,1-17.4,5-17.4,19,0,17.47,18.8,18.8,18.8,18.8s20.66-.69,20.66,20.67S4,705.69,53.34,705.69c0,0,17.81-.21,17.81,17.81v48.21s-.78,20.62-20.63,20.62H29.73a14,14,0,0,1-9.92-4c-3.56-3.58-7.19-10.24-7.19-22.53V750s-2.32-16.77,16.77-16.77H149.13s16.26,1.48,16.26,18v88.55"/><rect class="cls-1" x="479.71" y="386.16" width="170.32" height="24.77" rx="12"/><rect class="cls-1" x="86.38" y="139.97" width="106.88" height="36.39" rx="18.19"/><rect class="cls-1" x="269.13" y="246.85" width="192.77" height="62.03" rx="31.01"/><rect class="cls-1" x="543.19" y="256.87" width="124.65" height="45.68" rx="22.84"/><rect class="cls-1" x="449.52" y="513.13" width="222.19" height="41.81" rx="20.9"/><rect class="cls-1" x="443.32" y="583.18" width="75.87" height="25.17" rx="12"/></svg>