<svg id="Layer_3" data-name="Layer 3" xmlns="http://www.w3.org/2000/svg" viewBox="0 0 800 1000"><defs><style>.cls-1,.cls-2,.cls-3{fill:none;}.cls-1,.cls-2{stroke:#000;stroke-linecap:round;stroke-linejoin:round;}.cls-1{stroke-width:15px;}.cls-2,.cls-3{stroke-width:10px;}.cls-3{stroke:#1d1d1b;stroke-miterlimit:10;}</style></defs><path class="cls-1" d="M284.58,819.05c-2.09-9.86-13.27-60.76-13.27-60.76s-59.62-.5-89.36-1.38c-28.91-.86-55.9,16-59.88,35.63-2.76,13.6,6,26,21.39,31.94-1.15.44-2.25.9-3.29,1.38-25.11,11.54-41.68,34.42-37.41,49.61,2.34,8.32,10.59,13.07,21.63,13.51-19.11,21.3-24.83,47.09-13.78,56.87s36.25.74,54.57-21.68A111.92,111.92,0,0,0,176,907.38c2,15.92,10.48,26.62,22.06,26.2,16.21-.59,34-22.81,37.56-49.5.06-.51.12-1,.17-1.56,13,11,26.75,17.54,38.87,8.67C291.47,878.89,290.52,847.1,284.58,819.05Z"/><path class="cls-1" d="M497,404.24c-8.15-9.72-50-60.3-50-60.3s40.71-63.18,60.39-95.18c19.13-31.1,54.15-46.72,76.05-35.92,15.14,7.47,21.13,26.16,16.31,46.89q1.83-1.32,3.62-2.42c28.57-17.65,62.29-17.66,74.12-1.59,6.49,8.81,5.41,21.12-1.78,33.08,33.92-3.89,63,9.74,64.87,28.83,1.91,19.25-24.32,38.75-58.8,41-6.65.43-14.87-.16-23.81-1.4,14.11,14.23,18.67,31.33,10.25,43.21-11.77,16.62-45.68,18.42-74.12,1.82-.54-.31-1.09-.65-1.64-1,1.73,22-1.41,41.54-18.41,47.54C550.5,457.1,520.21,431.88,497,404.24Z"/><path class="cls-1" d="M173.59,537.56c-6.59-2.06-40.78-12.48-40.78-12.48s-19.6,36.67-29.76,54.74c-9.87,17.56-8.52,40,2,49.11,7.27,6.33,17.55,5.12,26.11-2.34-.11.86-.2,1.7-.25,2.5-1.19,19.44,7.18,37.46,17.68,40,5.76,1.39,11.28-2.09,15.12-8.76,6.6,19,20.23,31.36,29.68,27.87s12.18-22.15,4.66-41.09a82.38,82.38,0,0,0-6.58-12.4c10.2,4.19,19.38,2.58,22.87-4.72,4.89-10.21-2.69-28.76-17.57-40-.28-.21-.57-.43-.87-.64,10.8-4.28,19.19-10.55,17.79-21.06C211.75,553.67,192.36,543.44,173.59,537.56Z"/><path class="cls-2" d="M45.64,322.11a36.87,36.87,0,0,0-4.2-.21c-27.91.38-49.85,16.64-49.07,34.58.54,12.4,11.85,23.23,28,28-1,.44-1.95.9-2.84,1.37-21.36,11.43-31.9,32.76-24.26,46.31,4.18,7.42,13.2,11.38,23.88,11.34-13.33,20-12.79,43.53.08,51.92s34.92-.78,47.24-21.76a77.63,77.63,0,0,0,6.45-15.6c5.62,14.3,16.27,23.63,27.27,22.79,15.39-1.19,27.25-22,24.43-46.22-.06-.46-.12-.93-.2-1.41,15,9.41,29.74,14.77,39.28,6.28s7.87-25.84,1.57-44.27"/><path class="cls-2" d="M374.91,148.18c.44.28.88.55,1.31.8,22.89,13.36,50.19,11.91,59.67-1.47,6.77-9.56,3.11-23.33-8.26-34.78a99.7,99.7,0,0,0,19.17,1.13c27.76-1.79,48.88-17.48,47.34-33s-24.92-26.34-52.23-23.21c5.79-9.63,6.66-19.54,1.44-26.63-9.52-12.94-36.67-12.93-59.67,1.28-.95.58-1.92,1.24-2.91,2,3.88-16.69-.94-31.73-13.13-37.75C350-12.16,321.83.41,306.43,25.45c-2.42,3.92-5.22,8.43-8.25,13.24"/><path class="cls-2" d="M190.52,412.92q-1.11,2.08-2.11,3.95c-9.62,18-8,41.09,2.67,50.67,7.36,6.62,17.61,5.51,26.06-2.07-.1.88-.17,1.75-.21,2.58-.94,20,7.67,38.72,18.2,41.47,5.77,1.51,11.24-2,15-8.83,6.86,19.73,20.65,32.6,30,29.13s11.87-22.67,4.1-42.3a87,87,0,0,0-6.74-12.87c10.24,4.45,19.39,2.92,22.79-4.56,4.75-10.46-3.08-29.69-18.09-41.52-.29-.23-.58-.45-.89-.67,10.74-4.27,19-10.63,17.49-21.48-1.12-7.88-7-14.6-15.07-20.11"/><path class="cls-3" d="M168.27,338.22c-3.9,13-7.17,26.48-7.38,35.85-.5,23.15,9.35,41.93,20.87,41.93s21.49-18.67,20.87-41.71"/><path class="cls-3" d="M295.45,338.22c12.06,19.64,12.73,40.82,2.79,46.56s-27.9-5.58-39-25.88c-4.51-8.22-8.43-21.57-11.54-34.73"/><path class="cls-3" d="M357.81,260.57c20.26,11,31.43,29,25.69,38.93s-26.95,9.12-46.75-2.89c-8-4.87-18.08-14.46-27.36-24.31"/><path class="cls-3" d="M336.92,196.51c13,3.89,26.48,7.17,35.85,7.37,23.15.51,41.93-9.34,41.93-20.86S396,161.53,373,162.15"/><path class="cls-3" d="M322.86,117.11c13.17-3.1,26.52-7,34.74-11.53,20.3-11.14,31.64-29.06,25.88-39s-26.92-9.27-46.56,2.79"/><path class="cls-3" d="M271,55.38C280.84,46.11,290.44,36,295.3,28c12-19.79,12.88-41,2.9-46.74S270.25-13.29,259.27,7"/><path class="cls-3" d="M195.21,27.86c3.89-13,7.17-26.48,7.37-35.85.5-23.15-9.34-41.93-20.87-41.93S160.23-31.25,160.85-8.21"/><path class="cls-3" d="M181.84,23.56a27.33,27.33,0,0,0-.15-6.14A32.92,32.92,0,0,0,160.85-8.21"/><path class="cls-3" d="M68,27.86C56,8.22,55.29-13,65.24-18.7s27.89,5.58,39,25.88c4.51,8.22,8.44,21.57,11.54,34.73"/><path class="cls-3" d="M102.09,44.87a28.31,28.31,0,0,0-3.2-5.24A32.93,32.93,0,0,0,68,27.86"/><path class="cls-3" d="M5.67,105.51c-20.27-11-31.44-29-25.69-38.93s27-9.12,46.74,2.89c8,4.87,18.09,14.46,27.36,24.31"/><path class="cls-3" d="M26.55,169.57C13.6,165.68.08,162.4-9.29,162.2c-23.15-.51-41.93,9.34-41.93,20.86s18.67,21.49,41.71,20.87"/><path class="cls-3" d="M40.61,249c-13.17,3.1-26.51,7-34.73,11.54-20.3,11.13-31.64,29.05-25.88,39s26.91,9.27,46.56-2.78"/><path class="cls-3" d="M92.48,310.7C82.63,320,73,330,68.17,338.06c-12,19.79-12.87,41-2.9,46.74s28-5.43,38.93-25.69"/><path class="cls-3" d="M163.65,334.63c.38,5.36.21,10.14-.79,13.75-5.11,18.38-25.49,27.74-43.13,21.7a34,34,0,0,1-15.53-11"/><path class="cls-3" d="M101.9,321.1A29.05,29.05,0,0,0,99,326.49a32.93,32.93,0,0,0,5.24,32.62"/><path class="cls-3" d="M241.87,323.37c3,4.45,5.25,8.67,6.19,12.3,4.76,18.47-8.2,36.77-26.5,40.35a34,34,0,0,1-18.93-1.73"/><path class="cls-3" d="M181.63,342.52a27.93,27.93,0,0,0,.15,6.14,32.92,32.92,0,0,0,20.85,25.63"/><path class="cls-3" d="M295.45,338.22a34,34,0,0,0,17.26-8c14.06-12.26,16.13-34.58,2.78-48.2-2.63-2.68-6.68-5.21-11.51-7.56"/><path class="cls-3" d="M295.45,338.22a32.94,32.94,0,0,1-30.87-11.77,28.31,28.31,0,0,1-3.2-5.24"/><path class="cls-3" d="M357.81,260.57a34,34,0,0,0,11-15.52c6-17.65-3.33-38-21.7-43.13-3.62-1-8.39-1.18-13.75-.79"/><path class="cls-3" d="M319.8,262.87a27.35,27.35,0,0,0,5.39,2.94,32.91,32.91,0,0,0,32.62-5.24"/><path class="cls-3" d="M373,162.15a33.92,33.92,0,0,0,1.74-18.93c-3.59-18.3-21.88-31.26-40.36-26.5-3.63.93-7.85,3.18-12.3,6.19"/><path class="cls-3" d="M373,162.15A32.92,32.92,0,0,1,347.36,183a28.66,28.66,0,0,1-6.15.15"/><path class="cls-3" d="M273.2,60.8c2.34-4.83,4.88-8.88,7.55-11.51C294.37,35.93,316.7,38,329,52.06a34.08,34.08,0,0,1,8,17.27"/><path class="cls-3" d="M319.9,103.39a27.88,27.88,0,0,0,5.25-3.2,32.92,32.92,0,0,0,11.77-30.86"/><path class="cls-3" d="M199.82,31.45c-.38-5.36-.21-10.14.79-13.75C205.73-.68,226.1-10,243.74-4A34,34,0,0,1,259.27,7"/><path class="cls-3" d="M261.57,45a28.48,28.48,0,0,0,2.94-5.39A32.93,32.93,0,0,0,259.27,7"/><path class="cls-3" d="M121.6,42.71c-3-4.45-5.25-8.67-6.19-12.3-4.75-18.47,8.2-36.77,26.51-40.35a34,34,0,0,1,18.93,1.73"/><path class="cls-3" d="M68,27.86a34,34,0,0,0-17.26,8C36.7,48.08,34.63,70.4,48,84c2.62,2.68,6.68,5.21,11.5,7.56"/><path class="cls-3" d="M5.67,105.51A34,34,0,0,0-5.3,121c-6,17.65,3.32,38,21.7,43.13,3.61,1,8.39,1.18,13.74.79"/><path class="cls-3" d="M5.67,105.51a32.89,32.89,0,0,1,32.61-5.24,27.69,27.69,0,0,1,5.4,2.94"/><path class="cls-3" d="M41.41,243.17c-4.45,3-8.67,5.26-12.3,6.19-18.47,4.76-36.77-8.2-40.36-26.5a34,34,0,0,1,1.74-18.93"/><path class="cls-3" d="M-9.51,203.93a32.92,32.92,0,0,1,25.63-20.85,28.56,28.56,0,0,1,6.14-.15"/><path class="cls-3" d="M90.28,305.28c-2.35,4.83-4.89,8.88-7.56,11.51C69.1,330.15,46.78,328.07,34.52,314a34,34,0,0,1-8-17.26"/><path class="cls-3" d="M43.57,262.69a27.78,27.78,0,0,0-5.24,3.2,32.89,32.89,0,0,0-11.77,30.87"/><path class="cls-3" d="M241.87,323.37a35.94,35.94,0,0,0,5.79.8"/><path class="cls-3" d="M247.66,324.17a25.67,25.67,0,0,0,13.72-3"/><path class="cls-3" d="M241.87,323.37c-8.81-2-18-7.33-26.09-15.46"/><path class="cls-3" d="M271.32,311.09c5.27-9.44,6.24-22.92,2.33-36.93"/><path class="cls-3" d="M271.32,311.09a25.49,25.49,0,0,1-9.45,9.86l-.49.26"/><path class="cls-3" d="M309.39,272.3a34.2,34.2,0,0,1-5.41,2.2"/><path class="cls-3" d="M319.8,262.87a25.78,25.78,0,0,1-10.41,9.43"/><path class="cls-3" d="M273.65,274.16c11.05,3,21.72,3,30.33.34"/><path class="cls-3" d="M323.34,249.14c-.16-10.81-6-23-16.44-33.14"/><path class="cls-3" d="M319.8,262.87c.09-.15.2-.3.29-.46a25.48,25.48,0,0,0,3.25-13.27"/><path class="cls-3" d="M256.57,243.8a70.3,70.3,0,0,1,12.76,18.81"/><path class="cls-3" d="M269.33,262.61a73.61,73.61,0,0,1,4.32,11.55"/><path class="cls-3" d="M336.92,196.51a34.2,34.2,0,0,1-3.59,4.62"/><path class="cls-3" d="M336.92,196.51a25.7,25.7,0,0,0,4.29-13.36"/><path class="cls-3" d="M306.9,216c11.07-2.92,20.33-8.23,26.43-14.87"/><path class="cls-3" d="M337.42,169.48c-5.54-9.28-16.72-16.86-30.81-20.48"/><path class="cls-3" d="M337.42,169.48a25.43,25.43,0,0,1,3.82,13.12c0,.18,0,.36,0,.55"/><path class="cls-3" d="M297.38,208.15a79,79,0,0,0-8.05-4.89c-1.43-.76-3-1.48-4.67-2.18"/><path class="cls-3" d="M297.38,208.15A73.53,73.53,0,0,1,306.9,216"/><path class="cls-3" d="M322.86,117.11a33.81,33.81,0,0,1-.8,5.8"/><path class="cls-3" d="M322.86,117.11a25.69,25.69,0,0,0-3-13.72"/><path class="cls-3" d="M306.61,149c8.13-8.07,13.49-17.29,15.45-26.09"/><path class="cls-3" d="M309.79,93.46c-9.44-5.27-22.92-6.24-36.93-2.34"/><path class="cls-3" d="M309.79,93.46a25.55,25.55,0,0,1,9.86,9.45c.09.16.16.32.25.48"/><path class="cls-3" d="M294.44,147a77.09,77.09,0,0,0-9.41-.22,73.77,73.77,0,0,0-10.79,1.36"/><path class="cls-3" d="M294.44,147a73.25,73.25,0,0,1,12.17,2"/><path class="cls-3" d="M273.2,60.8A34.34,34.34,0,0,0,271,55.38"/><path class="cls-3" d="M261.57,45A25.67,25.67,0,0,1,271,55.38"/><path class="cls-3" d="M273.2,60.8c2.7,8.61,2.67,19.27-.34,30.32"/><path class="cls-3" d="M247.84,41.43c-10.81.16-23,6.06-33.15,16.45"/><path class="cls-3" d="M261.57,45c-.16-.09-.31-.2-.46-.29a25.51,25.51,0,0,0-13.27-3.26"/><path class="cls-3" d="M261.31,95.45A78,78,0,0,0,253,100c-6.25,3.93-13.3,10.43-20.45,18.08"/><path class="cls-3" d="M261.31,95.45a73.31,73.31,0,0,1,11.55-4.33"/><path class="cls-3" d="M195.21,27.86a34.12,34.12,0,0,1,4.61,3.59"/><path class="cls-3" d="M195.21,27.86a25.69,25.69,0,0,0-13.37-4.3"/><path class="cls-3" d="M199.82,31.45c6.65,6.1,12,15.35,14.87,26.43"/><path class="cls-3" d="M168.18,27.35c-9.28,5.55-16.86,16.73-20.48,30.82"/><path class="cls-3" d="M168.18,27.35a25.51,25.51,0,0,1,13.12-3.81l.54,0"/><path class="cls-3" d="M206.85,67.4a77.09,77.09,0,0,0-4.89,8,74.91,74.91,0,0,0-4.58,11.07"/><path class="cls-3" d="M206.85,67.4a73.47,73.47,0,0,1,7.84-9.52"/><path class="cls-3" d="M121.6,42.71a35.79,35.79,0,0,0-5.79-.8"/><path class="cls-3" d="M102.09,44.87a25.69,25.69,0,0,1,13.72-3"/><path class="cls-3" d="M121.6,42.71c8.81,2,18,7.33,26.1,15.46"/><path class="cls-3" d="M92.15,55c-5.26,9.44-6.24,22.92-2.33,36.93"/><path class="cls-3" d="M102.09,44.87l-.48.26A25.44,25.44,0,0,0,92.15,55"/><path class="cls-3" d="M145.9,84.93c-.23-1.81-.39-3.55-.45-5.18a77.09,77.09,0,0,1,.22-9.41"/><path class="cls-3" d="M147.7,58.17a73.07,73.07,0,0,0-2,12.17"/><path class="cls-3" d="M59.49,91.58a35.18,35.18,0,0,0-5.41,2.2"/><path class="cls-3" d="M43.68,103.21a25.69,25.69,0,0,1,10.4-9.43"/><path class="cls-3" d="M89.82,91.92c-11-3-21.72-3-30.33-.34"/><path class="cls-3" d="M56.57,150.08c-10.39-10.18-16.28-22.33-16.44-33.14"/><path class="cls-3" d="M43.68,103.21c-.1.15-.2.3-.29.46a25.48,25.48,0,0,0-3.26,13.27"/><path class="cls-3" d="M105.59,120.81a73.31,73.31,0,0,1-6.92-9.08,76.14,76.14,0,0,1-4.52-8.26"/><path class="cls-3" d="M89.82,91.92a72.69,72.69,0,0,0,4.33,11.55"/><path class="cls-3" d="M26.55,169.57A35,35,0,0,1,30.14,165"/><path class="cls-3" d="M26.55,169.57a25.7,25.7,0,0,0-4.29,13.36"/><path class="cls-3" d="M30.14,165c6.11-6.64,15.36-11.95,26.43-14.87"/><path class="cls-3" d="M26.05,196.6c5.54,9.28,16.73,16.86,30.81,20.48"/><path class="cls-3" d="M26.05,196.6a25.51,25.51,0,0,1-3.81-13.12c0-.18,0-.36,0-.55"/><path class="cls-3" d="M97.49,170.89c-9.17-2.24-17.36-4.91-23.35-8.07a77.76,77.76,0,0,1-8-4.89"/><path class="cls-3" d="M66.1,157.93a73.63,73.63,0,0,1-9.53-7.85"/><path class="cls-3" d="M40.61,249a33.81,33.81,0,0,1,.8-5.8"/><path class="cls-3" d="M40.61,249a25.69,25.69,0,0,0,3,13.72"/><path class="cls-3" d="M41.41,243.17c2-8.8,7.32-18,15.45-26.09"/><path class="cls-3" d="M90.61,275c-14,3.9-27.48,2.93-36.92-2.33"/><path class="cls-3" d="M53.69,272.63a25.44,25.44,0,0,1-9.86-9.46c-.1-.16-.17-.32-.26-.48"/><path class="cls-3" d="M83.39,218.91c-1.73.21-3.38.36-4.94.42a77.25,77.25,0,0,1-9.42-.22"/><path class="cls-3" d="M69,219.11a73.42,73.42,0,0,1-12.17-2"/><path class="cls-3" d="M90.28,305.28a33.93,33.93,0,0,0,2.2,5.42"/><path class="cls-3" d="M101.9,321.1a25.74,25.74,0,0,1-9.42-10.4"/><path class="cls-3" d="M148.78,308.2c-10.18,10.39-22.34,16.29-33.14,16.45"/><path class="cls-3" d="M101.9,321.1l.47.29a25.46,25.46,0,0,0,13.27,3.26"/><path class="cls-3" d="M90.61,275c-3,11.05-3,21.71-.33,30.32"/><path class="cls-3" d="M110,266.36a80.39,80.39,0,0,1-7.85,4.27"/><path class="cls-3" d="M102.17,270.63A73.78,73.78,0,0,1,90.61,275"/><path class="cls-3" d="M168.27,338.22a34.2,34.2,0,0,1-4.62-3.59"/><path class="cls-3" d="M168.27,338.22a25.62,25.62,0,0,0,13.36,4.3"/><path class="cls-3" d="M163.65,334.63c-6.64-6.1-12-15.35-14.87-26.43"/><path class="cls-3" d="M195.29,338.73c9.28-5.55,16.87-16.73,20.49-30.82"/><path class="cls-3" d="M195.29,338.73a25.48,25.48,0,0,1-13.11,3.81l-.55,0"/><path class="cls-3" d="M215.78,307.91c0-.12.05-.24.08-.36"/><path class="cls-3" d="M163.74,285.86c-.71,1.71-1.45,3.31-2.22,4.78a77.82,77.82,0,0,1-4.9,8"/><path class="cls-3" d="M148.78,308.2a72.66,72.66,0,0,0,7.84-9.52"/><path class="cls-3" d="M217.11,301.47q-.5,3.12-1.25,6.08"/><path class="cls-3" d="M217.81,295.75a77.33,77.33,0,0,0,.21-9.42,92,92,0,0,0-3.13-18.62"/><path class="cls-3" d="M217.81,295.75c-.16,1.94-.4,3.85-.7,5.72"/><path class="cls-3" d="M163.74,285.86a24.39,24.39,0,0,0,16,6.34c7.38,0,14.3-3.72,19.49-9.82"/><path class="cls-3" d="M199.21,282.38h0"/><path class="cls-3" d="M151.73,262.92c1.49,9.53,6,17.68,12,22.94"/><path class="cls-3" d="M202.71,277.44a36.41,36.41,0,0,1-3.49,4.94"/><path class="cls-3" d="M207.82,262.7a40.37,40.37,0,0,1-5.11,14.74"/><path class="cls-3" d="M247.67,267.46l.42-.33a21,21,0,0,0,2.15-2.07"/><path class="cls-3" d="M250.24,265.06c.35-.38.68-.78,1-1.18"/><path class="cls-3" d="M250.65,226.47a39.72,39.72,0,0,1,5.92,17.33"/><path class="cls-3" d="M256.57,243.8A30.14,30.14,0,0,1,254.2,259"/><path class="cls-3" d="M251.24,263.88a23.88,23.88,0,0,0,3-4.88"/><path class="cls-3" d="M230.9,272.51a36.24,36.24,0,0,1-16-4.8"/><path class="cls-3" d="M207.82,262.7a43.81,43.81,0,0,0,7.07,5"/><path class="cls-3" d="M247.67,267.46a22.46,22.46,0,0,1-4.28,2.69"/><path class="cls-3" d="M242.79,270.42l.6-.27"/><path class="cls-3" d="M230.9,272.51a26.25,26.25,0,0,0,11.89-2.09"/><path class="cls-3" d="M186.16,214.81c-.12-.48-.23-1-.34-1.43"/><path class="cls-3" d="M193.07,238.68a228.52,228.52,0,0,1-6.91-23.87"/><path class="cls-3" d="M207.82,262.7a46.17,46.17,0,0,1-5.91-6.23c-3.28-4.18-6.24-10.56-8.84-17.79"/><path class="cls-3" d="M250.65,226.47c10.28.19,19.61-3.21,25.89-8.89"/><path class="cls-3" d="M284.66,201.08c.52-12.29-9.18-24.58-23.85-29.68"/><path class="cls-3" d="M280.4,213.27a22.78,22.78,0,0,0,4-9.29,21.78,21.78,0,0,0,.31-2.9"/><path class="cls-3" d="M278.92,215.14a27.38,27.38,0,0,1-2.38,2.44"/><path class="cls-3" d="M280.4,213.27c-.46.64-1,1.27-1.48,1.87"/><path class="cls-3" d="M260.17,171.18l.64.22"/><path class="cls-3" d="M189.41,192.91l2.72,2.2"/><path class="cls-3" d="M250.65,226.47a46,46,0,0,1-8.53-1,42.84,42.84,0,0,1-8-2.7"/><path class="cls-3" d="M192.13,195.11c11.12,8.91,28.39,21.8,42,27.69"/><path class="cls-3" d="M274.24,148.11a24,24,0,0,0-2.71-15.81c-3.16-5.47-8.52-9.29-14.95-11.18"/><path class="cls-3" d="M260.17,171.18c7.88-6.36,12.81-14.8,14.07-23.07"/><path class="cls-3" d="M256.58,121.12a38.22,38.22,0,0,0-24.65,1.59"/><path class="cls-3" d="M191.65,184.84c16.72-.24,47.82-1.68,61.36-8.91a46.19,46.19,0,0,0,6.56-4.26"/><path class="cls-3" d="M189.72,184.86l1.93,0"/><path class="cls-3" d="M260.17,171.18l-.6.49"/><path class="cls-3" d="M216.61,86c10.92,4.57,17.21,17.59,16,32"/><path class="cls-3" d="M232.59,118.05a44.64,44.64,0,0,1-.66,4.66"/><path class="cls-3" d="M179.14,103.74a38,38,0,0,1,18.24-17.23"/><path class="cls-3" d="M197.38,86.51a25.81,25.81,0,0,1,14.68-1.84"/><path class="cls-3" d="M216.61,86c-.32-.14-.64-.27-1-.39s-.65-.22-1-.32"/><path class="cls-3" d="M214.67,85.31a21.59,21.59,0,0,0-2.61-.64"/><path class="cls-3" d="M192.19,173.74c13-11.5,32.14-29.94,37.3-42.79a45.94,45.94,0,0,0,2.44-8.24"/><path class="cls-3" d="M166.28,89.55a40.4,40.4,0,0,1,12.86,14.19"/><path class="cls-3" d="M145.9,84.93a22.42,22.42,0,0,0-3.08.87c-10.31,3.75-16.87,14.9-17.19,27.84"/><path class="cls-3" d="M166.28,89.55c-6.4-4.23-13.64-6-20.38-4.62"/><path class="cls-3" d="M125.63,113.64a41.4,41.4,0,0,0,.87,9.5"/><path class="cls-3" d="M105.59,120.81c-8,1.37-14.72,5.48-18.44,11.93a24.14,24.14,0,0,0-2.8,15.38"/><path class="cls-3" d="M105.59,120.81a39.82,39.82,0,0,1,20.91,2.33"/><path class="cls-3" d="M97.49,170.89c.38.32.76.63,1.16.94"/><path class="cls-3" d="M85,151.66a29.43,29.43,0,0,1-.68-3.54"/><path class="cls-3" d="M97.49,170.89a38,38,0,0,1-12.33-18.77"/><path class="cls-3" d="M85.16,152.12c0-.16-.09-.31-.13-.46"/><path class="cls-3" d="M172.47,175.45c-8.6-14.39-25.31-40.41-38.28-48.49a46.23,46.23,0,0,0-7.69-3.82"/><path class="cls-3" d="M98.65,171.83c-14.41,4.94-24.14,16.57-24.3,28.53"/><path class="cls-3" d="M74.35,200.36a21.42,21.42,0,0,0,.26,3.65"/><path class="cls-3" d="M83.39,218.91c6.31,5.29,15.34,8.43,25.22,8.13"/><path class="cls-3" d="M83.39,218.91a26.18,26.18,0,0,1-6.52-8"/><path class="cls-3" d="M76.87,210.91a22.55,22.55,0,0,1-2.2-6.43l-.06-.47"/><path class="cls-3" d="M98.65,171.83l1.16-.39"/><path class="cls-3" d="M99.81,171.44a46.78,46.78,0,0,1,7.19-1.62c13.48-1.92,38.4,5.17,54.87,10.63"/><path class="cls-3" d="M102.79,249.94a39,39,0,0,1,5.82-22.9"/><path class="cls-3" d="M150.27,264.17c-12.57,10.23-29,11.69-39,3.29-.42-.35-.82-.72-1.21-1.1"/><path class="cls-3" d="M110,266.36a23,23,0,0,1-5-7.35"/><path class="cls-3" d="M102.79,249.94c0,.46.08.91.14,1.36"/><path class="cls-3" d="M102.93,251.3A27.94,27.94,0,0,0,105,259"/><path class="cls-3" d="M151.73,262.92c-.48.43-1,.84-1.46,1.25"/><path class="cls-3" d="M151.73,262.92c-.14-.87-.26-1.75-.34-2.64"/><path class="cls-3" d="M178.35,189.44l.06-.11"/><path class="cls-3" d="M180.87,189.1h0"/><path class="cls-3" d="M181,189.29l0-.22"/><path class="cls-3" d="M185.82,213.38c-2.45-10.48-4.1-19.74-4.83-24.09"/><path class="cls-3" d="M182.76,187.36l.15.13"/><path class="cls-3" d="M183.77,188.22l-.86-.73"/><path class="cls-3" d="M184,188.42l-.23-.2"/><path class="cls-3" d="M184,188.42c1.41,1.19,3.25,2.72,5.41,4.49"/><path class="cls-3" d="M183.19,184.87h0"/><path class="cls-3" d="M185.28,184.88h-2.06"/><path class="cls-3" d="M185.28,184.88c1.27,0,2.77,0,4.44,0"/><path class="cls-3" d="M181.92,182.54c.91-.76,2.08-1.72,3.45-2.89"/><path class="cls-3" d="M185.37,179.65c1.93-1.63,4.25-3.63,6.82-5.91"/><path class="cls-3" d="M180.09,177.15c-.17,1-.34,2-.49,2.83"/><path class="cls-3" d="M179.56,180.2c-.09.49-.17.92-.24,1.33"/><path class="cls-3" d="M179.14,103.74a45.75,45.75,0,0,1,3.43,7.87c5.14,15.72.12,50.35-2.48,65.54"/><path class="cls-3" d="M179.56,180.2c0-.07,0-.15,0-.22"/><path class="cls-3" d="M176,181.53l.61,1.05"/><path class="cls-3" d="M172.47,175.45c1.42,2.39,2.63,4.46,3.55,6.08"/><path class="cls-3" d="M175.37,185.19l-.32-.12"/><path class="cls-3" d="M175.05,185.07c-2.86-1.06-7.52-2.74-13.18-4.62"/><path class="cls-3" d="M178.35,189.44c-5.6,9.52-26.54,46.29-27.15,64.91a44.7,44.7,0,0,0,.19,5.93"/><path class="cls-3" d="M176.17,187.88c-10.5,3.73-50,18.41-62.46,32.25a45.68,45.68,0,0,0-5.1,6.91"/><path class="cls-3" d="M176.17,187.88a4,4,0,0,0,2.2,1.44"/><path class="cls-3" d="M176.63,182.58a3.9,3.9,0,0,1,2.67-1.05h0"/><path class="cls-3" d="M175.37,185.19a3.94,3.94,0,0,1,1.26-2.61"/><path class="cls-3" d="M178.37,189.32h0"/><path class="cls-3" d="M181.92,182.54a4,4,0,0,0-2.6-1"/><path class="cls-3" d="M183.19,184.88a4.07,4.07,0,0,1,.06.6,3.84,3.84,0,0,1-.49,1.88"/><path class="cls-3" d="M182.73,187.42l0-.06"/><path class="cls-3" d="M183.19,184.87h0"/><path class="cls-3" d="M180.88,189.11l.07,0"/><path class="cls-3" d="M176.17,187.88a3.92,3.92,0,0,1-.83-2.4c0-.1,0-.19,0-.29"/><path class="cls-3" d="M180.88,189.11a4,4,0,0,1-1.58.33,3.74,3.74,0,0,1-.89-.11"/><path class="cls-3" d="M182.73,187.42a4,4,0,0,1-1.78,1.65"/><path class="cls-3" d="M183.19,184.87a3.85,3.85,0,0,0-1.27-2.33"/><path class="cls-3" d="M601.07,952.25c-4.39,14.58-8.07,29.8-8.3,40.35-.57,26.06,10.51,47.2,23.48,47.2s24.19-21,23.49-47"/><path class="cls-3" d="M744.23,952.24c13.57,22.11,14.33,46,3.13,52.41s-31.4-6.28-43.93-29.13c-5.08-9.25-9.5-24.27-13-39.1"/><path class="cls-3" d="M814.42,864.84c22.81,12.36,35.38,32.62,28.92,43.82S813,918.92,790.72,905.4c-9-5.47-20.36-16.27-30.8-27.36"/><path class="cls-3" d="M790.91,792.73c14.58,4.38,29.8,8.07,40.35,8.3,26,.57,47.2-10.52,47.2-23.49s-21-24.19-47-23.49"/><path class="cls-3" d="M775.08,703.36c14.83-3.5,29.85-7.91,39.1-13,22.85-12.53,35.62-32.7,29.13-43.94S813,636,790.9,649.57"/><path class="cls-3" d="M716.7,633.87c11.09-10.43,21.89-21.77,27.36-30.79,13.52-22.28,14.49-46.13,3.26-52.62s-31.46,6.11-43.82,28.92"/><path class="cls-3" d="M631.39,602.89c4.38-14.58,8.07-29.8,8.3-40.35.57-26.06-10.52-47.2-23.49-47.2s-24.19,21-23.49,46.95"/><path class="cls-3" d="M616.35,598.06a31.83,31.83,0,0,0-.17-6.92,37.06,37.06,0,0,0-23.47-28.85"/><path class="cls-3" d="M488.23,602.89c-13.58-22.11-14.34-45.94-3.14-52.41s31.4,6.29,43.94,29.14c5.08,9.25,9.49,24.27,13,39.09"/><path class="cls-3" d="M526.58,622a31.5,31.5,0,0,0-3.61-5.9,37,37,0,0,0-34.74-13.25"/><path class="cls-3" d="M418,690.3c-22.81-12.37-35.39-32.63-28.92-43.82s30.34-10.27,52.62,3.26c9,5.47,20.36,16.27,30.79,27.36"/><path class="cls-3" d="M441.55,762.41c-14.58-4.39-29.8-8.07-40.35-8.3-26.06-.57-47.2,10.51-47.2,23.48s21,24.19,46.95,23.49"/><path class="cls-3" d="M457.37,851.78c-14.82,3.49-29.84,7.91-39.09,13-22.85,12.53-35.62,32.7-29.14,43.93s30.3,10.44,52.41-3.13"/><path class="cls-3" d="M515.76,921.26c-11.09,10.44-21.89,21.78-27.37,30.8-13.52,22.28-14.49,46.13-3.25,52.62s31.45-6.11,43.82-28.92"/><path class="cls-3" d="M595.87,948.21c.43,6,.24,11.4-.89,15.47-5.76,20.69-28.69,31.23-48.55,24.43A38.25,38.25,0,0,1,529,975.76"/><path class="cls-3" d="M526.37,933a30.92,30.92,0,0,0-3.31,6.07,37,37,0,0,0,5.9,36.72"/><path class="cls-3" d="M683.92,935.52c3.38,5,5.91,9.76,7,13.85,5.36,20.79-9.23,41.39-29.83,45.43a38.36,38.36,0,0,1-21.31-2"/><path class="cls-3" d="M616.11,957.08a31.85,31.85,0,0,0,.17,6.92,37,37,0,0,0,23.46,28.84"/><path class="cls-3" d="M744.23,952.24a38.22,38.22,0,0,0,19.43-9c15.82-13.8,18.16-38.93,3.12-54.25-2.95-3-7.52-5.87-12.95-8.51"/><path class="cls-3" d="M744.23,952.24A37.06,37.06,0,0,1,709.48,939a31.69,31.69,0,0,1-3.6-5.9"/><path class="cls-3" d="M814.42,864.84a38.33,38.33,0,0,0,12.35-17.48c6.8-19.86-3.74-42.79-24.43-48.54-4.07-1.13-9.44-1.32-15.47-.89"/><path class="cls-3" d="M771.63,867.43a32,32,0,0,0,6.07,3.31,37.06,37.06,0,0,0,36.72-5.9"/><path class="cls-3" d="M831.5,754.05a38.35,38.35,0,0,0,2-21.31c-4-20.6-24.64-35.18-45.43-29.83-4.09,1.06-8.84,3.58-13.85,7"/><path class="cls-3" d="M831.5,754.05a37,37,0,0,1-28.84,23.47,31.85,31.85,0,0,1-6.92.17"/><path class="cls-3" d="M719.18,640c2.64-5.44,5.49-10,8.51-13,15.32-15,40.45-12.71,54.25,3.12a38.22,38.22,0,0,1,9,19.43"/><path class="cls-3" d="M771.75,687.92a31.18,31.18,0,0,0,5.9-3.61,37,37,0,0,0,13.25-34.74"/><path class="cls-3" d="M636.59,606.93c-.43-6-.24-11.41.89-15.47,5.75-20.69,28.68-31.23,48.54-24.43a38.26,38.26,0,0,1,17.48,12.35"/><path class="cls-3" d="M706.09,622.17a32.06,32.06,0,0,0,3.31-6.08,37,37,0,0,0-5.9-36.71"/><path class="cls-3" d="M548.54,619.61c-3.39-5-5.91-9.76-7-13.84-5.35-20.8,9.23-41.39,29.83-45.43a38.25,38.25,0,0,1,21.31,1.95"/><path class="cls-3" d="M488.23,602.89a38.3,38.3,0,0,0-19.43,9c-15.83,13.8-18.16,38.93-3.12,54.26,2.95,3,7.51,5.87,12.95,8.51"/><path class="cls-3" d="M418,690.3a38.18,38.18,0,0,0-12.35,17.47c-6.8,19.86,3.74,42.79,24.43,48.55,4.06,1.13,9.44,1.32,15.47.89"/><path class="cls-3" d="M418,690.3a37,37,0,0,1,36.71-5.9,31,31,0,0,1,6.08,3.31"/><path class="cls-3" d="M458.27,845.26c-5,3.38-9.76,5.91-13.84,7C423.63,857.58,403,843,399,822.39A38.27,38.27,0,0,1,401,801.08"/><path class="cls-3" d="M401,801.08a37.05,37.05,0,0,1,28.85-23.46,31.76,31.76,0,0,1,6.91-.17"/><path class="cls-3" d="M513.28,915.17c-2.64,5.43-5.5,10-8.51,13-15.33,15-40.46,12.7-54.26-3.12a38.3,38.3,0,0,1-9-19.43"/><path class="cls-3" d="M460.7,867.22a32,32,0,0,0-5.9,3.6,37.06,37.06,0,0,0-13.25,34.75"/><path class="cls-3" d="M683.92,935.52a37.28,37.28,0,0,0,6.52.9"/><path class="cls-3" d="M690.44,936.42a28.92,28.92,0,0,0,15.44-3.33"/><path class="cls-3" d="M683.92,935.52c-9.92-2.2-20.3-8.24-29.38-17.39"/><path class="cls-3" d="M717.07,921.7c5.92-10.62,7-25.79,2.62-41.56"/><path class="cls-3" d="M717.07,921.7a28.74,28.74,0,0,1-10.64,11.11l-.55.28"/><path class="cls-3" d="M759.92,878a38.79,38.79,0,0,1-6.09,2.48"/><path class="cls-3" d="M771.63,867.43A28.88,28.88,0,0,1,759.92,878"/><path class="cls-3" d="M719.69,880.14c12.44,3.39,24.45,3.42,34.14.38"/><path class="cls-3" d="M775.63,852c-.18-12.16-6.82-25.85-18.51-37.3"/><path class="cls-3" d="M771.63,867.43c.11-.18.23-.34.33-.52A28.65,28.65,0,0,0,775.63,852"/><path class="cls-3" d="M700.46,846a78.31,78.31,0,0,1,14.36,21.16"/><path class="cls-3" d="M714.82,867.13a82.26,82.26,0,0,1,4.87,13"/><path class="cls-3" d="M790.91,792.73a39.76,39.76,0,0,1-4,5.2"/><path class="cls-3" d="M790.91,792.73a28.85,28.85,0,0,0,4.83-15"/><path class="cls-3" d="M757.12,814.67c12.46-3.29,22.88-9.26,29.75-16.74"/><path class="cls-3" d="M791.47,762.31c-6.24-10.45-18.82-19-34.68-23.06"/><path class="cls-3" d="M791.47,762.31a28.68,28.68,0,0,1,4.3,14.76c0,.21,0,.41,0,.62"/><path class="cls-3" d="M746.4,805.84a87.31,87.31,0,0,0-9.06-5.51c-1.61-.85-3.38-1.67-5.26-2.46"/><path class="cls-3" d="M746.4,805.84a82.35,82.35,0,0,1,10.72,8.83"/><path class="cls-3" d="M775.08,703.36a37.28,37.28,0,0,1-.9,6.52"/><path class="cls-3" d="M775.08,703.36a28.92,28.92,0,0,0-3.33-15.44"/><path class="cls-3" d="M756.79,739.25c9.15-9.08,15.19-19.46,17.39-29.37"/><path class="cls-3" d="M760.36,676.73c-10.62-5.93-25.79-7-41.56-2.63"/><path class="cls-3" d="M760.36,676.73a28.58,28.58,0,0,1,11.1,10.64c.11.18.19.37.29.55"/><path class="cls-3" d="M743.09,737a86.44,86.44,0,0,0-10.6-.25,81.47,81.47,0,0,0-12.14,1.53"/><path class="cls-3" d="M743.09,737a82.47,82.47,0,0,1,13.7,2.28"/><path class="cls-3" d="M719.18,640a39.31,39.31,0,0,0-2.48-6.1"/><path class="cls-3" d="M706.09,622.17a28.86,28.86,0,0,1,10.61,11.7"/><path class="cls-3" d="M719.18,640c3,9.69,3,21.7-.38,34.13"/><path class="cls-3" d="M690.63,618.17c-12.16.18-25.85,6.82-37.3,18.51"/><path class="cls-3" d="M706.09,622.17c-.18-.11-.34-.23-.52-.33a28.65,28.65,0,0,0-14.94-3.67"/><path class="cls-3" d="M705.79,679a89.36,89.36,0,0,0-9.3,5.09c-7,4.43-15,11.74-23,20.35"/><path class="cls-3" d="M705.79,679a83.25,83.25,0,0,1,13-4.87"/><path class="cls-3" d="M631.39,602.89a38.92,38.92,0,0,1,5.2,4"/><path class="cls-3" d="M631.39,602.89a28.85,28.85,0,0,0-15-4.83"/><path class="cls-3" d="M636.59,606.93c7.48,6.87,13.45,17.29,16.74,29.75"/><path class="cls-3" d="M601,602.32c-10.45,6.24-19,18.83-23.06,34.69"/><path class="cls-3" d="M601,602.32A28.66,28.66,0,0,1,615.73,598c.21,0,.41,0,.62,0"/><path class="cls-3" d="M644.5,647.4a86.27,86.27,0,0,0-5.51,9.06,83.42,83.42,0,0,0-5.15,12.45"/><path class="cls-3" d="M644.5,647.4a81.69,81.69,0,0,1,8.83-10.72"/><path class="cls-3" d="M548.54,619.61a39.28,39.28,0,0,0-6.52-.9"/><path class="cls-3" d="M526.58,622A28.92,28.92,0,0,1,542,618.71"/><path class="cls-3" d="M548.54,619.61c9.91,2.21,20.29,8.25,29.37,17.4"/><path class="cls-3" d="M515.39,633.43c-5.93,10.63-7,25.8-2.63,41.57"/><path class="cls-3" d="M526.58,622l-.55.29a28.71,28.71,0,0,0-10.64,11.1"/><path class="cls-3" d="M575.89,667.14c-.26-2-.44-4-.51-5.84a86.49,86.49,0,0,1,.25-10.6"/><path class="cls-3" d="M577.91,637a82.52,82.52,0,0,0-2.28,13.69"/><path class="cls-3" d="M478.63,674.62a38.35,38.35,0,0,0-6.1,2.48"/><path class="cls-3" d="M460.83,687.71a28.86,28.86,0,0,1,11.7-10.61"/><path class="cls-3" d="M512.76,675c-12.43-3.39-24.44-3.42-34.13-.38"/><path class="cls-3" d="M475.34,740.47C463.65,729,457,715.33,456.83,703.16"/><path class="cls-3" d="M460.83,687.71c-.11.17-.23.34-.33.52a28.63,28.63,0,0,0-3.67,14.93"/><path class="cls-3" d="M530.52,707.52a83.06,83.06,0,0,1-7.8-10.22,89.36,89.36,0,0,1-5.09-9.3"/><path class="cls-3" d="M512.76,675a83.15,83.15,0,0,0,4.87,13"/><path class="cls-3" d="M441.55,762.41a38.29,38.29,0,0,1,4-5.2"/><path class="cls-3" d="M441.55,762.41a29,29,0,0,0-4.84,15"/><path class="cls-3" d="M445.59,757.21c6.87-7.48,17.29-13.45,29.75-16.74"/><path class="cls-3" d="M441,792.83c6.24,10.45,18.83,19,34.69,23"/><path class="cls-3" d="M441,792.83a28.7,28.7,0,0,1-4.29-14.77c0-.2,0-.41,0-.61"/><path class="cls-3" d="M521.4,763.89c-10.33-2.53-19.55-5.53-26.28-9.08a88,88,0,0,1-9.06-5.51"/><path class="cls-3" d="M486.06,749.3a82.49,82.49,0,0,1-10.72-8.83"/><path class="cls-3" d="M457.37,851.78a39.28,39.28,0,0,1,.9-6.52"/><path class="cls-3" d="M457.37,851.78a28.92,28.92,0,0,0,3.33,15.44"/><path class="cls-3" d="M458.27,845.26c2.21-9.92,8.25-20.3,17.4-29.38"/><path class="cls-3" d="M513.66,881c-15.77,4.4-30.94,3.3-41.57-2.62"/><path class="cls-3" d="M472.09,878.41A28.78,28.78,0,0,1,461,867.77l-.29-.55"/><path class="cls-3" d="M505.52,817.94c-1.94.25-3.8.41-5.56.47a86.51,86.51,0,0,1-10.6-.24"/><path class="cls-3" d="M489.36,818.17a81.49,81.49,0,0,1-13.69-2.29"/><path class="cls-3" d="M513.28,915.17a37.85,37.85,0,0,0,2.48,6.09"/><path class="cls-3" d="M526.37,933a28.88,28.88,0,0,1-10.61-11.71"/><path class="cls-3" d="M579.13,918.46C567.67,930.15,554,936.79,541.82,937"/><path class="cls-3" d="M526.37,933c.17.11.34.23.52.33A28.63,28.63,0,0,0,541.82,937"/><path class="cls-3" d="M513.66,881c-3.39,12.44-3.43,24.45-.38,34.14"/><path class="cls-3" d="M535.5,871.35a85.84,85.84,0,0,1-8.84,4.81"/><path class="cls-3" d="M526.66,876.16a82.16,82.16,0,0,1-13,4.87"/><path class="cls-3" d="M601.07,952.25a39.11,39.11,0,0,1-5.2-4"/><path class="cls-3" d="M601.07,952.25a28.85,28.85,0,0,0,15,4.83"/><path class="cls-3" d="M595.87,948.21c-7.48-6.87-13.45-17.29-16.74-29.75"/><path class="cls-3" d="M631.49,952.81c10.45-6.24,19-18.82,23-34.68"/><path class="cls-3" d="M631.49,952.81a28.71,28.71,0,0,1-14.77,4.3l-.61,0"/><path class="cls-3" d="M654.54,918.13c0-.13.07-.27.1-.41"/><path class="cls-3" d="M596,893.31c-.81,1.92-1.64,3.72-2.51,5.37a89.08,89.08,0,0,1-5.51,9.06"/><path class="cls-3" d="M579.13,918.46A83.17,83.17,0,0,0,588,907.74"/><path class="cls-3" d="M656.05,910.88q-.57,3.51-1.41,6.84"/><path class="cls-3" d="M656.83,904.43a86.46,86.46,0,0,0,.24-10.6,103.6,103.6,0,0,0-3.53-21"/><path class="cls-3" d="M656.83,904.43q-.27,3.29-.78,6.45"/><path class="cls-3" d="M596,893.31a27.41,27.41,0,0,0,18,7.13c8.3,0,16.1-4.18,21.94-11.05"/><path class="cls-3" d="M635.9,889.39h0"/><path class="cls-3" d="M582.45,867.49c1.68,10.72,6.7,19.89,13.53,25.82"/><path class="cls-3" d="M639.83,883.83a38.66,38.66,0,0,1-3.93,5.55"/><path class="cls-3" d="M645.59,867.23a45.45,45.45,0,0,1-5.76,16.6"/><path class="cls-3" d="M690.45,872.59l.47-.36a26.56,26.56,0,0,0,2.41-2.33"/><path class="cls-3" d="M693.33,869.9c.4-.44.77-.88,1.13-1.34"/><path class="cls-3" d="M693.8,826.45A44.78,44.78,0,0,1,700.46,846"/><path class="cls-3" d="M700.46,846a33.92,33.92,0,0,1-2.66,17.1"/><path class="cls-3" d="M694.46,868.56a26.57,26.57,0,0,0,3.34-5.49"/><path class="cls-3" d="M671.57,878.28a40.72,40.72,0,0,1-18-5.41"/><path class="cls-3" d="M645.59,867.23a48.89,48.89,0,0,0,7.95,5.64"/><path class="cls-3" d="M690.45,872.59a25,25,0,0,1-4.82,3"/><path class="cls-3" d="M685,875.92l.68-.3"/><path class="cls-3" d="M671.57,878.28A29.47,29.47,0,0,0,685,875.92"/><path class="cls-3" d="M621.2,813.32c-.12-.53-.25-1.07-.38-1.6"/><path class="cls-3" d="M629,840.2a260.75,260.75,0,0,1-7.78-26.88"/><path class="cls-3" d="M645.59,867.23a51.16,51.16,0,0,1-6.66-7c-3.69-4.7-7-11.88-9.95-20"/><path class="cls-3" d="M693.8,826.45c11.57.22,22.07-3.61,29.14-10"/><path class="cls-3" d="M732.08,797.87c.58-13.83-10.33-27.67-26.84-33.41"/><path class="cls-3" d="M727.29,811.59a25.63,25.63,0,0,0,4.44-10.45,24.2,24.2,0,0,0,.35-3.27"/><path class="cls-3" d="M725.62,813.71a32.92,32.92,0,0,1-2.68,2.74"/><path class="cls-3" d="M727.29,811.59c-.52.73-1.08,1.43-1.67,2.12"/><path class="cls-3" d="M704.52,764.22l.72.24"/><path class="cls-3" d="M624.87,788.67l3.06,2.48"/><path class="cls-3" d="M693.8,826.45a51,51,0,0,1-9.61-1.09,48.37,48.37,0,0,1-9-3"/><path class="cls-3" d="M627.93,791.15c12.52,10,32,24.54,47.23,31.18"/><path class="cls-3" d="M720.35,738.25a27.13,27.13,0,0,0-3.05-17.8c-3.55-6.16-9.59-10.46-16.82-12.58"/><path class="cls-3" d="M704.52,764.22c8.87-7.17,14.42-16.66,15.83-26"/><path class="cls-3" d="M700.48,707.87c-8.32-2.45-18.22-2-27.75,1.79"/><path class="cls-3" d="M627.39,779.59c18.81-.26,53.83-1.89,69.07-10a50.73,50.73,0,0,0,7.37-4.79"/><path class="cls-3" d="M625.22,779.62l2.17,0"/><path class="cls-3" d="M704.52,764.22c-.23.18-.45.37-.69.55"/><path class="cls-3" d="M655.48,668.36c12.29,5.15,19.37,19.8,18,36"/><path class="cls-3" d="M673.47,704.41a50.59,50.59,0,0,1-.74,5.25"/><path class="cls-3" d="M613.3,688.3c5-9.2,12.43-16,20.54-19.39"/><path class="cls-3" d="M633.84,668.91a29.09,29.09,0,0,1,16.52-2.07"/><path class="cls-3" d="M655.48,668.36c-.36-.16-.72-.31-1.09-.44s-.73-.25-1.09-.36"/><path class="cls-3" d="M653.3,667.56a25.2,25.2,0,0,0-2.94-.72"/><path class="cls-3" d="M628,767.11c14.62-13,36.18-33.71,42-48.18a51.7,51.7,0,0,0,2.75-9.27"/><path class="cls-3" d="M598.83,672.34a45.34,45.34,0,0,1,14.47,16"/><path class="cls-3" d="M575.89,667.14a25.22,25.22,0,0,0-3.47,1c-11.6,4.22-19,16.77-19.35,31.34"/><path class="cls-3" d="M598.83,672.34c-7.2-4.77-15.35-6.77-22.94-5.2"/><path class="cls-3" d="M553.07,699.45a46.83,46.83,0,0,0,1,10.69"/><path class="cls-3" d="M530.52,707.52c-9,1.54-16.57,6.16-20.76,13.43a27.11,27.11,0,0,0-3.15,17.31"/><path class="cls-3" d="M530.52,707.52a44.74,44.74,0,0,1,23.53,2.62"/><path class="cls-3" d="M521.4,763.89c.42.36.86.71,1.3,1.06"/><path class="cls-3" d="M507.37,742.24a32.44,32.44,0,0,1-.76-4"/><path class="cls-3" d="M521.4,763.89a42.83,42.83,0,0,1-13.88-21.13"/><path class="cls-3" d="M507.52,742.76l-.15-.52"/><path class="cls-3" d="M605.8,769c-9.68-16.21-28.49-45.49-43.09-54.58a51,51,0,0,0-8.66-4.31"/><path class="cls-3" d="M522.7,765c-16.21,5.56-27.17,18.65-27.35,32.11"/><path class="cls-3" d="M495.35,797.06a24.71,24.71,0,0,0,.29,4.11"/><path class="cls-3" d="M505.52,817.94c7.1,6,17.27,9.49,28.39,9.15"/><path class="cls-3" d="M505.52,817.94a29.51,29.51,0,0,1-7.33-9"/><path class="cls-3" d="M498.19,808.94a25.13,25.13,0,0,1-2.48-7.24c0-.17,0-.35-.07-.53"/><path class="cls-3" d="M522.7,765c.43-.15.87-.3,1.31-.43"/><path class="cls-3" d="M524,764.52a51,51,0,0,1,8.09-1.83c15.18-2.16,43.23,5.82,61.77,12"/><path class="cls-3" d="M527.36,852.87a44,44,0,0,1,6.55-25.78"/><path class="cls-3" d="M580.81,868.89c-14.15,11.52-32.67,13.16-43.94,3.7-.48-.39-.93-.81-1.37-1.24"/><path class="cls-3" d="M535.5,871.35a25.94,25.94,0,0,1-5.65-8.27"/><path class="cls-3" d="M527.36,852.87c0,.52.1,1,.16,1.54"/><path class="cls-3" d="M527.52,854.41a31.43,31.43,0,0,0,2.33,8.67"/><path class="cls-3" d="M582.45,867.49c-.54.48-1.09.94-1.64,1.4"/><path class="cls-3" d="M582.45,867.49c-.16-1-.29-2-.39-3"/><path class="cls-3" d="M612.42,784.77l.07-.12"/><path class="cls-3" d="M615.26,784.39h0"/><path class="cls-3" d="M615.38,784.61l0-.26"/><path class="cls-3" d="M620.82,811.72c-2.76-11.8-4.61-22.22-5.44-27.11"/><path class="cls-3" d="M617.38,782.43l.17.14"/><path class="cls-3" d="M618.52,783.4c-.35-.3-.68-.57-1-.83"/><path class="cls-3" d="M618.78,783.62l-.26-.22"/><path class="cls-3" d="M618.78,783.62c1.58,1.34,3.65,3.07,6.09,5"/><path class="cls-3" d="M617.87,779.62h0"/><path class="cls-3" d="M620.22,779.64l-2.32,0"/><path class="cls-3" d="M620.22,779.64l5,0"/><path class="cls-3" d="M616.43,777l3.89-3.25"/><path class="cls-3" d="M620.32,773.76c2.17-1.84,4.78-4.1,7.67-6.65"/><path class="cls-3" d="M614.38,770.93c-.2,1.17-.39,2.24-.56,3.19"/><path class="cls-3" d="M613.78,774.38c-.1.54-.19,1-.27,1.49"/><path class="cls-3" d="M613.3,688.3a51,51,0,0,1,3.86,8.87c5.79,17.69.14,56.67-2.78,73.76"/><path class="cls-3" d="M613.78,774.38c0-.09,0-.17,0-.26"/><path class="cls-3" d="M609.8,775.87l.68,1.19"/><path class="cls-3" d="M605.8,769c1.6,2.69,3,5,4,6.84"/><path class="cls-3" d="M609.07,780l-.37-.13"/><path class="cls-3" d="M608.7,779.86c-3.22-1.2-8.46-3.09-14.83-5.2"/><path class="cls-3" d="M612.42,784.77c-6.3,10.71-29.88,52.1-30.57,73.07a52.5,52.5,0,0,0,.21,6.67"/><path class="cls-3" d="M610,783c-11.82,4.19-56.33,20.71-70.31,36.3a50.9,50.9,0,0,0-5.75,7.77"/><path class="cls-3" d="M610,783a4.5,4.5,0,0,0,2.47,1.62"/><path class="cls-3" d="M610.48,777.06a4.37,4.37,0,0,1,3-1.19h0"/><path class="cls-3" d="M609.07,780a4.35,4.35,0,0,1,1.41-2.93"/><path class="cls-3" d="M612.44,784.64h0"/><path class="cls-3" d="M616.43,777a4.37,4.37,0,0,0-2.92-1.14"/><path class="cls-3" d="M617.87,779.64a4.89,4.89,0,0,1,.07.68,4.42,4.42,0,0,1-.56,2.11"/><path class="cls-3" d="M617.34,782.5a.25.25,0,0,0,0-.07"/><path class="cls-3" d="M617.87,779.62v0"/><path class="cls-3" d="M615.26,784.4l.08,0"/><path class="cls-3" d="M610,783a4.4,4.4,0,0,1-.94-2.7c0-.11,0-.22,0-.33"/><path class="cls-3" d="M615.26,784.4a4.36,4.36,0,0,1-1.78.37,4.62,4.62,0,0,1-1-.12"/><path class="cls-3" d="M617.34,782.5a4.37,4.37,0,0,1-2,1.85"/><path class="cls-3" d="M617.87,779.62a4.44,4.44,0,0,0-1.44-2.61"/></svg>