<svg id="Layer_1" data-name="Layer 1" xmlns="http://www.w3.org/2000/svg" viewBox="0 0 800 1000"><defs><style>.cls-1{opacity:0.3;}.cls-10,.cls-11,.cls-12,.cls-13,.cls-14,.cls-15,.cls-16,.cls-17,.cls-18,.cls-19,.cls-2,.cls-3,.cls-4,.cls-5,.cls-6,.cls-7,.cls-8,.cls-9{fill:none;stroke:#000;stroke-miterlimit:10;}.cls-2{stroke-width:3px;}.cls-3{stroke-width:3.13px;}.cls-4{stroke-width:3.25px;}.cls-5{stroke-width:3.38px;}.cls-6{stroke-width:3.5px;}.cls-7{stroke-width:3.63px;}.cls-8{stroke-width:3.75px;}.cls-9{stroke-width:3.88px;}.cls-10{stroke-width:4px;}.cls-11{stroke-width:4.13px;}.cls-12{stroke-width:4.25px;}.cls-13{stroke-width:4.38px;}.cls-14{stroke-width:4.5px;}.cls-15{stroke-width:4.63px;}.cls-16{stroke-width:4.75px;}.cls-17{stroke-width:4.88px;}.cls-18{stroke-width:5px;}.cls-19{stroke-width:6px;}</style></defs><g class="cls-1"><path class="cls-2" d="M-33.87,21.16S287-26.94,392.41,199.64,854.73,430,854.73,430"/><path class="cls-3" d="M-33.87,45.76S281.06-18.4,393.53,198s460.73,210.6,460.73,210.6"/><path class="cls-4" d="M-33.87,70.37s309-80.22,428.53,126S853.78,387.14,853.78,387.14"/><path class="cls-5" d="M-33.87,95s303-96.28,429.65,99.69,457.53,171,457.53,171"/><path class="cls-6" d="M-33.87,119.58S263.14,7.24,396.91,193,852.84,344.26,852.84,344.26"/><path class="cls-7" d="M-33.87,144.18s291-128.4,431.91,47.15S852.36,322.82,852.36,322.82"/><path class="cls-8" d="M-33.87,168.79s285.06-144.47,433,20.88S851.89,301.38,851.89,301.38"/><path class="cls-9" d="M-33.87,193.39S245.22,32.87,400.29,188s451.12,91.93,451.12,91.93"/><path class="cls-10" d="M-33.87,218S239.24,41.41,401.42,186.35,850.94,258.5,850.94,258.5"/><path class="cls-11" d="M-33.87,242.6S233.27,50,402.54,184.69s447.92,52.37,447.92,52.37"/><path class="cls-12" d="M-33.87,267.2S227.29,58.5,403.67,183,850,215.62,850,215.62"/><path class="cls-13" d="M-33.87,291.81S221.32,67.05,404.8,181.36s444.71,12.82,444.71,12.82"/><path class="cls-14" d="M-33.87,316.41S215.34,75.59,405.92,179.7s443.12-7,443.12-7"/><path class="cls-15" d="M-33.87,341S209.37,84.13,407.05,178,848.56,151.3,848.56,151.3"/><path class="cls-16" d="M-33.87,365.62S203.39,92.68,408.18,176.38s439.91-46.52,439.91-46.52"/><path class="cls-17" d="M-33.87,390.23s231.29-289,443.17-215.51,438.31-66.3,438.31-66.3"/><path class="cls-18" d="M-33.87,414.83s225.31-305.06,444.3-241.77S847.14,87,847.14,87"/></g><g class="cls-1"><path class="cls-19" d="M-50.8,1001c0-3.79,248.11-586.07,884.81-340.5"/><path class="cls-19" d="M-24,1005.06c0-3.45,249.36-563.06,854.66-323.47"/><path class="cls-19" d="M2.83,1009.09c0-3.11,250.63-540,824.51-306.44"/><path class="cls-19" d="M29.64,1013.12c0-2.76,251.9-517,794.36-289.42"/><path class="cls-19" d="M56.45,1017.14c0-2.41,253.17-494,764.22-272.38"/><path class="cls-19" d="M83.27,1021.17c0-2.07,254.43-471,734.06-255.35"/><path class="cls-19" d="M110.08,1025.2c0-1.73,255.69-448,703.91-238.32"/><path class="cls-19" d="M136.89,1029.23c0-1.38,257-425,673.76-221.29"/><path class="cls-19" d="M163.7,1033.26c0-1,258.23-402,643.62-204.26"/><path class="cls-19" d="M190.52,1037.28c0-.69,259.49-378.94,613.46-187.22"/><path class="cls-19" d="M217.33,1041.31c0-.34,260.76-355.93,583.31-170.19"/><path class="cls-19" d="M244.14,1045.34s262-332.91,553.17-153.17"/></g></svg>