<svg width="245" height="62" viewBox="0 0 245 62" fill="none" xmlns="http://www.w3.org/2000/svg">
<path d="M2.34238 16.6223H3.57438V11.2323C3.57438 10.1543 3.47638 9.06231 3.42038 8.02631H3.47638L4.58238 10.1403L8.32038 16.6223H9.65038V6.34631H8.41838V11.6943C8.41838 12.7583 8.51638 13.9063 8.58638 14.9423H8.51638L7.42438 12.8283L3.68638 6.34631H2.34238V16.6223ZM15.2879 16.8043C17.1499 16.8043 18.8159 15.3483 18.8159 12.8283C18.8159 10.2943 17.1499 8.82431 15.2879 8.82431C13.4259 8.82431 11.7599 10.2943 11.7599 12.8283C11.7599 15.3483 13.4259 16.8043 15.2879 16.8043ZM15.2879 15.7403C13.9719 15.7403 13.0899 14.5783 13.0899 12.8283C13.0899 11.0783 13.9719 9.88831 15.2879 9.88831C16.6039 9.88831 17.4999 11.0783 17.4999 12.8283C17.4999 14.5783 16.6039 15.7403 15.2879 15.7403ZM22.9584 16.8043C23.4204 16.8043 23.9244 16.6643 24.3584 16.5243L24.1064 15.5723C23.8544 15.6703 23.5044 15.7683 23.2384 15.7683C22.3564 15.7683 22.0624 15.2363 22.0624 14.2983V10.0563H24.1204V9.02031H22.0624V6.87831H20.9984L20.8444 9.02031L19.6544 9.09031V10.0563H20.7884V14.2703C20.7884 15.7823 21.3344 16.8043 22.9584 16.8043ZM28.5906 16.8043C30.4526 16.8043 32.1186 15.3483 32.1186 12.8283C32.1186 10.2943 30.4526 8.82431 28.5906 8.82431C26.7286 8.82431 25.0626 10.2943 25.0626 12.8283C25.0626 15.3483 26.7286 16.8043 28.5906 16.8043ZM28.5906 15.7403C27.2746 15.7403 26.3926 14.5783 26.3926 12.8283C26.3926 11.0783 27.2746 9.88831 28.5906 9.88831C29.9066 9.88831 30.8026 11.0783 30.8026 12.8283C30.8026 14.5783 29.9066 15.7403 28.5906 15.7403ZM40.2257 16.8043C42.3677 16.8043 43.7117 15.5163 43.7117 13.8923C43.7117 12.3663 42.7877 11.6663 41.5977 11.1483L40.1277 10.5183C39.3297 10.1823 38.4337 9.80431 38.4337 8.81031C38.4337 7.88631 39.1897 7.29831 40.3517 7.29831C41.3037 7.29831 42.0597 7.67631 42.6897 8.26431L43.3757 7.43831C42.6477 6.68231 41.5697 6.16431 40.3517 6.16431C38.4897 6.16431 37.1177 7.31231 37.1177 8.89431C37.1177 10.3923 38.2517 11.1203 39.2037 11.5263L40.6877 12.1703C41.6537 12.6043 42.3957 12.9403 42.3957 13.9903C42.3957 14.9983 41.5837 15.6703 40.2397 15.6703C39.1757 15.6703 38.1397 15.1663 37.4117 14.3963L36.6277 15.2783C37.5237 16.2163 38.7697 16.8043 40.2257 16.8043ZM47.3612 16.8043C48.2992 16.8043 49.1532 16.3143 49.8812 15.7123H49.9232L50.0352 16.6223H51.0852V11.9463C51.0852 10.0703 50.3012 8.82431 48.4532 8.82431C47.2352 8.82431 46.1572 9.37031 45.4572 9.81831L45.9612 10.7003C46.5632 10.2943 47.3612 9.88831 48.2432 9.88831C49.4892 9.88831 49.8112 10.8263 49.8112 11.8063C46.5772 12.1703 45.1352 12.9963 45.1352 14.6483C45.1352 16.0203 46.0872 16.8043 47.3612 16.8043ZM47.7252 15.7823C46.9692 15.7823 46.3812 15.4323 46.3812 14.5643C46.3812 13.5843 47.2492 12.9543 49.8112 12.6463V14.7743C49.0692 15.4323 48.4672 15.7823 47.7252 15.7823ZM53.5136 16.6223H54.7876V11.1063C55.5576 10.3363 56.0896 9.94431 56.8736 9.94431C57.8816 9.94431 58.3156 10.5463 58.3156 11.9743V16.6223H59.5896V11.8063C59.5896 9.86031 58.8616 8.82431 57.2656 8.82431C56.2296 8.82431 55.4456 9.39831 54.7176 10.1123H54.6756L54.5636 9.02031H53.5136V16.6223ZM64.0602 16.8043C65.8522 16.8043 66.8322 15.7823 66.8322 14.5503C66.8322 13.1083 65.6142 12.6603 64.5082 12.2403C63.6542 11.9183 62.8702 11.6523 62.8702 10.9243C62.8702 10.3363 63.3182 9.83231 64.2842 9.83231C64.9562 9.83231 65.4882 10.1123 66.0062 10.5043L66.6222 9.67831C66.0342 9.21631 65.2082 8.82431 64.2702 8.82431C62.6182 8.82431 61.6382 9.77631 61.6382 10.9803C61.6382 12.2683 62.8002 12.7863 63.8642 13.1783C64.7042 13.5003 65.6002 13.8363 65.6002 14.6203C65.6002 15.2783 65.1102 15.8103 64.1022 15.8103C63.1922 15.8103 62.5062 15.4463 61.8482 14.9143L61.2182 15.7543C61.9462 16.3563 62.9822 16.8043 64.0602 16.8043ZM71.8639 16.6223H73.1659V13.3743L74.9299 11.2743L78.0099 16.6223H79.4519L75.7419 10.2663L78.9479 6.34631H77.4919L73.2079 11.5123H73.1659V6.34631H71.8639V16.6223ZM80.9146 16.6223H82.2166V12.2683H84.0646L86.5566 16.6223H88.0266L85.3946 12.1283C86.7946 11.7923 87.7186 10.8403 87.7186 9.24431C87.7186 7.10231 86.2206 6.34631 84.1346 6.34631H80.9146V16.6223ZM82.2166 11.2183V7.41031H83.9386C85.5486 7.41031 86.4306 7.88631 86.4306 9.24431C86.4306 10.5743 85.5486 11.2183 83.9386 11.2183H82.2166ZM92.9459 16.6223H94.2479V12.2683H96.0959L98.5879 16.6223H100.058L97.4259 12.1283C98.8259 11.7923 99.7499 10.8403 99.7499 9.24431C99.7499 7.10231 98.2519 6.34631 96.1659 6.34631H92.9459V16.6223ZM94.2479 11.2183V7.41031H95.9699C97.5799 7.41031 98.4619 7.88631 98.4619 9.24431C98.4619 10.5743 97.5799 11.2183 95.9699 11.2183H94.2479ZM104.242 20.1223C106.594 20.1223 108.092 18.9043 108.092 17.4903C108.092 16.2443 107.196 15.6843 105.432 15.6843H103.948C102.926 15.6843 102.618 15.3483 102.618 14.8583C102.618 14.4383 102.828 14.1863 103.108 13.9483C103.444 14.1163 103.864 14.2143 104.242 14.2143C105.782 14.2143 107.014 13.1923 107.014 11.5683C107.014 10.9103 106.762 10.3503 106.398 10.0003H107.952V9.02031H105.306C105.04 8.92231 104.662 8.82431 104.242 8.82431C102.702 8.82431 101.386 9.87431 101.386 11.5403C101.386 12.4503 101.876 13.1783 102.38 13.5843V13.6403C101.988 13.9203 101.526 14.4243 101.526 15.0543C101.526 15.6563 101.82 16.0623 102.226 16.3003V16.3563C101.512 16.8183 101.106 17.4343 101.106 18.0783C101.106 19.3943 102.38 20.1223 104.242 20.1223ZM104.242 13.3463C103.36 13.3463 102.618 12.6463 102.618 11.5403C102.618 10.4203 103.346 9.76231 104.242 9.76231C105.138 9.76231 105.866 10.4343 105.866 11.5403C105.866 12.6463 105.11 13.3463 104.242 13.3463ZM104.424 19.2543C103.052 19.2543 102.226 18.7223 102.226 17.9103C102.226 17.4623 102.45 17.0143 102.996 16.6223C103.332 16.7063 103.696 16.7483 103.976 16.7483H105.292C106.3 16.7483 106.846 16.9863 106.846 17.6863C106.846 18.4843 105.88 19.2543 104.424 19.2543ZM121.542 15.0963V11.7363H125.378V10.8123H117.818V6.17831H116.67V11.7363H120.394V15.0963H115.27V16.0343H126.68V15.0963H121.542ZM134.421 15.1523V12.5623H138.257V11.6243H130.781V9.73431H137.851V8.82431H130.781V7.06031H138.131V6.12231H129.619V12.5623H133.273V15.1523H128.149V16.0903H139.559V15.1523H134.421ZM152.288 11.4143C150.44 10.7563 149.194 9.16031 149.194 7.43831V5.85631H148.046V7.41031C148.046 9.35631 146.828 11.0363 144.91 11.7223L145.512 12.6323C147.01 12.0723 148.13 10.9243 148.648 9.44031C149.208 10.7563 150.3 11.8063 151.714 12.3243L152.288 11.4143ZM148.074 13.4863H146.926V17.3783H155.256V16.4403H148.074V13.4863ZM154.71 8.95031V5.08631H153.562V14.3683H154.71V9.90231H156.558V8.95031H154.71ZM168.667 11.4143C166.469 10.9943 164.089 9.09031 164.089 6.94831V5.98231H162.885V6.94831C162.885 9.09031 160.519 10.9803 158.321 11.4143L158.839 12.3663C160.729 11.9183 162.689 10.5743 163.487 8.74031C164.285 10.5883 166.245 11.9323 168.149 12.3663L168.667 11.4143ZM157.845 15.0263V15.9783H169.227V15.0263H157.845ZM174.512 16.6223H175.814V13.3743L177.578 11.2743L180.658 16.6223H182.1L178.39 10.2663L181.596 6.34631H180.14L175.856 11.5123H175.814V6.34631H174.512V16.6223ZM183.563 16.6223H184.865V12.2683H186.713L189.205 16.6223H190.675L188.043 12.1283C189.443 11.7923 190.367 10.8403 190.367 9.24431C190.367 7.10231 188.869 6.34631 186.783 6.34631H183.563V16.6223ZM184.865 11.2183V7.41031H186.587C188.197 7.41031 189.079 7.88631 189.079 9.24431C189.079 10.5743 188.197 11.2183 186.587 11.2183H184.865ZM196.462 10.8403H199.822V6.48631H195.314V7.42431H198.716V9.93031H195.356V14.5783H196.182C197.778 14.5783 199.206 14.5083 200.956 14.2143L200.858 13.2763C199.248 13.5563 197.89 13.6123 196.462 13.6123V10.8403ZM201.964 9.60831H200.41V10.5603H201.964V17.0003H203.042V5.40831H201.964V9.60831ZM204.498 5.10031V17.6583H205.604V5.10031H204.498ZM214.997 12.1703H212.015V10.5323H214.997V12.1703ZM219.211 10.5323V9.60831H217.489C217.741 8.26431 217.741 7.21431 217.741 6.38831V5.59031H209.271V6.51431H216.607C216.607 7.31231 216.593 8.27831 216.327 9.60831H207.815V10.5323H210.867V12.1703H209.159V13.0803H216.635V14.3823H209.201V17.5043H218.091V16.5943H210.335V15.2083H217.783V12.1703H216.145V10.5323H219.211ZM222.29 10.6583H226.742V6.26231H221.128V7.20031H225.622V9.73431H221.156V14.6483H222.122C224.39 14.6483 225.986 14.5783 227.876 14.2423L227.764 13.2903C225.958 13.6123 224.432 13.6963 222.29 13.6963V10.6583ZM229.878 5.08631V9.93031H227.484V10.8683H229.878V17.6723H231.026V5.08631H229.878Z" fill="black"/>
<path d="M2.30038 38.6191H3.84038V33.7611C3.84038 32.6411 3.71438 31.4511 3.63038 30.3871H3.70038L4.77838 32.5431L8.19438 38.6191H9.86038V28.3011H8.32038V33.1171C8.32038 34.2371 8.44638 35.4831 8.53038 36.5471H8.46038L7.38238 34.3631L3.96638 28.3011H2.30038V38.6191ZM15.5216 38.8011C17.4256 38.8011 19.1476 37.3311 19.1476 34.7691C19.1476 32.2071 17.4256 30.7231 15.5216 30.7231C13.6176 30.7231 11.8956 32.2071 11.8956 34.7691C11.8956 37.3311 13.6176 38.8011 15.5216 38.8011ZM15.5216 37.4851C14.3176 37.4851 13.5616 36.4071 13.5616 34.7691C13.5616 33.1451 14.3176 32.0531 15.5216 32.0531C16.7396 32.0531 17.4956 33.1451 17.4956 34.7691C17.4956 36.4071 16.7396 37.4851 15.5216 37.4851ZM23.3031 38.8011C23.8631 38.8011 24.3811 38.6611 24.8151 38.5211L24.5211 37.3311C24.2971 37.4291 23.9611 37.5131 23.6951 37.5131C22.8971 37.5131 22.5751 37.0371 22.5751 36.1131V32.2071H24.5771V30.9191H22.5751V28.7911H21.2311L21.0491 30.9191L19.8451 31.0031V32.2071H20.9651V36.0991C20.9651 37.7231 21.5671 38.8011 23.3031 38.8011ZM29.1115 38.8011C31.0155 38.8011 32.7375 37.3311 32.7375 34.7691C32.7375 32.2071 31.0155 30.7231 29.1115 30.7231C27.2075 30.7231 25.4855 32.2071 25.4855 34.7691C25.4855 37.3311 27.2075 38.8011 29.1115 38.8011ZM29.1115 37.4851C27.9075 37.4851 27.1515 36.4071 27.1515 34.7691C27.1515 33.1451 27.9075 32.0531 29.1115 32.0531C30.3295 32.0531 31.0855 33.1451 31.0855 34.7691C31.0855 36.4071 30.3295 37.4851 29.1115 37.4851ZM40.8556 38.8011C43.1096 38.8011 44.4816 37.4571 44.4816 35.8051C44.4816 34.2931 43.5996 33.5371 42.3816 33.0191L40.9676 32.4171C40.1276 32.0811 39.3016 31.7451 39.3016 30.8491C39.3016 30.0371 39.9876 29.5331 41.0376 29.5331C41.9476 29.5331 42.6616 29.8831 43.3056 30.4571L44.1596 29.4211C43.3756 28.6231 42.2416 28.1191 41.0376 28.1191C39.0776 28.1191 37.6496 29.3371 37.6496 30.9611C37.6496 32.4591 38.7556 33.2431 39.7496 33.6631L41.1776 34.2791C42.1296 34.6991 42.8296 34.9931 42.8296 35.9311C42.8296 36.7991 42.1296 37.3871 40.8836 37.3871C39.8896 37.3871 38.8816 36.9111 38.1396 36.1691L37.1876 37.2891C38.1256 38.2411 39.4416 38.8011 40.8556 38.8011ZM48.1132 38.8011C49.0372 38.8011 49.8632 38.3391 50.5632 37.7371H50.6192L50.7452 38.6191H52.0612V33.9851C52.0612 31.9411 51.1792 30.7231 49.2612 30.7231C48.0292 30.7231 46.9512 31.2271 46.1532 31.7311L46.7552 32.8231C47.4132 32.4031 48.1692 32.0391 48.9812 32.0391C50.1152 32.0391 50.4372 32.8231 50.4512 33.7191C47.2452 34.0691 45.8452 34.9231 45.8452 36.5751C45.8452 37.9331 46.7832 38.8011 48.1132 38.8011ZM48.6032 37.5271C47.9172 37.5271 47.3992 37.2191 47.3992 36.4631C47.3992 35.5951 48.1692 35.0071 50.4512 34.7411V36.6311C49.8212 37.2051 49.2752 37.5271 48.6032 37.5271ZM54.3459 38.6191H55.9559V33.1591C56.6279 32.4731 57.1179 32.1091 57.8319 32.1091C58.7419 32.1091 59.1339 32.6411 59.1339 33.9711V38.6191H60.7439V33.7751C60.7439 31.8151 60.0159 30.7231 58.3779 30.7231C57.3279 30.7231 56.5439 31.2971 55.8299 31.9831H55.7879L55.6619 30.9191H54.3459V38.6191ZM65.1683 38.8011C67.0723 38.8011 68.0943 37.7511 68.0943 36.4631C68.0943 35.0071 66.9043 34.5311 65.8263 34.1251C64.9863 33.8171 64.2303 33.5651 64.2303 32.9071C64.2303 32.3751 64.6223 31.9551 65.4763 31.9551C66.1063 31.9551 66.6523 32.2351 67.1843 32.6271L67.9403 31.6331C67.3243 31.1431 66.4703 30.7231 65.4483 30.7231C63.7403 30.7231 62.7043 31.6891 62.7043 32.9771C62.7043 34.2791 63.8383 34.8251 64.8743 35.2171C65.7003 35.5391 66.5683 35.8471 66.5683 36.5471C66.5683 37.1351 66.1343 37.5831 65.2103 37.5831C64.3843 37.5831 63.7123 37.2331 63.0263 36.7011L62.2703 37.7371C63.0263 38.3531 64.1043 38.8011 65.1683 38.8011ZM73.0934 38.6191H74.7174V35.5111L76.2994 33.5651L79.2114 38.6191H81.0174L77.2934 32.2911L80.4854 28.3011H78.6794L74.7594 33.1871H74.7174V28.3011H73.0934V38.6191ZM82.3766 38.6191H84.0006V34.4611H85.6666L88.0046 38.6191H89.8386L87.3186 34.2511C88.6206 33.8451 89.4746 32.8931 89.4746 31.2971C89.4746 29.0711 87.8786 28.3011 85.7506 28.3011H82.3766V38.6191ZM84.0006 33.1591V29.6171H85.5546C87.0526 29.6171 87.8646 30.0511 87.8646 31.2971C87.8646 32.5431 87.0526 33.1591 85.5546 33.1591H84.0006ZM94.7086 38.6191H96.1646V33.5231C96.1646 32.5991 96.0386 31.2691 95.9686 30.3311H96.0246L96.8366 32.7111L98.6426 37.6251H99.6506L101.443 32.7111L102.269 30.3311H102.325C102.241 31.2691 102.115 32.5991 102.115 33.5231V38.6191H103.627V28.3011H101.751L99.8886 33.5231C99.6506 34.2091 99.4546 34.9091 99.2166 35.5951H99.1466C98.9086 34.9091 98.6986 34.2091 98.4606 33.5231L96.5706 28.3011H94.7086V38.6191ZM108.85 38.8011C109.718 38.8011 110.516 38.3391 111.09 37.7511H111.146L111.272 38.6191H112.588V27.4611H110.978V30.3171L111.048 31.5911C110.418 31.0591 109.858 30.7231 108.976 30.7231C107.254 30.7231 105.672 32.2771 105.672 34.7691C105.672 37.3311 106.918 38.8011 108.85 38.8011ZM109.228 37.4711C108.024 37.4711 107.338 36.5051 107.338 34.7551C107.338 33.0891 108.206 32.0671 109.284 32.0671C109.858 32.0671 110.404 32.2491 110.978 32.7671V36.5331C110.418 37.1771 109.872 37.4711 109.228 37.4711ZM127.233 36.9811V33.8311H130.985V32.6551H123.593V28.0771H122.137V33.8311H125.777V36.9811H120.793V38.1711H132.245V36.9811H127.233ZM140.112 37.0231V34.6431H143.85V33.4951H136.556V31.8431H143.458V30.7091H136.556V29.1831H143.738V28.0071H135.086V34.6431H138.656V37.0231H133.672V38.2131H145.124V37.0231H140.112ZM157.923 33.2431C156.005 32.5851 154.913 30.9891 154.913 29.3091V27.8251H153.457V29.2951C153.457 31.1431 152.379 32.8511 150.349 33.5371L151.133 34.6571C152.617 34.1251 153.667 33.0471 154.213 31.6611C154.773 32.8931 155.795 33.9011 157.195 34.3911L157.923 33.2431ZM153.807 35.4691H152.365V39.4591H160.849V38.2831H153.807V35.4691ZM160.345 30.8351V27.0411H158.903V36.3651H160.345V32.0251H162.137V30.8351H160.345ZM174.316 33.2291C171.824 32.7811 169.794 30.8351 169.794 28.8191V27.8671H168.268V28.8191C168.268 30.8211 166.238 32.7671 163.746 33.2291L164.362 34.4191C166.42 33.9991 168.198 32.6831 169.024 30.9471C169.85 32.6831 171.628 33.9991 173.686 34.4191L174.316 33.2291ZM163.354 36.8831V38.0731H174.806V36.8831H163.354ZM180.021 38.6191H181.645V35.5111L183.227 33.5651L186.139 38.6191H187.945L184.221 32.2911L187.413 28.3011H185.607L181.687 33.1871H181.645V28.3011H180.021V38.6191ZM189.304 38.6191H190.928V34.4611H192.594L194.932 38.6191H196.766L194.246 34.2511C195.548 33.8451 196.402 32.8931 196.402 31.2971C196.402 29.0711 194.806 28.3011 192.678 28.3011H189.304V38.6191ZM190.928 33.1591V29.6171H192.482C193.98 29.6171 194.792 30.0511 194.792 31.2971C194.792 32.5431 193.98 33.1591 192.482 33.1591H190.928ZM201.664 28.2451V36.6031H207.6V28.2451H201.664ZM206.186 29.3931V35.4411H203.078V29.3931H206.186ZM209.938 27.0411V39.7251H211.394V27.0411H209.938ZM216.083 29.4071H220.675V28.2171H214.655V36.6311H215.705C218.323 36.6311 219.961 36.5611 221.795 36.2251L221.641 35.0211C219.947 35.3431 218.435 35.4131 216.083 35.4271V29.4071ZM222.817 27.0411V39.7251H224.273V27.0411H222.817ZM230.334 36.0431H235.808V38.3951H230.334V36.0431ZM228.92 39.5431H237.222V34.8951H228.92V39.5431ZM230.208 32.5991C229.102 32.5991 228.304 31.8851 228.304 30.7651C228.304 29.6871 229.102 28.9591 230.208 28.9591C231.314 28.9591 232.126 29.6871 232.126 30.7651C232.126 31.8851 231.314 32.5991 230.208 32.5991ZM235.78 27.0551V30.1491H233.442C233.148 28.7211 231.86 27.7551 230.208 27.7551C228.318 27.7551 226.918 29.0011 226.918 30.7651C226.918 32.5571 228.318 33.8031 230.208 33.8031C231.888 33.8031 233.19 32.8091 233.442 31.3391H235.78V34.2791H237.222V27.0551H235.78Z" fill="black"/>
<path d="M2.21638 60.616H4.17638V56.458C4.17638 55.268 4.02238 53.966 3.92438 52.846H3.99438L5.04438 55.072L8.04038 60.616H10.1404V50.242H8.18038V54.386C8.18038 55.562 8.34838 56.934 8.44638 58.012H8.37638L7.34038 55.772L4.33038 50.242H2.21638V60.616ZM15.8107 60.812C17.7707 60.812 19.5767 59.3 19.5767 56.696C19.5767 54.092 17.7707 52.58 15.8107 52.58C13.8507 52.58 12.0447 54.092 12.0447 56.696C12.0447 59.3 13.8507 60.812 15.8107 60.812ZM15.8107 59.132C14.7467 59.132 14.1447 58.18 14.1447 56.696C14.1447 55.226 14.7467 54.26 15.8107 54.26C16.8747 54.26 17.4767 55.226 17.4767 56.696C17.4767 58.18 16.8747 59.132 15.8107 59.132ZM23.7719 60.812C24.4579 60.812 25.0039 60.658 25.4239 60.518L25.0879 59.02C24.8779 59.104 24.5699 59.188 24.3179 59.188C23.6179 59.188 23.2539 58.768 23.2539 57.872V54.4H25.1859V52.776H23.2539V50.662H21.5459L21.3079 52.776L20.0899 52.874V54.4H21.1959V57.872C21.1959 59.622 21.9099 60.812 23.7719 60.812ZM29.797 60.812C31.757 60.812 33.563 59.3 33.563 56.696C33.563 54.092 31.757 52.58 29.797 52.58C27.837 52.58 26.031 54.092 26.031 56.696C26.031 59.3 27.837 60.812 29.797 60.812ZM29.797 59.132C28.733 59.132 28.131 58.18 28.131 56.696C28.131 55.226 28.733 54.26 29.797 54.26C30.861 54.26 31.463 55.226 31.463 56.696C31.463 58.18 30.861 59.132 29.797 59.132ZM41.7186 60.812C44.1126 60.812 45.5266 59.37 45.5266 57.676C45.5266 56.178 44.7006 55.38 43.4406 54.862L42.0826 54.288C41.2006 53.938 40.4726 53.672 40.4726 52.93C40.4726 52.244 41.0466 51.838 41.9566 51.838C42.8106 51.838 43.4966 52.146 44.1546 52.692L45.2046 51.39C44.3646 50.536 43.1606 50.06 41.9566 50.06C39.8566 50.06 38.3726 51.362 38.3726 53.056C38.3726 54.568 39.4226 55.408 40.4726 55.842L41.8586 56.43C42.7826 56.822 43.4126 57.06 43.4126 57.83C43.4126 58.558 42.8386 59.02 41.7606 59.02C40.8506 59.02 39.8706 58.558 39.1286 57.872L37.9386 59.3C38.9466 60.266 40.3326 60.812 41.7186 60.812ZM49.1249 60.812C50.0209 60.812 50.8049 60.364 51.4909 59.776H51.5469L51.6869 60.616H53.3669V56.038C53.3669 53.77 52.3449 52.58 50.3569 52.58C49.1249 52.58 48.0049 53.042 47.0809 53.616L47.8229 54.974C48.5509 54.554 49.2509 54.232 49.9789 54.232C50.9449 54.232 51.2809 54.82 51.3229 55.59C48.1589 55.926 46.8009 56.808 46.8009 58.488C46.8009 59.818 47.7249 60.812 49.1249 60.812ZM49.7969 59.202C49.1949 59.202 48.7609 58.936 48.7609 58.32C48.7609 57.62 49.4049 57.088 51.3229 56.85V58.432C50.8189 58.922 50.3849 59.202 49.7969 59.202ZM55.4644 60.616H57.5224V55.226C58.0964 54.652 58.5024 54.344 59.1464 54.344C59.9164 54.344 60.2524 54.764 60.2524 55.982V60.616H62.3104V55.73C62.3104 53.756 61.5824 52.58 59.8884 52.58C58.8244 52.58 58.0264 53.14 57.3404 53.812H57.2984L57.1444 52.776H55.4644V60.616ZM66.6731 60.812C68.7171 60.812 69.7951 59.706 69.7951 58.334C69.7951 56.878 68.6471 56.36 67.6111 55.968C66.7851 55.66 66.0571 55.45 66.0571 54.876C66.0571 54.428 66.3931 54.12 67.1071 54.12C67.6811 54.12 68.2271 54.386 68.7871 54.792L69.7111 53.546C69.0671 53.056 68.1851 52.58 67.0511 52.58C65.2591 52.58 64.1251 53.574 64.1251 54.974C64.1251 56.29 65.2311 56.892 66.2251 57.27C67.0511 57.592 67.8631 57.858 67.8631 58.446C67.8631 58.936 67.5131 59.272 66.7291 59.272C66.0011 59.272 65.3291 58.964 64.6291 58.418L63.6911 59.706C64.4751 60.35 65.6231 60.812 66.6731 60.812ZM74.7047 60.616H76.7767V57.704L78.1347 55.954L80.8227 60.616H83.0907L79.3667 54.33L82.5307 50.242H80.2487L76.8187 54.75H76.7767V50.242H74.7047V60.616ZM84.3023 60.616H86.3743V56.696H87.8163L89.9443 60.616H92.2543L89.8323 56.374C91.0223 55.912 91.8063 54.946 91.8063 53.392C91.8063 51.012 90.0843 50.242 87.9143 50.242H84.3023V60.616ZM86.3743 55.058V51.894H87.7183C89.0483 51.894 89.7903 52.272 89.7903 53.392C89.7903 54.498 89.0483 55.058 87.7183 55.058H86.3743ZM97.0172 60.616H100.713C102.995 60.616 104.731 59.65 104.731 57.564C104.731 56.164 103.905 55.38 102.785 55.114V55.044C103.667 54.736 104.199 53.756 104.199 52.804C104.199 50.872 102.575 50.242 100.447 50.242H97.0172V60.616ZM99.0892 54.47V51.838H100.321C101.567 51.838 102.183 52.202 102.183 53.112C102.183 53.938 101.609 54.47 100.293 54.47H99.0892ZM99.0892 59.02V55.996H100.531C101.959 55.996 102.715 56.43 102.715 57.438C102.715 58.516 101.945 59.02 100.531 59.02H99.0892ZM109.136 60.812C109.948 60.812 110.732 60.364 111.306 59.804H111.362L111.516 60.616H113.182V49.444H111.138V52.202L111.208 53.434C110.648 52.916 110.102 52.58 109.22 52.58C107.526 52.58 105.93 54.148 105.93 56.696C105.93 59.272 107.19 60.812 109.136 60.812ZM109.668 59.118C108.632 59.118 108.044 58.306 108.044 56.682C108.044 55.114 108.786 54.274 109.668 54.274C110.158 54.274 110.662 54.428 111.138 54.862V58.306C110.676 58.894 110.214 59.118 109.668 59.118ZM127.99 58.88V55.94H131.672V54.47H124.392V49.906H122.544V55.94H126.142V58.88H121.228V60.378H132.904V58.88H127.99ZM140.869 58.908V56.766H144.537V55.31H137.355V53.966H144.145V52.538H137.355V51.278H144.439V49.808H135.479V56.766H139.021V58.908H134.107V60.406H145.783V58.908H140.869ZM158.624 55.044C156.538 54.372 155.67 52.748 155.67 51.11V49.71H153.794V51.096C153.794 52.86 152.884 54.582 150.714 55.282L151.694 56.724C153.164 56.234 154.186 55.226 154.76 53.938C155.32 55.1 156.272 56.024 157.672 56.486L158.624 55.044ZM154.606 57.466H152.758V61.596H161.508V60.126H154.606V57.466ZM161.06 52.664V48.926H159.212V58.362H161.06V54.19H162.768V52.664H161.06ZM175.059 54.988C172.147 54.498 170.551 52.496 170.551 50.606V49.682H168.577V50.606C168.577 52.454 166.967 54.498 164.069 54.988L164.853 56.542C167.093 56.108 168.731 54.848 169.557 53.21C170.383 54.848 172.035 56.094 174.275 56.542L175.059 54.988ZM163.789 58.754V60.252H175.465V58.754H163.789ZM180.511 60.616H182.583V57.704L183.941 55.954L186.629 60.616H188.897L185.173 54.33L188.337 50.242H186.055L182.625 54.75H182.583V50.242H180.511V60.616ZM190.109 60.616H192.181V56.696H193.623L195.751 60.616H198.061L195.639 56.374C196.829 55.912 197.613 54.946 197.613 53.392C197.613 51.012 195.891 50.242 193.721 50.242H190.109V60.616ZM192.181 55.058V51.894H193.525C194.855 51.894 195.597 52.272 195.597 53.392C195.597 54.498 194.855 55.058 193.525 55.058H192.181ZM205.33 59.65H212.386V56.374H203.482V57.732H210.566V58.376H203.496V61.722H212.722V60.35H205.33V59.65ZM205.47 51.32H210.496V52.076H205.47V51.32ZM208.872 54.26V53.434H212.33V49.122H210.496V49.976H205.47V49.122H203.636V53.434H207.024V54.26H202.152V55.702H213.814V54.26H208.872ZM225.461 54.876H218.237V51.488H225.363V49.99H216.389V56.346H225.461V54.876ZM215.031 58.768V60.28H226.707V58.768H215.031Z" fill="black"/>
</svg>
