<svg width="245" height="39" viewBox="0 0 245 39" fill="none" xmlns="http://www.w3.org/2000/svg">
<path d="M7.72638 5.76489C7.67305 5.35956 7.54505 5.00756 7.34238 4.70889C6.92638 4.06889 6.23838 3.74889 5.27838 3.74889C4.47838 3.74889 3.89705 3.93023 3.53438 4.29289C3.20372 4.63423 3.03838 5.09823 3.03838 5.68489C3.03838 6.33556 3.21972 6.78356 3.58238 7.02889C3.94505 7.27423 4.45172 7.42356 5.10238 7.47689C5.72105 7.53023 6.24372 7.61556 6.67038 7.73289C7.09705 7.83956 7.45438 7.98889 7.74238 8.18089C8.49972 8.65023 8.87838 9.38623 8.87838 10.3889C8.87838 10.7836 8.79838 11.1569 8.63838 11.5089C8.48905 11.8609 8.27038 12.1756 7.98238 12.4529C7.33172 13.0929 6.44105 13.4129 5.31038 13.4129C4.16905 13.4129 3.26772 13.0982 2.60638 12.4689C2.04105 11.9462 1.69972 11.2422 1.58238 10.3569H2.68638C2.78238 10.8902 3.00638 11.3276 3.35838 11.6689C3.81705 12.0956 4.47305 12.3089 5.32638 12.3089C6.05172 12.3089 6.63838 12.1329 7.08638 11.7809C7.54505 11.4182 7.77438 10.9542 7.77438 10.3889C7.77438 10.0262 7.69972 9.72756 7.55038 9.49289C7.41172 9.24756 7.13972 9.05023 6.73438 8.90089C6.32905 8.75156 5.75305 8.64489 5.00638 8.58089C2.95838 8.39956 1.93438 7.43423 1.93438 5.68489C1.93438 5.24756 2.00372 4.84756 2.14238 4.48489C2.29172 4.11156 2.49972 3.79156 2.76638 3.52489C3.35305 2.93823 4.18505 2.64489 5.26238 2.64489H5.27838C6.37705 2.65556 7.21438 2.95956 7.79038 3.55689C8.37705 4.14356 8.72372 4.88489 8.83038 5.78089H7.72638V5.76489ZM13.1883 13.3809C12.6123 13.3809 12.0789 13.2422 11.5883 12.9649C11.1083 12.6769 10.7243 12.2929 10.4363 11.8129C10.1483 11.3222 10.0043 10.7889 10.0043 10.2129V5.31689H11.1083V10.2129C11.1083 10.5862 11.1989 10.9329 11.3803 11.2529C11.5723 11.5729 11.8283 11.8289 12.1483 12.0209C12.4683 12.2022 12.8149 12.2929 13.1883 12.2929C13.5616 12.2929 13.9083 12.2022 14.2283 12.0209C14.5483 11.8289 14.7989 11.5729 14.9803 11.2529C15.1723 10.9329 15.2683 10.5862 15.2683 10.2129V5.31689H16.3563V13.2369H15.2683V12.4689C15.0016 12.7676 14.6869 12.9969 14.3243 13.1569C13.9723 13.3062 13.5936 13.3809 13.1883 13.3809ZM19.0491 2.67689V13.3169H17.9611V2.67689H19.0491ZM20.6486 16.7249V5.52489H21.7366V6.85289C22.11 6.33023 22.5473 5.94089 23.0486 5.68489C23.55 5.41823 24.0993 5.28489 24.6966 5.28489C25.422 5.28489 26.094 5.46623 26.7126 5.82889C27.3313 6.19156 27.822 6.68223 28.1846 7.30089C28.5473 7.91956 28.7286 8.59156 28.7286 9.31689C28.7286 10.0422 28.5473 10.7142 28.1846 11.3329C27.822 11.9516 27.3313 12.4422 26.7126 12.8049C26.094 13.1676 25.422 13.3489 24.6966 13.3489C23.9393 13.3489 23.3153 13.1942 22.8246 12.8849C22.334 12.5649 21.9713 12.2236 21.7366 11.8609V16.7249H20.6486ZM24.6966 6.38889C24.1633 6.38889 23.6726 6.52223 23.2246 6.78889C22.7766 7.04489 22.4193 7.39689 22.1526 7.84489C21.886 8.29289 21.7526 8.78356 21.7526 9.31689C21.7526 9.85023 21.886 10.3409 22.1526 10.7889C22.4193 11.2369 22.7766 11.5942 23.2246 11.8609C23.6726 12.1276 24.1633 12.2609 24.6966 12.2609C25.23 12.2609 25.7206 12.1276 26.1686 11.8609C26.6166 11.5942 26.9686 11.2369 27.2246 10.7889C27.4913 10.3409 27.6246 9.85023 27.6246 9.31689C27.6246 8.78356 27.4913 8.29289 27.2246 7.84489C26.9686 7.39689 26.6166 7.04489 26.1686 6.78889C25.7206 6.52223 25.23 6.38889 24.6966 6.38889ZM33.3483 5.25289C33.9243 5.25289 34.4523 5.39689 34.9323 5.68489C35.4229 5.96223 35.8069 6.34623 36.0843 6.83689C36.3723 7.31689 36.5163 7.84489 36.5163 8.42089V13.3169H35.4123V8.42089C35.4123 8.04756 35.3163 7.70089 35.1243 7.38089C34.9429 7.06089 34.6923 6.81023 34.3723 6.62889C34.0629 6.43689 33.7216 6.34089 33.3483 6.34089C32.9749 6.34089 32.6283 6.43689 32.3083 6.62889C31.9883 6.81023 31.7323 7.06089 31.5403 7.38089C31.3589 7.70089 31.2683 8.04756 31.2683 8.42089V13.3169H30.1643V2.64489H31.2683V6.14889C31.5243 5.85023 31.8283 5.62623 32.1803 5.47689C32.5429 5.32756 32.9323 5.25289 33.3483 5.25289ZM41.1414 13.3809C40.5654 13.3809 40.032 13.2422 39.5414 12.9649C39.0614 12.6769 38.6774 12.2929 38.3894 11.8129C38.1014 11.3222 37.9574 10.7889 37.9574 10.2129V5.31689H39.0614V10.2129C39.0614 10.5862 39.152 10.9329 39.3334 11.2529C39.5254 11.5729 39.7814 11.8289 40.1014 12.0209C40.4214 12.2022 40.768 12.2929 41.1414 12.2929C41.5147 12.2929 41.8614 12.2022 42.1814 12.0209C42.5014 11.8289 42.752 11.5729 42.9334 11.2529C43.1254 10.9329 43.2214 10.5862 43.2214 10.2129V5.31689H44.3094V13.2369H43.2214V12.4689C42.9547 12.7676 42.64 12.9969 42.2774 13.1569C41.9254 13.3062 41.5467 13.3809 41.1414 13.3809ZM49.5783 6.50089C49.3329 6.39423 49.0876 6.34089 48.8423 6.34089C48.3409 6.34089 47.9089 6.52223 47.5463 6.88489C47.1836 7.24756 47.0023 7.67956 47.0023 8.18089V13.3169H45.9143V8.18089C45.9143 7.60489 46.0636 7.08223 46.3623 6.61289C46.6716 6.13289 47.0716 5.77556 47.5623 5.54089L47.5943 5.52489C47.9889 5.34356 48.4049 5.25289 48.8423 5.25289C49.5249 5.25289 50.1329 5.46089 50.6663 5.87689L49.5783 6.50089ZM62.2809 2.67689C62.8995 2.67689 63.4702 2.83156 63.9929 3.14089C64.5155 3.45023 64.9315 3.86623 65.2409 4.38889C65.5502 4.91156 65.7049 5.47689 65.7049 6.08489C65.7049 6.69289 65.5502 7.25823 65.2409 7.78089C64.9315 8.30356 64.5155 8.71956 63.9929 9.02889C63.4702 9.32756 62.8995 9.47689 62.2809 9.47689H60.4089V13.3169H59.3049V2.67689H62.2809ZM62.2809 8.40489C62.6969 8.40489 63.0809 8.30356 63.4329 8.10089C63.7955 7.88756 64.0782 7.60489 64.2809 7.25289C64.4942 6.89023 64.6009 6.50089 64.6009 6.08489C64.6009 5.66889 64.4942 5.28489 64.2809 4.93289C64.0782 4.58089 63.7955 4.30356 63.4329 4.10089C63.0809 3.88756 62.6969 3.78089 62.2809 3.78089H60.4089V8.40489H62.2809ZM70.396 13.3969C69.6707 13.3969 68.9933 13.2156 68.364 12.8529C67.7453 12.4902 67.2547 11.9996 66.892 11.3809C66.5293 10.7516 66.348 10.0742 66.348 9.34889C66.348 8.61289 66.5293 7.93556 66.892 7.31689C67.2547 6.68756 67.7453 6.19156 68.364 5.82889C68.9933 5.45556 69.6707 5.26889 70.396 5.26889C71.132 5.26889 71.8093 5.45556 72.428 5.82889C73.0573 6.19156 73.5533 6.68756 73.916 7.31689C74.2893 7.93556 74.476 8.61289 74.476 9.34889C74.476 10.0742 74.2893 10.7516 73.916 11.3809C73.5533 11.9996 73.0573 12.4902 72.428 12.8529C71.8093 13.2156 71.132 13.3969 70.396 13.3969ZM70.396 12.3249C70.94 12.3249 71.436 12.1916 71.884 11.9249C72.3427 11.6582 72.7053 11.2956 72.972 10.8369C73.2387 10.3782 73.372 9.88223 73.372 9.34889C73.372 8.80489 73.2387 8.30356 72.972 7.84489C72.7053 7.38623 72.3427 7.02356 71.884 6.75689C71.436 6.49023 70.94 6.35689 70.396 6.35689C69.8627 6.35689 69.3667 6.49023 68.908 6.75689C68.46 7.02356 68.1027 7.38623 67.836 7.84489C67.5693 8.30356 67.436 8.80489 67.436 9.34889C67.436 9.88223 67.5693 10.3782 67.836 10.8369C68.1027 11.2956 68.46 11.6582 68.908 11.9249C69.3667 12.1916 69.8627 12.3249 70.396 12.3249ZM76.6343 3.09289C76.8263 3.09289 76.9916 3.16223 77.1303 3.30089C77.2689 3.43956 77.3383 3.60489 77.3383 3.79689C77.3383 3.99956 77.2689 4.17023 77.1303 4.30889C76.9916 4.44756 76.8263 4.51689 76.6343 4.51689C76.4316 4.51689 76.2609 4.44756 76.1223 4.30889C75.9836 4.17023 75.9143 3.99956 75.9143 3.79689C75.9143 3.60489 75.9836 3.43956 76.1223 3.30089C76.2609 3.16223 76.4316 3.09289 76.6343 3.09289ZM77.1783 5.31689V13.3169H76.0743V5.31689H77.1783ZM82.1135 5.31689C82.6895 5.31689 83.2175 5.46089 83.6975 5.74889C84.1882 6.02623 84.5775 6.41023 84.8655 6.90089C85.1535 7.38089 85.2975 7.90889 85.2975 8.48489V13.3169H84.1935V8.48489C84.1935 8.11156 84.0975 7.77023 83.9055 7.46089C83.7242 7.14089 83.4735 6.89023 83.1535 6.70889C82.8335 6.51689 82.4868 6.42089 82.1135 6.42089C81.7402 6.42089 81.3935 6.51689 81.0735 6.70889C80.7535 6.89023 80.4975 7.14089 80.3055 7.46089C80.1242 7.77023 80.0335 8.11156 80.0335 8.48489V13.3169H78.9455V5.52489H80.0335V6.22889C80.3002 5.93023 80.6095 5.70623 80.9615 5.55689C81.3242 5.39689 81.7082 5.31689 82.1135 5.31689ZM90.3424 6.40489H89.0144V13.3169H87.9104V6.40489H86.5824V5.31689H87.9104V2.67689H89.0144V5.31689H90.3424V6.40489ZM101.664 9.49289L105.104 13.3169H103.632L100.192 9.49289H100.096V13.3169H98.9924V2.69289H101.712C102.331 2.69289 102.896 2.84756 103.408 3.15689C103.931 3.45556 104.342 3.86623 104.64 4.38889C104.95 4.91156 105.104 5.48223 105.104 6.10089C105.104 6.71956 104.95 7.29023 104.64 7.81289C104.342 8.32489 103.931 8.73556 103.408 9.04489C102.896 9.34356 102.331 9.49289 101.712 9.49289H101.664ZM100.096 3.78089V8.40489H101.712C102.128 8.40489 102.512 8.30356 102.864 8.10089C103.216 7.88756 103.494 7.60489 103.696 7.25289C103.91 6.90089 104.016 6.51689 104.016 6.10089C104.016 5.68489 103.91 5.30089 103.696 4.94889C103.494 4.58623 103.216 4.30356 102.864 4.10089C102.512 3.88756 102.128 3.78089 101.712 3.78089H100.096ZM113.959 5.52489V12.7089C113.959 13.4342 113.778 14.1062 113.415 14.7249C113.052 15.3436 112.562 15.8289 111.943 16.1809C111.324 16.5436 110.652 16.7249 109.927 16.7249C109.298 16.7249 108.706 16.5916 108.151 16.3249C107.607 16.0582 107.148 15.6902 106.775 15.2209L107.751 14.6449C108.018 14.9542 108.338 15.1942 108.711 15.3649C109.095 15.5462 109.5 15.6369 109.927 15.6369C110.46 15.6369 110.951 15.5036 111.399 15.2369C111.847 14.9809 112.199 14.6289 112.455 14.1809C112.722 13.7329 112.855 13.2422 112.855 12.7089V11.8129C112.119 12.8476 111.138 13.3649 109.911 13.3649C109.196 13.3649 108.53 13.1729 107.911 12.7889C107.292 12.4049 106.802 11.8982 106.439 11.2689C106.076 10.6289 105.895 9.95156 105.895 9.23689C105.895 8.52223 106.076 7.86623 106.439 7.26889C106.802 6.67156 107.287 6.19689 107.895 5.84489C108.514 5.49289 109.186 5.31689 109.911 5.31689C110.658 5.31689 111.276 5.47689 111.767 5.79689C112.258 6.10623 112.62 6.44223 112.855 6.80489V5.52489H113.959ZM109.911 12.2769C110.444 12.2769 110.935 12.1489 111.383 11.8929C111.831 11.6262 112.183 11.2689 112.439 10.8209C112.706 10.3729 112.839 9.88223 112.839 9.34889C112.839 8.81556 112.706 8.32489 112.439 7.87689C112.183 7.42889 111.831 7.07689 111.383 6.82089C110.935 6.55423 110.444 6.42089 109.911 6.42089C109.378 6.42089 108.887 6.55423 108.439 6.82089C107.991 7.07689 107.634 7.42889 107.367 7.87689C107.1 8.32489 106.967 8.81556 106.967 9.34889C106.967 9.88223 107.1 10.3729 107.367 10.8209C107.634 11.2689 107.991 11.6262 108.439 11.8929C108.887 12.1489 109.378 12.2769 109.911 12.2769Z" fill="black"/>
<path d="M7.42238 27.9569C7.36905 27.5409 7.25705 27.1996 7.08638 26.9329C6.89438 26.6449 6.65438 26.4369 6.36638 26.3089C6.08905 26.1702 5.73172 26.1009 5.29438 26.1009C4.56905 26.1009 4.06238 26.2556 3.77438 26.5649C3.49705 26.8422 3.35838 27.2422 3.35838 27.7649C3.35838 28.0636 3.40105 28.3089 3.48638 28.5009C3.57172 28.6822 3.69972 28.8316 3.87038 28.9489C4.12638 29.1302 4.54772 29.2476 5.13438 29.3009C5.73172 29.3542 6.23305 29.4396 6.63838 29.5569C7.05438 29.6636 7.41705 29.8129 7.72638 30.0049C8.50505 30.4956 8.89438 31.2636 8.89438 32.3089C8.89438 32.7142 8.81438 33.0982 8.65438 33.4609C8.49438 33.8236 8.27038 34.1489 7.98238 34.4369C7.64105 34.7676 7.23572 35.0129 6.76638 35.1729C6.30772 35.3329 5.82772 35.4129 5.32638 35.4129C4.19572 35.4129 3.29438 35.0929 2.62238 34.4529C2.04638 33.8769 1.69972 33.1089 1.58238 32.1489L1.61438 32.1329H3.02238C3.10772 32.6982 3.29972 33.1196 3.59838 33.3969C4.01438 33.7809 4.57438 33.9729 5.27838 33.9729C5.95038 33.9729 6.48372 33.8182 6.87838 33.5089C7.27305 33.1996 7.47038 32.7996 7.47038 32.3089C7.47038 32.0849 7.43838 31.8929 7.37438 31.7329C7.32105 31.5622 7.21438 31.4129 7.05438 31.2849C6.69172 31.0076 6.01438 30.8316 5.02238 30.7569C4.00905 30.6716 3.24105 30.3782 2.71838 29.8769C2.19572 29.3756 1.93438 28.6716 1.93438 27.7649C1.93438 26.8476 2.21705 26.1062 2.78238 25.5409C3.37972 24.9436 4.21172 24.6449 5.27838 24.6449C6.38772 24.6449 7.25172 24.9809 7.87038 25.6529C8.41438 26.2396 8.74505 27.0076 8.86238 27.9569H7.42238ZM14.9799 35.2689V34.5969C14.7665 34.8209 14.4945 35.0076 14.1639 35.1569C13.8439 35.3062 13.5239 35.3809 13.2039 35.3809C12.7772 35.3809 12.3665 35.3009 11.9719 35.1409C11.5879 34.9702 11.2465 34.7356 10.9479 34.4369C10.6599 34.1382 10.4305 33.7969 10.2599 33.4129C10.0999 33.0182 10.0199 32.6022 10.0199 32.1649V27.3169H11.4279V32.1649C11.4279 32.6556 11.6039 33.0769 11.9559 33.4289C12.3079 33.7809 12.7239 33.9569 13.2039 33.9569C13.4279 33.9569 13.6519 33.9089 13.8759 33.8129C14.0999 33.7169 14.2919 33.5889 14.4519 33.4289C14.8039 33.0769 14.9799 32.6556 14.9799 32.1649V27.3169H16.3719V35.2689H14.9799ZM17.9768 35.3169V24.6769H19.2568V35.3169H17.9768ZM24.8998 35.4609C24.2918 35.4609 23.7851 35.3649 23.3798 35.1729C22.9744 34.9702 22.6064 34.6556 22.2758 34.2289V38.7249H20.8518V27.5089H22.2758V28.6289C22.6064 28.2236 23.0011 27.8982 23.4598 27.6529C23.9184 27.4076 24.3984 27.2849 24.8998 27.2849C25.4438 27.2849 25.9611 27.3916 26.4518 27.6049C26.9531 27.8076 27.3851 28.1009 27.7478 28.4849C28.1211 28.8689 28.4091 29.3116 28.6118 29.8129C28.8251 30.3036 28.9318 30.8262 28.9318 31.3809C28.9318 31.9356 28.8251 32.4582 28.6118 32.9489C28.4091 33.4396 28.1211 33.8769 27.7478 34.2609C27.3851 34.6342 26.9531 34.9276 26.4518 35.1409C25.9611 35.3542 25.4438 35.4609 24.8998 35.4609ZM24.8998 28.7409C24.5478 28.7409 24.2118 28.8102 23.8918 28.9489C23.5718 29.0769 23.2944 29.2636 23.0598 29.5089C22.8251 29.7542 22.6384 30.0422 22.4998 30.3729C22.3611 30.6929 22.2918 31.0289 22.2918 31.3809C22.2918 31.7329 22.3611 32.0689 22.4998 32.3889C22.6384 32.7089 22.8251 32.9916 23.0598 33.2369C23.2944 33.4822 23.5718 33.6742 23.8918 33.8129C24.2118 33.9516 24.5478 34.0209 24.8998 34.0209C25.2518 34.0209 25.5878 33.9516 25.9078 33.8129C26.2278 33.6742 26.5051 33.4822 26.7398 33.2369C26.9744 32.9916 27.1558 32.7089 27.2838 32.3889C27.4224 32.0689 27.4918 31.7329 27.4918 31.3809C27.4918 31.0289 27.4224 30.6929 27.2838 30.3729C27.1558 30.0422 26.9744 29.7542 26.7398 29.5089C26.5051 29.2636 26.2278 29.0769 25.9078 28.9489C25.5878 28.8102 25.2518 28.7409 24.8998 28.7409ZM35.3114 35.3169V30.4049C35.3114 29.9036 35.1354 29.4769 34.7834 29.1249C34.6234 28.9649 34.4314 28.8369 34.2074 28.7409C33.994 28.6449 33.7754 28.5969 33.5514 28.5969C33.0714 28.5969 32.6554 28.7729 32.3034 29.1249C31.9514 29.4769 31.7754 29.9036 31.7754 30.4049V35.3169H30.3674V24.6449H31.7754V27.8769C32.2874 27.3969 32.8794 27.1569 33.5514 27.1569C33.978 27.1569 34.3834 27.2422 34.7674 27.4129C35.1514 27.5729 35.4927 27.8022 35.7914 28.1009C36.0794 28.3996 36.3034 28.7516 36.4634 29.1569C36.634 29.5516 36.7194 29.9676 36.7194 30.4049V35.3169H35.3114ZM43.1205 35.2689V34.5969C42.9072 34.8209 42.6352 35.0076 42.3045 35.1569C41.9845 35.3062 41.6645 35.3809 41.3445 35.3809C40.9178 35.3809 40.5072 35.3009 40.1125 35.1409C39.7285 34.9702 39.3872 34.7356 39.0885 34.4369C38.8005 34.1382 38.5712 33.7969 38.4005 33.4129C38.2405 33.0182 38.1605 32.6022 38.1605 32.1649V27.3169H39.5685V32.1649C39.5685 32.6556 39.7445 33.0769 40.0965 33.4289C40.4485 33.7809 40.8645 33.9569 41.3445 33.9569C41.5685 33.9569 41.7925 33.9089 42.0165 33.8129C42.2405 33.7169 42.4325 33.5889 42.5925 33.4289C42.9445 33.0769 43.1205 32.6556 43.1205 32.1649V27.3169H44.5125V35.2689H43.1205ZM49.6854 28.8529C49.4294 28.7356 49.2 28.6769 48.9974 28.6769C48.5707 28.6769 48.2187 28.8262 47.9414 29.1249C47.6427 29.4449 47.4934 29.8129 47.4934 30.2289V35.3169H46.1174V30.2289C46.1174 29.6529 46.2614 29.1249 46.5494 28.6449C46.848 28.1649 47.2534 27.7916 47.7654 27.5249C48.1494 27.3436 48.56 27.2529 48.9974 27.2529C49.3494 27.2529 49.6854 27.3169 50.0054 27.4449C50.3254 27.5729 50.6614 27.7809 51.0134 28.0689L49.6854 28.8529ZM61.0723 31.6209V35.3169H59.6643V24.6769H62.6563C63.1043 24.6769 63.5363 24.7676 63.9523 24.9489C64.3683 25.1196 64.7363 25.3649 65.0563 25.6849C65.3763 26.0156 65.6216 26.3942 65.7923 26.8209C65.9736 27.2369 66.0643 27.6796 66.0643 28.1489C66.0643 28.6182 65.9736 29.0662 65.7923 29.4929C65.6216 29.9089 65.3763 30.2769 65.0563 30.5969C64.7363 30.9169 64.3683 31.1676 63.9523 31.3489C63.5363 31.5302 63.1043 31.6209 62.6563 31.6209H61.0723ZM61.0723 26.1329V30.1969H62.6563C63.2109 30.1969 63.6803 29.9942 64.0643 29.5889C64.4589 29.1942 64.6563 28.7142 64.6563 28.1489C64.6563 27.5942 64.4589 27.1196 64.0643 26.7249C63.6696 26.3302 63.2003 26.1329 62.6563 26.1329H61.0723ZM70.7554 35.3969C70.2114 35.3969 69.694 35.2902 69.2034 35.0769C68.7127 34.8636 68.2807 34.5702 67.9074 34.1969C67.534 33.8236 67.2407 33.3916 67.0274 32.9009C66.814 32.4102 66.7074 31.8929 66.7074 31.3489C66.7074 30.7942 66.814 30.2662 67.0274 29.7649C67.2407 29.2636 67.534 28.8262 67.9074 28.4529C68.2807 28.0796 68.7127 27.7916 69.2034 27.5889C69.694 27.3756 70.2114 27.2689 70.7554 27.2689C71.31 27.2689 71.838 27.3756 72.3394 27.5889C72.8407 27.7916 73.278 28.0796 73.6514 28.4529C74.0247 28.8262 74.3127 29.2636 74.5154 29.7649C74.7287 30.2662 74.8354 30.7942 74.8354 31.3489C74.8354 31.8929 74.7287 32.4102 74.5154 32.9009C74.3127 33.3916 74.0247 33.8236 73.6514 34.1969C73.278 34.5702 72.8407 34.8636 72.3394 35.0769C71.838 35.2902 71.31 35.3969 70.7554 35.3969ZM70.7554 28.6929C70.0407 28.6929 69.4274 28.9489 68.9154 29.4609C68.67 29.7062 68.478 29.9942 68.3394 30.3249C68.2007 30.6556 68.1314 30.9969 68.1314 31.3489C68.1314 31.7009 68.2007 32.0369 68.3394 32.3569C68.478 32.6769 68.67 32.9596 68.9154 33.2049C69.1607 33.4502 69.438 33.6422 69.7474 33.7809C70.0674 33.9196 70.4034 33.9889 70.7554 33.9889C71.1074 33.9889 71.4487 33.9196 71.7794 33.7809C72.11 33.6422 72.3927 33.4502 72.6274 33.2049C72.862 32.9596 73.0487 32.6769 73.1874 32.3569C73.326 32.0369 73.3954 31.7009 73.3954 31.3489C73.3954 30.9969 73.326 30.6556 73.1874 30.3249C73.0487 29.9942 72.862 29.7062 72.6274 29.4609C72.3927 29.2156 72.11 29.0289 71.7794 28.9009C71.4594 28.7622 71.118 28.6929 70.7554 28.6929ZM77.0096 26.1649C76.807 26.1649 76.631 26.0956 76.4816 25.9569C76.343 25.8076 76.2736 25.6316 76.2736 25.4289C76.2736 25.2262 76.343 25.0556 76.4816 24.9169C76.631 24.7676 76.807 24.6929 77.0096 24.6929C77.2123 24.6929 77.383 24.7676 77.5216 24.9169C77.671 25.0556 77.7456 25.2262 77.7456 25.4289C77.7456 25.6316 77.671 25.8076 77.5216 25.9569C77.383 26.0956 77.2123 26.1649 77.0096 26.1649ZM76.3536 35.3169V27.3169H77.6976V35.3169H76.3536ZM84.2958 35.3169V30.5169C84.2958 30.0369 84.1198 29.6209 83.7678 29.2689C83.4264 28.9276 83.0104 28.7569 82.5198 28.7569C82.0398 28.7569 81.6238 28.9329 81.2718 29.2849C81.1118 29.4449 80.9838 29.6369 80.8878 29.8609C80.7918 30.0742 80.7438 30.2929 80.7438 30.5169V35.3169H79.3518V27.5089H80.7438V28.1649C80.9464 27.9196 81.2131 27.7169 81.5438 27.5569C81.8744 27.3969 82.1998 27.3169 82.5198 27.3169C82.9464 27.3169 83.3518 27.4022 83.7358 27.5729C84.1304 27.7329 84.4771 27.9622 84.7758 28.2609C85.0638 28.5489 85.2878 28.8902 85.4478 29.2849C85.6184 29.6689 85.7038 30.0796 85.7038 30.5169V35.3169H84.2958ZM89.5486 28.7569V35.3169H88.1886V28.7569H86.9886V27.3169H88.1886V24.6769H89.5486V27.3169H90.7486V28.7569H89.5486ZM102.519 24.6609C103.116 24.6716 103.639 24.8102 104.087 25.0769C104.535 25.3436 104.876 25.7009 105.111 26.1489C105.356 26.5969 105.479 27.1036 105.479 27.6689C105.479 28.0849 105.399 28.4796 105.239 28.8529C105.089 29.2156 104.881 29.5409 104.615 29.8289C104.999 30.1169 105.297 30.4742 105.511 30.9009C105.735 31.3276 105.847 31.7969 105.847 32.3089C105.847 32.8529 105.713 33.3542 105.447 33.8129C105.18 34.2716 104.823 34.6396 104.375 34.9169C103.927 35.1836 103.431 35.3169 102.887 35.3169H99.3986V24.6609H102.519ZM100.807 26.1009V29.2689H102.519C102.956 29.2689 103.324 29.1142 103.623 28.8049C103.921 28.4956 104.071 28.1169 104.071 27.6689C104.071 27.2209 103.921 26.8476 103.623 26.5489C103.335 26.2502 102.967 26.1009 102.519 26.1009H100.807ZM100.807 30.7089V33.8769H102.887C103.324 33.8769 103.692 33.7276 103.991 33.4289C104.289 33.1196 104.439 32.7462 104.439 32.3089C104.439 31.8609 104.289 31.4822 103.991 31.1729C103.692 30.8636 103.324 30.7089 102.887 30.7089H100.807ZM113.833 35.3169V34.0849C113.492 34.4902 113.087 34.8102 112.617 35.0449C112.159 35.2796 111.679 35.3969 111.177 35.3969C110.612 35.3969 110.084 35.2956 109.593 35.0929C109.103 34.8796 108.676 34.5809 108.313 34.1969C107.94 33.8129 107.647 33.3756 107.433 32.8849C107.231 32.3836 107.129 31.8556 107.129 31.3009C107.129 30.7462 107.231 30.2236 107.433 29.7329C107.647 29.2316 107.94 28.7889 108.313 28.4049C108.676 28.0209 109.103 27.7276 109.593 27.5249C110.084 27.3116 110.612 27.2049 111.177 27.2049C111.732 27.2049 112.233 27.3169 112.681 27.5409C113.14 27.7649 113.524 28.0742 113.833 28.4689V24.6929H115.241V35.3169H113.833ZM111.177 28.6609C110.825 28.6609 110.489 28.7302 110.169 28.8689C109.849 28.9969 109.572 29.1836 109.337 29.4289C109.103 29.6742 108.916 29.9622 108.777 30.2929C108.639 30.6129 108.569 30.9489 108.569 31.3009C108.569 32.0156 108.825 32.6396 109.337 33.1729C109.572 33.4182 109.849 33.6102 110.169 33.7489C110.489 33.8876 110.825 33.9569 111.177 33.9569C111.529 33.9569 111.865 33.8876 112.185 33.7489C112.516 33.6102 112.799 33.4182 113.033 33.1729C113.545 32.6396 113.801 32.0156 113.801 31.3009C113.801 30.9489 113.732 30.6129 113.593 30.2929C113.455 29.9622 113.268 29.6742 113.033 29.4289C112.799 29.1836 112.516 28.9969 112.185 28.8689C111.865 28.7302 111.529 28.6609 111.177 28.6609Z" fill="black"/>
</svg>
