<svg width="120" height="39" viewBox="0 0 120 39" fill="none" xmlns="http://www.w3.org/2000/svg">
<path d="M7.72638 5.91284C7.67305 5.50751 7.54505 5.15551 7.34238 4.85684C6.92638 4.21684 6.23838 3.89684 5.27838 3.89684C4.47838 3.89684 3.89705 4.07818 3.53438 4.44084C3.20372 4.78218 3.03838 5.24618 3.03838 5.83284C3.03838 6.48351 3.21972 6.93151 3.58238 7.17684C3.94505 7.42218 4.45172 7.57151 5.10238 7.62484C5.72105 7.67818 6.24372 7.76351 6.67038 7.88084C7.09705 7.98751 7.45438 8.13684 7.74238 8.32884C8.49972 8.79818 8.87838 9.53418 8.87838 10.5368C8.87838 10.9315 8.79838 11.3048 8.63838 11.6568C8.48905 12.0088 8.27038 12.3235 7.98238 12.6008C7.33172 13.2408 6.44105 13.5608 5.31038 13.5608C4.16905 13.5608 3.26772 13.2462 2.60638 12.6168C2.04105 12.0942 1.69972 11.3902 1.58238 10.5048H2.68638C2.78238 11.0382 3.00638 11.4755 3.35838 11.8168C3.81705 12.2435 4.47305 12.4568 5.32638 12.4568C6.05172 12.4568 6.63838 12.2808 7.08638 11.9288C7.54505 11.5662 7.77438 11.1022 7.77438 10.5368C7.77438 10.1742 7.69972 9.87551 7.55038 9.64084C7.41172 9.39551 7.13972 9.19818 6.73438 9.04884C6.32905 8.89951 5.75305 8.79284 5.00638 8.72884C2.95838 8.54751 1.93438 7.58218 1.93438 5.83284C1.93438 5.39551 2.00372 4.99551 2.14238 4.63284C2.29172 4.25951 2.49972 3.93951 2.76638 3.67284C3.35305 3.08618 4.18505 2.79284 5.26238 2.79284H5.27838C6.37705 2.80351 7.21438 3.10751 7.79038 3.70484C8.37705 4.29151 8.72372 5.03284 8.83038 5.92884H7.72638V5.91284ZM13.1883 13.5288C12.6123 13.5288 12.0789 13.3902 11.5883 13.1128C11.1083 12.8248 10.7243 12.4408 10.4363 11.9608C10.1483 11.4702 10.0043 10.9368 10.0043 10.3608V5.46484H11.1083V10.3608C11.1083 10.7342 11.1989 11.0808 11.3803 11.4008C11.5723 11.7208 11.8283 11.9768 12.1483 12.1688C12.4683 12.3502 12.8149 12.4408 13.1883 12.4408C13.5616 12.4408 13.9083 12.3502 14.2283 12.1688C14.5483 11.9768 14.7989 11.7208 14.9803 11.4008C15.1723 11.0808 15.2683 10.7342 15.2683 10.3608V5.46484H16.3563V13.3848H15.2683V12.6168C15.0016 12.9155 14.6869 13.1448 14.3243 13.3048C13.9723 13.4542 13.5936 13.5288 13.1883 13.5288ZM19.0491 2.82484V13.4648H17.9611V2.82484H19.0491ZM20.6486 16.8728V5.67284H21.7366V7.00084C22.11 6.47818 22.5473 6.08884 23.0486 5.83284C23.55 5.56618 24.0993 5.43284 24.6966 5.43284C25.422 5.43284 26.094 5.61418 26.7126 5.97684C27.3313 6.33951 27.822 6.83018 28.1846 7.44884C28.5473 8.06751 28.7286 8.73951 28.7286 9.46484C28.7286 10.1902 28.5473 10.8622 28.1846 11.4808C27.822 12.0995 27.3313 12.5902 26.7126 12.9528C26.094 13.3155 25.422 13.4968 24.6966 13.4968C23.9393 13.4968 23.3153 13.3422 22.8246 13.0328C22.334 12.7128 21.9713 12.3715 21.7366 12.0088V16.8728H20.6486ZM24.6966 6.53684C24.1633 6.53684 23.6726 6.67018 23.2246 6.93684C22.7766 7.19284 22.4193 7.54484 22.1526 7.99284C21.886 8.44084 21.7526 8.93151 21.7526 9.46484C21.7526 9.99818 21.886 10.4888 22.1526 10.9368C22.4193 11.3848 22.7766 11.7422 23.2246 12.0088C23.6726 12.2755 24.1633 12.4088 24.6966 12.4088C25.23 12.4088 25.7206 12.2755 26.1686 12.0088C26.6166 11.7422 26.9686 11.3848 27.2246 10.9368C27.4913 10.4888 27.6246 9.99818 27.6246 9.46484C27.6246 8.93151 27.4913 8.44084 27.2246 7.99284C26.9686 7.54484 26.6166 7.19284 26.1686 6.93684C25.7206 6.67018 25.23 6.53684 24.6966 6.53684ZM33.3483 5.40084C33.9243 5.40084 34.4523 5.54484 34.9323 5.83284C35.4229 6.11018 35.8069 6.49418 36.0843 6.98484C36.3723 7.46484 36.5163 7.99284 36.5163 8.56884V13.4648H35.4123V8.56884C35.4123 8.19551 35.3163 7.84884 35.1243 7.52884C34.9429 7.20884 34.6923 6.95818 34.3723 6.77684C34.0629 6.58484 33.7216 6.48884 33.3483 6.48884C32.9749 6.48884 32.6283 6.58484 32.3083 6.77684C31.9883 6.95818 31.7323 7.20884 31.5403 7.52884C31.3589 7.84884 31.2683 8.19551 31.2683 8.56884V13.4648H30.1643V2.79284H31.2683V6.29684C31.5243 5.99818 31.8283 5.77418 32.1803 5.62484C32.5429 5.47551 32.9323 5.40084 33.3483 5.40084ZM41.1414 13.5288C40.5654 13.5288 40.032 13.3902 39.5414 13.1128C39.0614 12.8248 38.6774 12.4408 38.3894 11.9608C38.1014 11.4702 37.9574 10.9368 37.9574 10.3608V5.46484H39.0614V10.3608C39.0614 10.7342 39.152 11.0808 39.3334 11.4008C39.5254 11.7208 39.7814 11.9768 40.1014 12.1688C40.4214 12.3502 40.768 12.4408 41.1414 12.4408C41.5147 12.4408 41.8614 12.3502 42.1814 12.1688C42.5014 11.9768 42.752 11.7208 42.9334 11.4008C43.1254 11.0808 43.2214 10.7342 43.2214 10.3608V5.46484H44.3094V13.3848H43.2214V12.6168C42.9547 12.9155 42.64 13.1448 42.2774 13.3048C41.9254 13.4542 41.5467 13.5288 41.1414 13.5288ZM49.5783 6.64884C49.3329 6.54218 49.0876 6.48884 48.8423 6.48884C48.3409 6.48884 47.9089 6.67018 47.5463 7.03284C47.1836 7.39551 47.0023 7.82751 47.0023 8.32884V13.4648H45.9143V8.32884C45.9143 7.75284 46.0636 7.23018 46.3623 6.76084C46.6716 6.28084 47.0716 5.92351 47.5623 5.68884L47.5943 5.67284C47.9889 5.49151 48.4049 5.40084 48.8423 5.40084C49.5249 5.40084 50.1329 5.60884 50.6663 6.02484L49.5783 6.64884ZM62.2809 2.82484C62.8995 2.82484 63.4702 2.97951 63.9929 3.28884C64.5155 3.59818 64.9315 4.01418 65.2409 4.53684C65.5502 5.05951 65.7049 5.62484 65.7049 6.23284C65.7049 6.84084 65.5502 7.40618 65.2409 7.92884C64.9315 8.45151 64.5155 8.86751 63.9929 9.17684C63.4702 9.47551 62.8995 9.62484 62.2809 9.62484H60.4089V13.4648H59.3049V2.82484H62.2809ZM62.2809 8.55284C62.6969 8.55284 63.0809 8.45151 63.4329 8.24884C63.7955 8.03551 64.0782 7.75284 64.2809 7.40084C64.4942 7.03818 64.6009 6.64884 64.6009 6.23284C64.6009 5.81684 64.4942 5.43284 64.2809 5.08084C64.0782 4.72884 63.7955 4.45151 63.4329 4.24884C63.0809 4.03551 62.6969 3.92884 62.2809 3.92884H60.4089V8.55284H62.2809ZM70.396 13.5448C69.6707 13.5448 68.9933 13.3635 68.364 13.0008C67.7453 12.6382 67.2547 12.1475 66.892 11.5288C66.5293 10.8995 66.348 10.2222 66.348 9.49684C66.348 8.76084 66.5293 8.08351 66.892 7.46484C67.2547 6.83551 67.7453 6.33951 68.364 5.97684C68.9933 5.60351 69.6707 5.41684 70.396 5.41684C71.132 5.41684 71.8093 5.60351 72.428 5.97684C73.0573 6.33951 73.5533 6.83551 73.916 7.46484C74.2893 8.08351 74.476 8.76084 74.476 9.49684C74.476 10.2222 74.2893 10.8995 73.916 11.5288C73.5533 12.1475 73.0573 12.6382 72.428 13.0008C71.8093 13.3635 71.132 13.5448 70.396 13.5448ZM70.396 12.4728C70.94 12.4728 71.436 12.3395 71.884 12.0728C72.3427 11.8062 72.7053 11.4435 72.972 10.9848C73.2387 10.5262 73.372 10.0302 73.372 9.49684C73.372 8.95284 73.2387 8.45151 72.972 7.99284C72.7053 7.53418 72.3427 7.17151 71.884 6.90484C71.436 6.63818 70.94 6.50484 70.396 6.50484C69.8627 6.50484 69.3667 6.63818 68.908 6.90484C68.46 7.17151 68.1027 7.53418 67.836 7.99284C67.5693 8.45151 67.436 8.95284 67.436 9.49684C67.436 10.0302 67.5693 10.5262 67.836 10.9848C68.1027 11.4435 68.46 11.8062 68.908 12.0728C69.3667 12.3395 69.8627 12.4728 70.396 12.4728ZM76.6343 3.24084C76.8263 3.24084 76.9916 3.31018 77.1303 3.44884C77.2689 3.58751 77.3383 3.75284 77.3383 3.94484C77.3383 4.14751 77.2689 4.31818 77.1303 4.45684C76.9916 4.59551 76.8263 4.66484 76.6343 4.66484C76.4316 4.66484 76.2609 4.59551 76.1223 4.45684C75.9836 4.31818 75.9143 4.14751 75.9143 3.94484C75.9143 3.75284 75.9836 3.58751 76.1223 3.44884C76.2609 3.31018 76.4316 3.24084 76.6343 3.24084ZM77.1783 5.46484V13.4648H76.0743V5.46484H77.1783ZM82.1135 5.46484C82.6895 5.46484 83.2175 5.60884 83.6975 5.89684C84.1882 6.17418 84.5775 6.55818 84.8655 7.04884C85.1535 7.52884 85.2975 8.05684 85.2975 8.63284V13.4648H84.1935V8.63284C84.1935 8.25951 84.0975 7.91818 83.9055 7.60884C83.7242 7.28884 83.4735 7.03818 83.1535 6.85684C82.8335 6.66484 82.4868 6.56884 82.1135 6.56884C81.7402 6.56884 81.3935 6.66484 81.0735 6.85684C80.7535 7.03818 80.4975 7.28884 80.3055 7.60884C80.1242 7.91818 80.0335 8.25951 80.0335 8.63284V13.4648H78.9455V5.67284H80.0335V6.37684C80.3002 6.07818 80.6095 5.85418 80.9615 5.70484C81.3242 5.54484 81.7082 5.46484 82.1135 5.46484ZM90.3424 6.55284H89.0144V13.4648H87.9104V6.55284H86.5824V5.46484H87.9104V2.82484H89.0144V5.46484H90.3424V6.55284ZM101.664 9.64084L105.104 13.4648H103.632L100.192 9.64084H100.096V13.4648H98.9924V2.84084H101.712C102.331 2.84084 102.896 2.99551 103.408 3.30484C103.931 3.60351 104.342 4.01418 104.64 4.53684C104.95 5.05951 105.104 5.63018 105.104 6.24884C105.104 6.86751 104.95 7.43818 104.64 7.96084C104.342 8.47284 103.931 8.88351 103.408 9.19284C102.896 9.49151 102.331 9.64084 101.712 9.64084H101.664ZM100.096 3.92884V8.55284H101.712C102.128 8.55284 102.512 8.45151 102.864 8.24884C103.216 8.03551 103.494 7.75284 103.696 7.40084C103.91 7.04884 104.016 6.66484 104.016 6.24884C104.016 5.83284 103.91 5.44884 103.696 5.09684C103.494 4.73418 103.216 4.45151 102.864 4.24884C102.512 4.03551 102.128 3.92884 101.712 3.92884H100.096ZM113.959 5.67284V12.8568C113.959 13.5822 113.778 14.2542 113.415 14.8728C113.052 15.4915 112.562 15.9768 111.943 16.3288C111.324 16.6915 110.652 16.8728 109.927 16.8728C109.298 16.8728 108.706 16.7395 108.151 16.4728C107.607 16.2062 107.148 15.8382 106.775 15.3688L107.751 14.7928C108.018 15.1022 108.338 15.3422 108.711 15.5128C109.095 15.6942 109.5 15.7848 109.927 15.7848C110.46 15.7848 110.951 15.6515 111.399 15.3848C111.847 15.1288 112.199 14.7768 112.455 14.3288C112.722 13.8808 112.855 13.3902 112.855 12.8568V11.9608C112.119 12.9955 111.138 13.5128 109.911 13.5128C109.196 13.5128 108.53 13.3208 107.911 12.9368C107.292 12.5528 106.802 12.0462 106.439 11.4168C106.076 10.7768 105.895 10.0995 105.895 9.38484C105.895 8.67018 106.076 8.01418 106.439 7.41684C106.802 6.81951 107.287 6.34484 107.895 5.99284C108.514 5.64084 109.186 5.46484 109.911 5.46484C110.658 5.46484 111.276 5.62484 111.767 5.94484C112.258 6.25418 112.62 6.59018 112.855 6.95284V5.67284H113.959ZM109.911 12.4248C110.444 12.4248 110.935 12.2968 111.383 12.0408C111.831 11.7742 112.183 11.4168 112.439 10.9688C112.706 10.5208 112.839 10.0302 112.839 9.49684C112.839 8.96351 112.706 8.47284 112.439 8.02484C112.183 7.57684 111.831 7.22484 111.383 6.96884C110.935 6.70218 110.444 6.56884 109.911 6.56884C109.378 6.56884 108.887 6.70218 108.439 6.96884C107.991 7.22484 107.634 7.57684 107.367 8.02484C107.1 8.47284 106.967 8.96351 106.967 9.49684C106.967 10.0302 107.1 10.5208 107.367 10.9688C107.634 11.4168 107.991 11.7742 108.439 12.0408C108.887 12.2968 109.378 12.4248 109.911 12.4248Z" fill="black"/>
<path d="M7.42238 28.1048C7.36905 27.6888 7.25705 27.3475 7.08638 27.0808C6.89438 26.7928 6.65438 26.5848 6.36638 26.4568C6.08905 26.3182 5.73172 26.2488 5.29438 26.2488C4.56905 26.2488 4.06238 26.4035 3.77438 26.7128C3.49705 26.9902 3.35838 27.3902 3.35838 27.9128C3.35838 28.2115 3.40105 28.4568 3.48638 28.6488C3.57172 28.8302 3.69972 28.9795 3.87038 29.0968C4.12638 29.2782 4.54772 29.3955 5.13438 29.4488C5.73172 29.5022 6.23305 29.5875 6.63838 29.7048C7.05438 29.8115 7.41705 29.9608 7.72638 30.1528C8.50505 30.6435 8.89438 31.4115 8.89438 32.4568C8.89438 32.8622 8.81438 33.2462 8.65438 33.6088C8.49438 33.9715 8.27038 34.2968 7.98238 34.5848C7.64105 34.9155 7.23572 35.1608 6.76638 35.3208C6.30772 35.4808 5.82772 35.5608 5.32638 35.5608C4.19572 35.5608 3.29438 35.2408 2.62238 34.6008C2.04638 34.0248 1.69972 33.2568 1.58238 32.2968L1.61438 32.2808H3.02238C3.10772 32.8462 3.29972 33.2675 3.59838 33.5448C4.01438 33.9288 4.57438 34.1208 5.27838 34.1208C5.95038 34.1208 6.48372 33.9662 6.87838 33.6568C7.27305 33.3475 7.47038 32.9475 7.47038 32.4568C7.47038 32.2328 7.43838 32.0408 7.37438 31.8808C7.32105 31.7102 7.21438 31.5608 7.05438 31.4328C6.69172 31.1555 6.01438 30.9795 5.02238 30.9048C4.00905 30.8195 3.24105 30.5262 2.71838 30.0248C2.19572 29.5235 1.93438 28.8195 1.93438 27.9128C1.93438 26.9955 2.21705 26.2542 2.78238 25.6888C3.37972 25.0915 4.21172 24.7928 5.27838 24.7928C6.38772 24.7928 7.25172 25.1288 7.87038 25.8008C8.41438 26.3875 8.74505 27.1555 8.86238 28.1048H7.42238ZM14.9799 35.4168V34.7448C14.7665 34.9688 14.4945 35.1555 14.1639 35.3048C13.8439 35.4542 13.5239 35.5288 13.2039 35.5288C12.7772 35.5288 12.3665 35.4488 11.9719 35.2888C11.5879 35.1182 11.2465 34.8835 10.9479 34.5848C10.6599 34.2862 10.4305 33.9448 10.2599 33.5608C10.0999 33.1662 10.0199 32.7502 10.0199 32.3128V27.4648H11.4279V32.3128C11.4279 32.8035 11.6039 33.2248 11.9559 33.5768C12.3079 33.9288 12.7239 34.1048 13.2039 34.1048C13.4279 34.1048 13.6519 34.0568 13.8759 33.9608C14.0999 33.8648 14.2919 33.7368 14.4519 33.5768C14.8039 33.2248 14.9799 32.8035 14.9799 32.3128V27.4648H16.3719V35.4168H14.9799ZM17.9768 35.4648V24.8248H19.2568V35.4648H17.9768ZM24.8998 35.6088C24.2918 35.6088 23.7851 35.5128 23.3798 35.3208C22.9744 35.1182 22.6064 34.8035 22.2758 34.3768V38.8728H20.8518V27.6568H22.2758V28.7768C22.6064 28.3715 23.0011 28.0462 23.4598 27.8008C23.9184 27.5555 24.3984 27.4328 24.8998 27.4328C25.4438 27.4328 25.9611 27.5395 26.4518 27.7528C26.9531 27.9555 27.3851 28.2488 27.7478 28.6328C28.1211 29.0168 28.4091 29.4595 28.6118 29.9608C28.8251 30.4515 28.9318 30.9742 28.9318 31.5288C28.9318 32.0835 28.8251 32.6062 28.6118 33.0968C28.4091 33.5875 28.1211 34.0248 27.7478 34.4088C27.3851 34.7822 26.9531 35.0755 26.4518 35.2888C25.9611 35.5022 25.4438 35.6088 24.8998 35.6088ZM24.8998 28.8888C24.5478 28.8888 24.2118 28.9582 23.8918 29.0968C23.5718 29.2248 23.2944 29.4115 23.0598 29.6568C22.8251 29.9022 22.6384 30.1902 22.4998 30.5208C22.3611 30.8408 22.2918 31.1768 22.2918 31.5288C22.2918 31.8808 22.3611 32.2168 22.4998 32.5368C22.6384 32.8568 22.8251 33.1395 23.0598 33.3848C23.2944 33.6302 23.5718 33.8222 23.8918 33.9608C24.2118 34.0995 24.5478 34.1688 24.8998 34.1688C25.2518 34.1688 25.5878 34.0995 25.9078 33.9608C26.2278 33.8222 26.5051 33.6302 26.7398 33.3848C26.9744 33.1395 27.1558 32.8568 27.2838 32.5368C27.4224 32.2168 27.4918 31.8808 27.4918 31.5288C27.4918 31.1768 27.4224 30.8408 27.2838 30.5208C27.1558 30.1902 26.9744 29.9022 26.7398 29.6568C26.5051 29.4115 26.2278 29.2248 25.9078 29.0968C25.5878 28.9582 25.2518 28.8888 24.8998 28.8888ZM35.3114 35.4648V30.5528C35.3114 30.0515 35.1354 29.6248 34.7834 29.2728C34.6234 29.1128 34.4314 28.9848 34.2074 28.8888C33.994 28.7928 33.7754 28.7448 33.5514 28.7448C33.0714 28.7448 32.6554 28.9208 32.3034 29.2728C31.9514 29.6248 31.7754 30.0515 31.7754 30.5528V35.4648H30.3674V24.7928H31.7754V28.0248C32.2874 27.5448 32.8794 27.3048 33.5514 27.3048C33.978 27.3048 34.3834 27.3902 34.7674 27.5608C35.1514 27.7208 35.4927 27.9502 35.7914 28.2488C36.0794 28.5475 36.3034 28.8995 36.4634 29.3048C36.634 29.6995 36.7194 30.1155 36.7194 30.5528V35.4648H35.3114ZM43.1205 35.4168V34.7448C42.9072 34.9688 42.6352 35.1555 42.3045 35.3048C41.9845 35.4542 41.6645 35.5288 41.3445 35.5288C40.9178 35.5288 40.5072 35.4488 40.1125 35.2888C39.7285 35.1182 39.3872 34.8835 39.0885 34.5848C38.8005 34.2862 38.5712 33.9448 38.4005 33.5608C38.2405 33.1662 38.1605 32.7502 38.1605 32.3128V27.4648H39.5685V32.3128C39.5685 32.8035 39.7445 33.2248 40.0965 33.5768C40.4485 33.9288 40.8645 34.1048 41.3445 34.1048C41.5685 34.1048 41.7925 34.0568 42.0165 33.9608C42.2405 33.8648 42.4325 33.7368 42.5925 33.5768C42.9445 33.2248 43.1205 32.8035 43.1205 32.3128V27.4648H44.5125V35.4168H43.1205ZM49.6854 29.0008C49.4294 28.8835 49.2 28.8248 48.9974 28.8248C48.5707 28.8248 48.2187 28.9742 47.9414 29.2728C47.6427 29.5928 47.4934 29.9608 47.4934 30.3768V35.4648H46.1174V30.3768C46.1174 29.8008 46.2614 29.2728 46.5494 28.7928C46.848 28.3128 47.2534 27.9395 47.7654 27.6728C48.1494 27.4915 48.56 27.4008 48.9974 27.4008C49.3494 27.4008 49.6854 27.4648 50.0054 27.5928C50.3254 27.7208 50.6614 27.9288 51.0134 28.2168L49.6854 29.0008ZM61.0723 31.7688V35.4648H59.6643V24.8248H62.6563C63.1043 24.8248 63.5363 24.9155 63.9523 25.0968C64.3683 25.2675 64.7363 25.5128 65.0563 25.8328C65.3763 26.1635 65.6216 26.5422 65.7923 26.9688C65.9736 27.3848 66.0643 27.8275 66.0643 28.2968C66.0643 28.7662 65.9736 29.2142 65.7923 29.6408C65.6216 30.0568 65.3763 30.4248 65.0563 30.7448C64.7363 31.0648 64.3683 31.3155 63.9523 31.4968C63.5363 31.6782 63.1043 31.7688 62.6563 31.7688H61.0723ZM61.0723 26.2808V30.3448H62.6563C63.2109 30.3448 63.6803 30.1422 64.0643 29.7368C64.4589 29.3422 64.6563 28.8622 64.6563 28.2968C64.6563 27.7422 64.4589 27.2675 64.0643 26.8728C63.6696 26.4782 63.2003 26.2808 62.6563 26.2808H61.0723ZM70.7554 35.5448C70.2114 35.5448 69.694 35.4382 69.2034 35.2248C68.7127 35.0115 68.2807 34.7182 67.9074 34.3448C67.534 33.9715 67.2407 33.5395 67.0274 33.0488C66.814 32.5582 66.7074 32.0408 66.7074 31.4968C66.7074 30.9422 66.814 30.4142 67.0274 29.9128C67.2407 29.4115 67.534 28.9742 67.9074 28.6008C68.2807 28.2275 68.7127 27.9395 69.2034 27.7368C69.694 27.5235 70.2114 27.4168 70.7554 27.4168C71.31 27.4168 71.838 27.5235 72.3394 27.7368C72.8407 27.9395 73.278 28.2275 73.6514 28.6008C74.0247 28.9742 74.3127 29.4115 74.5154 29.9128C74.7287 30.4142 74.8354 30.9422 74.8354 31.4968C74.8354 32.0408 74.7287 32.5582 74.5154 33.0488C74.3127 33.5395 74.0247 33.9715 73.6514 34.3448C73.278 34.7182 72.8407 35.0115 72.3394 35.2248C71.838 35.4382 71.31 35.5448 70.7554 35.5448ZM70.7554 28.8408C70.0407 28.8408 69.4274 29.0968 68.9154 29.6088C68.67 29.8542 68.478 30.1422 68.3394 30.4728C68.2007 30.8035 68.1314 31.1448 68.1314 31.4968C68.1314 31.8488 68.2007 32.1848 68.3394 32.5048C68.478 32.8248 68.67 33.1075 68.9154 33.3528C69.1607 33.5982 69.438 33.7902 69.7474 33.9288C70.0674 34.0675 70.4034 34.1368 70.7554 34.1368C71.1074 34.1368 71.4487 34.0675 71.7794 33.9288C72.11 33.7902 72.3927 33.5982 72.6274 33.3528C72.862 33.1075 73.0487 32.8248 73.1874 32.5048C73.326 32.1848 73.3954 31.8488 73.3954 31.4968C73.3954 31.1448 73.326 30.8035 73.1874 30.4728C73.0487 30.1422 72.862 29.8542 72.6274 29.6088C72.3927 29.3635 72.11 29.1768 71.7794 29.0488C71.4594 28.9102 71.118 28.8408 70.7554 28.8408ZM77.0096 26.3128C76.807 26.3128 76.631 26.2435 76.4816 26.1048C76.343 25.9555 76.2736 25.7795 76.2736 25.5768C76.2736 25.3742 76.343 25.2035 76.4816 25.0648C76.631 24.9155 76.807 24.8408 77.0096 24.8408C77.2123 24.8408 77.383 24.9155 77.5216 25.0648C77.671 25.2035 77.7456 25.3742 77.7456 25.5768C77.7456 25.7795 77.671 25.9555 77.5216 26.1048C77.383 26.2435 77.2123 26.3128 77.0096 26.3128ZM76.3536 35.4648V27.4648H77.6976V35.4648H76.3536ZM84.2958 35.4648V30.6648C84.2958 30.1848 84.1198 29.7688 83.7678 29.4168C83.4264 29.0755 83.0104 28.9048 82.5198 28.9048C82.0398 28.9048 81.6238 29.0808 81.2718 29.4328C81.1118 29.5928 80.9838 29.7848 80.8878 30.0088C80.7918 30.2222 80.7438 30.4408 80.7438 30.6648V35.4648H79.3518V27.6568H80.7438V28.3128C80.9464 28.0675 81.2131 27.8648 81.5438 27.7048C81.8744 27.5448 82.1998 27.4648 82.5198 27.4648C82.9464 27.4648 83.3518 27.5502 83.7358 27.7208C84.1304 27.8808 84.4771 28.1102 84.7758 28.4088C85.0638 28.6968 85.2878 29.0382 85.4478 29.4328C85.6184 29.8168 85.7038 30.2275 85.7038 30.6648V35.4648H84.2958ZM89.5486 28.9048V35.4648H88.1886V28.9048H86.9886V27.4648H88.1886V24.8248H89.5486V27.4648H90.7486V28.9048H89.5486ZM102.519 24.8088C103.116 24.8195 103.639 24.9582 104.087 25.2248C104.535 25.4915 104.876 25.8488 105.111 26.2968C105.356 26.7448 105.479 27.2515 105.479 27.8168C105.479 28.2328 105.399 28.6275 105.239 29.0008C105.089 29.3635 104.881 29.6888 104.615 29.9768C104.999 30.2648 105.297 30.6222 105.511 31.0488C105.735 31.4755 105.847 31.9448 105.847 32.4568C105.847 33.0008 105.713 33.5022 105.447 33.9608C105.18 34.4195 104.823 34.7875 104.375 35.0648C103.927 35.3315 103.431 35.4648 102.887 35.4648H99.3986V24.8088H102.519ZM100.807 26.2488V29.4168H102.519C102.956 29.4168 103.324 29.2622 103.623 28.9528C103.921 28.6435 104.071 28.2648 104.071 27.8168C104.071 27.3688 103.921 26.9955 103.623 26.6968C103.335 26.3982 102.967 26.2488 102.519 26.2488H100.807ZM100.807 30.8568V34.0248H102.887C103.324 34.0248 103.692 33.8755 103.991 33.5768C104.289 33.2675 104.439 32.8942 104.439 32.4568C104.439 32.0088 104.289 31.6302 103.991 31.3208C103.692 31.0115 103.324 30.8568 102.887 30.8568H100.807ZM113.833 35.4648V34.2328C113.492 34.6382 113.087 34.9582 112.617 35.1928C112.159 35.4275 111.679 35.5448 111.177 35.5448C110.612 35.5448 110.084 35.4435 109.593 35.2408C109.103 35.0275 108.676 34.7288 108.313 34.3448C107.94 33.9608 107.647 33.5235 107.433 33.0328C107.231 32.5315 107.129 32.0035 107.129 31.4488C107.129 30.8942 107.231 30.3715 107.433 29.8808C107.647 29.3795 107.94 28.9368 108.313 28.5528C108.676 28.1688 109.103 27.8755 109.593 27.6728C110.084 27.4595 110.612 27.3528 111.177 27.3528C111.732 27.3528 112.233 27.4648 112.681 27.6888C113.14 27.9128 113.524 28.2222 113.833 28.6168V24.8408H115.241V35.4648H113.833ZM111.177 28.8088C110.825 28.8088 110.489 28.8782 110.169 29.0168C109.849 29.1448 109.572 29.3315 109.337 29.5768C109.103 29.8222 108.916 30.1102 108.777 30.4408C108.639 30.7608 108.569 31.0968 108.569 31.4488C108.569 32.1635 108.825 32.7875 109.337 33.3208C109.572 33.5662 109.849 33.7582 110.169 33.8968C110.489 34.0355 110.825 34.1048 111.177 34.1048C111.529 34.1048 111.865 34.0355 112.185 33.8968C112.516 33.7582 112.799 33.5662 113.033 33.3208C113.545 32.7875 113.801 32.1635 113.801 31.4488C113.801 31.0968 113.732 30.7608 113.593 30.4408C113.455 30.1102 113.268 29.8222 113.033 29.5768C112.799 29.3315 112.516 29.1448 112.185 29.0168C111.865 28.8782 111.529 28.8088 111.177 28.8088Z" fill="black"/>
</svg>
