<svg xmlns="http://www.w3.org/2000/svg" viewBox="0 0 511.45 511.41"><defs><style>.cls-1{fill:#fff;}</style></defs><g id="레이어_2" data-name="레이어 2"><g id="레이어_1-2" data-name="레이어 1"><path class="cls-1" d="M421.7,219.73,188.5,452.83l-33.9-33.9,3.5-3.5H112a16,16,0,0,1-16-16v-46.1l-3.49,3.5a40.58,40.58,0,0,0-10.09,17l-23,78.2,78.16-23a47.62,47.62,0,0,0,17-10.1l33.9,33.9A87.67,87.67,0,0,1,151.1,475L30.77,510.43A22.55,22.55,0,0,1,7,503.53c-6.21-5.3-8.53-14.4-6.05-22.9l35.39-120.3a88.18,88.18,0,0,1,22.2-37.4L291.7,89.77Zm71-161.55a64,64,0,0,1,0,90.55l-48.4,48.4-130-130,48.4-48.4a64.1,64.1,0,0,1,90.6,0Z"/></g></g></svg>