<svg xmlns="http://www.w3.org/2000/svg" viewBox="0 0 80.5 77.93"><defs><style>.cls-1{fill:#fff;}</style></defs><g id="Layer_2" data-name="Layer 2"><g id="Layer_1-2" data-name="Layer 1"><rect class="cls-1" x="13.15" y="12.27" width="15.33" height="12.6" rx="1.23" transform="translate(-7.04 20.16) rotate(-45)"/><rect class="cls-1" x="3.89" y="14.83" width="31.44" height="9.91" transform="translate(-8.24 19.66) rotate(-45)"/><path class="cls-1" d="M15,33.32,9.47,38.8a2,2,0,0,1-2.85,0l-6-6a2,2,0,0,1,0-2.85l5.48-5.48a1.65,1.65,0,0,1,2.33,0L15,31A1.65,1.65,0,0,1,15,33.32Z"/><path class="cls-1" d="M26.14,8.48A1.8,1.8,0,0,1,26,6l1.21-1.2s8.4-8,18-3.25a1.81,1.81,0,0,1,.25,3.2,44.23,44.23,0,0,0-9.68,6.65l-2.16,2.16A1.8,1.8,0,0,1,31,13.38Z"/><rect class="cls-1" x="25.89" y="19.1" width="7.6" height="16.7" transform="translate(-10.72 29.04) rotate(-45)"/><path class="cls-1" d="M33.85,39.54l7.93-7.92-7.34-7.09a1.88,1.88,0,0,0-2.62.19L26.9,29.63a1.88,1.88,0,0,0-.18,2.63Z"/><path class="cls-1" d="M56.18,45.73,47.94,54,69.49,76.33a1.87,1.87,0,0,0,2.66-.15l6.27-6.27a1.88,1.88,0,0,0,.15-2.66Z"/><path class="cls-1" d="M20.92,77.43a10.71,10.71,0,1,1,0-21.41,11,11,0,0,1,3,.43A2.12,2.12,0,0,0,26,56L58.29,23.7a1.21,1.21,0,0,0,.3-1.24A11.61,11.61,0,0,1,60.8,11.17a11.07,11.07,0,0,1,11.49-3,1.33,1.33,0,0,1,.53,2.2l-6.54,6.54a1.12,1.12,0,0,0,0,1.57l2.88,2.88a1.1,1.1,0,0,0,1.57,0l6.54-6.54a1.34,1.34,0,0,1,2.2.53A11.07,11.07,0,0,1,65.14,29.14a1.14,1.14,0,0,0-.41-.07,1.22,1.22,0,0,0-.86.36L31.69,61.61a2.13,2.13,0,0,0-.5,2.13A10.7,10.7,0,0,1,20.92,77.43Zm0-14.51A3.81,3.81,0,1,0,23.61,64,3.74,3.74,0,0,0,20.92,62.92Z"/><path class="cls-1" d="M68.9,8.14a10.55,10.55,0,0,1,3.24.51A.83.83,0,0,1,72.47,10l-6.54,6.54a1.6,1.6,0,0,0,0,2.27l2.88,2.89a1.61,1.61,0,0,0,2.27,0l6.54-6.54a.83.83,0,0,1,.59-.25.81.81,0,0,1,.78.57A10.57,10.57,0,0,1,65.31,28.67a1.65,1.65,0,0,0-.58-.1,1.73,1.73,0,0,0-1.22.51L31.33,61.26a2.63,2.63,0,0,0-.62,2.61,10.2,10.2,0,1,1-9.8-7.35,10.42,10.42,0,0,1,2.87.41,2.71,2.71,0,0,0,.79.12,2.54,2.54,0,0,0,1.81-.74L58.64,24.05a1.69,1.69,0,0,0,.42-1.75,11.08,11.08,0,0,1,2.1-10.79A10.54,10.54,0,0,1,68.9,8.14M20.92,71a4.3,4.3,0,1,0-3-1.26,4.31,4.31,0,0,0,3,1.26m48-63.88v0a11.47,11.47,0,0,0-8.47,3.69,12.14,12.14,0,0,0-2.32,11.79.7.7,0,0,1-.18.73L25.67,55.61a1.54,1.54,0,0,1-1.1.44,1.81,1.81,0,0,1-.51-.08,11.2,11.2,0,1,0-3.14,22A11.2,11.2,0,0,0,31.67,63.6,1.63,1.63,0,0,1,32,62L64.22,29.79a.74.74,0,0,1,.51-.22.67.67,0,0,1,.24,0,11.65,11.65,0,0,0,4,.7A11.58,11.58,0,0,0,80,15.19a1.82,1.82,0,0,0-3-.72L70.38,21a.64.64,0,0,1-.43.18.6.6,0,0,1-.43-.18l-2.89-2.88a.62.62,0,0,1,0-.86l6.54-6.54a1.82,1.82,0,0,0-.72-3,11.56,11.56,0,0,0-3.55-.56ZM20.92,70a3.24,3.24,0,0,1-2.33-1,3.28,3.28,0,0,1,0-4.66,3.3,3.3,0,0,1,4.67,0A3.3,3.3,0,0,1,20.92,70Z"/></g></g></svg>