<svg xmlns="http://www.w3.org/2000/svg" viewBox="0 0 76.97 77.29"><defs><style>.cls-1,.cls-3,.cls-5{fill:#fff;}.cls-1,.cls-2,.cls-3,.cls-4{stroke:#fff;stroke-linejoin:round;}.cls-1,.cls-3{stroke-width:4px;}.cls-2,.cls-4{fill:none;}.cls-2,.cls-3,.cls-4{stroke-linecap:round;}.cls-2{stroke-width:4.15px;}.cls-4{stroke-width:5px;}</style></defs><g id="Layer_2" data-name="Layer 2"><g id="Layer_1-2" data-name="Layer 1"><ellipse class="cls-1" cx="8.54" cy="46.09" rx="6.44" ry="10.93" transform="translate(-5.94 1.51) rotate(-7.5)"/><rect class="cls-1" x="8.51" y="31.1" width="10.81" height="28.56" rx="5.4" transform="translate(-5.8 2.2) rotate(-7.5)"/><ellipse class="cls-1" cx="68.43" cy="46.09" rx="10.93" ry="6.44" transform="translate(13.8 107.92) rotate(-82.5)"/><rect class="cls-1" x="57.66" y="31.1" width="10.81" height="28.56" rx="5.4" transform="translate(119.66 98.61) rotate(-172.5)"/><line class="cls-2" x1="13.26" y1="25.65" x2="13.26" y2="29.67"/><line class="cls-2" x1="63.71" y1="27.61" x2="63.71" y2="29.67"/><path class="cls-3" d="M38.49,2h0c-14.24,0-26.14,7.07-29,20.17a4.48,4.48,0,0,0,4.92,5.45h0a4.5,4.5,0,0,0,3.83-3.77c1.6-9.53,10.06-13.77,20.27-13.77h0c10.2,0,18.66,4.24,20.27,13.77a4.49,4.49,0,0,0,3.82,3.77h0a4.48,4.48,0,0,0,4.92-5.45C64.63,9.07,52.73,2,38.49,2Z"/><path class="cls-4" d="M60.45,59.85s-5.74,9.77-20.18,9"/><path class="cls-5" d="M38.57,75.29A6.43,6.43,0,1,1,45,68.86,6.44,6.44,0,0,1,38.57,75.29Z"/><path class="cls-5" d="M38.57,64.43a4.43,4.43,0,1,1-4.43,4.43,4.43,4.43,0,0,1,4.43-4.43m0-4A8.43,8.43,0,1,0,47,68.86a8.44,8.44,0,0,0-8.43-8.43Z"/></g></g></svg>