<svg xmlns="http://www.w3.org/2000/svg" viewBox="0 0 84.28 72.58"><defs><style>.cls-1,.cls-3,.cls-4{fill:none;}.cls-1,.cls-2,.cls-3,.cls-4{stroke:#fff;stroke-linecap:round;stroke-linejoin:round;}.cls-1{stroke-width:6px;}.cls-2{fill:#fff;stroke-width:3px;}.cls-3{stroke-width:4px;}.cls-4{stroke-width:2px;}</style></defs><g id="Layer_2" data-name="Layer 2"><g id="Layer_1-2" data-name="Layer 1"><path class="cls-1" d="M3,3l7.08,1.27a3.77,3.77,0,0,1,3,2.9L23.59,52.79a3,3,0,0,0,2.91,2.34H73.68"/><circle class="cls-2" cx="26.34" cy="64.69" r="6.39"/><circle class="cls-2" cx="69.83" cy="64.69" r="6.39"/><path class="cls-1" d="M81.25,15.33l-5,28.32a2.65,2.65,0,0,1-2.65,2.14H22.3L14.79,14.6A1.31,1.31,0,0,1,16.11,13H79.2A2,2,0,0,1,81.25,15.33Z"/><line class="cls-3" x1="18.9" y1="29.4" x2="77.79" y2="29.4"/><line class="cls-3" x1="48.86" y1="13" x2="48.86" y2="46.21"/><line class="cls-3" x1="32.06" y1="13" x2="38.13" y2="45.79"/><line class="cls-3" x1="65.12" y1="13" x2="60.13" y2="45.79"/><line class="cls-4" x1="26.34" y1="64.69" x2="26.34" y2="55.13"/><line class="cls-4" x1="69.83" y1="64.69" x2="69.83" y2="55.13"/></g></g></svg>