<svg xmlns="http://www.w3.org/2000/svg" viewBox="0 0 82.95 71.09"><defs><style>.cls-1{fill:#fff;}</style></defs><g id="Layer_2" data-name="Layer 2"><g id="Layer_1-2" data-name="Layer 1"><path class="cls-1" d="M16.9,54.08a.69.69,0,0,0-.56-1.17C11.78,53.5,1,55.72.06,63.7c-.88,7.57,8.87,9.09,11.09,5.56C14,64.82,10.14,60.89,16.9,54.08Z"/><path class="cls-1" d="M25,58.92a.61.61,0,0,0-1.14,0c-.92,2.94-2.16,8.92,1.76,11.42s7.44-2.47,6.08-4.65C30.08,63.07,27,64,25,58.92Z"/><path class="cls-1" d="M62.81,26.22c-9.4,8.43-12.39,9.64-13.92,8.81a19.69,19.69,0,0,1-4-4.45c-.71-1.61.76-4.42,10.25-12.92C72.21,2.36,80.35-1.74,82.47.62S79.89,10.92,62.81,26.22Z"/><path class="cls-1" d="M41.15,37.46s-4.94-5.52-10.47-.57a12.33,12.33,0,0,0-3.87,7.39A18.35,18.35,0,0,1,24.19,51a.82.82,0,0,0,.56,1.28,26,26,0,0,0,7.16.16,15.9,15.9,0,0,0,9.23-4.07C46.81,43.25,41.15,37.46,41.15,37.46Z"/></g></g></svg>