<svg xmlns="http://www.w3.org/2000/svg" viewBox="0 0 72.68 74.85"><defs><style>.cls-1{fill:#fff;}</style></defs><g id="Layer_2" data-name="Layer 2"><g id="Layer_1-2" data-name="Layer 1"><path class="cls-1" d="M67.84,4.29a15.56,15.56,0,1,0,.55,22A15.56,15.56,0,0,0,67.84,4.29ZM60.91,19.17a5.24,5.24,0,1,1-.19-7.4A5.23,5.23,0,0,1,60.91,19.17Z"/><path class="cls-1" d="M36.87,8.2a1,1,0,0,0-1.25-1.3A8,8,0,0,0,32.47,9C8.27,35.18-5.1,55.31,1.82,67.45a1,1,0,0,0,1.6.2L39.65,29.57a1,1,0,0,0,.07-1.29A21.62,21.62,0,0,1,36.87,8.2Z"/><path class="cls-1" d="M57.11,37.12a21.44,21.44,0,0,1-11.83-3.56,1,1,0,0,0-1.27.13L7.77,71.77a1,1,0,0,0,.28,1.61C20.52,79.67,40,65.31,64.9,39.85a8,8,0,0,0,1.93-3.23,1,1,0,0,0-1.38-1.19A21.54,21.54,0,0,1,57.11,37.12Z"/></g></g></svg>