<svg xmlns="http://www.w3.org/2000/svg" viewBox="0 0 57.44 79.95"><defs><style>.cls-1{fill:#fff;}</style></defs><g id="Layer_2" data-name="Layer 2"><g id="Layer_1-2" data-name="Layer 1"><path class="cls-1" d="M28.72,8.05a3.78,3.78,0,1,1,3.77-3.78A3.78,3.78,0,0,1,28.72,8.05Z"/><path class="cls-1" d="M28.72,1a3.28,3.28,0,1,1-3.28,3.27A3.27,3.27,0,0,1,28.72,1m0-1A4.28,4.28,0,1,0,33,4.27,4.28,4.28,0,0,0,28.72,0Z"/><path class="cls-1" d="M12.63,17.2a3.78,3.78,0,1,1,3.77-3.78A3.78,3.78,0,0,1,12.63,17.2Z"/><path class="cls-1" d="M12.63,10.15a3.28,3.28,0,1,1-3.28,3.27,3.27,3.27,0,0,1,3.28-3.27m0-1a4.28,4.28,0,1,0,4.27,4.27,4.28,4.28,0,0,0-4.27-4.27Z"/><path class="cls-1" d="M44.81,17.2a3.78,3.78,0,1,1,3.77-3.78A3.78,3.78,0,0,1,44.81,17.2Z"/><path class="cls-1" d="M44.81,10.15a3.28,3.28,0,1,1-3.27,3.27,3.26,3.26,0,0,1,3.27-3.27m0-1a4.28,4.28,0,1,0,4.27,4.27,4.27,4.27,0,0,0-4.27-4.27Z"/><path class="cls-1" d="M26.58,79.45a2.77,2.77,0,0,1-2.77-2.76V53.35a3.08,3.08,0,0,0-.76-2L1.16,28.66A2.6,2.6,0,0,1,3.1,24.34l51.24.05a2.59,2.59,0,0,1,1.95,4.3L34.37,51.34a3,3,0,0,0-.75,2V73.54a2.94,2.94,0,0,1-1.23,2.39l-4.22,3a2.76,2.76,0,0,1-1.59.51Z"/><path class="cls-1" d="M3.1,24.84l51.24.05a2.09,2.09,0,0,1,1.57,3.47L34,51a3.59,3.59,0,0,0-.89,2.36V73.54a2.43,2.43,0,0,1-1,2l-4.22,3a2.23,2.23,0,0,1-1.3.42,2.27,2.27,0,0,1-2.27-2.26V53.35A3.58,3.58,0,0,0,23.43,51L1.52,28.31A2.09,2.09,0,0,1,3.1,24.84m0-1h0A3.09,3.09,0,0,0,.77,29L22.71,51.68a2.59,2.59,0,0,1,.6,1.67V76.69A3.27,3.27,0,0,0,26.58,80a3.22,3.22,0,0,0,1.88-.61l4.22-3a3.43,3.43,0,0,0,1.44-2.79V53.35a2.52,2.52,0,0,1,.63-1.68L56.63,29.06l0,0a3.09,3.09,0,0,0-2.32-5.13L3.1,23.84Z"/></g></g></svg>