<?xml version="1.0" encoding="utf-8"?>
<!-- Generator: Adobe Illustrator 22.0.1, SVG Export Plug-In . SVG Version: 6.00 Build 0)  -->
<svg version="1.1" id="Layer_1" xmlns="http://www.w3.org/2000/svg" xmlns:xlink="http://www.w3.org/1999/xlink" x="0px" y="0px"
	 viewBox="0 0 228 41" style="enable-background:new 0 0 228 41;" xml:space="preserve">
<style type="text/css">
	.st0{fill:#EA1D22;}
	.st1{fill:#231F20;}
</style>
<g>
	<g>
		<path class="st0" d="M208.8,10.9c0.7-4,4.2-7,8.3-7c4.7,0,8.5,3.8,8.5,8.5c0,1.4-0.4,2.8-1.1,4.1c0.5,0.4,1.1,1,1.5,1.6
			c1.1-1.6,1.6-3.5,1.6-5.6c0-5.5-4.2-9.9-9.5-10.5l0,0V1.5V0.8V0.5c0-0.1,0-0.1,0-0.2V0.3C218,0.1,217.9,0,217.6,0l0,0l0,0l0,0l0,0
			h-1h-0.3l0,0c-0.1,0-0.2,0-0.3,0c-0.3,0.1-0.5,0.3-0.6,0.4l0,0c0,0,0,0,0,0.1c0,0,0,0.1,0.1,0.1l0,0c0.2,0.1,0.4,0.2,0.4,0.4l0,0
			c0.1,0.1,0.1,0.2,0.1,0.3l0,0v0.1l0,0v0.1c0,0.1,0,0.2,0,0.4l0,0c-5.3,0.5-9.5,5-9.5,10.5c0,0.6,0.1,1.1,0.2,1.7
			C207.2,12.8,207.9,11.8,208.8,10.9"/>
		<path class="st0" d="M217.1,29.2c2.9,0,5.6-1.2,7.5-3.2c0.1-0.4,0.1-0.7,0.1-1.1c0-0.7-0.1-1.4-0.3-2.1c-1.5,2.5-4.2,4.2-7.3,4.2
			c-4.7,0-8.5-3.8-8.5-8.5s3.8-8.5,8.5-8.5c3.1,0,5.8,1.7,7.3,4.2c0.2-0.7,0.3-1.3,0.3-2.1c0-0.4,0-0.7-0.1-1.1
			c-1.7-1.7-3.9-2.8-6.5-3.1l0,0V7.8V7.1V6.9c0-0.1,0-0.1,0-0.2V6.6c-0.1-0.2-0.3-0.3-0.4-0.3l0,0l0,0l0,0l0,0h-1h-0.3l0,0
			c-0.1,0-0.2,0-0.3,0c-0.3,0.1-0.5,0.3-0.6,0.4l0,0c0,0,0,0,0,0.1c0,0,0,0.1,0.1,0.1l0,0c0.2,0.1,0.4,0.2,0.4,0.4l0,0
			c0.1,0.1,0.1,0.2,0.1,0.3l0,0v0.1l0,0v0.1c0,0.1,0,0.2,0,0.4l0,0c-5.3,0.5-9.5,5-9.5,10.5C206.5,24.5,211.3,29.2,217.1,29.2"/>
		<path class="st0" d="M226.5,18.7c0.4,0.5,0.7,1.1,1,1.7c0.1-0.5,0.2-1.1,0.2-1.7c0-0.6-0.1-1.1-0.2-1.7
			C227.2,17.5,226.9,18.1,226.5,18.7"/>
		<path class="st0" d="M217.1,22.8c2.4,0,4.6-0.8,6.4-2.1c-0.4-0.6-0.9-1.1-1.4-1.6c-1.4,1-3.1,1.6-5,1.6c-3.1,0-5.8-1.7-7.3-4.2
			c-0.2,0.7-0.3,1.3-0.3,2.1c0,0.4,0,0.7,0.1,1.1C211.4,21.7,214.1,22.8,217.1,22.8"/>
		<path class="st0" d="M218.1,14.5L218.1,14.5v-0.4v-0.7v-0.2c0-0.1,0-0.1,0-0.2V13c-0.1-0.2-0.3-0.3-0.4-0.3l0,0l0,0l0,0l0,0h-1
			h-0.3l0,0c-0.1,0-0.2,0-0.3,0c-0.3,0.1-0.5,0.3-0.6,0.4l0,0c0,0,0,0,0,0.1c0,0,0,0.1,0.1,0.1l0,0c0.2,0.1,0.4,0.2,0.4,0.4l0,0
			c0.1,0.1,0.1,0.2,0.1,0.3l0,0v0.1l0,0v0.1c0,0.1,0,0.2,0,0.4c-1.9,0.2-3.7,1-5.2,2c0.4,0.6,0.9,1.1,1.4,1.6c1.4-1,3.1-1.6,5-1.6
			c4.7,0,8.5,3.8,8.5,8.5s-3.8,8.5-8.5,8.5c-4.2,0-7.6-3-8.3-7c-0.9-0.9-1.6-2-2.1-3.2c-0.1,0.5-0.2,1.1-0.2,1.7
			c0,5.8,4.7,10.5,10.5,10.5c5.8,0,10.5-4.7,10.5-10.5C227.6,19.5,223.5,15,218.1,14.5"/>
	</g>
	<path class="st1" d="M22.2,31.7C22.2,31.7,22.2,31.6,22.2,31.7c-0.1,0-0.1,0-0.2,0l0,0c-0.7,1.2-1.7,2.3-2.8,3
		c-1.5,1.1-3.3,1.7-5.2,1.7c-5.1,0-9.2-4.2-9.2-9.2c0-5.1,4.2-9.2,9.2-9.2c1.3,0,2.7,0.3,3.8,0.8c1.3,0.6,2.4,1.4,3.3,2.5l0.1,0.1
		c0.1,0.1,0.3,0.2,0.5,0.2c0.3,0,0.4-0.2,0.6-0.4l0.1-0.1l1.6-3.3l0.2-0.3l0,0c0.2-0.4,0.3-0.7,0.3-1.1c0-0.1,0-0.3,0-0.4l0,0
		c0-0.1-0.1-0.2-0.2-0.2h-0.1l0,0c-0.3,0.3-0.6,0.4-1.1,0.4c-0.2,0-0.4-0.1-0.5-0.1c-0.4-0.2-1.2-0.7-1.7-1
		c-0.2-0.1-0.3-0.2-0.4-0.3c-1.9-1-4.1-1.6-6.4-1.6C6.5,13.6,0.4,19.7,0.4,27.2S6.5,40.8,14,40.8c3.1,0,5.9-1.1,8.2-2.7
		c0.8-0.6,1.5-1.3,2.1-2L22.2,31.7L22.2,31.7z"/>
	<path class="st1" d="M47.6,36.4c-4.9,0-8.8-4-8.8-8.8s4-8.8,8.8-8.8s8.8,4,8.8,8.8S52.5,36.4,47.6,36.4 M50.7,14.8v-1
		c0-0.6-0.5-1.1-1.1-1.1h-3.4h-0.4c-0.6,0-1.1,0.3-1.5,0.6l0,0l-0.1,0.1c0,0.1,0.1,0.2,0.1,0.2l0,0c0.4,0.1,0.7,0.3,0.9,0.5
		c0,0,0,0.1,0.1,0.1l0,0v0.1c0,0.2-0.1,0.3-0.3,0.3l0,0c-0.4,0.1-0.7,0.2-1.1,0.3c-5.6,1.5-9.6,6.6-9.6,12.7
		c0,7.2,5.9,13.2,13.2,13.2s13.2-5.9,13.2-13.2C60.8,21.4,56.5,16.2,50.7,14.8"/>
	<path class="st1" d="M188.5,27.1l-2.7-3.4l-7.2-9l-0.1-0.2c-0.3-0.4-0.7-0.5-1.1-0.5h-2.9h-0.3c-0.4,0-0.9,0.1-1.1,0.4
		c0,0,0,0-0.1,0l-0.1,0.1c0,0-0.1,0-0.1,0.1c0,0-0.1,0-0.1,0.1v0.1c0,0.1,0.1,0.2,0.2,0.2l0,0l0,0l0,0c0.4,0,0.8,0.2,1.1,0.5
		c0.1,0.1,0.1,0.1,0.2,0.2l1.7,2.1l0.1,0.1l7.3,9.3l2.7,3.4l7.9,9.9l0,0c0,0,0,0,0.1,0h5.3L188.5,27.1z"/>
	<path class="st1" d="M183.2,27.1l2.7-3.4l7.2-9l0.1-0.2c0.3-0.4,0.7-0.5,1.1-0.5h2.9h0.3c0.4,0,0.9,0.1,1.1,0.4c0,0,0,0,0.1,0
		l0.1,0.1c0,0,0.1,0,0.1,0.1c0,0,0.1,0,0.1,0.1v0.1c0,0.1-0.1,0.2-0.2,0.2l0,0l0,0l0,0c-0.4,0-0.8,0.2-1.1,0.5
		c-0.1,0.1-0.1,0.1-0.2,0.2l-1.7,2.1l-0.1,0.1l-7.3,9.3l-2.7,3.4l-7.9,9.9l0,0c0,0,0,0-0.1,0h-5.3L183.2,27.1z"/>
	<path class="st1" d="M94.3,30.7c-0.5-2-2.1-3.4-4.2-4.2c-1.1-0.4-2.5-0.8-3.7-1.1c-1.2-0.4-2.5-0.5-3.7-0.8
		c-1.3-0.3-2.7-0.4-4.1-0.9c-2.1-0.7-2.8-2.7-1.3-4.3c0.9-1,2.2-1.4,3.6-1.5c0.7-0.1,1.4-0.1,2.1-0.1c0.2,0,0.4,0,0.6,0
		c0.5,0.1,1.3,0.2,2.3,0.5c0.4,0.2,1,0.4,1.4,0.6l0,0c0,0,0.1,0,0.1,0.1c0.3,0.2,0.6,0.3,0.9,0.4c0,0,0.1,0,0.1,0.1
		c0,0,0.1,0,0.1,0.1c0.7,0.4,1.7,1,2.6,1.6c0,0,0.1,0.1,0.3,0.2c0.3,0.2,0.8,0.4,1.1-0.3l1.8-3.4v-0.1c0-0.1,0.1-0.2,0.1-0.4
		s0.1-0.4,0.1-0.5c0-0.1,0-0.3,0-0.3c0-0.1-0.1-0.2-0.2-0.2c-0.1,0-0.1,0-0.1,0.1l0,0l0,0c-0.3,0.3-0.7,0.5-1.1,0.5
		c-0.2,0-0.6,0-1.1-0.3l0,0c-0.2-0.1-0.3-0.2-0.4-0.2c-0.3-0.2-1.1-0.5-1.1-0.6c-1.1-0.7-1.2-0.7-1.7-0.9c-0.3-0.1-1.1-0.4-1.7-0.6
		c-6.4-2-11.5,0.9-11.5,0.9c-0.4,0.2-0.6,0.4-1,0.5c-1.9,1.3-3.1,3.1-3.2,5.3c-0.1,0.7,0,3.1,1.6,4.7c1.1,1.2,2.7,1.9,4.3,2.3
		c1.3,0.3,2.7,0.5,4,0.9c0.4,0.1,0.9,0.2,1.3,0.3c1.1,0.3,2.3,0.4,3.4,0.8c0.6,0.2,1.3,0.4,1.9,0.8c1.1,0.6,1.3,1.6,1.2,2.7
		c-0.1,0.8-0.4,1.5-1.1,1.9c-0.8,0.6-1.8,1-2.7,1.1c0,0-0.4,0.1-0.6,0.1c0,0-0.4,0-0.4,0.1c-2.3,0.2-4.1-0.2-5-0.4
		c0,0-0.6-0.1-1.4-0.4l0,0c-0.7-0.3-1.4-0.7-2-1.1c-0.3-0.2-0.5-0.4-0.8-0.6c-0.2-0.2-0.4-0.4-0.6-0.6c-0.5-0.5-1.1-1.1-1.2-1.2l0,0
		l0,0c0,0,0,0-0.1,0c0,0-0.1,0-0.1,0.1l0,0l0,0l-2.2,4.2l0,0l-0.1,0.2c0,0,0,0.1,0.2,0.2l0,0c0.2,0.2,0.4,0.4,0.5,0.4
		c0.3,0.2,0.5,0.4,0.8,0.7c0.1,0.1,0.2,0.2,0.2,0.2s0.2,0.1,0.3,0.2c2,1.4,4.4,2.2,6.9,2.5c2.7,0.3,5.5,0.3,8.1-0.5
		c1.4-0.4,2.8-1,4-1.9C94.4,36.2,95.1,33.6,94.3,30.7"/>
	<path class="st1" d="M131.5,14.6L131.5,14.6L131.5,14.6c-0.4-0.4-1-0.6-1.5-0.6h-4.3c-0.1,0-0.1,0-0.2,0c-0.2,0.1-0.4,0.2-0.4,0.4
		l0,0l0,0l-0.1,0.3l0,0c0,0.1-0.1,0.3-0.2,0.4l0.1-0.1l-6.5,14.7l-0.2,0.3l0,0c0,0,0,0-0.1,0s-0.1,0-0.1,0l0,0l-0.2-0.3L111.4,15
		l0.1,0.1c-0.1-0.2-0.2-0.4-0.2-0.4l0,0l-0.1-0.3l0,0l0,0l0,0c-0.1-0.2-0.3-0.4-0.4-0.4c-0.1,0-0.1,0-0.2,0h-4.3
		c-0.6,0-1.1,0.2-1.5,0.6l0,0l0,0v0.1c0,0.1,0.1,0.2,0.2,0.2l0,0l0,0l0,0c0.4,0,0.6,0.2,0.9,0.4c0.4,0.3,0.5,0.7,0.5,1.1v2v21.1v0.7
		h3.7h0.7c0.1,0,0.1,0,0.1-0.1l0,0v-0.4v-16c0.4,1,7.3,16.5,7.3,16.5l0,0c0,0,0,0,0.1,0h0.1l0,0c0,0,6.9-15.6,7.3-16.5v16v0.5l0,0
		c0,0.1,0,0.1,0.1,0.1h0.7h3.7v-0.7V18.5v-2c0-0.4,0.2-0.9,0.5-1.1c0.3-0.2,0.5-0.4,0.9-0.4l0,0l0,0l0,0c0.1,0,0.2-0.1,0.2-0.2
		C131.6,14.7,131.6,14.7,131.5,14.6"/>
	<path class="st1" d="M154.7,16.2l-0.8-1.7v-0.1c-0.1-0.2-0.4-0.4-0.6-0.4h-1.8h-0.9h-1c-0.4,0-0.6,0.1-0.9,0.2
		c-0.3,0.1-0.5,0.3-0.7,0.4l0,0l0,0v0.1c0,0.1,0.1,0.2,0.1,0.2l0,0l0,0c0.7,0.2,1.2,0.8,1.2,1.5c0,0.2,0,0.4-0.1,0.6v0.1l-0.1,0.1
		l-0.4,1l-0.1,0.3L139,40.3h5h0.1l0,0l8.2-18.5l8.2,18.5l0,0c0,0,0,0,0.1,0h5L154.7,16.2z"/>
</g>
</svg>
