<svg xmlns="http://www.w3.org/2000/svg" viewBox="0 0 1580.62 1263.83"><defs><style>.cls-1,.cls-4{fill:#fff;}.cls-1{fill-rule:evenodd;}.cls-2{fill:#1d2088;}.cls-3{fill:#e60013;}</style></defs><g id="Layer_2" data-name="Layer 2"><g id="_·_ÀÌ_î_1" data-name="·¹ÀÌ¾î 1"><path class="cls-1" d="M538.05,184.21H0V0H1580.62V184.21h-538V601.45c0,41.1,2.87,94.49,19.62,132.71,8.55,19.5,20.41,34.63,40.34,43.08,24,10.18,56.88,9.68,82.66,9.68h392.56v224.26H1185.2c-91,0-189.9-11.56-266.1-65.54-82.44-58.4-116.74-151.24-128.79-247.21-12,96-46.34,188.81-128.79,247.22-76.19,54-175.15,65.53-266.1,65.53H2.86V786.92H395.42c25.78,0,58.62.5,82.66-9.68,19.93-8.45,31.79-23.57,40.34-43.08,16.76-38.22,19.63-91.61,19.63-132.71Z"/><path class="cls-2" d="M395.42,979.17C611.1,974,755.36,909.55,763.9,601.45V152.2h52.82V601.45c8.55,308.1,152.8,372.57,368.48,377.72h360.55V818.93H1185.2c-89.31-3.8-176.44-1.81-174.64-217.48V152.2h538.05V32H32V152.2H570.06V601.45c1.81,215.67-85.33,213.68-174.64,217.48H34.87V979.17Z"/><path class="cls-1" d="M493.07,1061.46h55.74l31.6,54.25v-54.25H645.2v199.79H589.45L557.85,1207v54.29H493.07v-15.7a73.19,73.19,0,0,1-6.58,5.33c-13.16,9.45-28.87,12.95-44.86,12.95-15.07,0-30.13-2.92-43.06-11a64.45,64.45,0,0,1-26.74-33.47c-5.22-14.38-6.48-31-6.48-46.21v-19.34l-15.56,25.81v81.61H284.3v-81.81l-6.77-11.62a121.69,121.69,0,0,1-10,44.82c-7,15.68-17.52,28.93-32.11,38.13a83.08,83.08,0,0,1-44.89,13.06,80.43,80.43,0,0,1-47.18-14.74,85.13,85.13,0,0,1-17.94-17,54.79,54.79,0,0,1-20.1,22.57A61.45,61.45,0,0,1,72,1263.83c-17.87,0-34-6.37-45.35-20.44s-14.44-32.13-14.16-49.61l.33-20.21L67.68,1165V1061.46h65.49v20.11c15.51-15,35.06-22.8,57.41-22.8a83.25,83.25,0,0,1,25.82,4l-.76-1.31h77l25.73,45.17,25.91-45.17h86.6v111.61c0,5.59.1,16,1.92,21.38a3.55,3.55,0,0,0,1.4,2.1c1.51,1,4.2,1.17,5.93,1.17s7-.24,8.86-1.29c2.41-4.74,2.82-18.6,2.82-23.36V1061.46Z"/><path class="cls-1" d="M1416.83,1074.92v-13.46h65.52v62.33H1503v-62.33h65.52v199.79H1503v-71.52h-20.66v71.52h-65.52v-13.68c-13.62,11-29.91,16.26-47.66,16.26s-34.8-4.06-49.1-14.73c-1-.76-2-1.53-3-2.33v14.48H1170.49V1127.39h-8.88v133.86h-65.49V1127.39h-8.34l.79,22.78-12.44,1.08a58.52,58.52,0,0,1,6.82,9.37,65.85,65.85,0,0,1,8.78,33.75,69.65,69.65,0,0,1-9.13,34.63,65.77,65.77,0,0,1-27.06,26.11,77.75,77.75,0,0,1-36.64,8.71c-14,0-28.11-2.24-40.74-8.51a67.84,67.84,0,0,1-25.7-22.1,80.08,80.08,0,0,1-19.65,17.55,83.09,83.09,0,0,1-44.9,13.06,80.45,80.45,0,0,1-47.18-14.74,85.21,85.21,0,0,1-18.84-18.18A78.77,78.77,0,0,1,810,1244.6c-14.29,13-31.84,19.23-51.12,19.23-17.61,0-34.8-4.06-49.1-14.73-13.57-10.13-22.74-24.13-28.54-39.9a141.27,141.27,0,0,1-8.45-49c0-17.54,2.77-35.06,10-51.15,6.88-15.39,17.27-28.32,31.58-37.34a83,83,0,0,1,44.83-12.84c18.23,0,35.1,5.46,49,17.38a76,76,0,0,1,13.57,15.29c.69-.91,1.41-1.81,2.14-2.7,16.4-19.82,38.41-30.08,64.13-30.08A81.2,81.2,0,0,1,934.55,1073,83.69,83.69,0,0,1,953,1090.3a60.51,60.51,0,0,1,26.55-24,79.85,79.85,0,0,1,34.52-7.47c12.62,0,25,2.32,36.38,7.83l2.11,1.06v-6.31H1314v18.25a78.73,78.73,0,0,1,10.59-8,82.89,82.89,0,0,1,44.82-12.84C1387,1058.88,1403.26,1063.93,1416.83,1074.92Z"/><path class="cls-2" d="M36.52,1194.17l15.79-2.48c.4,11.59,2.31,19.54,5.66,23.82s8,6.4,14,6.4a18.55,18.55,0,0,0,11.35-3.47,17.39,17.39,0,0,0,6.58-9.4c1.2-4,1.82-10.32,1.82-19V1085.46h17.47V1188.9c0,12.69-1.32,22.55-4,29.51a31.83,31.83,0,0,1-12.71,15.94A37.7,37.7,0,0,1,72,1239.82q-17.4,0-26.64-11.48t-8.87-34.17Zm90.78-30.85q0-37.8,17.66-59.16t45.62-21.38a57.18,57.18,0,0,1,33,10q14.69,10.07,22.4,28c5.14,11.94,7.69,25.55,7.69,40.71q0,23.12-8.09,41.31t-23,27.6a59.12,59.12,0,0,1-32.09,9.36,56.21,56.21,0,0,1-33.35-10.35q-14.73-10.34-22.28-28.27a96.28,96.28,0,0,1-7.56-37.88Zm18,.31q0,27.46,12.82,43.22t32.25,15.8q19.75,0,32.49-15.94t12.77-45.27c0-12.33-1.85-23.11-5.48-32.33s-9-16.36-15.94-21.45a39.29,39.29,0,0,0-23.56-7.6q-18.6,0-32,14.67t-13.38,48.9Zm163,73.61V1173l-50.92-87.5h21.26l26.06,45.77q7.2,12.82,13.41,25.69,6-11.93,14.43-26.82l25.6-44.64h20.36L325.78,1173v64.28Zm167.47-151.78h17.5v87.71q0,22.86-4.52,36.33a43.2,43.2,0,0,1-16.28,21.88c-7.84,5.65-18.12,8.44-30.85,8.44-12.37,0-22.53-2.44-30.37-7.35a40.17,40.17,0,0,1-16.86-21.27q-5.07-13.93-5-38v-87.71h17.48v87.61q0,19.77,3.2,29.12a27.17,27.17,0,0,0,11,14.45q7.8,5.08,19.08,5.09,19.29,0,27.5-10.07t8.19-38.59v-87.61Zm41.29,151.78V1085.46H535l69.41,119.17V1085.46h16.77v151.78H603.25L533.84,1118v119.26ZM796.13,1184l17.5,5.09q-5.49,24.71-19.78,37.74t-35,13q-21.36,0-34.73-10t-20.37-28.94a117.16,117.16,0,0,1-7-40.71q0-23.7,7.88-41.35T727.15,1092a58.77,58.77,0,0,1,32-9.15q19.85,0,33.35,11.59c9,7.74,15.29,18.58,18.83,32.61l-17.2,4.67c-3.08-11.06-7.51-19.08-13.35-24.14s-13.14-7.56-22-7.56q-15.22,0-25.45,8.37T719,1131a102.55,102.55,0,0,0-4.16,29.12c0,12.93,1.63,24.17,4.89,33.82s8.37,16.82,15.3,21.59a38.74,38.74,0,0,0,22.46,7.14,34.69,34.69,0,0,0,24.85-9.72q10.2-9.75,13.79-28.91Zm28.59-20.7q0-37.8,17.66-59.16T888,1082.78a57.23,57.23,0,0,1,33,10q14.67,10.07,22.4,28c5.13,11.94,7.69,25.55,7.69,40.71q0,23.12-8.09,41.31t-23,27.6a59.09,59.09,0,0,1-32.09,9.36,56.23,56.23,0,0,1-33.35-10.35q-14.71-10.34-22.27-28.27a96.11,96.11,0,0,1-7.57-37.88Zm18,.31q0,27.46,12.83,43.22t32.24,15.8q19.75,0,32.49-15.94t12.77-45.27c0-12.33-1.85-23.11-5.48-32.33s-9-16.36-15.93-21.45a39.32,39.32,0,0,0-23.57-7.6q-18.6,0-32,14.67t-13.38,48.9Zm119.81,24.85,16.49-1.66q1.16,11.39,5.45,18.69t13.29,11.8a44.62,44.62,0,0,0,20.28,4.49,43.27,43.27,0,0,0,17.66-3.39,25.22,25.22,0,0,0,11.41-9.37,24.05,24.05,0,0,0,3.75-13,21.59,21.59,0,0,0-3.63-12.48q-3.6-5.34-11.87-8.94c-3.57-1.59-11.39-4.06-23.54-7.42s-20.64-6.5-25.5-9.47a38,38,0,0,1-14.13-14.13,38.76,38.76,0,0,1-4.61-18.91,42.72,42.72,0,0,1,5.66-21.45,36.63,36.63,0,0,1,16.58-15.2,56.39,56.39,0,0,1,24.25-5.15c9.81,0,18.43,1.8,25.93,5.44a38.83,38.83,0,0,1,17.26,16,51.28,51.28,0,0,1,6.5,23.92l-16.77,1.45c-.92-9.57-4-16.85-9.17-21.73s-12.86-7.35-23-7.35c-10.59,0-18.28,2.23-23.14,6.68a21.12,21.12,0,0,0-7.26,16.08,18.45,18.45,0,0,0,5.14,13.46q5.07,5.31,26.36,10.81t29.26,9.69q11.54,6.15,17,15.48a42,42,0,0,1,5.47,21.59,45.68,45.68,0,0,1-6,22.83,42.05,42.05,0,0,1-17.35,16.68,54,54,0,0,1-25.44,5.93q-18,0-30.06-6a44.12,44.12,0,0,1-19.05-18.06,56.66,56.66,0,0,1-7.23-27.28Zm157.57,48.76V1103.38h-43.54v-17.92h104.73v17.92H1137.6v133.86Zm74.37,0V1085.46H1290v17.92h-78v46.47h73.1v17.81H1212v51.67h81.13v17.91ZM1406.4,1184l17.51,5.09q-5.51,24.71-19.79,37.74t-34.95,13q-21.36,0-34.73-10t-20.37-28.94a117.16,117.16,0,0,1-7-40.71q0-23.7,7.87-41.35t22.46-26.82a58.77,58.77,0,0,1,32-9.15q19.85,0,33.35,11.59c9,7.74,15.29,18.58,18.83,32.61l-17.2,4.67c-3.08-11.06-7.51-19.08-13.35-24.14s-13.14-7.56-22-7.56c-10.15,0-18.61,2.79-25.44,8.37s-11.63,13.12-14.37,22.55a102.55,102.55,0,0,0-4.16,29.12c0,12.93,1.64,24.17,4.9,33.82s8.37,16.82,15.29,21.59a38.76,38.76,0,0,0,22.46,7.14,34.73,34.73,0,0,0,24.86-9.72q10.2-9.75,13.78-28.91Zm34.44,53.22V1085.46h17.5v62.34H1527v-62.34h17.51v151.78H1527v-71.52h-68.67v71.52Z"/><path class="cls-1" d="M386.76,548.41V744.84H242.67V550.75L106,264.77H267.63l49.19,122.32,1.59,4,1.68-4.28,48-122h162Z"/><path class="cls-3" d="M349.88,398.49Q341,421.08,333.29,442t-13.71,41.48H318.5c-4.78-14.24-9.74-28.13-14.88-41.84s-10.55-27.86-16.5-42.56L246,296.78H156.73l118,246.71V712.83h80.07V540.78l123.35-244H389.91Z"/><path class="cls-4" d="M854.52,296.78V548q-.13,36.91-8.47,60c-5.59,15.42-13.62,26.78-24,34s-22.81,10.82-37.33,10.73c-13.8.09-25.79-3.6-36.07-11s-18.3-18.75-24-34.17S716.11,572.25,716,548V296.78H636V541q.13,61,17.22,100.36c11.36,26.24,28,45.81,49.77,58.52s48.34,19,79.63,18.94q47.34,0,81.24-19.21c22.63-12.89,40.13-32.55,52.3-58.88s18.39-59.78,18.48-100.27V296.78Z"/><path class="cls-1" d="M1231.16,554q.1,15.6.1,31.19V744.84H1094.74V264.77h138L1325.29,443q-.07-10.59-.07-21.2v-157h136.52V744.84H1330.2L1232,555.53Z"/><path class="cls-3" d="M1357.23,296.78v125c0,33.72.54,65.55,1.72,95.31s2.88,57.89,5.32,84.31h-1.09q-8.39-21.78-18.66-45.18t-21.28-46.53q-11.1-23.13-22.27-44.09l-87.65-168.8h-86.56V712.83h72.49V585.15q0-36.93-.54-69.25c-.36-21.47-.9-41.66-1.62-60.69s-1.62-37-2.71-54h2.17q8.79,22.86,19.29,46.89c7,16.05,14.43,31.92,22,47.61s15.05,30.74,22.54,45.08l89.27,172.05h80.07V296.78Z"/></g></g></svg>