<svg xmlns="http://www.w3.org/2000/svg" viewBox="0 0 7886.93 736.85"><defs><style>.cls-1{fill:#1d2088;}</style></defs><g id="Layer_2" data-name="Layer 2"><g id="_·_ÀÌ_î_1" data-name="·¹ÀÌ¾î 1"><path class="cls-1" d="M209.83,11.16V481c0,27.76-2.78,50.7-8.18,68.85-5.56,18.29-13.39,32.4-23.49,42.79a85.75,85.75,0,0,1-36.53,21.87c-14.27,4.18-30.1,6.2-47.68,6a301.91,301.91,0,0,1-42.45-2.94,270.81,270.81,0,0,1-34.8-7.29L0,722.89a254.25,254.25,0,0,0,32.19,7.29c12.18,2.17,24.88,3.72,38.1,5s25.93,1.71,38.28,1.71q56.37.24,103-12.09t80.91-41.41c22.79-19.38,40.36-45.43,52.89-78.46q18.79-49.3,19-123V11.16ZM815.31,0c-42.1.16-80.73,6.2-116.22,18a316.37,316.37,0,0,0-95,51,322.45,322.45,0,0,0-71.16,79.08q-29.23,46.06-44.54,102.34T472.9,371.22c0,41.55,4.7,80.94,14.27,117.69,9.4,36.75,23.14,70.4,41.58,100.63a301.83,301.83,0,0,0,67.68,78.31c26.8,22,57.77,38.92,92.57,50.86s73.42,18,115.87,18.14q75.17,0,137.46-23.88a293.82,293.82,0,0,0,108-71c30.45-31.47,53.94-70.86,70.64-117.84,16.53-47,25.06-101.72,25.23-164.06a463.58,463.58,0,0,0-13-110.71,375.31,375.31,0,0,0-39.32-98.47,304.93,304.93,0,0,0-65.94-79.08c-26.45-22.48-57.42-40.16-92.74-52.72C899.7,6.51,859.85.16,815.31,0Zm-4.17,112.57c23.66.16,44.71,4.66,63.33,13.65a149.94,149.94,0,0,1,48.72,37.68,213.69,213.69,0,0,1,34.27,56,325.58,325.58,0,0,1,20.36,69,443.61,443.61,0,0,1,6.61,76.75q0,54.44-11.13,101.26-11,46.76-32.89,82.18t-54.63,55c-21.75,13.18-47,20-75.69,20.16-28.53-.16-53.59-7-75.33-20.16q-32.89-20-55-55Q657.33,514,646.2,467.66q-11.49-46.28-11.49-99.23a431.2,431.2,0,0,1,6.79-77.07,324.68,324.68,0,0,1,20.35-69.62,218.19,218.19,0,0,1,34.8-56.91,153.44,153.44,0,0,1,49.59-38.3c19.14-9.15,40.71-13.8,64.9-14Zm752.67,73.5c-11.48,25.9-22.09,50.86-32,74.74-9.74,24-18.62,47.76-26.45,71.33h-2.08c-9.22-24.5-18.79-48.38-28.71-71.95-9.74-23.41-20.36-47.91-31.84-73.19L1363.38,11.16H1191.13l227.58,424.25V726.62h154.5V430.76l238-419.6H1641.07l-77.26,174.91ZM2309.18,11.16v432q-.25,63.51-16.35,103.28t-46.28,58.45q-30,18.61-72,18.46c-26.62.15-49.76-6.21-69.6-18.92-19.83-12.56-35.32-32.25-46.28-58.77s-16.53-60.78-16.7-102.5v-432H1887.43V431.07q.27,104.9,33.24,172.58t96,100.64q63.15,32.79,153.63,32.56,91.35,0,156.76-33,65.52-33.26,100.92-101.25,35.24-68.16,35.67-172.43v-419Zm753.73,0V226.08c0,58,1,112.73,3.3,163.9s5.57,99.55,10.27,145h-2.09q-16.18-37.44-36-77.68-19.57-40.25-41.06-80t-43-75.82L2785.22,11.16h-167V726.62h139.89V507.05q0-63.49-1-119.09-1-55.35-3.13-104.35t-5.22-92.89h4.18q17,39.32,37.23,80.64c13.57,27.6,27.84,54.89,42.45,81.87s29.06,52.87,43.5,77.53l172.25,295.86h154.5V11.16ZM4105.8,27.91c-7.66-3.88-19-7.91-33.93-11.94-15-4.19-33.58-7.6-55.68-10.54-21.92-2.95-47.5-4.34-76.38-4.5a488,488,0,0,0-122.66,15.2A391.64,391.64,0,0,0,3709.28,61.4a335.26,335.26,0,0,0-85.78,75.52q-36.54,45.36-56.72,105.44-20.36,60.24-20.53,135.37c0,53.18,8.35,101.72,24.7,145.45s40.37,81.4,72.21,113.19,71,56.13,117.62,73.34q69.67,25.83,160.24,26.21c27.66-.16,52.89-1.4,75.86-4.19,23.14-2.63,43.15-5.89,60.55-10.08,17.22-4,30.79-8.21,41.06-12.71l-21.92-110.71a266.69,266.69,0,0,1-37.06,10.69,416,416,0,0,1-45.24,7.14,455.26,455.26,0,0,1-48.2,2.63c-48.54,0-90.64-9.61-126.14-28.37q-53.23-28.38-82.47-83.74c-19.31-36.75-29.23-82.33-29.4-136.29q.26-64.91,18.79-112.73,18.27-47.92,51-79.24a212.37,212.37,0,0,1,76-46.67c28.88-10.24,59.85-15.35,93.26-15.35,27.66.15,52,2.48,73.25,7.13,21.22,4.5,39.49,9.77,55.15,16.13L4105.8,27.91ZM4514,0c-42.1.16-80.73,6.2-116.22,18a316.37,316.37,0,0,0-95,51,322.45,322.45,0,0,0-71.16,79.08q-29.23,46.06-44.54,102.34t-15.49,120.8c0,41.55,4.7,80.94,14.27,117.69,9.4,36.75,23.14,70.4,41.58,100.63a301.68,301.68,0,0,0,67.69,78.31c26.79,22,57.76,38.92,92.56,50.86s73.42,18,115.88,18.14q75.15,0,137.45-23.88a293.74,293.74,0,0,0,108-71c30.45-31.47,53.94-70.86,70.64-117.84,16.53-47,25.06-101.72,25.23-164.06a463.58,463.58,0,0,0-13-110.71,375.31,375.31,0,0,0-39.32-98.47,304.73,304.73,0,0,0-65.94-79.08c-26.45-22.48-57.42-40.16-92.74-52.72C4598.36,6.51,4558.52.16,4514,0Zm-4.17,112.57c23.66.16,44.71,4.66,63.33,13.65a149.94,149.94,0,0,1,48.72,37.68,213.42,213.42,0,0,1,34.27,56,325.58,325.58,0,0,1,20.36,69,443.61,443.61,0,0,1,6.61,76.75q0,54.44-11.13,101.26-11,46.76-32.89,82.18t-54.63,55c-21.75,13.18-47,20-75.68,20.16-28.54-.16-53.59-7-75.34-20.16q-32.88-20-55-55Q4356,514,4344.86,467.66q-11.49-46.28-11.49-99.23a432.12,432.12,0,0,1,6.79-77.07,324.13,324.13,0,0,1,20.36-69.62,218.17,218.17,0,0,1,34.79-56.91,153.54,153.54,0,0,1,49.59-38.3c19.14-9.15,40.71-13.8,64.9-14Zm417.57,583.34c12.88,7,29.58,13.49,50.29,19.54a558.52,558.52,0,0,0,147,20.47c46.8-.16,88.21-5.58,124.57-16.13q54.28-16,91.7-45.12,37.32-28.84,56.72-68.23T5417,520.07q.26-47-19.66-85.12c-13.23-25.59-33.41-48.69-60.9-69.47s-62.46-39.7-105.26-56.6c-24.53-9.92-45.41-19.07-63-27.6-17.39-8.53-31.66-16.9-42.62-25.43-11.14-8.53-19.32-17.68-24.54-27.6-5-9.92-7.65-21.09-7.65-33.8,0-13.65,4.17-26.36,12.53-38.3s21.22-21.71,38.62-29.16,39.67-11.47,66.81-11.62a371.39,371.39,0,0,1,60,5,344.48,344.48,0,0,1,48,11.94,307.31,307.31,0,0,1,35,13.8L5386.7,33.49a327.11,327.11,0,0,0-44.36-16,453.35,453.35,0,0,0-57.77-11.94A539.07,539.07,0,0,0,5214.46.93q-65,.24-116.4,16-51.17,15.59-86.82,43.73t-54.64,65.9q-18.53,37.68-18.79,81.87c.18,31,8.18,59.08,24,84.51s38.28,48.22,67.51,68.54q43.85,30.24,104.74,53.49c29.58,11.32,53.59,22.64,72.56,34.12,18.79,11.32,32.53,23.72,41.58,36.9a78.38,78.38,0,0,1,13.22,45.28c0,17.83-4.87,33.34-14.79,46.67s-24.53,23.88-43.84,31.32-43.33,11.17-71.86,11.32a388.13,388.13,0,0,1-64.38-5.42,418.81,418.81,0,0,1-59.85-14.27c-18.61-6.05-35-12.71-49.06-20.31l-30.28,115.36ZM5470.22,11.16V130.25h197.3V726.62H5822V130.25h198.34V11.16ZM6265.7,611.25V412.15h262V299.58h-262v-173h277.68V11.16H6111.2V726.62h448.89V611.25ZM7199,27.91C7191.32,24,7180,20,7165.05,16c-15-4.19-33.58-7.6-55.68-10.54-21.92-2.95-47.5-4.34-76.38-4.5a488,488,0,0,0-122.66,15.2A391.83,391.83,0,0,0,6802.45,61.4a335.38,335.38,0,0,0-85.77,75.52q-36.54,45.36-56.72,105.44-20.35,60.24-20.53,135.37c0,53.18,8.35,101.72,24.7,145.45s40.37,81.4,72.21,113.19,71,56.13,117.62,73.34q69.68,25.83,160.24,26.21c27.66-.16,52.89-1.4,75.86-4.19,23.14-2.63,43.15-5.89,60.55-10.08,17.22-4,30.79-8.21,41.06-12.71l-21.92-110.71a266.69,266.69,0,0,1-37.06,10.69,416,416,0,0,1-45.24,7.14,455.41,455.41,0,0,1-48.2,2.63c-48.54,0-90.64-9.61-126.14-28.37q-53.23-28.38-82.47-83.74c-19.31-36.75-29.23-82.33-29.4-136.29q.26-64.91,18.79-112.73,18.27-47.92,51-79.24a212.37,212.37,0,0,1,76-46.67c28.88-10.24,59.85-15.35,93.26-15.35,27.66.15,52,2.48,73.25,7.13,21.22,4.5,39.49,9.77,55.15,16.13L7199,27.91Zm533.45-16.75V296.79H7458.92V11.16H7304.41V726.62h154.51v-308h273.51v308h154.5V11.16Z"/></g></g></svg>