<svg id="Layer_16" data-name="Layer 16" xmlns="http://www.w3.org/2000/svg" viewBox="0 0 600 600"><defs><style>.cls-1{fill:#fff;stroke-linecap:round;stroke-linejoin:round;}.cls-1,.cls-2,.cls-3,.cls-4{stroke:#1a1a1a;stroke-width:15px;}.cls-2{fill:#003764;}.cls-2,.cls-3,.cls-4{stroke-miterlimit:10;}.cls-3{fill:#fcc800;}.cls-4{fill:#575757;}</style></defs><rect class="cls-1" x="30.41" y="14.33" width="363.71" height="457.08"/><path class="cls-2" d="M363.58,465.86c0-101.77-69.52-229.22-146.87-229.22S72.06,365,72.06,465.86C72.06,470.43,363.58,470.32,363.58,465.86Z"/><circle class="cls-3" cx="216.71" cy="150.57" r="105.56"/><rect class="cls-4" x="460.99" y="400.57" width="51.02" height="204.02" rx="17.06" transform="translate(-212.89 491.21) rotate(-45)"/><path class="cls-4" d="M333.51,195.51A163.67,163.67,0,1,0,497.18,359.18,163.67,163.67,0,0,0,333.51,195.51Zm0,266.49A102.82,102.82,0,1,1,436.33,359.18,102.82,102.82,0,0,1,333.51,462Z"/></svg>