<svg id="Layer_5" data-name="Layer 5" xmlns="http://www.w3.org/2000/svg" viewBox="0 0 600 600"><defs><style>.cls-1,.cls-2,.cls-4,.cls-5,.cls-6,.cls-7{stroke:#1a1a1a;}.cls-1,.cls-4,.cls-6,.cls-7{stroke-miterlimit:10;}.cls-2{fill:#ffbc27;stroke-width:12px;}.cls-2,.cls-5,.cls-8{stroke-linecap:round;stroke-linejoin:round;}.cls-3,.cls-7{fill:#fcc800;}.cls-4{fill:#575757;}.cls-4,.cls-5,.cls-6{stroke-width:5px;}.cls-5,.cls-8{fill:none;}.cls-6{fill:#e4032e;}.cls-7{stroke-width:15px;}.cls-8{stroke:#f7931e;stroke-width:7px;}</style></defs><path class="cls-1" d="M95.31,295.89c-21.22,0-38.43,18.77-38.43,41.93s17.21,41.92,38.43,41.92,38.44-18.77,38.44-41.92S116.54,295.89,95.31,295.89Zm0,66.95c-12.67,0-22.93-11.2-22.93-25s10.26-25,22.93-25,22.94,11.2,22.94,25S108,362.84,95.31,362.84Z"/><path class="cls-2" d="M95.31,263.7c-37.53,0-67.95,33.18-67.95,74.12s30.42,74.12,68,74.12,67.95-33.19,67.95-74.12S132.84,263.7,95.31,263.7Zm0,118.35c-22.39,0-40.55-19.8-40.55-44.23s18.16-44.24,40.55-44.24,40.55,19.81,40.55,44.24S117.71,382.05,95.31,382.05Z"/><path class="cls-3" d="M95.31,276.46c-31.06,0-56.24,27.47-56.24,61.36s25.18,61.35,56.24,61.35,56.25-27.47,56.25-61.35S126.38,276.46,95.31,276.46Zm0,98c-18.53,0-33.56-16.39-33.56-36.61s15-36.62,33.56-36.62,33.57,16.4,33.57,36.62S113.85,374.43,95.31,374.43Z"/><path class="cls-1" d="M504.69,295.89c-21.23,0-38.44,18.77-38.44,41.93s17.21,41.92,38.44,41.92,38.43-18.77,38.43-41.92S525.91,295.89,504.69,295.89Zm0,66.95c-12.67,0-22.94-11.2-22.94-25s10.27-25,22.94-25,22.93,11.2,22.93,25S517.35,362.84,504.69,362.84Z"/><path class="cls-2" d="M504.69,263.7c-37.53,0-67.95,33.18-67.95,74.12s30.42,74.12,67.95,74.12,67.95-33.19,67.95-74.12S542.22,263.7,504.69,263.7Zm0,118.35c-22.4,0-40.55-19.8-40.55-44.23s18.15-44.24,40.55-44.24,40.55,19.81,40.55,44.24S527.08,382.05,504.69,382.05Z"/><path class="cls-3" d="M504.69,276.46c-31.07,0-56.25,27.47-56.25,61.36s25.18,61.35,56.25,61.35,56.24-27.47,56.24-61.35S535.75,276.46,504.69,276.46Zm0,98c-18.54,0-33.57-16.39-33.57-36.61s15-36.62,33.57-36.62,33.56,16.4,33.56,36.62S523.22,374.43,504.69,374.43Z"/><rect class="cls-4" x="220.23" y="44.37" width="18.23" height="233.81" rx="4"/><path class="cls-4" d="M220.23,273.46V49.1c0-2.6,4.1-4.73,9.12-4.73h0c5,0,9.11,2.13,9.11,4.73V273.46"/><path class="cls-5" d="M220.23,86.6V45.82c0-.47,4.1-.86,9.12-.86h0c5,0,9.11.39,9.11.86V86.6"/><rect class="cls-4" x="290.97" y="12.49" width="18.23" height="233.81" rx="4"/><rect class="cls-4" x="361.72" y="44.37" width="18.23" height="233.81" rx="4"/><rect class="cls-6" x="220.23" y="42.01" width="18.23" height="43.1" rx="4"/><rect class="cls-6" x="290.97" y="11.31" width="18.23" height="43.1" rx="4"/><rect class="cls-6" x="361.72" y="43.19" width="18.23" height="43.1" rx="4"/><rect class="cls-7" x="145.81" y="171" width="308.17" height="43.37" rx="18.32"/><path class="cls-7" d="M402,248.25V215.47H197.75v32.78a9.78,9.78,0,0,1-5.43,8.64c-51.25,26.38-84.95,71.07-84.95,121.77,0,81.08,86.19,116.12,192.52,116.12s192.52-35,192.52-116.12c0-50.7-33.7-95.39-85-121.77A9.76,9.76,0,0,1,402,248.25Z"/><path class="cls-8" d="M170.63,293.54s128.46,47.23,258.92,0"/><path class="cls-8" d="M130,407s74.19,30,172.57,30.52c60.7.31,110.64-11.68,166.92-30.52"/><path class="cls-7" d="M443.63,548l-50.56-.23a21.59,21.59,0,0,1-21.59-21.6V490.07l-30.27,4.19c-5.08.45-10.06.81-15,1.09a15.37,15.37,0,0,1,.64,4.3V530c0,9.37-8.69,17.05-19.32,17.05h-15.3c-10.63,0-19.33-7.68-19.33-17.05V499.65a15,15,0,0,1,.66-4.3c-6.09-.37-12.24-.87-18.53-1.51l-25.4-3.77v36.08a21.6,21.6,0,0,1-21.59,21.6H158.31c-13.25,0-24.09,9.16-24.09,20.35h0c0,11.2,10.84,20.36,24.09,20.36l285.32.23c13.25,0,24.09-9.16,24.09-20.35h0C467.72,557.14,456.88,548,443.63,548Z"/></svg>