<svg id="Layer_25" data-name="Layer 25" xmlns="http://www.w3.org/2000/svg" viewBox="0 0 600 600"><defs><style>.cls-1,.cls-2,.cls-3,.cls-5{fill:#fff;}.cls-1{stroke:#575757;stroke-width:15px;}.cls-1,.cls-3,.cls-5{stroke-miterlimit:10;}.cls-3{stroke:#fff;}.cls-3,.cls-5{stroke-width:10px;}.cls-4{fill:#003764;}.cls-5{stroke:#003764;}</style></defs><rect class="cls-1" x="168.59" y="430.77" width="131.6" height="134.2"/><rect class="cls-1" x="20.71" y="193.64" width="427.37" height="277.53" rx="32.44"/><rect class="cls-2" x="40.03" y="213.8" width="388.71" height="237.2" rx="17.03"/><rect class="cls-1" x="22.01" y="555.86" width="424.76" height="22.15" rx="11.08"/><path class="cls-3" d="M539.92,242.77c20,.51,36.15-8.15,36.17-18.33S560,205.39,540.15,205.88a30.73,30.73,0,0,0,1.51-16.73c-3.07-16.18-18.83-27.68-34.76-23.53a36.51,36.51,0,0,0-10.61,5.44,31.78,31.78,0,0,0,.7-5.12c11.35-2.71,22.86-6.14,30-10.1,17.51-9.8,27.31-25.6,22.35-34.44s-23.2-8.27-40.14,2.34a30.41,30.41,0,0,0-6.85-15.28c-10.55-12.45-29.79-14.35-41.55-2.58A37.62,37.62,0,0,0,454.23,116a31,31,0,0,0-1.9-4.8c8.5-8.17,16.79-17,21-24.11,10.37-17.47,11.14-36.2,2.54-41.31s-24.1,4.72-33.58,22.6a29.38,29.38,0,0,0-13.38-9.73c-15.2-5.39-32.77,2.83-37.2,19.06A38.58,38.58,0,0,0,391,89.9a29.9,29.9,0,0,0-4-3.18c3.37-11.45,6.21-23.39,6.39-31.67.46-20.46-8-37.09-17.94-37.12s-18.55,16.45-18,36.82a28.66,28.66,0,0,0-16.31-1.59c-15.78,3.13-27,19.27-22.89,35.61a38,38,0,0,0,5.33,10.88,29.4,29.4,0,0,0-5-.72c-2.66-11.65-6-23.45-9.91-30.73-9.58-18-25-28-33.63-23-2.45,1.45-4.15,4-5.1,7.33-.51-.09-1-.17-1.56-.23-13.06-1.43-26.16,9.06-33.66,25.74-.31-1.16-.64-2.26-1-3.3C225.06,49.77,204.36,34.9,189,41c-8.42,3.32-14,12.45-15.58,24C154.54,47.31,129.82,44.08,119,56.65s-4.59,37.93,15.46,54.68a81.32,81.32,0,0,0,15.33,9.51c-15.84,3.77-27.26,13.78-28.08,25.83-1.15,16.86,18.77,33.07,44.6,34,.49,0,1,0,1.51,0-12.18,14.72-20.08,29.79-12.67,41.51,3.58,5.65,9.72,8.81,17.38,10.13a25.27,25.27,0,0,0-8.44,6.15c-7,8-5.86,19.26,2.16,28.53-.94-.11-1.86-.19-2.74-.24-21.19-1.09-41,8.28-43.91,19.8C118,292.83,121.74,298.83,129,303c-20.89,7.44-34.54,22.49-30.87,32.79s24,13.07,44.77,4.62A90.9,90.9,0,0,0,156.48,333c-4.72,11.21-3.12,21.23,4.8,25,11.07,5.23,31.43-3.28,44-19.67.24-.31.48-.64.71-1,4.51,11.77,11.23,20.87,22.71,19.22,8.16-1.17,15.14-7.34,20.92-15.84,10.78,11.08,28.91,12.35,40.17,1.08a37.62,37.62,0,0,0,6.53-10.16,31,31,0,0,0,1.9,4.8c-8.51,8.17-16.79,17-21,24.11-10.37,17.47-11.14,36.2-2.54,41.31s24.09-4.72,33.58-22.6A29.38,29.38,0,0,0,321.62,389a29.05,29.05,0,0,0,30.16-6.86,21,21,0,0,0,5.64,5.92c-.18,1.62-.29,3.16-.32,4.58-.46,20.46,8,37.09,17.94,37.12a9.62,9.62,0,0,0,4.22-1c-.56,13.81,3.39,25.8,11.33,31.64,10.12,7.45,24.7,3.48,36.83-8.92a112.78,112.78,0,0,0-1.22,21c1.86,30.39,18.44,53.56,34.85,51.93,16.26-1.62,27.91-27.19,24.63-57.1,10.18,6.37,20.67,7.35,28.18,1.66,13.71-10.39,13.73-40.1-1.27-65.33-.63-1.05-1.32-2.12-2.07-3.2,17.66,4.3,33.59-.92,40-14.25,7-14.65,1-36-13.88-52.86,5.81-.24,10.34-2.24,12.46-6,5-8.77-4.65-24.71-22.11-34.47a30,30,0,0,0,9.48-13.7c5.22-15.58-2.83-33.61-18.67-38.18a36.08,36.08,0,0,0-11.85-.73,30.2,30.2,0,0,0,3.1-4.07C520.19,239.63,531.84,242.56,539.92,242.77Zm-166.64-24.2.05-.12v1C373.31,219.16,373.3,218.88,373.28,218.57Zm.11,2.05c.13-.07.52-.28,1.12-.63l.17.35-.7.86,2.27.45-2.12.4,1.46,1.83-1.87-1.09s0,.85,0,2.36c-.47-1.32-.75-2.07-.75-2.07l-.88,1-.3-.16c.26-.75.4-1.17.4-1.17l-2,.33-.11-.05.9-.54,1.54.1-.94-1.48.34.06-.4-1.18,2,1.33S373.42,221.11,373.39,220.62Zm-2,4.25.09-.27.23-.12Z"/><path class="cls-4" d="M232.34,219.27c10.24-3,63.16-18.56,63.16-18.56s8.69-61.57,13.67-92.33C314,78.48,300.74,52,281.43,49.44c-13.36-1.75-27.06,8.3-35.18,24.64-.29-1.16-.6-2.26-.94-3.3-8.2-25-29-40.24-44.94-34.62-8.72,3.08-14.64,12-16.61,23.39-18.87-18-44.12-21.84-55.51-9.67s-5.72,37.47,14.39,54.59a84.26,84.26,0,0,0,15.46,9.82c-16.34,3.32-28.31,12.95-29.47,24.87C127,155.83,147,172.41,173.44,173.94c.5,0,1,.05,1.54.06-12.88,14.28-21.37,29-14.09,40.81C171,231.17,203.21,227.65,232.34,219.27Z"/><path class="cls-4" d="M396.68,307.32c8.68-6.88,53.87-42.17,53.87-42.17s54.18,37.1,81.64,55.07c26.69,17.47,39.47,48.43,29.5,67.29-6.9,13-23.36,17.81-41.35,13.09.74,1.1,1.42,2.17,2,3.22,14.71,25.39,13.9,54.83-.43,64.77-7.85,5.45-18.57,4.2-28.84-2.37,2.56,29.72-10.05,54.76-26.77,55.95S433.09,500,432,469.81a108.15,108.15,0,0,1,1.81-20.76c-12.77,12-27.82,15.54-38,7.9-14.22-10.69-15-40.35.22-64.77.29-.47.6-.94.91-1.41-19.29,1-36.24-2.25-41.06-17.24C349.2,352.73,372,326.9,396.68,307.32Z"/><path class="cls-4" d="M268.76,307c2.61-7.11,15.81-44,15.81-44s-40.14-21.86-59.9-33.17c-19.21-11-44.33-9.9-55,1.35-7.41,7.78-6.52,18.94,1.45,28.33-1-.13-1.89-.24-2.79-.31-21.7-1.62-42.24,7.15-45.54,18.49-1.82,6.21,1.83,12.25,9.12,16.52-21.61,6.83-36,21.4-32.52,31.7s24.23,13.56,45.77,5.73a94.57,94.57,0,0,0,14.16-6.92c-5.14,11-3.76,21,4.25,24.86,11.21,5.47,32.3-2.43,45.6-18.36.25-.3.5-.62.75-.94,4.3,11.78,10.95,21,22.76,19.63C249,348,261.35,327.2,268.76,307Z"/><path class="cls-5" d="M217.13,235.71c-20.47,0-36.82-9.22-36.54-19.31s17.12-18.25,37.56-17.23c21,1,65.26,20.12,65.26,20.12S238,235.68,217.13,235.71Z"/><path class="cls-5" d="M246.68,317.81c-17.7,10.17-36.52,10.26-41.37,1.38s5.62-24.3,23.83-33.55c18.73-9.52,66.65-14.92,66.65-14.92S264.76,307.43,246.68,317.81Z"/><path class="cls-5" d="M313.68,374.28c-10.19,17.58-26.45,27-35.12,21.7s-7.39-23.83,3.71-40.87c11.42-17.53,50.18-46,50.18-46S324.09,356.33,313.68,374.28Z"/><path class="cls-5" d="M400.17,390c0,20.28-9.29,36.49-19.47,36.2s-18.41-17-17.4-37.24c1-20.85,20.26-64.68,20.26-64.68S400.13,369.28,400.17,390Z"/><path class="cls-5" d="M483,360.72c10.26,17.56,10.36,36.22,1.41,41s-24.51-5.58-33.85-23.64C440.92,359.52,435.45,312,435.45,312S472.49,342.8,483,360.72Z"/><path class="cls-5" d="M539.9,294.33c17.74,10.12,27.24,26.24,21.9,34.83s-24,7.32-41.23-3.69c-17.69-11.33-46.38-49.77-46.38-49.77S521.78,284,539.9,294.33Z"/><path class="cls-5" d="M555.7,208.6c20.46,0,36.81,9.22,36.53,19.32s-17.12,18.25-37.56,17.23c-21-1-65.26-20.12-65.26-20.12S534.81,208.63,555.7,208.6Z"/><path class="cls-5" d="M526.14,126.51c17.7-10.17,36.52-10.26,41.37-1.38s-5.62,24.29-23.83,33.54C525,168.19,477,173.59,477,173.59S508.07,136.89,526.14,126.51Z"/><path class="cls-5" d="M459.14,70c10.2-17.58,26.45-27,35.12-21.7s7.39,23.83-3.7,40.87c-11.42,17.53-50.18,46-50.18,46S448.73,88,459.14,70Z"/><path class="cls-5" d="M372.66,54.33c-.05-20.28,9.28-36.49,19.46-36.21s18.42,17,17.4,37.25c-1,20.84-20.26,64.68-20.26,64.68S372.7,75,372.66,54.33Z"/><path class="cls-5" d="M289.86,83.59c-10.27-17.55-10.37-36.21-1.41-41S313,48.16,322.3,66.22c9.61,18.57,15.08,66.08,15.08,66.08S300.34,101.51,289.86,83.59Z"/><path class="cls-5" d="M232.93,150c-17.74-10.11-27.24-26.23-21.91-34.83s24-7.31,41.23,3.7c17.69,11.33,46.38,49.77,46.38,49.77S251,160.31,232.93,150Z"/><path class="cls-5" d="M240.8,201.52c-16.11-4.93-23.88-23-18.11-38.31s23.5-23.63,39-17.1c16,6.71,40.26,46.53,40.26,46.53S257.25,206.56,240.8,201.52Z"/><path class="cls-5" d="M249.94,276.46c-16.44,3.71-32.29-8.09-35-24.21s8.43-32.12,25.16-34.16c17.21-2.1,58.33,20.35,58.33,20.35S266.72,272.67,249.94,276.46Z"/><path class="cls-5" d="M295.64,336.84c-12.36,11.37-32,9-42.51-3.62s-8.91-32,4.54-42.06c13.84-10.35,60.77-11.28,60.77-11.28S308.26,325.24,295.64,336.84Z"/><path class="cls-5" d="M365.67,366.5c-5,16-23.2,23.67-38.64,17.93s-23.85-23.31-17.27-38.68c6.76-15.83,46.92-39.9,46.92-39.9S370.74,350.2,365.67,366.5Z"/><path class="cls-5" d="M441.25,357.48c3.75,16.29-8.14,32-24.4,34.69s-32.41-8.38-34.47-25c-2.13-17.06,20.5-57.81,20.5-57.81S437.42,340.84,441.25,357.48Z"/><path class="cls-5" d="M502.14,312.2c11.47,12.26,9.09,31.76-3.63,42.14s-32.28,8.81-42.43-4.53c-10.44-13.72-11.41-60.24-11.41-60.24S490.43,299.68,502.14,312.2Z"/><path class="cls-5" d="M532,242.79c16.11,4.94,23.89,23,18.11,38.31s-23.5,23.63-39,17.11c-16-6.71-40.26-46.53-40.26-46.53S515.57,237.75,532,242.79Z"/><path class="cls-5" d="M522.89,167.86c16.43-3.71,32.28,8.09,35,24.21s-8.43,32.12-25.16,34.16c-17.2,2.1-58.32-20.36-58.32-20.36S506.1,171.65,522.89,167.86Z"/><path class="cls-5" d="M477.18,107.47c12.36-11.36,32-9,42.52,3.63s8.9,32-4.55,42.05c-13.84,10.35-60.77,11.28-60.77,11.28S464.56,119.07,477.18,107.47Z"/><path class="cls-5" d="M407.15,77.82c5-16,23.2-23.67,38.64-17.94s23.85,23.31,17.28,38.69c-6.77,15.83-46.92,39.89-46.92,39.89S402.08,94.12,407.15,77.82Z"/><path class="cls-5" d="M331.57,86.84c-3.75-16.3,8.15-32,24.41-34.69s32.4,8.37,34.46,24.95c2.13,17.06-20.5,57.82-20.5,57.82S335.4,103.48,331.57,86.84Z"/><path class="cls-5" d="M270.68,132.12c-11.47-12.26-9.08-31.76,3.63-42.15s32.28-8.81,42.43,4.53c10.45,13.73,11.41,60.25,11.41,60.25S282.39,144.63,270.68,132.12Z"/><path class="cls-5" d="M321.37,293.15c-23.62,13.83-50.45,11-58.77-4.23s4.14-38.79,28.63-51C316.42,225.27,383.88,224,383.88,224S345.48,279,321.37,293.15Z"/><path class="cls-5" d="M365.9,315.89c-13.47,23.69-38.11,34.57-53,25.47s-16-35.65-1-58.4c15.45-23.42,73.2-58,73.2-58S379.66,291.7,365.9,315.89Z"/><path class="cls-5" d="M415.93,313.52c.29,27.2-15.56,48.83-33.05,48.34s-31.82-23-30.29-50.12c1.57-27.94,34.12-86.52,34.12-86.52S415.64,285.75,415.93,313.52Z"/><path class="cls-5" d="M458.05,286.67c14,23.42,11.16,50-4.24,58.26s-39.12-4.12-51.5-28.4c-12.73-25-14.09-91.87-14.09-91.87S443.79,262.76,458.05,286.67Z"/><path class="cls-5" d="M481,242.54c23.91,13.36,34.89,37.79,25.72,52.56s-36,15.83-58.92.93c-23.62-15.34-58.53-72.6-58.53-72.6S456.57,228.89,481,242.54Z"/><path class="cls-5" d="M478.56,192.94c27.43-.27,49.26,15.45,48.78,32.79s-23.15,31.53-50.54,30c-28.19-1.57-87.3-33.87-87.3-33.87S450.55,193.21,478.56,192.94Z"/><path class="cls-5" d="M451.45,151.17c23.62-13.83,50.45-11,58.77,4.23s-4.13,38.79-28.62,51c-25.2,12.61-92.66,13.93-92.66,13.93S427.34,165.3,451.45,151.17Z"/><path class="cls-5" d="M406.92,128.43c13.47-23.69,38.11-34.57,53-25.47s16,35.65,1,58.4c-15.45,23.41-73.19,58-73.19,58S393.17,152.61,406.92,128.43Z"/><path class="cls-5" d="M356.89,130.79c-.28-27.19,15.56-48.83,33.05-48.34s31.82,23,30.29,50.12c-1.57,28-34.12,86.52-34.12,86.52S357.18,158.57,356.89,130.79Z"/><path class="cls-5" d="M314.77,157.65c-14-23.42-11.15-50,4.24-58.26s39.13,4.12,51.5,28.4c12.73,25,14.09,91.86,14.09,91.86S329,181.56,314.77,157.65Z"/><path class="cls-5" d="M291.85,201.78C268,188.42,257,164,266.13,149.21s36-15.82,58.92-.92c23.62,15.33,58.53,72.59,58.53,72.59S316.26,215.43,291.85,201.78Z"/><path class="cls-5" d="M294.26,251.38c-27.43.27-49.26-15.45-48.77-32.79s23.14-31.53,50.54-30c28.18,1.58,87.29,33.88,87.29,33.88S322.28,251.1,294.26,251.38Z"/><path class="cls-5" d="M263.23,288.71c-8.33-15.27,4.13-38.79,28.62-51,25.2-12.61,92.66-13.92,92.66-13.92S271.55,304,263.23,288.71Z"/><path class="cls-2" d="M267,289.19c-8.32-15.27,3.17-35.46,27.66-47.72,25.2-12.61,77.41-13.48,77.41-13.48S275.31,304.45,267,289.19Z"/><path class="cls-2" d="M294.39,298s-21.34,4.48-28.07-10,72.35-34.73,72.35-34.73S299.83,279.72,300.36,297Z"/><path class="cls-5" d="M322.76,243.6c-18.48.31-33.13-12.12-32.74-25.92s15.7-25.16,34.14-24c19,1.16,58.68,26.65,58.68,26.65S341.63,243.29,322.76,243.6Z"/><path class="cls-5" d="M352.36,277.19c-13.95,12-33.23,11.81-41.87,1S306.19,248.9,321,238c15.28-11.2,62.21-17,62.21-17S366.61,264.92,352.36,277.19Z"/><path class="cls-5" d="M396.8,284.06c-2.89,18.09-17.78,30.23-31.41,27.45s-22.28-19.71-18-37.52c4.43-18.33,36.63-52.65,36.63-52.65S399.76,265.58,396.8,284.06Z"/><path class="cls-5" d="M435.29,261c9.52,15.72,6,34.5-6.26,41.06s-29.84-.9-38.09-17.3c-8.49-16.87-6.08-63.69-6.08-63.69S425.57,245,435.29,261Z"/><path class="cls-5" d="M449.81,218.81c17.48,6,27,22.63,21.83,35.46s-23.43,18.32-40.38,11c-17.44-7.52-46-44.93-46-44.93S432,212.71,449.81,218.81Z"/><path class="cls-5" d="M433.58,177.23c17.25-6.56,35.3.16,39.7,13.25s-6.07,29-23.79,34.18c-18.22,5.35-64.32-5.15-64.32-5.15S416,183.92,433.58,177.23Z"/><path class="cls-5" d="M394.18,155.7c9-16,27.14-22.37,39-15.14s14.14,26.07,3.94,41.35c-10.49,15.71-52.59,37-52.59,37S385,172.06,394.18,155.7Z"/><path class="cls-5" d="M350.05,164.31c-3.52-18,6.28-34.44,20.05-36.45s27.73,11,29.83,29.17c2.16,18.73-16.26,61.9-16.26,61.9S353.65,182.68,350.05,164.31Z"/><path class="cls-5" d="M321.85,199c-14.36-11.54-17.53-30.4-8.29-40.71s28.35-9.27,41.76,3.34c13.79,13,27.69,57.8,27.69,57.8S336.51,210.81,321.85,199Z"/></svg>