<svg id="Layer_25" data-name="Layer 25" xmlns="http://www.w3.org/2000/svg" viewBox="0 0 600 600"><defs><style>.cls-1,.cls-2,.cls-3,.cls-5{fill:#fff;}.cls-1{stroke:#575757;}.cls-1,.cls-3,.cls-5{stroke-miterlimit:10;stroke-width:10px;}.cls-3{stroke:#fff;}.cls-4{fill:#003764;}.cls-5{stroke:#003764;}</style></defs><rect class="cls-1" x="170.18" y="428.62" width="143.74" height="146.59"/><rect class="cls-1" x="8.64" y="169.6" width="466.81" height="303.14" rx="32.44"/><rect class="cls-2" x="29.75" y="191.62" width="424.59" height="259.09" rx="17.03"/><rect class="cls-1" x="10.06" y="565.25" width="463.97" height="24.19" rx="11.08"/><path class="cls-3" d="M536.93,265c20.07.51,36.36-8.19,36.37-18.43S557.13,227.46,537.16,228a31,31,0,0,0,1.52-16.82c-3.09-16.28-18.94-27.85-35-23.67-3.15.82-6.81,2.81-10.67,5.47a31,31,0,0,0,.7-5.15c11.42-2.72,23-6.18,30.12-10.16,17.61-9.85,27.47-25.75,22.48-34.63S523,134.67,506,145.34A30.51,30.51,0,0,0,499.1,130c-10.61-12.53-30-14.43-41.78-2.6a37.75,37.75,0,0,0-6.57,10.21,30.62,30.62,0,0,0-1.91-4.82c8.55-8.22,16.89-17.14,21.11-24.25C480.38,91,481.15,72.12,472.51,67s-24.24,4.75-33.78,22.74a29.57,29.57,0,0,0-13.45-9.79c-15.29-5.42-33,2.85-37.41,19.17a38.44,38.44,0,0,0-.7,12.22,30.32,30.32,0,0,0-4-3.2c3.39-11.51,6.24-23.52,6.43-31.85.46-20.57-8.06-37.3-18.05-37.33S352.9,55.48,353.42,76A28.83,28.83,0,0,0,337,74.36c-15.87,3.15-27.12,19.38-23,35.81a38.44,38.44,0,0,0,5.36,11,28.79,28.79,0,0,0-5-.73c-2.67-11.71-6.06-23.59-10-30.9-9.64-18.08-25.16-28.21-33.82-23.11-2.46,1.45-4.18,4-5.13,7.37-.52-.09-1-.18-1.57-.24C250.7,72.08,237.53,82.62,230,99.4c-.31-1.16-.64-2.27-1-3.32-8.7-25.12-29.52-40.08-45-34-8.47,3.34-14,12.52-15.67,24.15-19-17.78-43.83-21-54.68-8.39S109,116,129.2,132.86a82,82,0,0,0,15.42,9.57c-15.93,3.79-27.42,13.85-28.24,26-1.16,16.95,18.87,33.25,44.85,34.14.49,0,1,0,1.52,0-12.25,14.81-20.2,30-12.74,41.74,3.6,5.69,9.77,8.86,17.48,10.2a25.42,25.42,0,0,0-8.49,6.18c-7.06,8.08-5.89,19.37,2.17,28.69-.95-.11-1.87-.19-2.75-.24C137.11,288,117.2,297.46,114.25,309c-1.61,6.35,2.13,12.38,9.38,16.53-21,7.48-34.73,22.62-31,33s24.12,13.14,45,4.65a91.5,91.5,0,0,0,13.71-7.38c-4.75,11.27-3.14,21.35,4.82,25.11,11.13,5.26,31.61-3.3,44.23-19.79.23-.31.47-.63.71-1,4.53,11.84,11.29,21,22.84,19.33,8.2-1.18,15.22-7.38,21-15.93,10.84,11.15,29.08,12.43,40.4,1.08a37.6,37.6,0,0,0,6.57-10.21,29.87,29.87,0,0,0,1.91,4.82c-8.55,8.22-16.89,17.15-21.11,24.26-10.43,17.56-11.2,36.39-2.56,41.54s24.24-4.75,33.78-22.73a29.64,29.64,0,0,0,13.45,9.79,29.23,29.23,0,0,0,30.34-6.91,20.92,20.92,0,0,0,5.66,6c-.17,1.63-.29,3.17-.32,4.61-.46,20.57,8.06,37.29,18.05,37.32a9.57,9.57,0,0,0,4.24-1c-.56,13.89,3.41,25.94,11.4,31.82,10.17,7.49,24.83,3.5,37-9A112.58,112.58,0,0,0,422.57,496c1.86,30.56,18.54,53.86,35,52.22s28.07-27.35,24.77-57.43c10.24,6.41,20.79,7.4,28.34,1.67,13.79-10.44,13.81-40.32-1.28-65.7q-.94-1.57-2.07-3.21c17.75,4.33,33.77-.93,40.19-14.33,7.05-14.73,1-36.22-14-53.16,5.84-.24,10.4-2.25,12.53-6,5-8.83-4.67-24.86-22.23-34.67a30.15,30.15,0,0,0,9.52-13.78c5.26-15.66-2.84-33.8-18.76-38.39a36,36,0,0,0-11.92-.74,30.62,30.62,0,0,0,3.12-4.1C517.08,261.89,528.8,264.84,536.93,265ZM369.35,240.71l0-.13v1C369.38,241.3,369.36,241,369.35,240.71Zm.11,2.06,1.12-.63.17.35-.7.87,2.28.45-2.13.39s.53.68,1.47,1.85c-1.2-.71-1.89-1.1-1.89-1.1s0,.86,0,2.38l-.75-2.08s-.33.37-.89,1l-.31-.16.4-1.18-2,.33-.1-.05.9-.54,1.55.1s-.33-.53-.95-1.49l.34.06s-.13-.42-.39-1.18l2,1.34S369.48,243.26,369.46,242.77Zm-2,4.27.1-.27.23-.12Z"/><path class="cls-4" d="M228.49,237.67C238.79,234.7,292,219,292,219s8.74-61.92,13.74-92.86c4.87-30.06-8.47-56.73-27.9-59.28-13.43-1.76-27.21,8.35-35.38,24.78-.29-1.16-.6-2.27-.94-3.31-8.25-25.12-29.18-40.48-45.19-34.82-8.77,3.09-14.73,12-16.7,23.53-19-18.11-44.37-22-55.83-9.73s-5.75,37.68,14.47,54.9a84.56,84.56,0,0,0,15.55,9.87c-16.43,3.35-28.48,13-29.65,25-1.63,16.77,18.47,33.44,45.07,35,.5,0,1,0,1.55.06-13,14.35-21.49,29.17-14.17,41C166.8,249.63,199.2,246.09,228.49,237.67Z"/><path class="cls-4" d="M393.76,326.22c8.73-6.92,54.18-42.41,54.18-42.41s54.48,37.31,82.1,55.38c26.84,17.57,39.69,48.71,29.66,67.67C552.77,420,536.21,424.77,518.12,420c.74,1.1,1.43,2.18,2,3.24,14.8,25.53,14,55.14-.43,65.13-7.89,5.48-18.68,4.23-29-2.38,2.58,29.89-10.1,55.07-26.92,56.26S430.38,520,429.28,489.63a108.72,108.72,0,0,1,1.82-20.88c-12.84,12.05-28,15.63-38.2,7.94-14.3-10.74-15-40.57.23-65.14.29-.46.6-.93.91-1.41-19.4,1-36.44-2.26-41.3-17.34C346,371.89,368.91,345.91,393.76,326.22Z"/><path class="cls-4" d="M265.12,325.86c2.62-7.15,15.89-44.23,15.89-44.23s-40.37-22-60.24-33.35c-19.32-11.06-44.58-10-55.36,1.36-7.45,7.82-6.56,19,1.46,28.48-1-.13-1.91-.23-2.81-.3-21.81-1.63-42.47,7.19-45.8,18.59-1.82,6.24,1.85,12.32,9.18,16.61-21.74,6.88-36.21,21.52-32.71,31.88s24.37,13.64,46,5.76a94.71,94.71,0,0,0,14.25-7c-5.18,11.05-3.79,21.08,4.27,25,11.27,5.5,32.48-2.45,45.85-18.47.26-.3.51-.62.76-.94,4.33,11.84,11,21.09,22.89,19.74C245.26,367.17,257.66,346.21,265.12,325.86Z"/><path class="cls-5" d="M213.19,254.21c-20.58,0-37-9.28-36.74-19.43s17.21-18.35,37.77-17.33c21.15,1.05,65.63,20.23,65.63,20.23S234.2,254.17,213.19,254.21Z"/><path class="cls-5" d="M242.91,336.77c-17.8,10.22-36.73,10.32-41.6,1.38s5.65-24.43,24-33.73c18.84-9.57,67-15,67-15S261.09,326.33,242.91,336.77Z"/><path class="cls-5" d="M310.29,393.56C300,411.24,283.69,420.7,275,415.38s-7.43-24,3.73-41.1c11.48-17.63,50.46-46.22,50.46-46.22S320.76,375.5,310.29,393.56Z"/><path class="cls-5" d="M397.27,409.35c0,20.4-9.34,36.7-19.58,36.41s-18.52-17.07-17.5-37.45c1.05-21,20.38-65.05,20.38-65.05S397.22,388.52,397.27,409.35Z"/><path class="cls-5" d="M480.53,379.92c10.33,17.65,10.43,36.42,1.42,41.25s-24.65-5.61-34-23.77C438.25,378.72,432.74,331,432.74,331S470,361.9,480.53,379.92Z"/><path class="cls-5" d="M537.79,313.16c17.84,10.17,27.39,26.38,22,35s-24.17,7.36-41.46-3.71c-17.79-11.4-46.64-50.05-46.64-50.05S519.57,302.77,537.79,313.16Z"/><path class="cls-5" d="M553.68,226.94c20.57,0,37,9.28,36.74,19.42s-17.22,18.36-37.77,17.34C531.5,262.64,487,243.46,487,243.46S532.67,227,553.68,226.94Z"/><path class="cls-5" d="M524,144.38c17.8-10.23,36.73-10.32,41.61-1.39s-5.65,24.44-24,33.74c-18.84,9.57-67,15-67,15S505.78,154.82,524,144.38Z"/><path class="cls-5" d="M456.57,87.59c10.26-17.68,26.6-27.14,35.33-21.82s7.43,24-3.73,41.1c-11.49,17.63-50.47,46.22-50.47,46.22S446.1,105.64,456.57,87.59Z"/><path class="cls-5" d="M369.6,71.79c0-20.39,9.33-36.69,19.57-36.41s18.52,17.08,17.5,37.46c-1.05,21-20.38,65-20.38,65S369.64,92.62,369.6,71.79Z"/><path class="cls-5" d="M286.33,101.22C276,83.57,275.9,64.8,284.91,60s24.65,5.61,34,23.77c9.67,18.68,15.17,66.45,15.17,66.45S296.87,119.24,286.33,101.22Z"/><path class="cls-5" d="M229.08,168c-17.84-10.17-27.4-26.38-22-35s24.17-7.35,41.46,3.72c17.79,11.39,46.65,50,46.65,50S247.29,178.38,229.08,168Z"/><path class="cls-5" d="M237,219.82c-16.21-5-24-23.14-18.22-38.53s23.64-23.76,39.24-17.2c16.06,6.75,40.49,46.8,40.49,46.8S253.54,224.89,237,219.82Z"/><path class="cls-5" d="M246.18,295.18c-16.53,3.73-32.46-8.14-35.2-24.35s8.48-32.3,25.3-34.35c17.3-2.11,58.66,20.47,58.66,20.47S263.06,291.37,246.18,295.18Z"/><path class="cls-5" d="M292.15,355.91c-12.43,11.42-32.22,9-42.76-3.65S240.44,320.08,254,310c13.91-10.41,61.11-11.35,61.11-11.35S304.84,344.24,292.15,355.91Z"/><path class="cls-5" d="M362.57,385.73c-5,16.06-23.33,23.8-38.85,18s-24-23.44-17.38-38.91c6.8-15.91,47.19-40.12,47.19-40.12S367.67,369.34,362.57,385.73Z"/><path class="cls-5" d="M438.58,376.66c3.78,16.39-8.19,32.18-24.54,34.88s-32.59-8.41-34.66-25.09C377.24,369.29,400,328.31,400,328.31S434.73,359.93,438.58,376.66Z"/><path class="cls-5" d="M499.82,331.12c11.53,12.33,9.14,31.94-3.66,42.39S463.7,382.37,453.5,369C443,355.15,442,308.37,442,308.37S488,318.54,499.82,331.12Z"/><path class="cls-5" d="M529.87,261.32c16.2,5,24,23.14,18.21,38.53s-23.63,23.77-39.24,17.21c-16-6.75-40.49-46.8-40.49-46.8S513.33,256.26,529.87,261.32Z"/><path class="cls-5" d="M520.68,186c16.53-3.74,32.46,8.13,35.2,24.34s-8.48,32.3-25.3,34.36c-17.3,2.11-58.65-20.47-58.65-20.47S503.8,189.78,520.68,186Z"/><path class="cls-5" d="M474.72,125.24c12.42-11.43,32.21-9,42.75,3.64s8.95,32.18-4.57,42.3c-13.92,10.4-61.11,11.34-61.11,11.34S462,136.9,474.72,125.24Z"/><path class="cls-5" d="M404.29,95.41c5-16,23.33-23.8,38.86-18s24,23.44,17.37,38.91c-6.8,15.91-47.19,40.11-47.19,40.11S399.19,111.81,404.29,95.41Z"/><path class="cls-5" d="M328.28,104.49c-3.77-16.39,8.19-32.18,24.54-34.89S385.41,78,387.49,94.7c2.14,17.15-20.62,58.14-20.62,58.14S332.13,121.22,328.28,104.49Z"/><path class="cls-5" d="M267,150c-11.53-12.32-9.13-31.94,3.66-42.38s32.46-8.86,42.67,4.55c10.5,13.81,11.47,60.59,11.47,60.59S278.82,162.61,267,150Z"/><path class="cls-5" d="M318,312c-23.75,13.91-50.73,11.1-59.1-4.25s4.16-39,28.79-51.33c25.34-12.68,93.18-14,93.18-14S342.27,297.76,318,312Z"/><path class="cls-5" d="M362.81,334.84c-13.55,23.82-38.33,34.76-53.32,25.61s-16.07-35.85-1-58.74c15.54-23.54,73.61-58.32,73.61-58.32S376.64,310.51,362.81,334.84Z"/><path class="cls-5" d="M413.12,332.45c.29,27.36-15.65,49.11-33.24,48.62s-32-23.09-30.46-50.4c1.58-28.1,34.32-87,34.32-87S412.83,304.53,413.12,332.45Z"/><path class="cls-5" d="M455.48,305.45c14,23.56,11.22,50.3-4.26,58.59s-39.35-4.14-51.8-28.56c-12.8-25.13-14.17-92.39-14.17-92.39S441.14,281.4,455.48,305.45Z"/><path class="cls-5" d="M478.53,261.07c24,13.44,35.08,38,25.86,52.86s-36.16,15.92-59.25.93c-23.75-15.42-58.86-73-58.86-73S454,247.34,478.53,261.07Z"/><path class="cls-5" d="M476.1,211.19c27.59-.27,49.55,15.54,49.06,33s-23.28,31.72-50.83,30.18c-28.35-1.58-87.79-34.07-87.79-34.07S447.93,211.46,476.1,211.19Z"/><path class="cls-5" d="M448.84,169.18c23.75-13.91,50.73-11.09,59.11,4.26s-4.16,39-28.79,51.33c-25.34,12.68-93.19,14-93.19,14S424.59,183.39,448.84,169.18Z"/><path class="cls-5" d="M404.06,146.31c13.54-23.82,38.32-34.76,53.31-25.61s16.07,35.85,1,58.73c-15.55,23.55-73.62,58.32-73.62,58.32S390.22,170.63,404.06,146.31Z"/><path class="cls-5" d="M353.74,148.69c-.28-27.35,15.65-49.11,33.25-48.61s32,23.09,30.46,50.4c-1.59,28.1-34.32,87-34.32,87S354,176.62,353.74,148.69Z"/><path class="cls-5" d="M311.39,175.69c-14.05-23.55-11.22-50.29,4.26-58.59s39.35,4.15,51.79,28.57c12.8,25.13,14.17,92.38,14.17,92.38S325.73,199.74,311.39,175.69Z"/><path class="cls-5" d="M288.33,220.08c-24-13.44-35.08-38-25.86-52.87s36.16-15.91,59.25-.92c23.76,15.42,58.87,73,58.87,73S312.88,233.81,288.33,220.08Z"/><path class="cls-5" d="M290.76,270c-27.59.27-49.54-15.54-49-33s23.28-31.71,50.83-30.17c28.34,1.58,87.78,34.06,87.78,34.06S318.93,269.68,290.76,270Z"/><path class="cls-5" d="M259.55,307.5c-8.37-15.35,4.16-39,28.79-51.33,25.34-12.68,93.18-14,93.18-14S267.92,322.85,259.55,307.5Z"/><path class="cls-2" d="M263.32,308c-8.37-15.35,3.19-35.66,27.82-48C316.48,247.32,369,246.43,369,246.43S271.7,323.33,263.32,308Z"/><path class="cls-2" d="M290.89,316.84s-21.46,4.5-28.23-10.08,72.76-34.93,72.76-34.93-39.06,26.63-38.53,44Z"/><path class="cls-5" d="M319.42,262.14c-18.58.31-33.32-12.19-32.93-26.07s15.79-25.3,34.34-24.17c19.09,1.16,59,26.79,59,26.79S338.39,261.82,319.42,262.14Z"/><path class="cls-5" d="M349.19,295.91c-14,12.08-33.42,11.89-42.11,1s-4.32-29.46,10.61-40.41c15.37-11.27,62.56-17.07,62.56-17.07S363.51,283.58,349.19,295.91Z"/><path class="cls-5" d="M393.88,302.82C391,321,376,333.23,362.29,330.43s-22.41-19.82-18.08-37.73c4.46-18.43,36.84-52.95,36.84-52.95S396.85,284.24,393.88,302.82Z"/><path class="cls-5" d="M432.59,279.64c9.57,15.8,6,34.69-6.3,41.29s-30-.91-38.3-17.4c-8.54-17-6.12-64-6.12-64S422.82,263.51,432.59,279.64Z"/><path class="cls-5" d="M447.19,237.21c17.58,6,27.11,22.75,21.95,35.65s-23.56,18.43-40.61,11.08c-17.54-7.57-46.21-45.19-46.21-45.19S429.25,231.07,447.19,237.21Z"/><path class="cls-5" d="M430.86,195.39c17.36-6.6,35.51.16,39.93,13.33s-6.1,29.14-23.92,34.37c-18.33,5.38-64.68-5.18-64.68-5.18S413.15,202.12,430.86,195.39Z"/><path class="cls-5" d="M391.24,173.74c9-16.11,27.3-22.5,39.22-15.23s14.22,26.22,4,41.58c-10.55,15.81-52.89,37.25-52.89,37.25S382,190.19,391.24,173.74Z"/><path class="cls-5" d="M346.87,182.4c-3.55-18.09,6.31-34.64,20.16-36.66s27.89,11,30,29.33c2.16,18.84-16.35,62.25-16.35,62.25S350.49,200.87,346.87,182.4Z"/><path class="cls-5" d="M318.5,217.31c-14.44-11.6-17.62-30.57-8.33-40.94s28.51-9.32,42,3.37C366,192.79,380,237.86,380,237.86S333.25,229.16,318.5,217.31Z"/></svg>