<svg id="Layer_25" data-name="Layer 25" xmlns="http://www.w3.org/2000/svg" viewBox="0 0 600 600"><defs><style>.cls-1,.cls-2,.cls-3,.cls-4{fill:#fff;}.cls-1{stroke:#575757;}.cls-1,.cls-3,.cls-4{stroke-miterlimit:10;stroke-width:10px;}.cls-3{stroke:#fff;}.cls-4{stroke:#003764;}</style></defs><rect class="cls-1" x="160.59" y="443.77" width="131.6" height="134.2"/><rect class="cls-1" x="12.71" y="206.64" width="427.37" height="277.53" rx="32.44"/><rect class="cls-2" x="32.03" y="226.8" width="388.71" height="237.2" rx="17.03"/><rect class="cls-1" x="14.01" y="568.86" width="424.76" height="22.15" rx="11.08"/><path class="cls-3" d="M499,270.06c23.34,1.08,42.53-8.13,42.82-19.48S523.47,229,500.21,229a32.78,32.78,0,0,0,2.22-18.59c-3.17-18.1-21.31-31.32-40.07-27.1-3.68.83-8,2.93-12.56,5.78a33,33,0,0,0,.95-5.69c13.36-2.72,26.93-6.24,35.33-10.47,20.75-10.45,32.64-27.8,27.07-37.76s-26.92-9.81-47,1.56a33.11,33.11,0,0,0-7.6-17.19c-12-14.15-34.5-16.76-48.56-4-2.77,2.51-5.43,6.44-7.91,11.13a34.05,34.05,0,0,0-2.09-5.39c10.16-8.87,20.09-18.54,25.2-26.31,12.61-19.17,14-40,4.07-45.93s-28.33,4.63-39.91,24.3a34.32,34.32,0,0,0-15.39-11.19c-17.65-6.39-38.43,2.31-44.05,20.26-1.1,3.53-1.39,8.23-1.14,13.51a34.65,34.65,0,0,0-4.57-3.65c4.25-12.65,7.89-25.87,8.33-35.09,1.08-22.77-8.39-41.51-20-41.8S290.33,33.26,290.39,56a35.1,35.1,0,0,0-19.06-2.19c-18.55,3.07-32.07,20.75-27.73,39.05.85,3.6,3,7.81,5.94,12.26a35.32,35.32,0,0,0-5.83-.93c-2.8-13-6.43-26.28-10.78-34.48C222.2,49.4,204.4,37.78,194.19,43.2s-10,26.26,1.66,45.89a34.78,34.78,0,0,0-17.61,7.4c-14.49,11.71-17.13,33.63-4,47.37,2.58,2.7,6.61,5.3,11.42,7.73a36.48,36.48,0,0,0-5.52,2c-9.11-9.93-19-19.63-27-24.62-19.67-12.32-41-13.71-47.09-4s4.79,27.64,25,39a33.39,33.39,0,0,0-11.45,15c-6.53,17.21,2.41,37.5,20.83,43,3.61,1.08,8.43,1.36,13.84,1.12a34.32,34.32,0,0,0-3.73,4.46c-13-4.17-26.54-7.73-36-8.17-23.34-1.08-42.53,8.13-42.81,19.47s18.3,21.63,41.56,21.6A32.77,32.77,0,0,0,111.05,279c3.17,18.1,21.31,31.32,40.07,27.1,3.68-.83,8-2.93,12.56-5.78a33,33,0,0,0-1,5.68c-13.36,2.72-26.93,6.25-35.33,10.48-20.75,10.45-32.64,27.79-27.07,37.76s26.92,9.81,47-1.56a33.14,33.14,0,0,0,7.6,17.19c12,14.15,34.5,16.75,48.57,3.95,2.76-2.52,5.42-6.44,7.91-11.13a32.12,32.12,0,0,0,2.09,5.38c-10.17,8.88-20.1,18.55-25.21,26.31-12.6,19.18-14,40-4.07,45.94s28.33-4.64,39.91-24.3a34.32,34.32,0,0,0,15.39,11.19c17.65,6.39,38.43-2.31,44.05-20.27,1.1-3.53,1.39-8.22,1.14-13.51a33.09,33.09,0,0,0,4.57,3.65c-4.25,12.66-7.89,25.88-8.33,35.1-1.08,22.77,8.39,41.5,20,41.79s22.15-17.83,22.09-40.52a35.19,35.19,0,0,0,19.06,2.19c18.55-3.07,32.08-20.75,27.73-39-.85-3.6-3-7.81-5.94-12.26a35.32,35.32,0,0,0,5.83.93c2.8,13,6.43,26.27,10.78,34.48,10.73,20.26,28.53,31.87,38.74,26.46s10-26.26-1.66-45.9a34.67,34.67,0,0,0,17.62-7.4c14.48-11.7,17.12-33.62,4-47.36-2.58-2.71-6.61-5.3-11.42-7.74a34.45,34.45,0,0,0,5.52-2c9.11,9.93,19,19.63,27,24.62,19.67,12.33,41,13.71,47.09,4s-4.79-27.65-25-39a33.5,33.5,0,0,0,11.45-15c6.54-17.21-2.41-37.5-20.82-43-3.62-1.08-8.44-1.37-13.85-1.13a34.24,34.24,0,0,0,3.73-4.45C476,266.05,489.51,269.62,499,270.06ZM307.51,249l-.13-.26.43.38Zm-6.84-2.17-.14-.06,1.12,0Zm4.46,2.79c.1-1.13.15-1.75.15-1.75l-1.71,1c.05-.25.07-.39.07-.39l-1.35.42c1-1.41,1.57-2.2,1.57-2.2l-.84,0c-.08-.15-.32-.6-.7-1.29l.4-.19,1,.82s.22-.93.57-2.58c.25,1.56.4,2.43.4,2.43s.77-.57,2.13-1.61c-.83,1.34-1.29,2.11-1.29,2.11l2.69.1c-1.52.5-2.38.8-2.38.8l1.16,1-.19.35-1.32-.49s.11.83.32,2.3l-.06.12Z"/><path class="cls-4" d="M326.38,423.73c.65,21.77-8.79,39.44-19.63,39.44s-20.1-17.67-19.63-39.44c.49-22.41,19.63-70,19.63-70S325.72,401.5,326.38,423.73Z"/><path class="cls-4" d="M413.6,389.82c11.45,18.53,12.12,38.56,2.73,44s-26.25-5.25-36.72-24.35c-10.78-19.65-18-70.46-18-70.46S401.92,370.91,413.6,389.82Z"/><path class="cls-4" d="M472.19,316.85c19.18,10.33,29.77,27.34,24.35,36.72s-25.36,8.58-44-2.72c-19.16-11.63-50.84-52-50.84-52S452.61,306.31,472.19,316.85Z"/><path class="cls-4" d="M486.44,224.36c21.77-.65,39.45,8.79,39.45,19.63s-17.67,20.11-39.45,19.63c-22.4-.49-70-19.63-70-19.63S464.22,225,486.44,224.36Z"/><path class="cls-4" d="M452.54,137.14c18.53-11.45,38.56-12.11,44-2.72s-5.25,26.24-24.35,36.72c-19.65,10.78-70.47,18-70.47,18S433.62,148.83,452.54,137.14Z"/><path class="cls-4" d="M379.57,78.55c10.32-19.18,27.33-29.76,36.72-24.34s8.58,25.35-2.72,44c-11.63,19.16-52,50.84-52,50.84S369,98.13,379.57,78.55Z"/><path class="cls-4" d="M287.08,64.3c-.65-21.77,8.79-39.45,19.63-39.45s20.1,17.67,19.63,39.45c-.49,22.41-19.63,70-19.63,70S287.74,86.53,287.08,64.3Z"/><path class="cls-4" d="M199.86,98.2c-11.45-18.53-12.12-38.55-2.73-44s26.25,5.25,36.72,24.34c10.78,19.65,18,70.47,18,70.47S211.54,117.12,199.86,98.2Z"/><path class="cls-4" d="M141.27,171.17c-19.18-10.32-29.77-27.33-24.35-36.72s25.36-8.57,44,2.73c19.16,11.62,50.84,52,50.84,52S160.85,181.71,141.27,171.17Z"/><path class="cls-4" d="M127,263.66c-21.77.65-39.45-8.79-39.45-19.63s17.67-20.1,39.45-19.62c22.4.48,70,19.62,70,19.62S149.24,263,127,263.66Z"/><path class="cls-4" d="M160.92,350.89c-18.53,11.44-38.56,12.11-44,2.72s5.25-26.24,24.35-36.72c19.65-10.78,70.47-18,70.47-18S179.84,339.2,160.92,350.89Z"/><path class="cls-4" d="M233.89,409.47c-10.32,19.18-27.33,29.77-36.72,24.35s-8.58-25.35,2.72-44c11.63-19.16,52-50.84,52-50.84S244.43,389.89,233.89,409.47Z"/><path class="cls-4" d="M289,399.56c-4.81,17.29-24,26.1-40.57,20.41s-26.07-24.3-19.54-41c6.73-17.19,48.73-44.23,48.73-44.23S293.88,381.91,289,399.56Z"/><path class="cls-4" d="M369.12,387.6c4.48,17.38-7.71,34.59-24.93,38s-34.72-8-37.42-25.74c-2.77-18.24,20.09-62.67,20.09-62.67S364.55,369.85,369.12,387.6Z"/><path class="cls-4" d="M432.56,337.17C445.12,350,443.17,371,430,382.51s-34.08,10.43-45.28-3.58c-11.52-14.42-13.94-64.32-13.94-64.32S419.73,324.09,432.56,337.17Z"/><path class="cls-4" d="M462.27,261.77c17.29,4.81,26.1,24,20.42,40.58s-24.3,26.07-41,19.53c-17.18-6.72-44.22-48.73-44.22-48.73S444.62,256.86,462.27,261.77Z"/><path class="cls-4" d="M450.31,181.62c17.38-4.48,34.6,7.71,38,24.93s-8,34.73-25.74,37.42c-18.25,2.77-62.67-20.09-62.67-20.09S432.57,186.19,450.31,181.62Z"/><path class="cls-4" d="M399.88,118.19c12.81-12.57,33.81-10.62,45.35,2.61s10.42,34.07-3.59,45.27C427.23,177.6,377.33,180,377.33,180S386.8,131,399.88,118.19Z"/><path class="cls-4" d="M324.49,88.47c4.81-17.29,24-26.1,40.57-20.41s26.07,24.29,19.54,41c-6.72,17.19-48.73,44.23-48.73,44.23S319.58,106.12,324.49,88.47Z"/><path class="cls-4" d="M244.34,100.43c-4.48-17.38,7.71-34.59,24.93-38s34.73,8,37.42,25.75c2.77,18.24-20.09,62.66-20.09,62.66S248.91,118.17,244.34,100.43Z"/><path class="cls-4" d="M180.9,150.86c-12.56-12.81-10.61-33.81,2.61-45.34s34.08-10.43,45.28,3.58c11.52,14.42,13.94,64.32,13.94,64.32S193.74,163.94,180.9,150.86Z"/><path class="cls-4" d="M151.19,226.25c-17.29-4.81-26.1-24-20.42-40.57s24.3-26.07,41-19.53C189,172.87,216,214.88,216,214.88S168.84,231.17,151.19,226.25Z"/><path class="cls-4" d="M163.15,306.41c-17.38,4.47-34.59-7.72-38-24.94s8-34.72,25.74-37.42c18.25-2.77,62.67,20.09,62.67,20.09S180.89,301.83,163.15,306.41Z"/><path class="cls-4" d="M213.58,369.84c-12.81,12.57-33.81,10.61-45.35-2.61s-10.42-34.08,3.59-45.28C186.23,310.43,236.13,308,236.13,308S226.66,357,213.58,369.84Z"/><path class="cls-4" d="M384.88,311.1c15.56,24.71,13.36,53.34-2.77,62.65s-41.75-3.24-55.64-28.93c-14.29-26.43-17.74-98.17-17.74-98.17S369,285.86,384.88,311.1Z"/><path class="cls-4" d="M408,263c25.83,13.63,38.25,39.52,28.93,55.65s-37.78,18.07-62.65,2.77c-25.6-15.75-64.45-76.15-64.45-76.15S381.58,249.12,408,263Z"/><path class="cls-4" d="M403.9,209.88c29.18-1.12,52.88,15.09,52.88,33.72s-23.69,34.54-52.88,33.72c-30-.84-93.89-33.72-93.89-33.72S374.1,211,403.9,209.88Z"/><path class="cls-4" d="M373.81,165.86c24.72-15.55,53.35-13.36,62.66,2.77s-3.24,41.76-28.93,55.65C381.1,238.57,309.37,242,309.37,242S348.58,181.75,373.81,165.86Z"/><path class="cls-4" d="M325.75,142.79c13.63-25.83,39.52-38.24,55.65-28.93s18.07,37.78,2.76,62.66C368.42,202.11,308,241,308,241S311.84,169.17,325.75,142.79Z"/><path class="cls-4" d="M272.59,146.84C271.48,117.66,287.69,94,306.32,94s34.54,23.69,33.72,52.88c-.84,30-33.72,93.89-33.72,93.89S273.73,176.64,272.59,146.84Z"/><path class="cls-4" d="M228.58,176.93c-15.56-24.72-13.36-53.34,2.77-62.66s41.75,3.25,55.64,28.94c14.29,26.43,17.74,98.17,17.74,98.17S244.47,202.17,228.58,176.93Z"/><path class="cls-4" d="M205.51,225c-25.83-13.62-38.25-39.51-28.93-55.64s37.78-18.07,62.65-2.77c25.6,15.75,64.45,76.15,64.45,76.15S231.88,238.9,205.51,225Z"/><path class="cls-4" d="M209.56,278.15c-29.18,1.12-52.88-15.1-52.88-33.72s23.69-34.54,52.88-33.73c30,.84,93.89,33.73,93.89,33.73S239.36,277,209.56,278.15Z"/><path class="cls-4" d="M239.65,322.16c-24.72,15.56-53.35,13.37-62.66-2.76s3.24-41.76,28.93-55.65C232.36,249.46,304.09,246,304.09,246S264.88,306.28,239.65,322.16Z"/><path class="cls-4" d="M287.71,345.23c-13.63,25.84-39.52,38.25-55.65,28.94S214,336.38,229.3,311.51c15.74-25.59,76.15-64.45,76.15-64.45S301.62,318.86,287.71,345.23Z"/><path class="cls-4" d="M340.87,341.18c1.11,29.19-15.1,52.88-33.73,52.88s-34.54-23.68-33.72-52.88c.84-30,33.72-93.89,33.72-93.89S339.73,311.39,340.87,341.18Z"/><path class="cls-4" d="M381.87,373.09c-16.13,9.32-41.76-3.24-55.65-28.93C311.93,317.73,308.48,246,308.48,246S398,363.78,381.87,373.09Z"/><path class="cls-2" d="M382.27,369.08c-16.13,9.32-38.16-2.31-52-28-14.29-26.43-16.8-82-16.8-82S398.4,359.77,382.27,369.08Z"/><path class="cls-2" d="M390.89,339.65s5.45,22.58-9.9,30.18-39.46-75.95-39.46-75.95,29.59,40.53,48.13,39.46Z"/><path class="cls-4" d="M331.67,311.1c.88,19.65-12,35.61-26.84,35.61S277.35,330.76,278,311.1c.67-20.23,26.83-63.23,26.83-63.23S330.76,291,331.67,311.1Z"/><path class="cls-4" d="M366.82,278.6c13.31,14.48,13.68,35,2.33,44.52s-31.3,5.45-43.44-10c-12.49-15.92-20.09-65.68-20.09-65.68S353.22,263.81,366.82,278.6Z"/><path class="cls-4" d="M372.85,231.11c19.51,2.54,33,18,30.41,32.61S382.78,288,363.53,284c-19.8-4.17-57.6-37.41-57.6-37.41S352.93,228.52,372.85,231.11Z"/><path class="cls-4" d="M347,190.85c16.58-10.6,36.85-7.4,44.26,5.43s-.08,31.77-17.43,41c-17.85,9.54-68.17,8.38-68.17,8.38S330,201.66,347,190.85Z"/><path class="cls-4" d="M301.23,176.66c5.89-18.78,23.47-29.36,37.39-24.29s20.37,24.39,13,42.64c-7.55,18.78-46.84,50.24-46.84,50.24S295.22,195.82,301.23,176.66Z"/><path class="cls-4" d="M257.08,195.17c-7.55-18.16-.89-37.57,13-42.64s31.28,5.59,37.39,24.29c6.29,19.23-3.59,68.59-3.59,68.59S264.8,213.72,257.08,195.17Z"/><path class="cls-4" d="M235.17,237.73c-17.47-9-24.83-28.2-17.43-41s27.56-15.82,44.26-5.43c17.18,10.69,41.34,54.85,41.34,54.85S253,247,235.17,237.73Z"/><path class="cls-4" d="M245.74,284.43c-19.2,4.28-37.16-5.65-39.73-20.24s10.94-29.84,30.41-32.61c20-2.86,66.92,15.44,66.92,15.44S265.34,280.05,245.74,284.43Z"/><path class="cls-4" d="M283.85,313.4c-12,15.62-32.09,19.56-43.45,10s-10.8-29.88,2.34-44.53c13.51-15.06,61.19-31.18,61.19-31.18S296.05,297.45,283.85,313.4Z"/></svg>