<svg id="Layer_11" data-name="Layer 11" xmlns="http://www.w3.org/2000/svg" viewBox="0 0 600 600"><defs><style>.cls-1,.cls-2,.cls-3{fill:#fcc800;}.cls-1,.cls-2{stroke:#000;stroke-linecap:round;stroke-linejoin:round;}.cls-1{stroke-width:15px;}.cls-2{stroke-width:10px;}</style></defs><path class="cls-1" d="M326,537.32c.85,28.74-11.61,52.08-25.92,52.08s-26.55-23.33-25.92-52.08c.64-29.59,25.92-92.49,25.92-92.49S325.07,508,326,537.32Z"/><path class="cls-1" d="M441.13,492.55c15.11,24.46,16,50.91,3.6,58.07s-34.66-6.93-48.5-32.15c-14.23-26-23.79-93.06-23.79-93.06S425.69,467.57,441.13,492.55Z"/><path class="cls-1" d="M518.49,396.19c25.33,13.63,39.31,36.09,32.16,48.49s-33.48,11.32-58.08-3.6c-25.3-15.35-67.13-68.69-67.13-68.69S492.64,382.27,518.49,396.19Z"/><path class="cls-1" d="M537.32,274.05c28.74-.85,52.08,11.61,52.08,25.92s-23.33,26.55-52.08,25.92c-29.59-.64-92.49-25.92-92.49-25.92S508,274.93,537.32,274.05Z"/><path class="cls-1" d="M492.55,158.87c24.46-15.11,50.91-16,58.07-3.6s-6.93,34.66-32.15,48.5c-26,14.23-93.06,23.79-93.06,23.79S467.57,174.31,492.55,158.87Z"/><path class="cls-1" d="M396.19,81.51c13.63-25.33,36.09-39.31,48.49-32.16s11.32,33.48-3.6,58.08c-15.35,25.3-68.69,67.13-68.69,67.13S382.27,107.36,396.19,81.51Z"/><path class="cls-1" d="M274.05,62.68C273.2,33.94,285.66,10.6,300,10.6s26.55,23.33,25.92,52.08C325.25,92.27,300,155.17,300,155.17S274.93,92,274.05,62.68Z"/><path class="cls-1" d="M158.87,107.45c-15.11-24.46-16-50.91-3.6-58.07s34.66,6.93,48.5,32.15c14.23,26,23.79,93.06,23.79,93.06S174.31,132.43,158.87,107.45Z"/><path class="cls-1" d="M81.51,203.81c-25.33-13.63-39.31-36.09-32.16-48.49s33.48-11.32,58.08,3.6c25.3,15.35,67.13,68.69,67.13,68.69S107.36,217.73,81.51,203.81Z"/><path class="cls-1" d="M62.68,326C33.94,326.8,10.6,314.34,10.6,300s23.33-26.55,52.08-25.92c29.59.64,92.49,25.92,92.49,25.92S92,325.07,62.68,326Z"/><path class="cls-1" d="M107.45,441.13c-24.46,15.11-50.91,16-58.07,3.6s6.93-34.66,32.15-48.5c26-14.23,93.06-23.79,93.06-23.79S132.43,425.69,107.45,441.13Z"/><path class="cls-1" d="M203.81,518.49c-13.63,25.33-36.09,39.31-48.49,32.16s-11.32-33.48,3.6-58.08c15.35-25.3,68.69-67.13,68.69-67.13S217.73,492.64,203.81,518.49Z"/><path class="cls-1" d="M276.55,505.4c-6.35,22.83-31.66,34.46-53.58,27s-34.42-32.09-25.8-54.15c8.88-22.7,64.35-58.4,64.35-58.4S283,482.09,276.55,505.4Z"/><path class="cls-1" d="M382.39,489.61c5.91,22.94-10.18,45.67-32.92,50.13s-45.86-10.57-49.42-34C296.4,481.65,326.58,423,326.58,423S376.35,466.18,382.39,489.61Z"/><path class="cls-1" d="M466.16,423c16.59,16.92,14,44.65-3.45,59.88s-45,13.77-59.79-4.73c-15.21-19-18.4-84.94-18.4-84.94S449.21,405.74,466.16,423Z"/><path class="cls-1" d="M505.4,323.45c22.83,6.35,34.46,31.66,27,53.58s-32.09,34.42-54.15,25.8c-22.7-8.88-58.4-64.35-58.4-64.35S482.09,317,505.4,323.45Z"/><path class="cls-1" d="M489.61,217.61c22.94-5.91,45.67,10.18,50.13,32.92s-10.57,45.86-34,49.42C481.65,303.6,423,273.42,423,273.42S466.18,223.65,489.61,217.61Z"/><path class="cls-1" d="M423,133.84c16.92-16.59,44.65-14,59.88,3.45s13.77,45-4.73,59.79c-19,15.21-84.94,18.4-84.94,18.4S405.74,150.79,423,133.84Z"/><path class="cls-1" d="M323.45,94.6c6.35-22.83,31.66-34.46,53.58-27s34.42,32.09,25.8,54.15c-8.88,22.7-64.35,58.4-64.35,58.4S317,117.91,323.45,94.6Z"/><path class="cls-1" d="M217.61,110.39c-5.91-22.94,10.18-45.67,32.92-50.13s45.86,10.57,49.42,34c3.65,24.1-26.53,82.76-26.53,82.76S223.65,133.82,217.61,110.39Z"/><path class="cls-1" d="M133.84,177c-16.59-16.92-14-44.65,3.45-59.88s45-13.77,59.79,4.73c15.21,19,18.4,84.94,18.4,84.94S150.79,194.26,133.84,177Z"/><path class="cls-1" d="M94.6,276.55c-22.83-6.35-34.46-31.66-27-53.58s32.09-34.42,54.15-25.8c22.7,8.88,58.4,64.35,58.4,64.35S117.91,283,94.6,276.55Z"/><path class="cls-1" d="M110.39,382.39c-22.94,5.91-45.67-10.18-50.13-32.92s10.57-45.86,34-49.42c24.1-3.65,82.76,26.53,82.76,26.53S133.82,376.35,110.39,382.39Z"/><path class="cls-1" d="M177,466.16c-16.92,16.59-44.65,14-59.88-3.45s-13.77-45,4.73-59.79c19-15.21,84.94-18.4,84.94-18.4S194.26,449.21,177,466.16Z"/><path class="cls-2" d="M403.2,388.58c20.54,32.64,17.65,70.45-3.66,82.75s-55.13-4.29-73.48-38.21c-18.87-34.91-23.42-129.64-23.42-129.64S382.22,355.26,403.2,388.58Z"/><path class="cls-2" d="M433.66,325.12c34.12,18,50.51,52.18,38.21,73.48s-49.89,23.86-82.74,3.65C355.33,381.46,304,301.69,304,301.69S398.84,306.75,433.66,325.12Z"/><path class="cls-2" d="M428.32,254.92c38.53-1.47,69.82,19.94,69.82,44.53S466.87,345.07,428.32,344c-39.67-1.11-124-44.54-124-44.54S389,256.42,428.32,254.92Z"/><path class="cls-2" d="M388.58,196.8c32.64-20.54,70.45-17.65,82.75,3.66s-4.29,55.13-38.21,73.48c-34.91,18.87-129.64,23.42-129.64,23.42S355.26,217.78,388.58,196.8Z"/><path class="cls-2" d="M325.12,166.34c18-34.12,52.18-50.51,73.48-38.21s23.86,49.89,3.65,82.74C381.46,244.67,301.69,296,301.69,296S306.75,201.16,325.12,166.34Z"/><path class="cls-2" d="M254.92,171.68c-1.47-38.53,19.94-69.82,44.53-69.82s45.62,31.27,44.54,69.82c-1.11,39.67-44.54,124-44.54,124S256.42,211,254.92,171.68Z"/><path class="cls-2" d="M196.8,211.42c-20.54-32.64-17.65-70.45,3.66-82.75s55.13,4.29,73.48,38.21c18.87,34.91,23.42,129.64,23.42,129.64S217.78,244.74,196.8,211.42Z"/><path class="cls-2" d="M166.34,274.88c-34.12-18-50.51-52.18-38.21-73.48s49.89-23.86,82.74-3.65c33.8,20.79,85.1,100.56,85.1,100.56S201.16,293.25,166.34,274.88Z"/><path class="cls-2" d="M171.68,345.08c-38.53,1.47-69.82-19.94-69.82-44.53s31.27-45.62,69.82-44.54c39.67,1.11,124,44.54,124,44.54S211,343.58,171.68,345.08Z"/><path class="cls-2" d="M211.42,403.2c-32.64,20.54-70.45,17.65-82.75-3.66s4.29-55.13,38.21-73.48c34.91-18.87,129.64-23.42,129.64-23.42S244.74,382.22,211.42,403.2Z"/><path class="cls-2" d="M274.88,433.66c-18,34.12-52.18,50.51-73.48,38.21s-23.86-49.89-3.65-82.74c20.79-33.8,100.56-85.1,100.56-85.1S293.25,398.84,274.88,433.66Z"/><path class="cls-2" d="M345.08,428.32c1.47,38.53-19.94,69.82-44.53,69.82S254.93,466.87,256,428.32c1.11-39.67,44.54-124,44.54-124S343.58,389,345.08,428.32Z"/><path class="cls-2" d="M399.22,470.45c-21.3,12.3-55.14-4.28-73.48-38.2-18.88-34.91-23.43-129.64-23.43-129.64S420.52,458.16,399.22,470.45Z"/><path class="cls-3" d="M399.75,465.16c-21.3,12.3-50.38-3.06-68.73-37C312.15,393.27,308.83,320,308.83,320S421.05,452.86,399.75,465.16Z"/><path class="cls-3" d="M411.14,426.29s7.2,29.82-13.08,39.85S346,365.85,346,365.85,385,419.37,409.51,418Z"/><path class="cls-2" d="M332.93,388.59c1.17,26-15.87,47-35.44,47s-36.29-21.06-35.43-47c.88-26.71,35.43-83.49,35.43-83.49S331.73,362.09,332.93,388.59Z"/><path class="cls-2" d="M379.34,345.67c17.58,19.13,18.08,46.22,3.09,58.8s-41.34,7.19-57.37-13.25c-16.5-21-26.53-86.73-26.53-86.73S361.4,326.14,379.34,345.67Z"/><path class="cls-2" d="M387.32,283c25.76,3.35,43.55,23.79,40.15,43.06s-27,32.08-52.46,26.73c-26.15-5.51-76.07-49.4-76.07-49.4S361,279.53,387.32,283Z"/><path class="cls-2" d="M353.11,229.79c21.89-14,48.66-9.77,58.44,7.18s-.1,42-23,54.19c-23.57,12.6-90,11.06-90,11.06S330.76,244.08,353.11,229.79Z"/><path class="cls-2" d="M292.74,211.05c7.77-24.78,31-38.76,49.37-32.07s26.9,32.21,17.22,56.31c-10,24.8-61.85,66.34-61.85,66.34S284.8,236.36,292.74,211.05Z"/><path class="cls-2" d="M234.44,235.51c-10-24-1.18-49.62,17.21-56.31S293,186.58,301,211.27c8.31,25.4-4.74,90.57-4.74,90.57S244.63,260,234.44,235.51Z"/><path class="cls-2" d="M205.5,291.71c-23.06-12-32.79-37.25-23-54.2s36.39-20.89,58.44-7.17c22.69,14.12,54.59,72.43,54.59,72.43S229.05,303.92,205.5,291.71Z"/><path class="cls-2" d="M219.46,353.37C194.1,359,170.39,345.91,167,326.64s14.44-39.4,40.15-43.06c26.46-3.77,88.38,20.39,88.38,20.39S245.35,347.59,219.46,353.37Z"/><path class="cls-2" d="M269.78,391.63c-15.78,20.63-42.38,25.82-57.37,13.24s-14.26-39.46,3.09-58.8c17.84-19.89,80.81-41.18,80.81-41.18S285.9,370.56,269.78,391.63Z"/></svg>