<svg id="Layer_25" data-name="Layer 25" xmlns="http://www.w3.org/2000/svg" viewBox="0 0 600 600"><defs><style>.cls-1{fill:#fff;stroke-miterlimit:10;}.cls-1,.cls-2{stroke:#000;stroke-width:15px;}.cls-2{fill:#e4032e;stroke-linecap:round;stroke-linejoin:round;}</style></defs><path class="cls-1" d="M533.26,583.16H66.74a34.92,34.92,0,0,1-34.82-34.82V248.49a17,17,0,0,1,6.51-13.36L289.86,38.39a16.46,16.46,0,0,1,20.28,0L561.57,235.13a17,17,0,0,1,6.51,13.36V548.34A34.92,34.92,0,0,1,533.26,583.16Z"/><path class="cls-2" d="M496.11,197.15c0-57.92-43.84-104.88-97.92-104.88-46.1,0-84.75,34.13-95.16,80.08-2,0-4,0-6.07,0-10.41-45.94-49.06-80-95.15-80-54.08,0-97.92,47-97.92,104.88a113.06,113.06,0,0,0,1.35,17.39c15.4,121.54,195.14,232,195.14,232S478,339.27,494.11,218.33A112.52,112.52,0,0,0,496.11,197.15Z"/><path class="cls-1" d="M533.26,583.16H66.74a34.92,34.92,0,0,1-34.82-34.82V248.49a17,17,0,0,1,6.51-13.36l251.43,174c9.93,6.31,10.37,6.53,20.28,0L561.57,235.13a17,17,0,0,1,6.51,13.36V548.34A34.92,34.92,0,0,1,533.26,583.16Z"/></svg>