<svg id="Layer_19" data-name="Layer 19" xmlns="http://www.w3.org/2000/svg" viewBox="0 0 600 600"><defs><style>.cls-1,.cls-3{fill:#fff;}.cls-1{stroke:#003764;stroke-linecap:round;stroke-linejoin:round;stroke-width:20px;}.cls-2{fill:#003764;}</style></defs><rect class="cls-1" x="78.7" y="89.47" width="370.29" height="483.93" rx="7"/><rect class="cls-1" x="155.39" y="26.6" width="365.91" height="478.2" rx="7"/><path class="cls-2" d="M144.29,534.76a20.64,20.64,0,0,1-14.58-35.26L320,309.71l-107.91-.14a20.65,20.65,0,0,1,0-41.3l157.78.22a20.64,20.64,0,0,1,20.62,20.68l-.22,157.76a20.66,20.66,0,0,1-20.64,20.61h0A20.64,20.64,0,0,1,349,446.87L349.18,339,158.87,528.74A20.53,20.53,0,0,1,144.29,534.76Z"/><path class="cls-3" d="M212.13,275.77h0l157.76.22A13.14,13.14,0,0,1,383,289.16l-.22,157.76A13.14,13.14,0,0,1,369.68,460h0a13.14,13.14,0,0,1-13.13-13.16l.18-126L153.57,523.43A13.15,13.15,0,0,1,135,504.81L338.14,302.24l-126-.17a13.15,13.15,0,0,1,0-26.3m.05-15h-.05a28.15,28.15,0,0,0,0,56.3l89.81.12-177.49,177a28.15,28.15,0,0,0,39.75,39.86l177.49-177-.13,89.81a28.15,28.15,0,0,0,56.29.07L398,289.18A28.13,28.13,0,0,0,369.93,261l-157.75-.22Z"/></svg>