<svg xmlns="http://www.w3.org/2000/svg" viewBox="0 0 600 600"><defs><style>.cls-1{fill:#003764;}.cls-2{fill:#fff;stroke:#575757;stroke-miterlimit:10;stroke-width:15px;}</style></defs><g id="Layer_26" data-name="Layer 26"><path class="cls-1" d="M414.35,52.13l32.51,12.6c2.82,1.09,4.34,3.82,3.33,6L402.64,172.58c-.93,2-3.71,2.78-6.33,1.77l-19.11-7.41c-2.62-1-4.15-3.47-3.47-5.59L407.87,54.29C408.59,52,411.54,51,414.35,52.13Z"/><path class="cls-1" d="M567.5,160.4l16,33.7c1.29,2.73.44,5.79-1.88,6.71L466.52,246.49c-2.15.85-4.77-.47-6-3l-9.46-20c-1.2-2.54-.55-5.41,1.49-6.52l108.55-59.4C563.31,156.4,566.21,157.68,567.5,160.4Z"/><path class="cls-1" d="M597,330,591,366.08c-.51,3.08-2.85,5.21-5.13,4.66L477.3,344.85c-2.12-.5-3.4-3.14-2.93-6l3.5-21.23c.47-2.86,2.55-4.94,4.72-4.73L593.65,324C596,324.21,597.49,327,597,330Z"/><circle class="cls-2" cx="221.46" cy="482.71" r="65.6"/><polygon class="cls-2" points="399.08 434.82 142.23 494.5 70.51 369.6 252.34 179.28 399.08 434.82"/><rect class="cls-2" x="317.84" y="111.45" width="93.53" height="346.55" rx="18.58" transform="translate(-93.36 219.37) rotate(-29.87)"/><path class="cls-2" d="M50.4,378.89h61.34a0,0,0,0,1,0,0V523.74a0,0,0,0,1,0,0H50.4a13.16,13.16,0,0,1-13.16-13.16V392.05A13.16,13.16,0,0,1,50.4,378.89Z" transform="translate(-214.85 97.03) rotate(-29.87)"/></g></svg>