<svg id="Layer_21" data-name="Layer 21" xmlns="http://www.w3.org/2000/svg" viewBox="0 0 600 600"><defs><style>.cls-1,.cls-3{fill:#fff;}.cls-1{stroke:#003764;stroke-linecap:round;stroke-linejoin:round;stroke-width:30px;}.cls-2{fill:#003764;}</style></defs><rect class="cls-1" x="47.44" y="131.75" width="414.47" height="414.47" rx="7"/><path class="cls-2" d="M243.73,426.33A44.25,44.25,0,0,1,211.91,413a47.41,47.41,0,0,1-4-4.64c-34.68-46.76-65.53-91.36-94.35-136.4C98.26,248,83.65,224,70.18,200.65c-6.21-10.73-12.7-22.4-20.43-36.73-5.45-10.21-12.54-23.73-19.18-38a7.5,7.5,0,0,1,11.36-9.12c12.51,9.56,24.19,19.4,33,26.9,12.36,10.65,22.36,19.51,31.5,27.89,19.9,18.17,40.18,37.6,60.27,57.74,25.33,25.36,51.14,52.54,76.81,80.87,14.26-16,29-32.17,43.94-48.05,28.25-29.81,55.2-56.69,82.4-82.2,30.41-28.49,59.24-53.68,88.14-77,16.92-13.63,32.25-25.42,46.87-36,2.79-2.06,5.69-4.11,8.5-6.09,1.2-.85,2.4-1.69,3.59-2.55,4.14-3,8.37-5.84,12.34-8.54,10-6.78,17.87-11.84,25.55-16.4a7.5,7.5,0,0,1,10.55,9.77c-4,8-8.39,16.27-14.39,26.75-2.38,4.18-4.94,8.64-7.57,13-.74,1.23-1.5,2.49-2.25,3.76-1.76,3-3.58,6-5.44,9-9.44,15.35-20,31.55-32.29,49.45-21,30.61-43.92,61.3-70,93.81-23.34,29.09-48.06,58-75.6,88.47C329.36,358.55,303,386,277.35,411.22L275,413.55A44.34,44.34,0,0,1,243.73,426.33Z"/><path class="cls-3" d="M558.63,39.77h0m0,0c-4.45,9-9.25,17.75-14.17,26.34-2.46,4.31-4.93,8.6-7.48,12.81s-5,8.49-7.64,12.66c-10.31,16.76-21.08,33.1-32.12,49.19-22.09,32.16-45.43,63.16-69.64,93.36s-49.41,59.49-75.31,88.13-52.6,56.53-80.18,83.61l-2.38,2.33a37.08,37.08,0,0,1-52.45-.48,42,42,0,0,1-3.33-3.89c-32.76-44.17-64.23-89.37-94-135.93q-22.35-34.9-43.23-71c-7-12-13.7-24.24-20.32-36.54s-13-24.79-19-37.62c11.25,8.59,22,17.56,32.65,26.64s21.06,18.32,31.31,27.71q30.8,28.13,60,57.51Q203.7,277,243.53,321.43q24.24-27.48,49.35-54.16,39.83-42,82.06-81.87c28.25-26.46,57.36-52.12,87.72-76.63,15.2-12.24,30.65-24.24,46.57-35.8,3.95-2.92,8-5.74,12-8.6s8.09-5.66,12.2-8.44c8.19-5.57,16.5-11,25.17-16.16m0-15q-.45,0-.9,0a14.91,14.91,0,0,0-7,2.2C543,31.6,535.05,36.71,525,43.53c-4,2.71-8.27,5.62-12.48,8.64L509,54.69c-2.82,2-5.74,4.05-8.62,6.18-14.72,10.69-30.13,22.54-47.12,36.22-29.05,23.44-58,48.75-88.57,77.37C337.37,200.07,310.33,227.05,282,257l0,0c-13.05,13.87-26,27.94-38.53,42-23.9-26.19-47.89-51.36-71.45-75-20.17-20.21-40.54-39.72-60.53-58-9.19-8.43-19.25-17.33-31.63-28l0,0c-8.85-7.56-20.63-17.49-33.29-27.16a15,15,0,0,0-22.71,18.25c6.72,14.44,13.87,28.08,19.35,38.35l0,.05c7.76,14.4,14.29,26.14,20.55,36.95,13.51,23.43,28.18,47.52,43.58,71.57,28.9,45.18,59.85,89.92,94.61,136.78l.06.08a54.75,54.75,0,0,0,4.61,5.38,52.08,52.08,0,0,0,73.66.68l2.38-2.34c25.8-25.33,52.22-52.88,80.76-84.21l0,0c27.63-30.55,52.45-59.6,75.88-88.8,26.19-32.67,49.18-63.5,70.31-94.26,12.34-18,23-34.27,32.49-49.77,1.9-3,3.73-6.1,5.5-9.07.74-1.25,1.49-2.49,2.23-3.73,2.69-4.42,5.26-8.92,7.67-13.14,6-10.46,10.45-18.75,14.43-26.8a15,15,0,0,0-13-22Zm0,30Z"/></svg>