<svg id="Layer_18" data-name="Layer 18" xmlns="http://www.w3.org/2000/svg" viewBox="0 0 600 600"><defs><style>.cls-1{fill:#fff;stroke:#003764;stroke-linecap:round;stroke-linejoin:round;stroke-width:30px;}</style></defs><path class="cls-1" d="M394.58,412.11,166.45,509.92s-25.95,12.37-38.6-17.12S141.61,452,141.61,452l129.91-55.69-167.93,72s-26.06,9.92-38.37-18.78S81.09,410,81.09,410L230,346.13,60.5,418.8S35.15,434,22.05,403.49s15.87-41.72,15.87-41.72l181.66-77.88L75.94,345.47s-27.16,15.39-40.71-16.21S51.71,286,51.71,286l151-64.75,59.14-25.36L188,172.1c-3.09-.93-6.2-2.16-9.37-3.31-5.81-2.1-38.13-12.72-35.77-43.54,2.85-37.11,30.38-28.06,35.69-26.69,2,.51,8.39,2.46,12.91,4.22l119.94,42.28s89.07,21.12,112.51,64.12c12.89,23.66,23.91,50,31.22,68.94,10.57,27.36,10.53,57.05-.66,80C445,377.55,427.29,398.08,394.58,412.11Z"/><path class="cls-1" d="M526.79,400.54a84.68,84.68,0,0,1-9.28,4.66L293.39,501.29s-26,12.37-38.6-17.12,13.76-40.81,13.76-40.81l129.91-55.7-167.93,72s-26.07,9.93-38.37-18.77S208,401.35,208,401.35L357,337.5,187.43,410.18S162.08,425.41,149,394.87s15.87-41.72,15.87-41.72l181.66-77.89L202.88,336.85s-27.16,15.38-40.71-16.22,16.48-43.22,16.48-43.22l151-64.75,59.14-25.36-74.27-24.15-9-3c-9.73-3.21-38.13-12.72-35.77-43.54,2.84-37.11,28.92-29.06,36.3-26.82,4.63,1.4,7.66,2.63,12.24,4.27l119.47,39.63s84.5,22.35,110.35,63.73c14.38,23,25.11,45.77,30.65,69.48,5.7,24.36,1.8,64.83-9.9,87.5C559.51,372.55,552.09,385.87,526.79,400.54Z"/></svg>