<svg id="Layer_20" data-name="Layer 20" xmlns="http://www.w3.org/2000/svg" viewBox="0 0 600 600"><defs><style>.cls-1{fill:#003764;}</style></defs><path class="cls-1" d="M300,588.5a6,6,0,0,1-5-2.68c-.41-.62-41.37-62.45-81.78-139.71-54.51-104.22-82.15-185.48-82.15-241.51,0-64.32,16.63-113.95,49.43-147.52C209.63,27.26,251,11.5,300,11.5s90.37,15.76,119.5,45.58c32.8,33.57,49.43,83.2,49.43,147.52,0,56-27.64,137.29-82.15,241.51C346.37,523.37,305.41,585.2,305,585.82A6,6,0,0,1,300,588.5Zm0-499.33a93.12,93.12,0,1,0,93.12,93.12A93.23,93.23,0,0,0,300,89.17Z"/><path class="cls-1" d="M300,17.5c90,0,162.93,54.34,162.93,187.1S300,582.5,300,582.5,137.07,337.35,137.07,204.6,210,17.5,300,17.5m0,263.91a99.12,99.12,0,1,0-99.12-99.12A99.12,99.12,0,0,0,300,281.41M300,5.5c-50.7,0-93.51,16.39-123.79,47.38-16.44,16.82-29.11,37.87-37.67,62.54-8.94,25.76-13.47,55.76-13.47,89.18,0,31.69,8.81,71.79,26.19,119.18C165,361.12,184,403.21,207.9,448.89c40.56,77.54,81.7,139.63,82.11,140.25a12,12,0,0,0,20,0c.41-.62,41.55-62.71,82.11-140.25,23.89-45.68,42.95-87.77,56.64-125.11,17.38-47.39,26.19-87.49,26.19-119.18,0-33.42-4.53-63.42-13.47-89.18-8.56-24.67-21.23-45.72-37.67-62.54C393.51,21.89,350.7,5.5,300,5.5Zm0,263.91a87.12,87.12,0,1,1,87.12-87.12A87.22,87.22,0,0,1,300,269.41Z"/></svg>