<svg id="Layer_22" data-name="Layer 22" xmlns="http://www.w3.org/2000/svg" viewBox="0 0 600 600"><defs><style>.cls-1{fill:#003764;}.cls-2,.cls-3{fill:#fff;}.cls-3{stroke:#003764;stroke-miterlimit:10;stroke-width:15px;}</style></defs><path class="cls-1" d="M121.43,563.6c-28.34,0-50.32-32.05-50.32-59.62V450.39a50.37,50.37,0,0,1,50.32-50.32h6.4a50.38,50.38,0,0,1,50.32,50.32V504c0,27.57-22,59.62-50.32,59.62Z"/><path class="cls-1" d="M127.83,410.07a40.44,40.44,0,0,1,40.32,40.32V504c0,22.17-18.15,49.62-40.32,49.62h-6.4c-22.18,0-40.32-27.45-40.32-49.62V450.39a40.43,40.43,0,0,1,40.32-40.32h6.4m0-20h-6.4a60.39,60.39,0,0,0-60.32,60.32V504c0,15.4,5.8,31.88,15.91,45.21,11.77,15.51,28,24.41,44.41,24.41h6.4c16.45,0,32.64-8.9,44.41-24.41,10.11-13.33,15.91-29.81,15.91-45.21V450.39a60.39,60.39,0,0,0-60.32-60.32Z"/><path class="cls-1" d="M474,563.6c-28.34,0-50.32-32.05-50.32-59.62V450.39A50.38,50.38,0,0,1,474,400.07h6.4a50.37,50.37,0,0,1,50.32,50.32V504c0,27.57-22,59.62-50.32,59.62Z"/><path class="cls-1" d="M480.43,410.07a40.43,40.43,0,0,1,40.32,40.32V504c0,22.17-18.14,49.62-40.32,49.62H474c-22.17,0-40.32-27.45-40.32-49.62V450.39A40.44,40.44,0,0,1,474,410.07h6.4m0-20H474a60.39,60.39,0,0,0-60.32,60.32V504c0,15.4,5.8,31.88,15.91,45.21,11.77,15.51,28,24.41,44.41,24.41h6.4c16.46,0,32.64-8.9,44.41-24.41C535,535.86,540.75,519.38,540.75,504V450.39a60.39,60.39,0,0,0-60.32-60.32Z"/><path class="cls-2" d="M88.29,475.55c-36.12,0-65.51-30-65.51-66.93V315.87c0-40.56,22.93-78,58.58-95.85V174.28C81.36,95.5,143.89,31.4,220.75,31.4h158.5c76.86,0,139.39,64.1,139.39,142.88V220c35.65,17.88,58.58,55.29,58.58,95.85v92.75c0,36.9-29.39,66.93-65.51,66.93Z"/><path class="cls-1" d="M379.26,46.4c68.41,0,124.38,57.55,124.38,127.88v47.53a12.07,12.07,0,0,0,6.82,10.91c30.49,14.6,51.76,46.44,51.76,83.15v92.75c0,28.68-22.61,51.93-50.51,51.93H88.29c-27.9,0-50.51-23.25-50.51-51.93V315.87c0-36.71,21.27-68.55,51.76-83.15a12.07,12.07,0,0,0,6.82-10.91V174.28c0-70.33,56-127.88,124.38-127.88H379.26m0-30H220.74A149.77,149.77,0,0,0,160.44,29a154.35,154.35,0,0,0-49,34.05,159.32,159.32,0,0,0-45,111.23v36.9A121.17,121.17,0,0,0,26.9,249.92a122.8,122.8,0,0,0-19.12,66v92.75c0,45.18,36.12,81.93,80.51,81.93H511.71c44.39,0,80.51-36.75,80.51-81.93V315.87a122.8,122.8,0,0,0-19.12-66,121.17,121.17,0,0,0-39.46-38.74v-36.9a159.32,159.32,0,0,0-45-111.23,154.35,154.35,0,0,0-49.05-34,149.77,149.77,0,0,0-60.3-12.6Z"/><path class="cls-2" d="M144.66,227a7.89,7.89,0,0,1-7.88-7.88V162.94a81.6,81.6,0,0,1,81.51-81.51H381.71a81.6,81.6,0,0,1,81.51,81.51v56.22a7.89,7.89,0,0,1-7.88,7.88Z"/><path class="cls-1" d="M381.71,88.93a74.09,74.09,0,0,1,74,74v56.22a.38.38,0,0,1-.38.38H144.66a.38.38,0,0,1-.38-.38V162.94a74.09,74.09,0,0,1,74-74H381.71m0-15H218.29a89,89,0,0,0-89,89v56.22a15.38,15.38,0,0,0,15.38,15.38H455.34a15.38,15.38,0,0,0,15.38-15.38V162.94a89,89,0,0,0-89-89Z"/><ellipse class="cls-3" cx="115.7" cy="381.39" rx="40.17" ry="41.3"/><ellipse class="cls-3" cx="486.16" cy="381.39" rx="40.17" ry="41.3"/></svg>