<svg id="Layer_23" data-name="Layer 23" xmlns="http://www.w3.org/2000/svg" viewBox="0 0 600 600"><defs><style>.cls-1,.cls-4{fill:#e4032e;}.cls-1,.cls-2,.cls-3,.cls-4,.cls-5{stroke:#000;stroke-linecap:round;stroke-linejoin:round;}.cls-1{stroke-width:15px;}.cls-2{fill:#f2f2f2;}.cls-2,.cls-3,.cls-4,.cls-5{stroke-width:10px;}.cls-3{fill:none;}.cls-5{fill:#666;}</style></defs><path class="cls-1" d="M319.26,12H282.19C186.9,12,108.94,90,108.94,185.25V567.77a21.81,21.81,0,0,0,21.74,21.75h32.56a21.69,21.69,0,0,0,21.68-21.69V497.21a20.55,20.55,0,0,1,20.48-20.48H396.05a20.55,20.55,0,0,1,20.48,20.48v70.62a21.69,21.69,0,0,0,21.68,21.69h32.56a21.81,21.81,0,0,0,21.74-21.75V185.25C492.51,90,414.55,12,319.26,12Z"/><rect class="cls-2" x="196" y="297.29" width="209.46" height="124.81" rx="14.86"/><path class="cls-3" d="M391.54,422.1H209.91c-7.65,0-13.91-5.84-13.91-13V310.26c0-7.13,6.26-13,13.91-13L300,359.69l91.56-62.4c7.65,0,13.91,5.84,13.91,13v98.87C405.45,416.26,399.19,422.1,391.54,422.1Z"/><path class="cls-4" d="M263,63.47h75.47a98.07,98.07,0,0,1,98.07,98.07v3.91A12.53,12.53,0,0,1,424,178H177.44a12.53,12.53,0,0,1-12.53-12.53v-3.91A98.07,98.07,0,0,1,263,63.47Z"/><path class="cls-5" d="M178.36,215.1H423.09a13.45,13.45,0,0,1,13.45,13.45v14.19a9.23,9.23,0,0,1-9.23,9.23H174.14a9.23,9.23,0,0,1-9.23-9.23V228.55a13.45,13.45,0,0,1,13.45-13.45Z"/></svg>