<svg id="Layer_15" data-name="Layer 15" xmlns="http://www.w3.org/2000/svg" viewBox="0 0 600 600"><defs><style>.cls-1{fill:#575757;stroke:#1a1a1a;stroke-miterlimit:10;stroke-width:15px;}</style></defs><path class="cls-1" d="M573.33,516.66,433.43,376.75a224.51,224.51,0,0,0,37.46-124.5c0-124.58-101-225.58-225.59-225.58S19.72,127.67,19.72,252.25s101,225.59,225.58,225.59a224.62,224.62,0,0,0,140.59-49.18L523.61,566.38a23.91,23.91,0,0,0,33.71,0l16-16A23.89,23.89,0,0,0,573.33,516.66ZM84.79,252.25A160.51,160.51,0,1,1,245.3,412.77,160.51,160.51,0,0,1,84.79,252.25Z"/></svg>