<svg id="Layer_4" data-name="Layer 4" xmlns="http://www.w3.org/2000/svg" viewBox="0 0 600 600"><defs><style>.cls-1,.cls-2{fill:#c69c6d;}.cls-1,.cls-2,.cls-3,.cls-4,.cls-5,.cls-6,.cls-7,.cls-8{stroke:#1a1a1a;stroke-linecap:round;stroke-linejoin:round;}.cls-1,.cls-4,.cls-7{stroke-width:15px;}.cls-2,.cls-3,.cls-5,.cls-6{stroke-width:10px;}.cls-4{fill:#fbb03b;}.cls-5{fill:none;}.cls-6,.cls-7{fill:#e8d49c;}.cls-8{fill:#1a1a1a;stroke-width:9px;}</style></defs><path class="cls-1" d="M316,531.32H94.43v-432a33.92,33.92,0,0,1,9.13-22.92C120.34,58,158.71,22.76,206,22.76s84.9,35.35,101.21,53.68A33.9,33.9,0,0,1,316,99Z"/><rect class="cls-1" x="41.35" y="531.32" width="327.7" height="45.92" rx="5.32"/><ellipse class="cls-2" cx="245.2" cy="188.62" rx="30.77" ry="27.42"/><line class="cls-2" x1="248.28" y1="248.94" x2="248.28" y2="481.97"/><line class="cls-2" x1="163.66" y1="162.58" x2="163.66" y2="481.97"/><path class="cls-3" d="M420.75,479.82c-11.16-7.26-25.8-10.68-38.66-8.43l9.08,38.48Z"/><path class="cls-4" d="M478.41,87.46,372,428.3s75-25.52,80,19.83L558.43,110.66c1-3.26-1.65-9.38-4.49-11.64L538.26,84.85a10.54,10.54,0,0,0-4-1.92l-22.78-5.64a11.23,11.23,0,0,0-4.76-.13l-20.86,4A9.55,9.55,0,0,0,478.41,87.46Z"/><line class="cls-5" x1="504.38" y1="149.18" x2="422.36" y2="411.99"/><path class="cls-6" d="M438.9,463.13l2.34-6a31.69,31.69,0,0,0,8.61-26.05c-1.84-13.67-8-29.57-27.29-20.21-9,4.35-30.74-22.59-44.16,1.45a36.82,36.82,0,0,0-3.52,26.29l1.66,7.21C382.64,472.36,419.64,483.47,438.9,463.13Z"/><polyline class="cls-7" points="370.82 430.98 388.13 512.96 450.77 448.89"/><path class="cls-8" d="M381.1,468.89s26.41-15,39.65,10.93L393.89,509Z"/></svg>