<svg id="Layer_8" data-name="Layer 8" xmlns="http://www.w3.org/2000/svg" viewBox="0 0 600 600"><defs><style>.cls-1{fill:#ccc;stroke:#000;stroke-miterlimit:10;}.cls-1,.cls-4{stroke-width:15px;}.cls-2{fill:#8cc63f;}.cls-2,.cls-3,.cls-4{stroke:#1a1a1a;stroke-linecap:round;stroke-linejoin:round;}.cls-2,.cls-3{stroke-width:10px;}.cls-3{fill:none;}.cls-4{fill:#fff;}</style></defs><rect class="cls-1" x="61.45" y="533.45" width="468.08" height="52.92" rx="10.97"/><path class="cls-1" d="M353.41,27.39H238.84a46.51,46.51,0,0,0-37.49,18.7l-32.5,44.18A43.45,43.45,0,0,0,160.36,116v373.8H430.63V115.92a43.33,43.33,0,0,0-8-25.06L391.37,46.74A46.45,46.45,0,0,0,353.41,27.39Z"/><rect class="cls-1" x="125.28" y="488.63" width="340.42" height="43.12" rx="8.67"/><path class="cls-2" d="M315.8,18C329.37,14.6,374,5.71,389.22,30.49a20.78,20.78,0,0,0,5.84,6.12,60.77,60.77,0,0,0,16.08,7.55c11.58,3.77,16.5,14.3,18.44,20.46a16,16,0,0,1,.47,7c-.42,3,.2,8.58,7.66,15.14,9.05,7.94,3.47,23,1,28.52a18.93,18.93,0,0,1-2.92,4.57c-3.83,4.44-13.05,12.55-24.65,5.14-9.63-6.15-18.71-18.3-24.16-26.52a25.81,25.81,0,0,0-15-10.26C361.26,85.31,346.34,78,353.8,60.55c9.42-22.07-19.8-24-29.29-24.08a33.23,33.23,0,0,1-7.46-.88c-7.68-1.81-21.27-6.31-10.05-13.86A27.9,27.9,0,0,1,315.8,18Z"/><path class="cls-2" d="M149.18,308.9c.73-5.74,5.26-10.89,12.09-13.1,7.48-2.42,16.48-1.19,19.56,16.23,5.59,31.68,19.58,52.44,19.58,52.44L208.8,394s0,12-15.39,28.4c-11.95,12.74-2.79,22.83,1.88,26.7a24.47,24.47,0,0,0,3.09,2.12c3,1.76,12.43,9.2-10.29,22.89a32.67,32.67,0,0,1-14.47,4.52l-6.17.44c-10.09.71-19-6.28-20.33-16C143.68,437.61,139.56,384.63,149.18,308.9Z"/><polyline class="cls-3" points="430.58 204.78 398.77 235.16 372.27 249.73 361.01 255.92 321.86 275.58 284.1 286.51 272.91 302.89"/><polyline class="cls-3" points="379.19 247.18 380.59 274.49 368.01 307.26 363.81 328.02"/><rect class="cls-4" x="268.74" y="258.57" width="269.81" height="77.36" rx="15.01"/><rect class="cls-4" x="275.47" y="258.82" width="256.35" height="81.42" rx="15.01" transform="translate(703.18 -104.12) rotate(90)"/></svg>