<svg id="레이어_10" data-name="레이어 10" xmlns="http://www.w3.org/2000/svg" viewBox="0 0 600 600"><defs><style>.cls-1,.cls-4{stroke:#fcc800;}.cls-1{stroke-miterlimit:10;}.cls-1,.cls-2,.cls-3,.cls-4,.cls-5{stroke-width:15px;}.cls-2{fill:#fff;}.cls-2,.cls-3,.cls-5{stroke:#1a1a1a;}.cls-2,.cls-3,.cls-4,.cls-5{stroke-linecap:round;stroke-linejoin:round;}.cls-3{fill:#e6e6e6;}.cls-4{fill:none;}.cls-5{fill:#f2f2f2;}</style></defs><line class="cls-1" x1="541.79" y1="233.87" x2="477.65" y2="233.87"/><path class="cls-2" d="M548.46,256.58,292,223.7,41.91,256.58c-13.1,0-23.73,8.47-23.73,18.93v26.76c0,10.46,10.63,18.93,23.73,18.93H548.46c13.11,0,23.73-8.47,23.73-18.93V275.51C572.19,265.05,561.57,256.58,548.46,256.58Z"/><path class="cls-3" d="M76.1,30.62H433.36a5,5,0,0,1,5,5V479a0,0,0,0,1,0,0H71.1a0,0,0,0,1,0,0V35.62a5,5,0,0,1,5-5Z"/><path class="cls-3" d="M119.67,66.19H478.49a5,5,0,0,1,5,5V514.6a0,0,0,0,1,0,0H114.67a0,0,0,0,1,0,0V71.19A5,5,0,0,1,119.67,66.19Z"/><path class="cls-3" d="M163.24,100.31h352.6a5,5,0,0,1,5,5V533.84a0,0,0,0,1,0,0H158.24a0,0,0,0,1,0,0V105.31A5,5,0,0,1,163.24,100.31Z"/><path class="cls-4" d="M514.4,210.13H349.25s-35.42,1.72-36.27-23.22,29.61-24.16,29.61-24.16H546.87s35-.77,35,37.06-40.75,34.06-40.75,34.06"/><polygon class="cls-5" points="572.19 569.38 18.18 569.38 18.18 299.23 295.19 327.67 572.19 299.23 572.19 569.38"/></svg>