<svg id="Layer_14" data-name="Layer 14" xmlns="http://www.w3.org/2000/svg" viewBox="0 0 600 600"><defs><style>.cls-1{fill:gray;}.cls-1,.cls-2,.cls-3,.cls-4{stroke:#1a1a1a;stroke-linecap:round;stroke-linejoin:round;}.cls-1,.cls-2,.cls-3{stroke-width:15px;}.cls-2{fill:#ccc;}.cls-3{fill:#8cc63f;}.cls-4{fill:none;stroke-width:10px;}</style></defs><path class="cls-1" d="M89.53,49.21h102.1a45.43,45.43,0,0,1,45.43,45.43V478.72a0,0,0,0,1,0,0H44.1a0,0,0,0,1,0,0V94.64A45.43,45.43,0,0,1,89.53,49.21Z"/><path class="cls-2" d="M133.34,49.21h102.1a45.43,45.43,0,0,1,45.43,45.43V478.72a0,0,0,0,1,0,0h-193a0,0,0,0,1,0,0V94.64a45.43,45.43,0,0,1,45.43-45.43Z"/><path class="cls-3" d="M542.79,459.27c0-90.35-97.8-163.59-218.45-163.59S105.89,368.92,105.89,459.27,542.79,549.62,542.79,459.27Z"/><rect class="cls-2" x="16.23" y="465.75" width="567.54" height="85.04" rx="10.27"/><line class="cls-4" x1="215.89" y1="139.22" x2="215.89" y2="245.31"/><line class="cls-4" x1="163.95" y1="139.22" x2="163.95" y2="289"/></svg>