<svg id="Layer_17" data-name="Layer 17" xmlns="http://www.w3.org/2000/svg" viewBox="0 0 600 600"><defs><style>.cls-1{fill:#e4032e;stroke:#000;stroke-miterlimit:10;stroke-width:15px;}</style></defs><path class="cls-1" d="M220,421.47V381.64q0-37.87,8.49-62.05t35.92-40.49Q286,266,303,255.59A205.82,205.82,0,0,0,330.41,236q15.68-14.35,20.9-26.45t5.22-29.07q0-22.84-15.67-35.92T303,131.5q-22.86,0-40.82,10.78a51.71,51.71,0,0,0-23.83,31q-7.2,23.5-26.13,35.92t-46.37,10.45a66.92,66.92,0,0,1-21.55-4.9,51.1,51.1,0,0,1-18-12.08,59,59,0,0,1-12.08-19.27Q109.67,172,110.32,157a110.38,110.38,0,0,1,16.33-55.84A153.84,153.84,0,0,1,168.44,56.4q26.12-18.93,60.74-29.72A247.06,247.06,0,0,1,303,15.91q40.49,0,74.78,10.12t59.1,30.37q24.81,20.25,38.86,51.27t14,72.81q0,33.32-7.83,57.48A133.55,133.55,0,0,1,456.46,283a270.73,270.73,0,0,1-36.9,34q-21.9,17-46.05,32.65-13.71,9.17-17.63,19.27A64,64,0,0,0,352,392.09v29.38Zm-3.92,96.66q0-30.69,18.29-48.33T286,452.17q33.3,0,51.59,18t18.29,48q0,30-18.29,48t-51.59,18q-33.31,0-51.59-17.63T216.12,518.13Z"/></svg>