<svg id="레이어_9" data-name="레이어 9" xmlns="http://www.w3.org/2000/svg" viewBox="0 0 600 600"><defs><style>.cls-1{fill:#003764;}.cls-1,.cls-2,.cls-3,.cls-4{stroke:#1a1a1a;stroke-miterlimit:10;stroke-width:15px;}.cls-2{fill:#fcc800;}.cls-3{fill:#e4032e;}.cls-4{fill:#ccc;}</style></defs><path class="cls-1" d="M320.36,465.9c0-84.92-49.79-153.76-111.2-153.76S98,381,98,465.9,320.36,550.82,320.36,465.9Z"/><circle class="cls-2" cx="209.16" cy="255.13" r="80.29"/><path class="cls-3" d="M511.84,505.89c0-84.92-49.79-153.76-111.21-153.76S289.43,421,289.43,505.89,511.84,590.81,511.84,505.89Z"/><circle class="cls-2" cx="400.63" cy="295.12" r="80.29"/><path class="cls-4" d="M532.13,187.18l-186.95-78.1a122.61,122.61,0,0,0-94.51,0L64.89,186.7a42.08,42.08,0,0,1-35.62-1.17c-12.66-6.61-16.2-19-13.45-29.47,3.45-13.2,16.63-24.64,31.79-31.22L251.17,39.79a121.37,121.37,0,0,1,93.51,0L543.5,122.86c26.61,12.19,41.56,25.36,41.56,39.59,0,11.51-4,21.65-19.1,26.48A49,49,0,0,1,532.13,187.18Z"/></svg>