<svg id="Layer_6" data-name="Layer 6" xmlns="http://www.w3.org/2000/svg" viewBox="0 0 600 600"><defs><style>.cls-1{fill:#ccc;stroke-miterlimit:10;}.cls-1,.cls-2,.cls-3{stroke:#1a1a1a;}.cls-1,.cls-2{stroke-width:15px;}.cls-2,.cls-3{fill:#fff;}.cls-2,.cls-3,.cls-4{stroke-linecap:round;stroke-linejoin:round;}.cls-3,.cls-4{stroke-width:10px;}.cls-4{fill:none;stroke:#003764;}</style></defs><rect class="cls-1" x="18.13" y="530.95" width="446.79" height="46.02" rx="9.95"/><path class="cls-1" d="M314.15,23H182.83c-10.75,0-20.71,4.66-26.24,12.27L113.86,94.15a22.08,22.08,0,0,0-4.36,13v395H386V100.53L340.65,35.66C335.18,27.84,325.08,23,314.15,23Z"/><rect class="cls-1" x="73.62" y="497.45" width="348.25" height="32.54" rx="7.87"/><path class="cls-2" d="M548.94,484.86l-250.4,26.23L292.77,499C238.83,385.72,222.57,255.67,247,133l5.46-27.4L502.88,79.41l-5.46,27.4c-24.44,122.63-8.18,252.68,45.76,366Z"/><path class="cls-2" d="M504.89,132.63,272.38,154.24l-8-59.31,235.75-19c13.17-1,25,10.91,26.31,26.5h0C527.77,118,518.06,131.61,504.89,132.63Z"/><path class="cls-3" d="M284.25,124.71c1.85,17.07-5.4,31.6-12.86,32.17s-22.74-15.17-24.17-32.28S253.91,93,261.37,92.44,281.6,100.33,284.25,124.71Z"/><path class="cls-2" d="M559.59,490.61,307.7,518.81,301.28,460l251.88-28.21c13.91-1.51,26.74,10.49,28.5,26.67h0C583.43,474.61,573.49,489.09,559.59,490.61Z"/><path class="cls-3" d="M318.22,488.12c2.35,21.58-10.8,30.29-12.83,30.51-8.48.92-21.39-13.4-23.21-30.17s8.13-29.62,16.61-30.55S316.4,471.35,318.22,488.12Z"/><line class="cls-4" x1="335.17" y1="202.95" x2="448.33" y2="190.03"/><line class="cls-4" x1="297.78" y1="265.27" x2="442.38" y2="248.15"/><line class="cls-4" x1="303.04" y1="326.48" x2="446.11" y2="307.95"/><line class="cls-4" x1="320.44" y1="391.2" x2="463.15" y2="370.96"/></svg>