<svg id="Layer_25" data-name="Layer 25" xmlns="http://www.w3.org/2000/svg" viewBox="0 0 600 600"><defs><style>.cls-1,.cls-2,.cls-3{fill:#fff;}.cls-2,.cls-3,.cls-4,.cls-5,.cls-6{stroke:#000;stroke-width:15px;}.cls-2,.cls-6{stroke-miterlimit:10;}.cls-3,.cls-4,.cls-5{stroke-linecap:round;stroke-linejoin:round;}.cls-4,.cls-6{fill:#003764;}.cls-5{fill:#1a1a1a;}</style></defs><rect class="cls-1" x="91.66" y="260.23" width="299.81" height="175.64" rx="43.1" transform="translate(-0.75 0.52) rotate(-0.12)"/><path class="cls-2" d="M245.26,504.1s57.15,46.86,139.83-3.66l-117.64-78.8-49.12,48.58Z"/><path class="cls-2" d="M39.25,427.35s-3.24,53.71,36,76l111.9,14.3c5.6,1.11,51.48,7.72,60.31-46l8.87-39.17Z"/><path class="cls-3" d="M172.05,274.92s-61.65,28.18-63.65,55c-2.18,29.09,23.12,79-2,102.86C81,456.83,57.37,444.1,48.22,439,42,435.55,24.27,398.22,19.66,335.58s68.87-130.95,128.7-151.22C252.69,149,303.72,181,338.57,200.17,370.68,217.81,428,259.27,461.08,290c38.14,35.4,30.4,30.27,43.34,40.18L486.78,449.51c-42.38,62.67-90.11,62.1-90.11,62.1-61.14,6.09-87.66-20.21-96.31-37.85a22.08,22.08,0,0,0-19.82-12.31c-24.64-.06-71.63,1-84.6-.13-21.26-1.82-47-14.66-47.1-54.71-.1-45.5,56.41-44.5,56.41-44.5l117.44-4.73s21.81-1.16,22.87-28"/><path class="cls-3" d="M367,127.85a35.13,35.13,0,0,0-16.42-46.76L312.27,62.72a35.14,35.14,0,0,0-46.76,16.42L257.6,95.61c34.73,14.31,69.26,29.78,102,47.5Z"/><path class="cls-4" d="M257.6,95.61l-171,356.22c12-5.07,25-6.78,34.3-2.16,14.49,6.21,15.53,26.91,38.29,30,10.24.85,20.47,10.83,28.38,21.85L359.64,143.11C326.86,125.39,292.33,109.92,257.6,95.61Z"/><path class="cls-5" d="M117.78,533.51c-8.87-3-17.4-1.18-24.82,3.2l2.4,26.84,30.52-20.27C124.67,538.59,122.32,534.64,117.78,533.51Z"/><path class="cls-3" d="M187.55,501.54c-7.91-11-18.14-21-28.38-21.85-22.76-3.11-23.8-23.81-38.29-30-9.25-4.62-22.3-2.91-34.3,2.16l-1,2.15L93,536.71c7.42-4.38,16-6.16,24.82-3.2,4.54,1.13,6.89,5.08,8.1,9.77L187,502.69Z"/><path class="cls-3" d="M344.44,328.81c-1.06,26.85-22.87,28-22.87,28l-117.44,4.72s-56.51-1-56.41,44.5c.08,40.05,25.84,52.9,47.1,54.72,13,1.11,60,.06,84.6.12a22.1,22.1,0,0,1,19.82,12.31c8.65,17.65,35.17,43.95,96.31,37.85,0,0,47.73.57,90.11-62.1L503.3,329.59c-12.94-9.92-5.2-4.79-43.34-40.18-33.07-30.7-90.77-71.41-122.88-89.05"/><path class="cls-6" d="M471.35,272l-9.66,246.6A12.94,12.94,0,0,0,473,532L562.38,543a12.93,12.93,0,0,0,14.52-12.45l7.52-258.74a12.93,12.93,0,0,0-13.07-13.31l-87.24,1.06A12.92,12.92,0,0,0,471.35,272Z"/></svg>