<svg xmlns="http://www.w3.org/2000/svg" viewBox="0 0 117.01 119.21"><defs><style>.cls-1{fill:#1f54a1;}.cls-2{fill:#f6d511;}</style></defs><g id="레이어_2" data-name="레이어 2"><g id="Layer_1" data-name="Layer 1"><path class="cls-1" d="M82.36,41.12h-.14a6.94,6.94,0,0,1-5.58-2.19,7,7,0,0,1-1.44-5.31,1.59,1.59,0,0,1,3.15.47,3.88,3.88,0,0,0,.71,2.78,4,4,0,0,0,3.16,1.07h.14a1.59,1.59,0,0,1,0,3.18Z"/><path class="cls-1" d="M59,119.21c-5.64,0-10.26-1.78-13.72-5.29-6.64-6.71-6.58-17.31-6.58-17.76V81.69a3.37,3.37,0,0,0-.79-2.28,3.51,3.51,0,0,0-2.62-.87c-5.17,0-14.57.52-14.67.52h-.13C20.31,79.06,0,78.26,0,58c0-6.13,1.82-11,5.42-14.51,5.87-5.71,14.3-5.54,14.66-5.53,5.62,0,14.88,0,15.64,0h.17l2.35,0-.3-14.68.16-5.76a18.31,18.31,0,0,1,5-12C46.72,1.84,51.9,0,58.5,0,74.2,0,77.58,11.84,78.31,16.93a1.59,1.59,0,1,1-3.15.45c-.76-5.3-3.93-14.2-16.66-14.2-5.7,0-10.11,1.52-13.08,4.5a15.33,15.33,0,0,0-4.14,9.85l-.16,5.73.3,14.54c3.85-.25,13.54-.16,17.28,6.78q.57-2.88,1.43-6C65.39,19.7,68.84,17.4,71.56,17.65c4.93.45,6.54,12.7,7,18a1.59,1.59,0,1,1-3.16.28c-.73-8.2-2.86-15-4.14-15.06h0c-.1,0-2.94.21-8.06,18.61a60.46,60.46,0,0,0-2.4,14.38c.1,1.36.13,2.73.13,4.06A19.66,19.66,0,0,0,65.21,69a18.76,18.76,0,0,0,11,5.95c-.14-5.75,0-25.22,7.64-33.31A11.14,11.14,0,0,1,92.2,38l4.24,0c.34,0,9.14-.18,15.17,5.69,3.58,3.48,5.4,8.31,5.4,14.35,0,20.32-20.36,20.56-20.56,20.56H83.35a26.72,26.72,0,0,1-3.85,0c.07,4.48.19,14.57.09,17.4C79.59,96.15,79.36,119.21,59,119.21ZM35.32,75.36a6.08,6.08,0,0,1,6.59,6.42v14.4c0,.12,0,9.77,5.66,15.52C50.43,114.57,54.28,116,59,116c17.14,0,17.38-19.29,17.38-20.11.1-2.86,0-13.52-.09-17.69A22.09,22.09,0,0,1,62.8,71.09a19,19,0,0,1-2.47-3.69c-.11.9-.2,1.52-.24,1.78,0,.8-.26,4.83-2.81,7.17A6.61,6.61,0,0,1,52.05,78c-3.28-.28-6.26-4.36-9.11-12.5a84.8,84.8,0,0,1-4.61-24.4l-2.44,0c-1.49.07-9.32.06-15.86,0-.12,0-7.52-.12-12.41,4.65-2.95,2.87-4.44,7-4.44,12.21,0,16.82,16.06,17.85,17.37,17.9C21.51,75.83,30.25,75.36,35.32,75.36Zm44.11,0a24.35,24.35,0,0,0,3.67,0H96.45c.7,0,17.38-.26,17.38-17.38,0-5.14-1.49-9.19-4.42-12.06-5-4.93-12.83-4.8-12.92-4.8l-4.28,0a8,8,0,0,0-6,2.69C79.21,51.19,79.3,70.59,79.43,75.37ZM41.51,41A81.48,81.48,0,0,0,46,64.46C48.57,72,51,74.73,52.31,74.84A3.49,3.49,0,0,0,55.12,74c1.46-1.33,1.79-4,1.79-5l0-.24a81.2,81.2,0,0,0,.82-10.94A37.51,37.51,0,0,1,57.62,54a27.26,27.26,0,0,0-1.15-6.58C54.25,40.77,44.89,40.77,41.51,41Z"/><path class="cls-2" d="M33,52a3.28,3.28,0,1,1,3.28-3.28A3.29,3.29,0,0,1,33,52Zm0-4.75a1.47,1.47,0,1,0,1.46,1.47A1.47,1.47,0,0,0,33,47.29Z"/><path class="cls-2" d="M95.66,52a3.28,3.28,0,1,1,3.28-3.28A3.29,3.29,0,0,1,95.66,52Zm0-4.75a1.47,1.47,0,1,0,1.46,1.47A1.47,1.47,0,0,0,95.66,47.29Z"/></g></g></svg>