<svg xmlns="http://www.w3.org/2000/svg" viewBox="0 0 117.49 118.66"><defs><style>.cls-1{fill:#f9d500;}.cls-2{fill:#1f54a1;}</style></defs><g id="레이어_2" data-name="레이어 2"><g id="Layer_1" data-name="Layer 1"><path class="cls-1" d="M81.86,42.16h-.12a6.83,6.83,0,0,1-5.14-2.39,7.47,7.47,0,0,1-1.4-5.45,1.83,1.83,0,0,1,3.63.54,3.81,3.81,0,0,0,.63,2.62,3.39,3.39,0,0,0,2.51,1,1.83,1.83,0,0,1-.11,3.66Z"/><path class="cls-1" d="M59.27,118.66c-6.1,0-11-1.84-14.58-5.46-6-6.1-6-15-6-15.38V83h0A3.22,3.22,0,0,0,38,80.94a3.28,3.28,0,0,0-2.42-.79c-5.16,0-14.56.53-14.65.53h-.16C20.54,80.68,0,79.86,0,59.06c0-6.33,1.88-11.36,5.57-15,5.95-5.78,14.4-5.6,14.76-5.59,5.59,0,14.82,0,15.61,0l.13,0h.07l2.1,0-.3-14.68L38.1,18A18.94,18.94,0,0,1,43.28,5.54C46.92,1.86,52.12,0,58.75,0c15.88,0,19.3,12.15,20,17.37a1.83,1.83,0,0,1-3.63.51c-.75-5.31-3.87-14.22-16.41-14.22-5.6,0-9.91,1.49-12.84,4.43A15.41,15.41,0,0,0,41.76,18l-.15,5.83.29,14.52c3.94-.22,13,0,16.93,6.44.36-1.76.79-3.58,1.31-5.47,5.29-19.26,8.73-21.67,11.67-21.41,4.94.45,6.65,11.73,7.24,18.42a1.83,1.83,0,0,1-3.65.32c-.65-7.34-2.53-14.53-4-15.1,0,0-2.85.83-7.77,18.74a62.12,62.12,0,0,0-2.39,14.53c.1,1.38.14,2.78.13,4.14a19.79,19.79,0,0,0,4.33,11.29A18.37,18.37,0,0,0,76.23,76c-.13-6.19.1-25.66,7.77-33.76a11.27,11.27,0,0,1,8.44-3.73l4.24,0c.34,0,9.15-.19,15.26,5.75,3.68,3.58,5.55,8.56,5.55,14.8,0,20.85-20.59,21.09-20.8,21.09H83.61a26.48,26.48,0,0,1-3.62,0c.06,4.66.18,14.61.08,17.44C80.08,97.78,79.84,118.66,59.27,118.66ZM42.4,83.17V97.84c0,.1,0,7.81,4.92,12.81,2.86,2.88,6.88,4.35,12,4.35,16.88,0,17.14-16.72,17.14-17.43.1-2.86,0-13.43-.09-17.77A22.3,22.3,0,0,1,63,72.65a20,20,0,0,1-2.25-3.25c-.07.5-.12.86-.14,1,0,.94-.27,5-2.92,7.46a6.87,6.87,0,0,1-5.39,1.71c-3.39-.29-6.44-4.49-9.32-12.84a86.92,86.92,0,0,1-4.61-24.61l-2.22,0c-1.61.07-9.36.06-15.85,0-.12,0-7.35-.12-12.17,4.58-2.94,2.88-4.44,7-4.44,12.31,0,16.82,15.76,17.9,17.13,18,1-.06,9.72-.53,14.77-.53a6.7,6.7,0,0,1,5.1,2A6.88,6.88,0,0,1,42.4,83.17Zm37.51-6.66a23.06,23.06,0,0,0,3.4,0H96.69c.69,0,17.14-.27,17.14-17.43,0-5.2-1.49-9.29-4.43-12.16-5-4.85-12.59-4.72-12.66-4.73l-4.29,0a7.66,7.66,0,0,0-5.79,2.59C79.79,52,79.78,71.35,79.91,76.51ZM42,42a83.18,83.18,0,0,0,4.42,23.56c2.76,8,5.17,10.3,6.16,10.38a3.21,3.21,0,0,0,2.59-.75c1.41-1.29,1.74-4,1.74-4.92l0-.27A83,83,0,0,0,57.75,59a39.09,39.09,0,0,1-.13-4,27.85,27.85,0,0,0-1.14-6.61C54.35,41.93,45.5,41.81,42,42Z"/><path class="cls-2" d="M33.19,53a3.32,3.32,0,1,1,3.28-3.32A3.31,3.31,0,0,1,33.19,53Zm0-4.81a1.49,1.49,0,1,0,1.45,1.49A1.47,1.47,0,0,0,33.19,48.21Z"/><path class="cls-2" d="M95.9,53a3.32,3.32,0,1,1,3.28-3.32A3.31,3.31,0,0,1,95.9,53Zm0-4.81a1.49,1.49,0,1,0,1.45,1.49A1.47,1.47,0,0,0,95.9,48.21Z"/></g></g></svg>