<svg xmlns="http://www.w3.org/2000/svg" viewBox="0 0 135.65 135.65"><defs><style>.cls-1{fill:#1d54a1;}.cls-2{fill:#ffea13;}</style></defs><g id="레이어_2" data-name="레이어 2"><g id="Layer_1" data-name="Layer 1"><rect class="cls-1" width="135.65" height="135.65" rx="23.55"/><path class="cls-2" d="M92.92,49h-.15a7.68,7.68,0,0,1-6.14-2.41,7.66,7.66,0,0,1-1.57-5.83,1.74,1.74,0,0,1,3.44.52,4.28,4.28,0,0,0,.79,3.06,4.4,4.4,0,0,0,3.48,1.18h.15a1.74,1.74,0,0,1,0,3.48Z"/><path class="cls-2" d="M67.26,131.89c-6.69,0-12.05-2-15.94-5.94-6.45-6.54-6.39-16-6.38-16.41V93.62a3.81,3.81,0,0,0-.88-2.52,3.91,3.91,0,0,0-2.89-.95c-5.69,0-16,.57-16.14.57h-.14c-.23,0-22.57-.89-22.57-23.19,0-6.75,2-12.11,6-16C14.74,45.3,24,45.5,24.4,45.5c6.19,0,16.38,0,17.21,0l.12,0h.07l2.6,0-.33-16.17L44.24,23A20.12,20.12,0,0,1,49.77,9.78c3.95-4,9.64-6,16.91-6,17.25,0,21,13,21.78,18.61a1.74,1.74,0,0,1-3.45.5C84.18,17,80.69,7.24,66.68,7.24c-6.29,0-11.13,1.66-14.41,4.95A16.87,16.87,0,0,0,47.72,23l-.18,6.31.33,16c4.23-.29,14.92-.18,19,7.48q.61-3.19,1.58-6.63c5.78-20.77,9.59-23.29,12.55-23,5.42.49,7.2,14,7.71,19.73a1.74,1.74,0,0,1-3.47.31c-.8-9-3.15-16.45-4.55-16.58h0c-.11,0-3.24.24-8.88,20.49A66.3,66.3,0,0,0,69.19,63c.11,1.5.15,3,.15,4.47A21.56,21.56,0,0,0,74,79.68a20.67,20.67,0,0,0,12.15,6.55c-.15-6.3,0-27.74,8.4-36.65a12.21,12.21,0,0,1,9.16-4l4.66,0c.37,0,10-.2,16.69,6.25C129,55.58,131,60.89,131,67.54c0,22.35-22.38,22.61-22.61,22.61H94a29.11,29.11,0,0,1-4.25,0c.07,4.92.21,16,.1,19.15C89.87,109.51,89.61,131.89,67.26,131.89ZM41.17,86.67a6.67,6.67,0,0,1,7.24,7v15.85c0,.1,0,8.47,5.41,14,3.2,3.24,7.73,4.88,13.44,4.88,18.84,0,19.13-18.35,19.13-19.13.11-3.15,0-14.9-.1-19.47C81.59,89,75.72,87,71.41,82a20.83,20.83,0,0,1-2.73-4.09c-.12,1-.22,1.71-.27,2,0,.88-.28,5.31-3.08,7.88a7.27,7.27,0,0,1-5.76,1.82c-3.6-.3-6.87-4.8-10-13.74A92.84,92.84,0,0,1,44.49,49l-2.7,0C40,49,30.26,49,24.35,49c-.12,0-8.28-.14-13.67,5.12C7.44,57.26,5.8,61.78,5.8,67.54c0,18.51,17.67,19.64,19.12,19.71C26,87.19,35.59,86.67,41.17,86.67Zm48.52,0a26.17,26.17,0,0,0,4,0h14.68c.78,0,19.13-.29,19.13-19.13,0-5.66-1.63-10.12-4.86-13.27C117.12,48.83,108.56,49,108.47,49l-4.71,0a8.76,8.76,0,0,0-6.64,3C89.45,60.06,89.55,81.44,89.69,86.68ZM48,48.84a89.63,89.63,0,0,0,4.88,25.83c2.88,8.24,5.58,11.3,7,11.42a3.84,3.84,0,0,0,3.1-.9c1.61-1.46,2-4.46,2-5.48l0-.27a92.54,92.54,0,0,0,.89-12,42.07,42.07,0,0,1-.13-4.25,30.33,30.33,0,0,0-1.27-7.24C62,48.59,51.68,48.59,48,48.84Z"/><path class="cls-2" d="M38.56,61a3.61,3.61,0,1,1,3.61-3.61A3.61,3.61,0,0,1,38.56,61Zm0-5.22a1.61,1.61,0,1,0,1.61,1.61A1.61,1.61,0,0,0,38.56,55.78Z"/><path class="cls-2" d="M107.55,61a3.61,3.61,0,1,1,3.61-3.61A3.61,3.61,0,0,1,107.55,61Zm0-5.22a1.61,1.61,0,1,0,1.61,1.61A1.61,1.61,0,0,0,107.55,55.78Z"/></g></g></svg>