<svg xmlns="http://www.w3.org/2000/svg" viewBox="0 0 135.65 135.65"><defs><style>.cls-1{fill:#ffec00;}.cls-2{fill:#1d54a1;}</style></defs><g id="레이어_2" data-name="레이어 2"><g id="Layer_1" data-name="Layer 1"><rect class="cls-1" width="135.65" height="135.65" rx="67.82"/><path class="cls-2" d="M93.19,49H93a7.68,7.68,0,0,1-6.14-2.41,7.73,7.73,0,0,1-1.58-5.85l3.46.54L87,41l1.73.26a4.32,4.32,0,0,0,.79,3.06A4.43,4.43,0,0,0,93,45.49h.16Z"/><path class="cls-2" d="M67.52,131.9c-6.69,0-12.06-2-15.94-5.94-6.46-6.55-6.4-16-6.39-16.42V93.63a3.78,3.78,0,0,0-.88-2.52,3.87,3.87,0,0,0-2.88-1c-5.68,0-16,.57-16.14.57h-.14c-.23,0-22.58-.89-22.58-23.21,0-6.74,2-12.11,6-16,6.47-6.29,15.75-6.09,16.14-6.09,6.18,0,16.37,0,17.2,0l.13,0h.06l2.59,0-.33-16.15L44.49,23A20.15,20.15,0,0,1,50,9.77c4-4,9.65-6,16.92-6,17.27,0,21,13,21.79,18.62l-3.46.5C84.43,17,80.94,7.25,66.94,7.25c-6.3,0-11.15,1.68-14.43,5A16.65,16.65,0,0,0,48,23l-.17,6.32.33,16c4.23-.28,14.89-.18,19,7.45q.63-3.16,1.58-6.6c5.79-20.78,9.58-23.3,12.57-23,5.43.5,7.2,14,7.71,19.75l-3.49.31c-.8-9-3.14-16.44-4.54-16.57-.06,0-3.14-.11-8.87,20.48A65.46,65.46,0,0,0,69.47,63c.1,1.5.14,3,.14,4.47a21.61,21.61,0,0,0,4.71,12.25,20.65,20.65,0,0,0,12.13,6.55c-.16-6.32,0-27.74,8.4-36.65a12.22,12.22,0,0,1,9.16-4l4.66,0c.37,0,10.06-.2,16.7,6.26,3.94,3.83,5.94,9.14,5.94,15.78,0,22.37-22.4,22.63-22.62,22.63H94.28a29,29,0,0,1-4.24,0c.07,4.93.21,16,.1,19.14C90.14,109.51,89.88,131.9,67.52,131.9ZM41.43,86.66a6.68,6.68,0,0,1,7.26,7.06v15.85c0,.1,0,8.47,5.4,14,3.2,3.24,7.72,4.88,13.43,4.88,18.84,0,19.12-18.34,19.12-19.12.11-3.15,0-14.88-.1-19.46C81.85,89.05,76,87,71.67,82A21.65,21.65,0,0,1,69,77.9c-.12,1-.22,1.68-.26,2,0,.88-.29,5.31-3.09,7.89a7.27,7.27,0,0,1-5.76,1.82c-3.61-.3-6.89-4.8-10-13.75A93,93,0,0,1,44.74,49l-2.68,0c-1.63.08-10.25.07-17.45,0-.12,0-8.27-.14-13.66,5.12-3.23,3.15-4.88,7.67-4.88,13.42,0,18.51,17.67,19.64,19.11,19.7C26.24,87.18,35.85,86.66,41.43,86.66Zm48.54,0a27.57,27.57,0,0,0,4,0h14.69c.77,0,19.12-.29,19.12-19.13,0-5.66-1.64-10.13-4.88-13.28-5.59-5.43-14.12-5.26-14.2-5.26L104,49a8.75,8.75,0,0,0-6.63,3C89.73,60.06,89.82,81.41,90,86.67ZM48.24,48.85a89.56,89.56,0,0,0,4.88,25.82C56,82.9,58.7,86,60.13,86.08a3.83,3.83,0,0,0,3.09-.9c1.6-1.46,2-4.45,2-5.47l0-.27a89.55,89.55,0,0,0,.9-12A39.27,39.27,0,0,1,66,63.15a29.84,29.84,0,0,0-1.27-7.24C62.26,48.6,52,48.6,48.24,48.85Z"/><path class="cls-2" d="M38.82,61a3.61,3.61,0,1,1,3.61-3.61A3.61,3.61,0,0,1,38.82,61Zm0-5.22a1.61,1.61,0,1,0,1.61,1.61A1.61,1.61,0,0,0,38.82,55.78Z"/><path class="cls-2" d="M107.81,61a3.61,3.61,0,1,1,3.61-3.61A3.61,3.61,0,0,1,107.81,61Zm0-5.22a1.61,1.61,0,1,0,1.61,1.61A1.61,1.61,0,0,0,107.81,55.78Z"/></g></g></svg>