<svg xmlns="http://www.w3.org/2000/svg" viewBox="0 0 980.44 773.38"><defs><style>.cls-1{fill:#f9c25f;}.cls-2{fill:#f7b52c;}.cls-3{fill:#ffe8a0;}.cls-4{fill:#fbd37e;}</style></defs><g id="레이어_2" data-name="레이어 2"><g id="전체그림"><path class="cls-1" d="M343.93,127l0-.88c0-1,.08-2,.14-3,0-.26,0-.51,0-.77.07-1.09.15-2.18.24-3.26,0-.12,0-.24,0-.36a129.49,129.49,0,0,1,7.75-33.88c.09-.25.19-.51.29-.76q.45-1.2.93-2.37c.19-.48.39-1,.58-1.43s.4-.93.61-1.4q1.89-4.4,4.1-8.65a119.36,119.36,0,0,0-222.16,54.49c-.12,2.54-.33,6.63-.58,12H343.87v-6.09C343.87,129.47,343.9,128.23,343.93,127Z"/><path class="cls-1" d="M130.71,398.24h-1.25c.16,77.1,2.89,134.74,8.12,171.4,8.26,57.79,44.58,158,195.08,179.45,58.51,8.36,133.9,13,212.27,13s153.75-4.6,212.27-13a119.36,119.36,0,0,0,49-217.69A255.77,255.77,0,0,1,622.77,635.51l-.8.07c-1.56.14-3.13.26-4.71.37-1.08.08-2.17.15-3.25.21l-2.18.11c-1.7.08-3.41.15-5.13.2l-1.23,0c-1.94,0-3.89.07-5.83.07A254.44,254.44,0,0,1,422.9,565.5q-2.22-2.12-4.36-4.27c-.47-.47-.92-.94-1.38-1.42-1-1-1.92-1.95-2.86-2.94-.54-.56-1.07-1.14-1.6-1.71-.85-.91-1.7-1.81-2.53-2.73l-1.65-1.85c-.79-.89-1.59-1.78-2.37-2.68-.56-.65-1.1-1.3-1.65-1.95-.75-.89-1.51-1.77-2.25-2.66-.55-.67-1.09-1.35-1.63-2l-2.15-2.67c-.54-.69-1.07-1.39-1.6-2.08-.69-.9-1.38-1.79-2.06-2.69l-1.57-2.13c-.66-.9-1.33-1.8-2-2.71-.52-.72-1-1.45-1.53-2.17l-1.9-2.75c-.5-.73-1-1.47-1.47-2.2-.61-.93-1.23-1.86-1.83-2.79-.48-.74-1-1.49-1.42-2.24-.6-.94-1.19-1.87-1.77-2.82-.46-.75-.91-1.51-1.36-2.27-.57-.95-1.14-1.9-1.69-2.85-.45-.77-.88-1.54-1.32-2.31-.55-1-1.09-1.92-1.62-2.89-.43-.77-.84-1.55-1.26-2.33-.52-1-1-1.94-1.55-2.92-.41-.79-.81-1.58-1.21-2.37-.5-1-1-2-1.48-2.95-.38-.79-.77-1.59-1.15-2.39-.47-1-.94-2-1.4-3-.37-.8-.74-1.6-1.1-2.41-.45-1-.9-2-1.34-3-.35-.81-.69-1.63-1-2.44l-1.26-3.05c-.33-.82-.66-1.64-1-2.47-.41-1-.8-2.05-1.19-3.08-.32-.82-.63-1.65-.93-2.48-.38-1-.75-2.07-1.11-3.11-.3-.84-.59-1.67-.88-2.51-.35-1-.7-2.09-1-3.13-.27-.85-.55-1.69-.81-2.54-.33-1.05-.65-2.1-1-3.15-.25-.85-.51-1.71-.75-2.56-.31-1.06-.6-2.12-.89-3.18-.24-.86-.48-1.72-.7-2.58-.28-1.06-.55-2.13-.81-3.19-.22-.87-.44-1.74-.65-2.61-.25-1.07-.49-2.14-.73-3.21-.2-.88-.4-1.76-.59-2.64-.23-1.07-.44-2.14-.66-3.22-.17-.89-.35-1.77-.52-2.65-.2-1.08-.39-2.16-.58-3.24-.16-.9-.32-1.79-.47-2.68-.17-1.08-.34-2.17-.5-3.25-.14-.9-.28-1.8-.41-2.7-.15-1.09-.28-2.18-.42-3.27-.12-.9-.24-1.81-.34-2.72-.13-1.09-.24-2.18-.35-3.27-.1-.91-.2-1.83-.28-2.74-.11-1.09-.19-2.19-.28-3.28-.07-.92-.15-1.84-.21-2.77l0-.36Z"/><path class="cls-2" d="M344.52,398.6l0-.36h0Z"/><path class="cls-3" d="M969.1,267.53A119.52,119.52,0,0,0,855.4,148.28V386.77A119.52,119.52,0,0,0,969.1,267.53Z"/><path class="cls-4" d="M724.68,11.34A118.8,118.8,0,0,0,605.36,127l-.06,15.51V398.24H355.85a.28.28,0,0,1,0,.09c.05.75.12,1.49.18,2.24.1,1.26.2,2.52.32,3.77.08.84.18,1.66.26,2.49.13,1.16.24,2.32.38,3.48.1.88.23,1.75.34,2.62.15,1.1.28,2.2.44,3.3.13.9.28,1.8.42,2.7.17,1.06.32,2.12.5,3.17s.33,1.83.5,2.74.36,2.06.56,3.09.38,1.84.57,2.76.41,2,.62,3,.43,1.85.65,2.78.44,2,.68,2.94.47,1.85.71,2.78.49,1.93.75,2.89.52,1.85.78,2.77.53,1.9.81,2.84.56,1.84.85,2.76.57,1.87.87,2.79.61,1.83.91,2.75l.93,2.75c.32.91.65,1.81,1,2.72l1,2.72c.34.9.7,1.8,1.05,2.7s.69,1.78,1,2.67.73,1.78,1.11,2.68l1.1,2.63c.38.88.78,1.77,1.17,2.65s.77,1.73,1.17,2.59.82,1.75,1.23,2.62.81,1.71,1.22,2.55.86,1.74,1.29,2.6.85,1.68,1.28,2.51.9,1.71,1.35,2.57.88,1.65,1.33,2.47.94,1.69,1.42,2.53.91,1.62,1.38,2.43,1,1.67,1.47,2.5.95,1.6,1.44,2.39,1,1.64,1.52,2.46l1.49,2.36,1.59,2.42c.51.77,1,1.55,1.54,2.31s1.09,1.6,1.64,2.39,1.05,1.52,1.59,2.27,1.13,1.57,1.7,2.35,1.08,1.49,1.63,2.23l1.75,2.31,1.69,2.19,1.8,2.27L410.6,536l1.85,2.23c.6.7,1.19,1.4,1.79,2.09s1.26,1.46,1.9,2.19l1.83,2,1.95,2.14,1.88,2,2,2.09,1.93,2,2,2,2,1.93c.69.67,1.39,1.33,2.09,2s1.34,1.26,2,1.88,1.41,1.3,2.13,1.95,1.37,1.23,2.06,1.83,1.45,1.27,2.18,1.9l2.11,1.79,2.21,1.84,2.16,1.74c.74.6,1.49,1.2,2.25,1.79l2.2,1.7,2.3,1.73c.74.56,1.48,1.1,2.23,1.65L458,580.2l2.28,1.6c.79.54,1.57,1.09,2.37,1.62s1.55,1,2.33,1.55,1.59,1,2.4,1.57,1.58,1,2.37,1.5l2.43,1.51,2.41,1.45,2.47,1.45,2.45,1.4,2.5,1.39,2.49,1.34,2.54,1.34,2.52,1.28,2.56,1.28,2.58,1.23,2.58,1.22c.87.4,1.74.78,2.62,1.17l2.6,1.16c.88.38,1.77.74,2.66,1.11l2.63,1.1c.89.36,1.79.7,2.69,1s1.77.7,2.66,1,1.82.67,2.73,1,1.78.65,2.67,1l2.79.94c.89.3,1.78.61,2.68.9l2.82.88c.9.28,1.8.57,2.71.84l2.85.82c.91.25,1.81.52,2.72.76s1.94.51,2.91.76,1.81.48,2.72.7l3,.7c.91.21,1.82.43,2.74.63s2,.42,3,.63,1.83.39,2.75.57l3,.56,2.74.5,3.11.49c.9.15,1.81.3,2.72.43s2.11.29,3.17.43l2.7.36c1.08.13,2.17.24,3.26.36l2.65.29c1.13.11,2.27.19,3.41.29.85.07,1.69.15,2.55.21,1.19.09,2.39.15,3.58.22.81.05,1.61.11,2.42.15,1.33.06,2.67.1,4,.14l2,.08c2,.05,4,.07,6.07.07,1.85,0,3.69,0,5.54-.07l1.27,0c1.64,0,3.28-.11,4.91-.19l2.15-.11,2.79-.18c1.76-.12,3.52-.26,5.28-.41l.45,0a245.1,245.1,0,0,0,178-103.73l2.94-4.2a243.09,243.09,0,0,0,41.07-135.38V136.81h0v-6.09A119.51,119.51,0,0,0,724.68,11.34Z"/><path class="cls-4" d="M594,130.72h0A119.36,119.36,0,0,0,366,81.18l-.39.85c-.27.6-.53,1.2-.79,1.81s-.53,1.25-.78,1.88c-.14.34-.29.68-.43,1a120.32,120.32,0,0,0-7.85,32.63v.06c-.11,1.12-.19,2.24-.27,3.36,0,.24,0,.48,0,.72-.06.94-.1,1.88-.14,2.82l0,.85c0,1.18-.06,2.35-.06,3.53v6.09H594Z"/><path class="cls-4" d="M355.75,119.38a120.32,120.32,0,0,1,7.85-32.63A119.07,119.07,0,0,0,355.75,119.38Z"/><path class="cls-4" d="M622,624.2A244.61,244.61,0,0,0,803,516.27l-2.94,4.2A245.1,245.1,0,0,1,622,624.2Z"/><path class="cls-4" d="M355.85,398.24s0,.06,0,.09a.28.28,0,0,0,0-.09Z"/><path class="cls-4" d="M844.06,380.89V136.81h0Z"/><path class="cls-2" d="M352.18,84.88a129.49,129.49,0,0,0-7.75,33.88A130.78,130.78,0,0,1,352.18,84.88Z"/><path class="cls-2" d="M806.23,531.39l0,0A256.4,256.4,0,0,1,622.77,635.51,255.77,255.77,0,0,0,806.23,531.39Z"/><path class="cls-2" d="M855.4,148.28h0v0Z"/><path class="cls-2" d="M365.17,70.19h0a124.31,124.31,0,0,0-13.27,36.33A124.37,124.37,0,0,1,365.17,70.19Z"/><path class="cls-3" d="M594,386.9V148.15H130.56l-.51,0h-1.43a119.37,119.37,0,0,0-5.11,238.5l2.28.11H126l2.23.07,2.47,0H594Z"/><path class="cls-3" d="M130.56,148.15h.15c-.7,0-1.39,0-2.09,0h1.43Z"/><path class="cls-2" d="M124.09,386.71l1.7.08-2.28-.11Z"/><polygon class="cls-2" points="349.84 392.57 344.17 392.57 344.17 392.57 349.84 392.57 349.84 392.57"/><rect class="cls-2" x="349.54" y="142.48" width="5.67"/><polygon class="cls-2" points="349.84 392.57 349.84 392.57 355.52 392.57 355.52 392.57 349.84 392.57"/><rect class="cls-2" x="344.43" y="138.94" width="19.18" height="6.97"/><path class="cls-2" d="M980.44,267.53c0-70.18-55.59-127.61-125-130.59v-6.22A130.76,130.76,0,0,0,599.61,92.53,130.68,130.68,0,0,0,365.19,59.26h0a130.69,130.69,0,0,0-240,64.93c-.14,2.65-.35,7-.62,12.77C55.35,140.17,0,197.5,0,267.53c0,67.82,51.93,123.74,118.12,130.1.15,77.93,2.91,136.33,8.24,173.6,8.7,60.94,46.87,166.53,204.69,189.07,59,8.43,135,13.08,213.88,13.08s154.84-4.65,213.87-13.08c71.35-10.2,121.11-76.54,110.91-147.89a130.2,130.2,0,0,0-57-90.31,254.21,254.21,0,0,0,42.08-124C924.53,395.46,980.44,337.9,980.44,267.53Zm-125,113.36V148.28h0a119.38,119.38,0,0,1,0,238.49ZM364,85.72c.25-.63.51-1.26.78-1.88s.52-1.21.79-1.81l.39-.85a119.36,119.36,0,0,1,228,49.54h0l0,6.09H355.21v-6.09c0-1.18,0-2.35.06-3.53l0-.85c0-.94.08-1.88.14-2.82,0-.24,0-.48,0-.72.08-1.12.16-2.24.27-3.36v-.06a119.07,119.07,0,0,1,7.85-32.63C363.74,86.4,363.89,86.06,364,85.72Zm-227.5,39A119.37,119.37,0,0,1,358.69,70.27c-.94,1.79-1.81,3.61-2.66,5.45l0,0h0c-.39.85-.77,1.7-1.15,2.56l-.27.59h0c-.21.47-.41.93-.61,1.4s-.39,1-.58,1.43q-.48,1.17-.93,2.37c-.1.25-.2.51-.29.76a130.78,130.78,0,0,0-7.75,33.88c0,.12,0,.24,0,.36-.09,1.08-.17,2.17-.24,3.26,0,.26,0,.51,0,.77-.06,1-.1,2-.14,3l0,.88c0,1.24-.06,2.48-.06,3.73v6.09H136C136.2,131.39,136.41,127.3,136.53,124.76ZM126,386.8h-.22l-1.7-.08-.58,0a119.37,119.37,0,0,1,5.11-238.5c.7,0,1.39,0,2.09,0H594V386.9H130.71l-2.47,0ZM858.49,614A119.52,119.52,0,0,1,757.2,749.08c-58.52,8.36-133.9,13-212.27,13s-153.76-4.6-212.27-13c-150.5-21.5-186.82-121.66-195.08-179.45-5.23-36.66-8-94.3-8.12-171.4h215l0,.36c.06.93.14,1.85.21,2.77.09,1.09.17,2.19.28,3.28.08.91.18,1.83.28,2.74.11,1.09.22,2.18.35,3.27.1.91.22,1.82.34,2.72.14,1.09.27,2.18.42,3.27.13.9.27,1.8.41,2.7.16,1.08.33,2.17.5,3.25.15.89.31,1.78.47,2.68.19,1.08.38,2.16.58,3.24.17.88.35,1.76.52,2.65.22,1.08.43,2.15.66,3.22.19.88.39,1.76.59,2.64.24,1.07.48,2.14.73,3.21.21.87.43,1.74.65,2.61.26,1.06.53,2.13.81,3.19.22.86.46,1.72.7,2.58.29,1.06.58,2.12.89,3.18.24.85.5,1.71.75,2.56.32,1.05.64,2.1,1,3.15l.81,2.54c.34,1,.69,2.09,1,3.13.29.84.58,1.67.88,2.51.36,1,.73,2.07,1.11,3.11.3.83.61,1.66.93,2.48.39,1,.78,2.06,1.19,3.08.32.83.65,1.65,1,2.47l1.26,3.05c.35.81.69,1.63,1,2.44.44,1,.89,2,1.34,3,.36.81.73,1.61,1.1,2.41.46,1,.93,2,1.4,3,.38.8.77,1.6,1.15,2.39.49,1,1,2,1.48,2.95.4.79.8,1.58,1.21,2.37.51,1,1,1.95,1.55,2.92.42.78.83,1.56,1.26,2.33.53,1,1.07,1.93,1.62,2.89.44.77.87,1.54,1.32,2.31.55,1,1.12,1.9,1.69,2.85.45.76.9,1.52,1.36,2.27.58,1,1.17,1.88,1.77,2.82.47.75.94,1.5,1.42,2.24.6.93,1.22,1.86,1.83,2.79.49.73,1,1.47,1.47,2.2l1.9,2.75c.51.72,1,1.45,1.53,2.17.65.91,1.31,1.81,2,2.71l1.57,2.13c.68.9,1.37,1.79,2.06,2.69.53.69,1.06,1.39,1.6,2.08l2.15,2.67c.54.67,1.08,1.35,1.63,2,.74.89,1.5,1.77,2.25,2.66.55.65,1.09,1.3,1.65,1.95.78.9,1.58,1.79,2.37,2.68l1.65,1.85c.83.92,1.68,1.82,2.53,2.73.53.57,1.06,1.15,1.6,1.71.94,1,1.9,2,2.86,2.94.46.48.91,1,1.38,1.42q2.15,2.16,4.36,4.27a254.44,254.44,0,0,0,176.74,71.07c1.94,0,3.89,0,5.83-.07l1.23,0c1.72-.05,3.43-.12,5.13-.2l2.18-.11c1.08-.06,2.17-.13,3.25-.21,1.58-.11,3.15-.23,4.71-.37l.8-.07A256.4,256.4,0,0,0,806.2,531.37l0,0A118.94,118.94,0,0,1,858.49,614Zm-14.43-477.2V380.89A244.66,244.66,0,0,1,622,624.2l-.45,0c-1.76.15-3.52.29-5.28.41l-2.79.18-2.15.11c-1.63.08-3.27.15-4.91.19l-1.27,0c-1.85,0-3.69.07-5.54.07-2,0-4.06,0-6.07-.07l-2-.08c-1.34,0-2.68-.08-4-.14-.81,0-1.61-.1-2.42-.15-1.19-.07-2.39-.13-3.58-.22-.86-.06-1.7-.14-2.55-.21-1.14-.1-2.28-.18-3.41-.29l-2.65-.29c-1.09-.12-2.18-.23-3.26-.36l-2.7-.36-3.17-.43c-.91-.13-1.82-.28-2.72-.43l-3.11-.49-2.74-.5-3-.56c-.92-.18-1.83-.38-2.75-.57s-2-.41-3-.63-1.82-.42-2.74-.63l-3-.7c-.91-.22-1.81-.46-2.72-.7s-1.94-.49-2.91-.76-1.81-.51-2.72-.76l-2.85-.82c-.91-.27-1.81-.56-2.71-.84l-2.82-.88c-.9-.29-1.79-.6-2.68-.9l-2.79-.94c-.89-.31-1.78-.64-2.67-1s-1.82-.66-2.73-1-1.78-.68-2.66-1-1.8-.69-2.69-1l-2.63-1.1c-.89-.37-1.78-.73-2.66-1.11l-2.6-1.16c-.88-.39-1.75-.77-2.62-1.17l-2.58-1.22-2.58-1.23-2.56-1.28-2.52-1.28-2.54-1.34L482,595.24l-2.5-1.39-2.45-1.4L474.62,591l-2.41-1.45L469.78,588c-.79-.5-1.59-1-2.37-1.5s-1.61-1-2.4-1.57-1.56-1-2.33-1.55-1.58-1.08-2.37-1.62L458,580.2l-2.34-1.68c-.75-.55-1.49-1.09-2.23-1.65l-2.3-1.73c-.74-.56-1.47-1.13-2.2-1.7s-1.51-1.19-2.25-1.79l-2.16-1.74-2.21-1.84-2.11-1.79c-.73-.63-1.46-1.26-2.18-1.9s-1.38-1.22-2.06-1.83-1.43-1.29-2.13-1.95-1.35-1.25-2-1.88-1.4-1.32-2.09-2l-2-1.93-2-2-1.93-2-2-2.09-1.88-2L418,544.54l-1.83-2c-.64-.73-1.27-1.45-1.9-2.19s-1.19-1.39-1.79-2.09L410.6,536l-1.74-2.14-1.8-2.27-1.69-2.19-1.75-2.31c-.55-.74-1.09-1.48-1.63-2.23s-1.14-1.56-1.7-2.35-1.06-1.51-1.59-2.27-1.1-1.59-1.64-2.39-1-1.54-1.54-2.31l-1.59-2.42-1.49-2.36c-.51-.82-1-1.63-1.52-2.46s-1-1.59-1.44-2.39-1-1.66-1.47-2.5-.92-1.62-1.38-2.43-.95-1.68-1.42-2.53-.89-1.65-1.33-2.47-.91-1.71-1.35-2.57-.85-1.67-1.28-2.51-.87-1.73-1.29-2.6-.82-1.7-1.22-2.55-.83-1.74-1.23-2.62-.78-1.73-1.17-2.59-.79-1.77-1.17-2.65l-1.1-2.63c-.38-.9-.75-1.79-1.11-2.68s-.7-1.78-1-2.67-.71-1.8-1.05-2.7l-1-2.72c-.33-.91-.66-1.81-1-2.72L368,459c-.3-.92-.62-1.83-.91-2.75s-.58-1.86-.87-2.79-.58-1.84-.85-2.76-.54-1.89-.81-2.84-.53-1.84-.78-2.77-.5-1.93-.75-2.89-.48-1.85-.71-2.78-.46-2-.68-2.94-.44-1.85-.65-2.78-.41-2-.62-3-.39-1.84-.57-2.76-.38-2.06-.56-3.09-.34-1.82-.5-2.74-.33-2.11-.5-3.17c-.14-.9-.29-1.8-.42-2.7-.16-1.1-.29-2.2-.44-3.3-.11-.87-.24-1.74-.34-2.62-.14-1.16-.25-2.32-.38-3.48-.08-.83-.18-1.65-.26-2.49-.12-1.25-.22-2.51-.32-3.77-.06-.75-.13-1.49-.18-2.24,0,0,0-.06,0-.09H605.3V142.5l.06-15.51a119.38,119.38,0,0,1,238.7,3.73Z"/><path class="cls-2" d="M356,75.76l0,0c.46-1,.73-1.55.8-1.72C356.76,74.17,356.48,74.75,356,75.76Z"/><polygon class="cls-2" points="354.58 78.92 354.59 78.92 354.59 78.92 354.58 78.92"/></g></g></svg>