<svg xmlns="http://www.w3.org/2000/svg" viewBox="0 0 1000.44 793.38"><defs><style>.cls-1{fill:#f8b62d;}</style></defs><g id="레이어_2" data-name="레이어 2"><g id="전체그림"><path class="cls-1" d="M961.18,180.11a140,140,0,0,0-85.85-42.43,142.12,142.12,0,0,0-39.45-94.27A139.08,139.08,0,0,0,739.13.07c-1.48,0-3-.07-4.45-.07a140,140,0,0,0-98.06,39.8,141.47,141.47,0,0,0-27,36.4,142.48,142.48,0,0,0-40.57-48A140.52,140.52,0,0,0,375.2,52.29,139.68,139.68,0,0,0,272.78.18C270.38.06,268,0,265.55,0h0A140.68,140.68,0,0,0,125.22,133.69c0,1.07-.12,2.4-.2,4a140.73,140.73,0,0,0-6.87,278.73c.33,74,3.12,129.93,8.31,166.23,4.33,30.29,16.27,74.64,48.61,113.88,37.3,45.25,92.67,73.4,164.57,83.67,59.48,8.5,135.94,13.18,215.29,13.18s155.8-4.68,215.28-13.18c76.82-11,130.38-82.4,119.4-159.2a140.18,140.18,0,0,0-53.36-91.51,265.17,265.17,0,0,0,37.79-112,140.64,140.64,0,0,0,87.14-237.4Zm7.92,97.42a109.19,109.19,0,0,1-93.7,108.26V169.26A109.2,109.2,0,0,1,969.1,277.53ZM156.44,136.81c0-.57.06-1.09.08-1.55a109.33,109.33,0,0,1,109-103.92c1.88,0,3.77.05,5.64.14a109.08,109.08,0,0,1,86.05,49.34q-.94,2-1.86,4.14l0,.11-.6,1.39c-.22.52-.42,1-.63,1.54-.34.84-.68,1.69-1,2.55l-.09.22c-.08.2-.15.41-.23.61a140,140,0,0,0-8.34,36.47l0,.28v.12c-.09,1-.17,2.13-.27,3.55v.06l0,.7c-.06,1-.11,2.08-.15,3.21v.29l0,.64v.11ZM382.9,100.43c.07-.17.14-.35.22-.53l.16-.4c.24-.59.48-1.16.73-1.74s.47-1.09.72-1.64c.09-.22.19-.42.28-.63l.08-.16A109.37,109.37,0,0,1,593.9,136.81H375.29v-.11c0-.95.08-1.79.13-2.57l0-.62v-.06c.08-1.13.16-2.14.24-3.07v-.09A109.77,109.77,0,0,1,382.9,100.43Zm421.83,420.2-2.88,4.11a234.45,234.45,0,0,1-170.75,99.5l-.23,0-.37,0c-1.43.14-3,.25-4.93.39-.87.06-1.75.12-2.62.16l-2.07.12c-1.69.08-3.23.13-4.7.18H615c-2.07.05-3.76.07-5.31.07-1.93,0-3.89,0-5.83-.07l-1,0-.91,0-.6,0c-1.08,0-2.17-.07-3.25-.12l-1.35-.08-1-.06-.82,0-2.61-.16-1.49-.12-1-.09-.87-.07-2.4-.21-1.59-.17-1-.1-.85-.1-2.28-.25-1.66-.22-.93-.12-.83-.11-2.22-.3-1.7-.27-.9-.15-.82-.12-2.16-.35-1.76-.32-.87-.16-.8-.15c-.71-.12-1.41-.25-2.12-.39l-1.81-.37-.82-.17-.78-.16-2.08-.44-1.82-.42-.81-.19-.72-.17-2.11-.5-1.82-.47-.79-.2-.7-.18-2.08-.55-1.9-.53-.71-.2-.65-.19c-.7-.19-1.4-.39-2.09-.6l-1.92-.59-.67-.21-.62-.19-2.09-.65-2-.65-.62-.21-.56-.19c-.71-.24-1.41-.47-2.11-.72s-1.33-.48-2-.72l-.56-.2-.55-.2c-.69-.25-1.39-.5-2.07-.76l-2-.77-.57-.22-.48-.19c-.7-.27-1.4-.54-2.09-.83l-2.09-.86-.44-.18-.39-.17-2.15-.9-2.11-.94L514,605l-.35-.15-2.16-1c-.73-.33-1.45-.68-2.17-1l-.31-.14-.25-.12-2.21-1.06-2.22-1.11-.24-.12-.21-.1L501.67,599l-2.29-1.21-.14-.07-.07,0c-.78-.41-1.55-.83-2.32-1.25l-2.37-1.32-2.38-1.35-2.36-1.4L487.42,591c-.78-.47-1.56-1-2.33-1.44l-2.28-1.44-2.3-1.5-2.23-1.49L476,583.58l-2.19-1.53c-.75-.53-1.5-1.07-2.24-1.62s-1.44-1-2.15-1.57l-2.2-1.67-2.11-1.63L463,573.85l-2.06-1.67-2.13-1.77-2-1.72-2.08-1.81c-.66-.59-1.33-1.17-2-1.77s-1.37-1.23-2.05-1.86l-1.93-1.8-2-1.92-1.89-1.85c-.66-.64-1.31-1.3-2-2s-1.24-1.25-1.85-1.88l-1.92-2-1.8-1.93c-.63-.68-1.25-1.36-1.87-2s-1.17-1.31-1.76-2l-1.82-2.1q-.87-1-1.71-2c-.6-.71-1.19-1.42-1.78-2.14l-1.67-2-1.73-2.18c-.54-.69-1.08-1.39-1.61-2.1s-1.13-1.47-1.68-2.21-1.05-1.42-1.57-2.14l-1.63-2.25c-.51-.72-1-1.45-1.52-2.18s-1.06-1.52-1.58-2.29-1-1.47-1.47-2.21-1-1.55-1.53-2.33-.95-1.5-1.42-2.26-1-1.57-1.47-2.36l-1.37-2.29c-.49-.81-1-1.6-1.42-2.4s-.83-1.45-1.23-2.17l-.09-.16-.08-.14c-.43-.76-.86-1.52-1.28-2.29l-1.14-2.11-.13-.26-.1-.18c-.4-.76-.81-1.52-1.2-2.28s-.74-1.44-1.1-2.16l-.12-.24-.15-.29-1.1-2.2c-.33-.69-.66-1.38-1-2.07l-.18-.38-.17-.35-1-2.17c-.31-.67-.61-1.35-.91-2l-.2-.46-.19-.43c-.32-.7-.63-1.41-.94-2.11l-.84-2-.22-.52-.21-.51c-.29-.68-.57-1.37-.85-2.05s-.54-1.36-.8-2l-.2-.52-.22-.56c-.26-.68-.53-1.35-.79-2s-.49-1.34-.73-2l-.22-.59-.22-.61c-.24-.67-.48-1.33-.71-2s-.46-1.34-.68-2l-.22-.64-.22-.66c-.22-.66-.44-1.31-.65-2s-.42-1.34-.63-2l-.21-.67-.23-.74c-.19-.63-.39-1.27-.58-1.91s-.39-1.34-.58-2l-.2-.72-.21-.74c-.18-.64-.36-1.27-.53-1.91s-.36-1.35-.53-2l-.19-.75-.21-.81c-.16-.61-.32-1.23-.47-1.85s-.33-1.38-.49-2.06l-.17-.76-.2-.84-.42-1.83c-.15-.69-.29-1.39-.43-2.08l-.17-.81-.18-.86c-.12-.59-.25-1.19-.36-1.78s-.27-1.44-.4-2.16l-.14-.81-.17-.89c-.1-.58-.21-1.16-.31-1.74s-.23-1.45-.34-2.18l-.14-.86-.14-.93c-.09-.56-.18-1.11-.26-1.66-.11-.77-.21-1.54-.31-2.32l-.11-.85-.13-1c-.07-.51-.14-1-.2-1.55,0-.29-.07-.59-.1-.88H615.3a10,10,0,0,0,10-10V152.5l.06-15.34A108.84,108.84,0,0,1,734.68,31.34c1.19,0,2.34,0,3.53.06,58.36,1.79,105.85,51.33,105.85,110.44V390.89A233.1,233.1,0,0,1,804.73,520.63ZM345.32,418.24l0,.18.06.57c.1.95.19,1.89.3,2.83.08.69.17,1.37.26,2.06l.1.77.07.54c.12.95.24,1.9.37,2.85.1.71.21,1.42.32,2.13l.1.68.07.44c.15,1,.3,1.95.46,2.93.12.73.25,1.46.37,2.19l.11.6.05.3c.18,1,.36,2,.55,3.06.14.74.29,1.48.44,2.22l.11.54,0,.09c.21,1.09.43,2.18.66,3.26l.51,2.3.1.44c.25,1.11.5,2.22.76,3.33.19.8.39,1.6.59,2.4l.08.32c.28,1.11.56,2.21.85,3.31.22.85.45,1.7.68,2.55l0,.14c.31,1.1.61,2.2.93,3.3.25.89.52,1.77.79,2.66.32,1.1.66,2.19,1,3.28l.84,2.63c.36,1.09.72,2.18,1.09,3.26.29.87.6,1.74.9,2.61.38,1.08.77,2.16,1.16,3.23.32.86.64,1.72,1,2.58.4,1.08.81,2.14,1.23,3.21.34.85.68,1.71,1,2.56.43,1.06.86,2.12,1.31,3.17.35.84.71,1.69,1.08,2.53.45,1,.92,2.1,1.39,3.15.37.83.75,1.67,1.14,2.5.48,1,1,2.08,1.46,3.11.39.83.79,1.66,1.2,2.48.5,1,1,2.05,1.53,3.07.42.82.83,1.64,1.26,2.46.53,1,1.06,2,1.61,3,.43.81.87,1.62,1.31,2.42q.82,1.51,1.68,3l.11.2,1.26,2.2c.58,1,1.17,2,1.76,3l.21.35c.4.67.8,1.34,1.21,2,.6,1,1.21,2,1.83,2.93l.26.42,1.22,1.9c.61,1,1.24,1.9,1.86,2.84l0,.06.32.49,1.21,1.8c.6.89,1.22,1.76,1.83,2.64l.15.21.37.54c.4.57.8,1.15,1.21,1.72.59.83,1.2,1.66,1.8,2.48l.25.33.43.6,1.2,1.62c.6.81,1.21,1.6,1.83,2.39l.31.4.45.6,1.22,1.57,1.88,2.34.34.43.52.64,1.18,1.46,1.93,2.28.4.48.54.63,1.18,1.4c.67.77,1.35,1.53,2,2.29l.43.49.57.63,1.14,1.29,2.2,2.37.44.47.56.61,1.09,1.17c.88.92,1.77,1.83,2.66,2.73l.31.32.53.54.91.93c1.5,1.51,3,3,4.52,4.43a264.41,264.41,0,0,0,183.66,73.85c1.83,0,3.82,0,6.06-.08h.4l.87,0c1.74,0,3.54-.11,5.34-.2l2.25-.12c1.14-.06,2.27-.13,3.4-.21,1.56-.11,3.16-.23,4.88-.38H633l.72-.07a265.79,265.79,0,0,0,184.6-100.25,109.37,109.37,0,0,1-52.5,194C707.72,757.47,632.84,762,554.93,762s-152.8-4.57-210.86-12.86c-144-20.57-178.73-115.95-186.59-171-4.94-34.59-7.62-88.37-8-160Zm8.58-31.34H140.71c-.75,0-1.51,0-2.26,0l-2-.06h-.22l-2.09-.1A109.47,109.47,0,0,1,31.34,277.53c0-59.26,48.18-108.3,107.4-109.35h1.37l.62,0H594V386.9H353.9Z"/></g></g></svg>