<svg xmlns="http://www.w3.org/2000/svg" viewBox="0 0 927.76 720.7"><defs><style>.cls-1{fill:#f9c25f;}.cls-2{fill:#ffe8a0;}.cls-3{fill:#fbd37e;}</style></defs><g id="레이어_2" data-name="레이어 2"><g id="전체그림"><path class="cls-1" d="M234.62.14C232.83.05,231,0,229.23,0A104.35,104.35,0,0,0,125.42,95.47H302.81l0-.34c.06-1,.15-2.3.27-3.67v-.09l0-.31a144.76,144.76,0,0,1,8.64-37.77l.24-.65.09-.22c.34-.89.69-1.77,1-2.63.22-.52.43-1,.67-1.61s.4-.94.6-1.41l.05-.13.75-1.69A104.09,104.09,0,0,0,234.62.14Z"/><path class="cls-1" d="M317,441.67c-.38-1.1-.75-2.21-1.11-3.31-.29-.9-.58-1.79-.86-2.69-.35-1.11-.69-2.23-1-3.34-.27-.9-.54-1.81-.8-2.71-.33-1.12-.64-2.24-1-3.37l0-.13c-.24-.87-.48-1.74-.71-2.6-.29-1.13-.58-2.25-.86-3.38l-.07-.29c-.21-.83-.41-1.65-.61-2.48-.27-1.13-.52-2.26-.78-3.39l-.08-.39c-.18-.8-.36-1.6-.53-2.4-.24-1.12-.47-2.23-.69-3.35v-.07l-.12-.56c-.15-.75-.3-1.5-.44-2.25-.2-1.08-.39-2.17-.58-3.26l0-.16-.1-.53c-.13-.77-.27-1.54-.4-2.32-.16-1-.31-2-.46-3l-.07-.44-.1-.63-.33-2.24c-.13-1-.26-1.93-.38-2.9l-.07-.55-.09-.7c-.06-.45-.11-.89-.17-1.34H118.19c.46,68.86,3.11,120.71,7.9,154.27,7.67,53.63,41.54,146.61,182.35,166.72,57.83,8.26,132.46,12.81,210.15,12.81s152.31-4.55,210.15-12.81A104.36,104.36,0,0,0,782.65,526,270.72,270.72,0,0,1,597.8,624.11l-.67.06-.19,0c-1.77.15-3.4.28-5,.39l-3.46.22-2.28.12c-1.83.08-3.66.15-5.45.2l-.93,0h-.36c-2.29.06-4.31.08-6.18.08A269.42,269.42,0,0,1,386.18,550c-1.51-1.46-3.06-3-4.61-4.52l-1-1-.49-.51-.28-.28c-.92-.94-1.84-1.88-2.75-2.83L376,539.65l-.54-.59-.42-.44c-.76-.82-1.52-1.63-2.27-2.45-.4-.44-.8-.89-1.19-1.34l-.55-.62-.43-.49q-1.05-1.15-2.07-2.34c-.41-.47-.82-1-1.22-1.43l-.54-.64-.41-.48c-.66-.77-1.31-1.55-2-2.33L363.12,525l-.5-.63-.34-.41c-.65-.8-1.29-1.6-1.93-2.41l-1.26-1.63-.44-.57-.29-.38-1.89-2.47-1.23-1.67-.43-.59-.26-.35c-.61-.83-1.23-1.67-1.83-2.52-.41-.57-.82-1.15-1.22-1.73l-.39-.56-.13-.19c-.64-.91-1.27-1.81-1.89-2.72l-1.24-1.86-.33-.51q-1-1.46-1.92-2.91c-.42-.65-.84-1.31-1.25-2l-.26-.4c-.62-1-1.25-2-1.86-3l-1.22-2-.23-.39c-.6-1-1.21-2-1.79-3l-1.29-2.24-.11-.2c-.57-1-1.15-2-1.71-3.06-.45-.82-.9-1.64-1.34-2.47-.55-1-1.1-2.06-1.64-3.09l-1.28-2.5c-.52-1-1.05-2.09-1.56-3.13-.41-.84-.82-1.69-1.22-2.53-.51-1.06-1-2.11-1.49-3.16-.39-.86-.78-1.71-1.16-2.57-.48-1.06-.95-2.13-1.42-3.2-.37-.86-.74-1.72-1.1-2.58-.45-1.07-.9-2.15-1.34-3.23-.35-.87-.7-1.74-1-2.61-.43-1.08-.85-2.17-1.26-3.26-.33-.88-.66-1.76-1-2.64-.4-1.09-.79-2.19-1.18-3.29C317.56,443.45,317.25,442.56,317,441.67Z"/><path class="cls-2" d="M844.06,138.85V343.53a104.42,104.42,0,0,0,0-204.68Z"/><path class="cls-3" d="M701.71.05c-1.13,0-2.23,0-3.37,0A103.88,103.88,0,0,0,594,100.92L594,116.17V371.9a15,15,0,0,1-15,15H346.17l.12.85c.08.53.16,1.05.25,1.58l.15,1,.12.82c.11.72.22,1.44.35,2.16.09.54.19,1.08.29,1.63l.17.93.15.83c.12.69.25,1.38.38,2.07s.23,1.13.34,1.69l.19.9.17.84c.14.66.27,1.33.42,2s.26,1.15.4,1.73l.2.88.18.76c.15.66.3,1.33.46,2s.31,1.22.47,1.82l.2.79.19.71c.17.67.33,1.33.51,2s.35,1.26.53,1.88l.21.71.2.73c.18.65.37,1.3.56,1.94s.38,1.25.57,1.88l.22.71.21.67c.2.65.4,1.31.61,1.95s.41,1.25.62,1.87l.23.7.22.65c.22.65.43,1.3.66,1.94s.47,1.32.71,2l.21.58.21.6c.24.65.47,1.3.72,1.95s.49,1.29.75,1.94l.23.59.2.52c.26.66.51,1.33.78,2s.54,1.3.81,1.95l.23.56.23.55c.27.64.53,1.28.81,1.92s.58,1.33.88,2l.22.49.22.5c.29.65.57,1.29.87,1.94l1,2.14.16.32.17.37c.32.68.64,1.35,1,2s.72,1.45,1.09,2.18l.13.25.14.29,1.05,2.06c.38.74.77,1.47,1.16,2.2l.11.21.16.29,1.09,2c.41.75.83,1.5,1.25,2.25l.08.13.06.11,1.23,2.17c.45.78.91,1.55,1.38,2.34l.07.12,1.28,2.13q.71,1.15,1.44,2.31c.46.74.92,1.48,1.39,2.2s1,1.52,1.49,2.28,1,1.45,1.45,2.17,1,1.5,1.54,2.24l1.48,2.13c.53.74,1.07,1.48,1.6,2.2l1.54,2.1c.54.73,1.09,1.45,1.64,2.17l1.58,2.05,1.7,2.13,1.62,2c.58.7,1.16,1.4,1.75,2.09s1.11,1.32,1.67,2,1.19,1.37,1.79,2.05l1.71,1.93,1.84,2,1.76,1.89,1.88,2c.6.62,1.2,1.24,1.81,1.85l1.92,1.92c.61.61,1.23,1.21,1.85,1.81l2,1.87,1.9,1.77,2,1.82,1.94,1.73,2,1.77q1,.86,2,1.68l2.07,1.73,2,1.64,2.11,1.67,2.07,1.6,2.15,1.63,2.11,1.54c.72.53,1.45,1.06,2.19,1.58s1.42,1,2.14,1.5l2.22,1.53c.72.49,1.46,1,2.19,1.45l2.25,1.48,2.22,1.4,2.29,1.42,2.26,1.36,2.32,1.36c.75.44,1.5.86,2.25,1.28l.05,0,.05,0,2.29,1.28,2.18,1.17.16.08.2.11,2.18,1.15,2.15,1.1.22.1.27.14,2.13,1.07,2.21,1.05.21.1.33.16,2.09,1,2.1.94.36.16.39.18,2.05.91,2.08.87.41.17.47.2,2,.83,2,.81.47.18.54.21,2,.76,2,.75.54.19.55.2,1.95.7c.68.24,1.35.47,2,.69l.58.2.65.22,1.87.62c.67.22,1.34.42,2,.63l.63.2.7.22,1.84.56,2,.59.64.18.72.2,1.83.52,2,.53.69.18.77.2,1.78.46,2,.48.74.17.81.19,1.76.4,2,.43.77.16.84.18,1.74.36,2,.38.81.14.88.16,1.69.31,2.09.34.83.13.9.14,1.65.26,2.14.29.84.11.95.13,1.59.21c.72.09,1.45.16,2.18.24l.88.1,1,.1,1.52.17,2.33.2.86.07,1,.09,1.4.11,2.53.16.84.05,1,.06,1.26.08c1.07,0,2.13.08,3.2.11l.57,0,.95,0,1,0c1.91,0,3.83.07,5.71.07,1.52,0,3.17,0,5.2-.06h.41l.79,0c1.44,0,2.95-.1,4.59-.18l2-.11c.86,0,1.71-.1,2.56-.16,2-.13,3.43-.25,4.8-.37l.41,0,.21,0a229.49,229.49,0,0,0,167.11-97.38l2.84-4.07a228,228,0,0,0,38.46-126.92v-249C802.72,49.07,757.41,1.76,701.71.05Z"/><path class="cls-3" d="M448.25,0a104.79,104.79,0,0,0-95,61.07l-.06.15-.28.61c-.24.52-.47,1.05-.68,1.56s-.46,1.09-.69,1.65l-.18.43c-.06.16-.13.32-.19.46a104.68,104.68,0,0,0-6.86,28.49v.1c0,.31,0,.62-.08,1h208A104.52,104.52,0,0,0,448.25,0Z"/><path class="cls-2" d="M104.47,136.82h-2C46,137.85,0,184.65,0,241.19A104.46,104.46,0,0,0,98.07,345.37l2,.1h.25l1.92.06c.72,0,1.44,0,2.17,0H552.63V136.81H104.47Z"/></g></g></svg>