<?xml version="1.0" encoding="UTF-8"?>
<svg xmlns="http://www.w3.org/2000/svg" viewBox="0 0 676.0918 874.27175">
  <g id="Layer_1" data-name="Layer 1"/>
  <g id="Layer_2" data-name="Layer 2">
    <g id="Layer_1-2" data-name="Layer 1">
      <g>
        <path d="M609.8916,48.50992C414.45459-15.30191,232.19678-16.15835,63.11768,45.94077,25.24854,59.84934,0,95.81369,0,136.1564V492.97482c0,95.02081,43.25537,184.87421,117.52979,244.13928l133.88428,106.83057c50.67676,40.4361,122.58691,40.4361,173.26318,0l133.88477-106.83057c74.27393-59.26508,117.52979-149.11847,117.52979-244.13928V139.79074c0-41.53876-26.71289-78.38782-66.2002-91.28082Z" style="fill: #b6f1ff;"/>
        <path d="M471.71262,346.30254h-52.49441c-7.9192,0-14.33897-6.41978-14.33897-14.33897v-52.49441c0-36.75833-30.075-66.83328-66.83333-66.83328h0c-36.75833,0-66.83333,30.07495-66.83333,66.83328v52.49441c0,7.9192-6.41978,14.33897-14.33897,14.33897h-52.49444c-36.75829,0-66.83325,30.07496-66.83325,66.83325v.00013c0,36.7583,30.07498,66.83328,66.83328,66.83328h52.49441c7.9192,0,14.33897,6.41978,14.33897,14.33897v52.49441c0,36.75828,30.075,66.83328,66.83333,66.83328h0c36.75833,0,66.83333-30.075,66.83333-66.83328v-52.49441c0-7.9192,6.41978-14.33897,14.33897-14.33897h52.49444c36.75829,0,66.83325-30.07496,66.83325-66.83325v-.00013c0-36.7583-30.07498-66.83328-66.83328-66.83328Z" style="fill: #fff;"/>
      </g>
    </g>
  </g>
</svg>