<?xml version="1.0" encoding="UTF-8"?>
<svg xmlns="http://www.w3.org/2000/svg" viewBox="0 0 942.92993 899.04004">
  <g id="Layer_1" data-name="Layer 1"/>
  <g id="Layer_2" data-name="Layer 2">
    <g id="Layer_1-2" data-name="Layer 1">
      <g>
        <path d="M350.03003,63.34003V334.23004c-17.04004-2.16003-34.07007-3.27002-51.01001-3.27002-18.48999,0-37.07007,1.31-55.67017,3.88V63.34003c0-29.40997,23.93018-53.34003,53.34009-53.34003,29.41992,0,53.34009,23.93005,53.34009,53.34003Z" style="fill: #fff;"/>
        <path d="M466.45996,534.17004c-2.88013,88.46997-32.28003,186.46997-148.37012,186.46997h-106.30005c-111.26978,0-201.78979-90.52002-201.78979-201.78998v-208.39001c0-29.40997,23.92993-53.34003,53.33984-53.34003s53.34009,23.93005,53.34009,53.34003v143.90002c0,2.75995,2.23999,5,5,5,.34009,0,35.07007,.19995,69.46997,17.39996,7,3.5,13.45996,7.42004,19.40015,11.75,30.46997,22.21002,47,55.29004,49.27002,98.71002,.17993,3.46002,.26978,6.97998,.26978,10.56,0,2.76001,2.23999,5,5,5,2.77002,0,5-2.23999,5-5,0-71.97998-35.71997-108.41003-68.20996-126.64001-2.09985-1.17999-4.18994-2.28998-6.26001-3.32001-28.98999-14.5-57.63989-17.60999-68.93994-18.27997V110.99005c0-29.41003,23.91992-53.34003,53.34009-53.34003,29.40991,0,53.32983,23.92999,53.32983,53.34003v225.35999c-25.84985,4.20996-51.70996,10.85999-77.36987,19.95996-2.6001,.92004-3.95996,3.78003-3.04004,6.38,.91992,2.60004,3.78003,3.96002,6.38013,3.04004,4.68994-1.66003,9.38989-3.21002,14.07983-4.71002,83.42993-26.54999,167.80005-26.54999,251.22998,0,4.69995,1.5,9.39014,3.04999,14.08008,4.71002,.55005,.20001,1.11011,.28998,1.66992,.28998,2.06006,0,3.97998-1.27997,4.70996-3.33002,.92017-2.59998-.43994-5.45996-3.03979-6.38-27.2002-9.64996-54.62012-16.54999-82.02002-20.69995V152.80005c0-29.41003,23.92993-53.34003,53.33984-53.34003,27.64014,0,50.43018,21.13,53.08008,48.08002-.14014,1.73999-.22998,3.48999-.22998,5.26001v366.04999c0,5.20001,.08008,10.29999,.23999,15.32001Z" style="fill: #fff;"/>
      </g>
      <path d="M942.92993,518.85004v-208.39001c0-34.92999-28.40991-63.34003-63.34009-63.34003-22.36987,0-42.06982,11.66003-53.33984,29.21002V110.99005c0-34.93005-28.41016-63.34003-63.34009-63.34003-22.37012,0-42.06006,11.65002-53.33984,29.21002v-13.52002c0-34.91998-28.41016-63.34003-63.34009-63.34003-34.92017,0-63.34009,28.42004-63.34009,63.34003v55.33002c-11.27002-17.56-30.95996-29.21002-53.33984-29.21002-25.96021,0-48.32007,15.71002-58.09009,38.13-9.76001-22.41998-32.12012-38.13-58.09009-38.13-22.36987,0-42.06006,11.65002-53.33984,29.21002V63.34003c0-34.91998-28.41016-63.34003-63.34009-63.34003-34.91992,0-63.34009,28.42004-63.34009,63.34003v13.52002c-11.27002-17.56-30.95996-29.21002-53.32983-29.21002-34.93018,0-63.34009,28.40997-63.34009,63.34003v165.33997c-11.28003-17.54999-30.96997-29.21002-53.34009-29.21002-34.92993,0-63.33984,28.41003-63.33984,63.34003v208.39001c0,94.41998,62.10986,174.60999,147.61987,201.84998H79.93994c-18.30005,0-33.13013,14.83002-33.13013,33.13v145.21002H464.92993v-145.21002c0-18.29999-14.83008-33.13-33.12988-33.13h-54.46021c26.73999-10.06,48.3501-27.75,64.59009-52.91998,14.1499-21.94,24.01001-49.26001,29.53003-81.64001,5.53003,32.38,15.38989,59.70001,29.54004,81.64001,16.22998,25.17999,37.84985,42.85999,64.58984,52.91998h-52.53003c-18.2998,0-33.12988,14.83002-33.12988,33.13v145.21002h416.18994v-145.21002c0-18.29999-14.83008-33.13-33.12988-33.13h-67.68018c85.51025-27.23999,147.62012-107.42999,147.62012-201.84998ZM243.34985,63.34003c0-29.40997,23.93018-53.34003,53.34009-53.34003,29.41992,0,53.34009,23.93005,53.34009,53.34003V334.23004c-17.04004-2.16003-34.07007-3.27002-51.01001-3.27002-18.48999,0-37.07007,1.31-55.67017,3.88V63.34003Zm74.73999,657.29999h-106.30005c-111.26978,0-201.78979-90.52002-201.78979-201.78998v-208.39001c0-29.40997,23.92993-53.34003,53.33984-53.34003s53.34009,23.93005,53.34009,53.34003v143.90002c0,2.75995,2.23999,5,5,5,.34009,0,35.07007,.19995,69.46997,17.39996,7,3.5,13.45996,7.42004,19.40015,11.75,30.46997,22.21002,47,55.29004,49.27002,98.71002,.17993,3.46002,.26978,6.97998,.26978,10.56,0,2.76001,2.23999,5,5,5,2.77002,0,5-2.23999,5-5,0-71.97998-35.71997-108.41003-68.20996-126.64001-2.09985-1.17999-4.18994-2.28998-6.26001-3.32001-28.98999-14.5-57.63989-17.60999-68.93994-18.27997V110.99005c0-29.41003,23.91992-53.34003,53.34009-53.34003,29.40991,0,53.32983,23.92999,53.32983,53.34003v225.35999c-25.84985,4.20996-51.70996,10.85999-77.36987,19.95996-2.6001,.92004-3.95996,3.78003-3.04004,6.38,.91992,2.60004,3.78003,3.96002,6.38013,3.04004,4.68994-1.66003,9.38989-3.21002,14.07983-4.71002,83.42993-26.54999,167.80005-26.54999,251.22998,0,4.69995,1.5,9.39014,3.04999,14.08008,4.71002,.55005,.20001,1.11011,.28998,1.66992,.28998,2.06006,0,3.97998-1.27997,4.70996-3.33002,.92017-2.59998-.43994-5.45996-3.03979-6.38-27.2002-9.64996-54.62012-16.54999-82.02002-20.69995V152.80005c0-29.41003,23.92993-53.34003,53.33984-53.34003,27.64014,0,50.43018,21.13,53.08008,48.08002-.14014,1.73999-.22998,3.48999-.22998,5.26001v366.04999c0,5.20001,.08008,10.29999,.23999,15.32001-2.88013,88.46997-32.28003,186.46997-148.37012,186.46997ZM592.88989,63.34003c0-29.40997,23.93018-53.34003,53.34009-53.34003s53.34009,23.93005,53.34009,53.34003V334.84003c-18.6001-2.57001-37.18018-3.88-55.66016-3.88-16.93994,0-33.96997,1.10999-51.02002,3.27002V63.34003Zm138.25,657.29999h-106.30005c-116.08984,0-145.48999-98-148.36987-186.46997,.1499-5.02002,.23999-10.12,.23999-15.32001V152.80005c0-1.77002-.09009-3.52002-.22998-5.26001,2.6499-26.95001,25.43994-48.08002,53.07007-48.08002,29.41992,0,53.33984,23.92999,53.33984,53.34003v182.81c-27.38989,4.14996-54.81006,11.04999-82.01001,20.69995-2.59985,.92004-3.96997,3.78003-3.04004,6.38,.92017,2.60004,3.78003,3.96002,6.38013,3.04004,4.68994-1.66003,9.37988-3.21002,14.08008-4.71002,83.42993-26.54999,167.7998-26.54999,251.22998,0,4.68994,1.5,9.38989,3.04999,14.06982,4.71002,.56006,.20001,1.12012,.28998,1.68018,.28998,2.0498,0,3.97998-1.27997,4.70996-3.33002,.91992-2.59998-.43994-5.45996-3.04004-6.38-25.66016-9.09998-51.53003-15.75-77.37988-19.95996V110.99005c0-29.41003,23.92993-53.34003,53.33984-53.34003s53.34009,23.92999,53.34009,53.34003V449.54004c-11.31006,.66998-39.94995,3.77997-68.94019,18.27997-2.06982,1.03003-4.15991,2.14001-6.25977,3.32001-32.49023,18.22998-68.22021,54.66003-68.22021,126.64001,0,2.76001,2.24023,5,5,5,2.77002,0,5-2.23999,5-5,0-3.58002,.09009-7.09998,.27002-10.56,2.28003-43.41003,18.81006-76.48999,49.27002-98.70001,5.86011-4.27002,12.21997-8.14001,19.1001-11.59998,34.3999-17.30005,69.43994-17.56,69.78003-17.56,2.76001,0,5-2.24005,5-5v-143.90002c0-29.40997,23.92993-53.34003,53.33984-53.34003s53.34009,23.93005,53.34009,53.34003v208.39001c0,111.26996-90.52002,201.78998-201.79004,201.78998Z" style="fill: #ffb6bb;"/>
      <g>
        <path d="M932.92993,310.46002v208.39001c0,111.26996-90.52002,201.78998-201.79004,201.78998h-106.30005c-116.08984,0-145.48999-98-148.36987-186.46997,.1499-5.02002,.23999-10.12,.23999-15.32001V152.80005c0-1.77002-.09009-3.52002-.22998-5.26001,2.6499-26.95001,25.43994-48.08002,53.07007-48.08002,29.41992,0,53.33984,23.92999,53.33984,53.34003v182.81c-27.38989,4.14996-54.81006,11.04999-82.01001,20.69995-2.59985,.92004-3.96997,3.78003-3.04004,6.38,.92017,2.60004,3.78003,3.96002,6.38013,3.04004,4.68994-1.66003,9.37988-3.21002,14.08008-4.71002,83.42993-26.54999,167.7998-26.54999,251.22998,0,4.68994,1.5,9.38989,3.04999,14.06982,4.71002,.56006,.20001,1.12012,.28998,1.68018,.28998,2.0498,0,3.97998-1.27997,4.70996-3.33002,.91992-2.59998-.43994-5.45996-3.04004-6.38-25.66016-9.09998-51.53003-15.75-77.37988-19.95996V110.99005c0-29.41003,23.92993-53.34003,53.33984-53.34003s53.34009,23.92999,53.34009,53.34003V449.54004c-11.31006,.66998-39.94995,3.77997-68.94019,18.27997-2.06982,1.03003-4.15991,2.14001-6.25977,3.32001-32.49023,18.22998-68.22021,54.66003-68.22021,126.64001,0,2.76001,2.24023,5,5,5,2.77002,0,5-2.23999,5-5,0-3.58002,.09009-7.09998,.27002-10.56,2.28003-43.41003,18.81006-76.48999,49.27002-98.70001,5.86011-4.27002,12.21997-8.14001,19.1001-11.59998,34.3999-17.30005,69.43994-17.56,69.78003-17.56,2.76001,0,5-2.24005,5-5v-143.90002c0-29.40997,23.92993-53.34003,53.33984-53.34003s53.34009,23.93005,53.34009,53.34003Z" style="fill: #fff;"/>
        <path d="M699.57007,63.34003V334.84003c-18.6001-2.57001-37.18018-3.88-55.66016-3.88-16.93994,0-33.96997,1.10999-51.02002,3.27002V63.34003c0-29.40997,23.93018-53.34003,53.34009-53.34003s53.34009,23.93005,53.34009,53.34003Z" style="fill: #fff;"/>
      </g>
    </g>
  </g>
</svg>