<?xml version="1.0" encoding="UTF-8"?>
<svg xmlns="http://www.w3.org/2000/svg" viewBox="0 0 376.90137 386.88055">
  <g id="Layer_1" data-name="Layer 1"/>
  <g id="Layer_2" data-name="Layer 2">
    <g id="Layer_1-2" data-name="Layer 1">
      <path d="M373.33506,146.82998L216.61419,14.11885c-15.27033-18.82512-41.05625-18.82513-56.3266-.00004L3.56633,146.82996c-7.82391,9.64521-1.93004,25.47212,9.4857,25.47212h.00024c7.19415,0,13.02617,6.76665,13.02617,15.11374v127.21331c0,39.90336,27.88001,72.25142,62.27175,72.25142h200.20121c34.39174,0,62.27175-32.34806,62.27175-72.25142v-127.21331c0-8.34709,5.83201-15.11374,13.02617-15.11374h.00004c11.41573,0,17.3096-15.82688,9.48571-25.4721Zm-202.82894,176.9768h-12.1513c-24.00153,0-43.45861-22.57528-43.45861-50.42329v-.00118c0-8.34709,5.83201-15.11374,13.02617-15.11374h42.58374c7.19415,0,13.02617,6.76665,13.02617,15.11374v35.31073c0,8.34709-5.83201,15.11374-13.02617,15.11374Zm0-76.95196h-42.58374c-7.19415,0-13.02617-6.76665-13.02617-15.11374v-.00007c0-27.84801,19.45708-50.42329,43.45861-50.42329h12.1513c7.19415,0,13.02617,6.76665,13.02617,15.11374v35.30961c0,8.34709-5.83201,15.11374-13.02617,15.11374Zm48.04063,76.95196h-12.15106c-7.19415,0-13.02617-6.76665-13.02617-15.11374v-35.31073c0-8.34709,5.83201-15.11374,13.02617-15.11374h42.5835c7.19415,0,13.02617,6.76665,13.02617,15.11374v.00118c0,27.84801-19.45708,50.42329-43.45861,50.42329Zm30.43244-76.95196h-42.5835c-7.19415,0-13.02617-6.76665-13.02617-15.11374v-35.30961c0-8.34709,5.83201-15.11374,13.02617-15.11374h12.15106c24.00153,0,43.45861,22.57528,43.45861,50.42329v.00007c0,8.34709-5.83201,15.11374-13.02617,15.11374Z" style="fill: #ffd983;"/>
    </g>
  </g>
</svg>