<?xml version="1.0" encoding="UTF-8"?>
<svg xmlns="http://www.w3.org/2000/svg" viewBox="0 0 959 958.99951">
  <g id="Layer_1" data-name="Layer 1"/>
  <g id="Layer_2" data-name="Layer 2">
    <g id="Layer_1-2" data-name="Layer 1">
      <g>
        <g>
          <circle cx="479.5" cy="479.49982" r="473.5" style="fill: #edffa1;"/>
          <path d="M479.5,958.99951c-64.72949,0-127.52539-12.67871-186.64453-37.68359-57.09961-24.15137-108.37891-58.72461-152.41309-102.75879s-78.60742-95.31348-102.75879-152.41309C12.67871,607.0249,0,544.229,0,479.49951s12.67871-127.52539,37.68359-186.64453c24.15137-57.09912,58.72461-108.37842,102.75879-152.4126,44.03418-44.03467,95.31348-78.60742,152.41309-102.7583C351.97461,12.67871,414.77051,0,479.5,0s127.52539,12.67871,186.64453,37.68408c57.09961,24.15088,108.37891,58.72363,152.41309,102.7583,44.03418,44.03418,78.60742,95.31348,102.75879,152.4126,25.00488,59.11914,37.68359,121.91504,37.68359,186.64453s-12.67871,127.52539-37.68359,186.64453c-24.15137,57.09961-58.72461,108.37891-102.75879,152.41309s-95.31348,78.60742-152.41309,102.75879c-59.11914,25.00488-121.91504,37.68359-186.64453,37.68359Zm0-946.99951C221.71973,12,12,221.71924,12,479.49951s209.71973,467.5,467.5,467.5,467.5-209.71973,467.5-467.5S737.28027,12,479.5,12Z" style="fill: #0ea52e;"/>
        </g>
        <path d="M479.5,876.37549c-64.59766,0-127.27246-10.44727-186.28516-31.05273-57.05664-19.9209-108.31445-48.4541-152.34961-84.80469-44.11914-36.4209-78.77148-78.85938-102.99512-126.13574C12.74121,585.33838,0,533.22803,0,479.49951s12.74121-105.83838,37.87012-154.88232c24.22363-47.27686,58.87598-89.71484,102.99512-126.13574,44.03516-36.35107,95.29297-64.88379,152.34961-84.80566,59.0127-20.60449,121.6875-31.05225,186.28516-31.05225s127.27246,10.44775,186.28516,31.05225c57.05664,19.92188,108.31445,48.45459,152.34961,84.80566,44.11914,36.4209,78.77148,78.85889,102.99512,126.13574,25.12891,49.04395,37.87012,101.15381,37.87012,154.88232s-12.74121,105.83887-37.87012,154.88281c-24.22363,47.27637-58.87598,89.71484-102.99512,126.13574-44.03516,36.35059-95.29297,64.88379-152.34961,84.80469-59.0127,20.60547-121.6875,31.05273-186.28516,31.05273Zm0-781.75195C221.71973,94.62354,12,267.27832,12,479.49951s209.71973,384.87598,467.5,384.87598,467.5-172.6543,467.5-384.87598S737.28027,94.62354,479.5,94.62354Z" style="fill: #0ea52e;"/>
        <path d="M479.5,736.06396c-127.4375,0-247.33984-26.31055-337.62109-74.08496-44.2168-23.39844-78.99121-50.71875-103.35547-81.20215C12.96094,548.79541,0,514.72119,0,479.49951s12.96094-69.2959,38.52344-101.27686c24.36426-30.4834,59.13867-57.80371,103.35547-81.20215,90.28125-47.77441,210.18359-74.08496,337.62109-74.08496s247.33984,26.31055,337.62109,74.08496c44.2168,23.39844,78.99121,50.71875,103.35547,81.20215,25.5625,31.98096,38.52344,66.05518,38.52344,101.27686s-12.96094,69.2959-38.52344,101.27734c-24.36426,30.4834-59.13867,57.80371-103.35547,81.20215-90.28125,47.77441-210.18359,74.08496-337.62109,74.08496Zm0-501.12842c-125.51562,0-243.42578,25.81592-332.00879,72.69189C60.11816,353.86279,12,414.90137,12,479.49951s48.11816,125.63672,135.49121,171.87207c88.58301,46.87695,206.49316,72.69238,332.00879,72.69238s243.42578-25.81543,332.00879-72.69238c87.37305-46.23535,135.49121-107.27441,135.49121-171.87207s-48.11816-125.63672-135.49121-171.87207c-88.58301-46.87598-206.49316-72.69189-332.00879-72.69189Z" style="fill: #0ea52e;"/>
        <path d="M479.5,576.48389c-126.84473,0-246.15332-9.50195-335.94727-26.75586-43.9502-8.44531-78.54492-18.32031-102.82422-29.35059C13.70312,508.1001,0,494.34717,0,479.49951c0-14.84668,13.70312-28.60059,40.72852-40.87793,24.2793-11.03027,58.87402-20.9043,102.82422-29.34961,89.79395-17.25391,209.10254-26.75635,335.94727-26.75635s246.15332,9.50244,335.94727,26.75635c43.9502,8.44531,78.54492,18.31934,102.82422,29.34961,27.02539,12.27734,40.72852,26.03125,40.72852,40.87793,0,14.84766-13.70312,28.60059-40.72852,40.87793-24.2793,11.03027-58.87402,20.90527-102.82422,29.35059-89.79395,17.25391-209.10254,26.75586-335.94727,26.75586Zm0-181.96826c-126.1084,0-244.6123,9.42578-333.68262,26.54102C21.65039,444.91553,12,471.82178,12,479.49951c0,7.67871,9.65039,34.58496,133.81738,58.44336,89.07031,17.11523,207.57422,26.54102,333.68262,26.54102s244.6123-9.42578,333.68262-26.54102c124.16699-23.8584,133.81738-50.76465,133.81738-58.44336,0-7.67773-9.65039-34.58398-133.81738-58.44287-89.07031-17.11523-207.57422-26.54102-333.68262-26.54102Z" style="fill: #0ea52e;"/>
        <path d="M479.5,958.99951c-53.72852,0-105.83887-12.74121-154.88281-37.87012-47.27637-24.22363-89.71484-58.87598-126.13574-102.99512-36.35059-44.03516-64.88379-95.29297-84.80469-152.34961-20.60547-59.0127-31.05273-121.6875-31.05273-186.28516s10.44727-127.27246,31.05273-186.28516c19.9209-57.05664,48.4541-108.31445,84.80469-152.34912,36.4209-44.11914,78.85938-78.77197,126.13574-102.99512C373.66113,12.74121,425.77148,0,479.5,0s105.83887,12.74121,154.88281,37.87012c47.27637,24.22314,89.71484,58.87598,126.13574,102.99512,36.35059,44.03467,64.88379,95.29248,84.80469,152.34912,20.60547,59.0127,31.05273,121.68799,31.05273,186.28516s-10.44727,127.27246-31.05273,186.28516c-19.9209,57.05664-48.4541,108.31445-84.80469,152.34961-36.4209,44.11914-78.85938,78.77148-126.13574,102.99512-49.04395,25.12891-101.1543,37.87012-154.88281,37.87012Zm0-946.99951c-212.22168,0-384.87598,209.71924-384.87598,467.49951s172.6543,467.5,384.87598,467.5,384.87598-209.71973,384.87598-467.5S691.72168,12,479.5,12Z" style="fill: #0ea52e;"/>
        <path d="M479.5,958.99951c-35.22168,0-69.2959-12.96094-101.27734-38.52344-30.4834-24.36426-57.80371-59.13867-81.20215-103.35547-47.77441-90.28125-74.08496-210.18359-74.08496-337.62109s26.31055-247.33984,74.08496-337.62109c23.39844-44.21631,50.71875-78.99023,81.20215-103.35547C410.2041,12.96094,444.27832,0,479.5,0s69.2959,12.96094,101.27734,38.52295c30.4834,24.36523,57.80371,59.13916,81.20215,103.35547,47.77441,90.28125,74.08496,210.18408,74.08496,337.62109s-26.31055,247.33984-74.08496,337.62109c-23.39844,44.2168-50.71875,78.99121-81.20215,103.35547-31.98145,25.5625-66.05566,38.52344-101.27734,38.52344Zm0-946.99951c-64.59766,0-125.63672,48.11865-171.87207,135.49121-46.87695,88.58301-72.69238,206.49268-72.69238,332.0083s25.81543,243.42578,72.69238,332.00879c46.23535,87.37305,107.27441,135.49121,171.87207,135.49121s125.63672-48.11816,171.87207-135.49121c46.87695-88.58301,72.69238-206.49316,72.69238-332.00879s-25.81543-243.42529-72.69238-332.0083C605.13672,60.11865,544.09766,12,479.5,12Z" style="fill: #0ea52e;"/>
        <path d="M479.5,958.99951c-14.84668,0-28.60059-13.70312-40.87793-40.72852-11.03027-24.2793-20.9043-58.87402-29.34961-102.82422-17.25488-89.79395-26.75684-209.10254-26.75684-335.94727s9.50195-246.15283,26.75684-335.94678c8.44531-43.9502,18.31934-78.54541,29.34961-102.82422C450.89941,13.70312,464.65332,0,479.5,0s28.60059,13.70312,40.87793,40.72852c11.03027,24.27881,20.9043,58.87402,29.34961,102.82422,17.25488,89.79395,26.75684,209.10254,26.75684,335.94678s-9.50195,246.15332-26.75684,335.94727c-8.44531,43.9502-18.31934,78.54492-29.34961,102.82422-12.27734,27.02539-26.03125,40.72852-40.87793,40.72852Zm0-946.99951c-7.67773,0-34.58398,9.6499-58.44336,133.81689-17.11523,89.0708-26.54102,207.57471-26.54102,333.68262s9.42578,244.6123,26.54102,333.68262c23.85938,124.16699,50.76562,133.81738,58.44336,133.81738s34.58398-9.65039,58.44336-133.81738c17.11523-89.07031,26.54102-207.5752,26.54102-333.68262s-9.42578-244.61182-26.54102-333.68262c-23.85938-124.16699-50.76562-133.81689-58.44336-133.81689Z" style="fill: #0ea52e;"/>
      </g>
    </g>
  </g>
</svg>