<svg xmlns="http://www.w3.org/2000/svg" viewBox="0 0 322.72 406.63"><defs><style>.cls-1{fill:#997572;}</style></defs><g id="레이어_2" data-name="레이어 2"><g id="Layer_1" data-name="Layer 1"><path class="cls-1" d="M179.24,172a1.5,1.5,0,0,0,.6-1.46l-1.77-10.28,7.47-7.28a1.5,1.5,0,0,0,.38-1.54,1.47,1.47,0,0,0-1.21-1l-10.32-1.5-4.62-9.36a1.5,1.5,0,0,0-2.69,0l-4.61,9.36-10.33,1.5a1.49,1.49,0,0,0-1.21,1,1.52,1.52,0,0,0,.38,1.54l7.47,7.28L157,170.53a1.48,1.48,0,0,0,.59,1.46,1.5,1.5,0,0,0,1.58.12l9.24-4.85,9.23,4.85A1.5,1.5,0,0,0,179.24,172Zm-10.11-7.76a1.51,1.51,0,0,0-1.4,0L160.49,168l1.38-8.06a1.52,1.52,0,0,0-.43-1.33l-5.86-5.71,8.1-1.18a1.5,1.5,0,0,0,1.13-.82l3.62-7.33,3.62,7.33a1.5,1.5,0,0,0,1.13.82l8.09,1.18-5.86,5.71A1.52,1.52,0,0,0,175,160l1.39,8.06Z"/><path class="cls-1" d="M158.49,188.45a30.52,30.52,0,0,1-9-4.5c-.12-.1-.25-.19-.39-.29a31.9,31.9,0,0,1-4.14-3.62,9.4,9.4,0,0,0,5.68-4.72,9.27,9.27,0,0,0,.15-8.73,1.46,1.46,0,0,0-1.39-.75,9.34,9.34,0,0,0-7.16,5,9.67,9.67,0,0,0-1.15,4.25,33.75,33.75,0,0,1-4.24-10,10,10,0,0,0,1.79.17,9.53,9.53,0,0,0,5.41-1.71,9.34,9.34,0,0,0,4.2-7.66,1.51,1.51,0,0,0-.9-1.31,9.3,9.3,0,0,0-8.66,1.11,9.74,9.74,0,0,0-2.89,3c-.11-1.35-.19-2.75-.19-4.22a32,32,0,0,1,1-8,9.41,9.41,0,0,0,5,1.45,10,10,0,0,0,2.56-.34,9.27,9.27,0,0,0,6.51-5.82,1.5,1.5,0,0,0-.4-1.53,9.3,9.3,0,0,0-8.54-1.84,10,10,0,0,0-2.12.83c.17-.28.33-.54.5-.8s.24-.33.37-.54a23.73,23.73,0,0,1,6.32-6.24,10.45,10.45,0,0,0,3.94.74,11.17,11.17,0,0,0,6-1.76,10.94,10.94,0,0,0,5.31-8.79,1.49,1.49,0,0,0-.83-1.34A11.35,11.35,0,0,0,145.62,130a24.37,24.37,0,0,0-3.79,3.11,10,10,0,0,0-.34-2.71,9.27,9.27,0,0,0-5.82-6.51,1.5,1.5,0,0,0-1.53.4,9.66,9.66,0,0,0,3.21,14.74,29.52,29.52,0,0,0-3.42,10.33c-.17-.25-.35-.5-.54-.74a9.31,9.31,0,0,0-8-3.59,1.5,1.5,0,0,0-1.23,1,9.65,9.65,0,0,0,9.13,12.17h.4a41.94,41.94,0,0,0,1.65,9,9.72,9.72,0,0,0-2.15-1,9.27,9.27,0,0,0-8.63,1.35,1.47,1.47,0,0,0-.49,1.5,9.28,9.28,0,0,0,6.16,6.19,10,10,0,0,0,3.08.51,9.34,9.34,0,0,0,5-1.47,33.9,33.9,0,0,0,5.93,7.73,9.84,9.84,0,0,0-1.09,0,11.53,11.53,0,0,0-8.13,4.13,1.51,1.51,0,0,0,.08,1.91,11.4,11.4,0,0,0,8,3.48l.51,0a9.3,9.3,0,0,0,7.52-4.23,30.33,30.33,0,0,0,6.81,3,1,1,0,0,0,.25,0,1,1,0,0,0,.25-2Zm-13.64-16.18a6.5,6.5,0,0,1,3.69-3.2,6.8,6.8,0,0,1-4.27,8A6.51,6.51,0,0,1,144.85,172.27Zm-4.51-14.12a6.46,6.46,0,0,1,4.75-1.11,6.77,6.77,0,0,1-7.52,5.12A6.42,6.42,0,0,1,140.34,158.15Zm2.11-16.82a6.5,6.5,0,0,1,4.84.53,6.77,6.77,0,0,1-8.79,2.33A6.45,6.45,0,0,1,142.45,141.33ZM152.51,124a8.14,8.14,0,0,1,6.35-1.08,8.49,8.49,0,0,1-10.11,6.3A8.14,8.14,0,0,1,152.51,124Zm-20,31.21a6.78,6.78,0,0,1-5.7-7.09,6.78,6.78,0,0,1,5.7,7.09Zm-1.33,17.27a6.51,6.51,0,0,1-3.78-3.09,6.78,6.78,0,0,1,8.65,2.84A6.51,6.51,0,0,1,131.2,172.45Zm4-40.35a6.5,6.5,0,0,1,.53-4.84,6.77,6.77,0,0,1,2.33,8.79A6.45,6.45,0,0,1,135.2,132.1Zm8.32,56.47a8.09,8.09,0,0,1-5-1.55,8.28,8.28,0,0,1,4.87-2,6.45,6.45,0,0,1,4.62,1.53A6.44,6.44,0,0,1,143.52,188.57Z"/><path class="cls-1" d="M203.6,166.26a10.34,10.34,0,0,0-2.14,1,41.16,41.16,0,0,0,1.67-9.11l.49,0a9.43,9.43,0,0,0,7.35-3.62,9.33,9.33,0,0,0,1.78-8.55,1.51,1.51,0,0,0-1.23-1,9.34,9.34,0,0,0-8,3.59,9.53,9.53,0,0,0-.61.85A29.46,29.46,0,0,0,199.5,139a9.38,9.38,0,0,0,5.1-6.23,9.27,9.27,0,0,0-1.84-8.53,1.5,1.5,0,0,0-1.53-.41,9.72,9.72,0,0,0-6.15,9.3,24.47,24.47,0,0,0-3.85-3.16,11.35,11.35,0,0,0-15.53-9.51,1.5,1.5,0,0,0-.84,1.35,10.92,10.92,0,0,0,5.31,8.78,11.17,11.17,0,0,0,6,1.76,10.71,10.71,0,0,0,3.94-.73,23.88,23.88,0,0,1,7.27,7.7,10.33,10.33,0,0,0-2.1-.82,9.32,9.32,0,0,0-8.54,1.85,1.5,1.5,0,0,0-.4,1.53,9.29,9.29,0,0,0,6.51,5.82,10.09,10.09,0,0,0,2.56.34,9.28,9.28,0,0,0,5-1.43,32.37,32.37,0,0,1,.92,7.81c0,1.47-.07,2.86-.19,4.21a9.68,9.68,0,0,0-2.88-3,9.34,9.34,0,0,0-8.67-1.12,1.51,1.51,0,0,0-.89,1.31,9.29,9.29,0,0,0,4.2,7.66,9.43,9.43,0,0,0,5.4,1.71,9.25,9.25,0,0,0,1.8-.17,33.93,33.93,0,0,1-4.25,10,9.61,9.61,0,0,0-1.15-4.18,9.33,9.33,0,0,0-7.15-5,1.48,1.48,0,0,0-1.4.75,9.27,9.27,0,0,0,.15,8.73,9.39,9.39,0,0,0,5.62,4.7,30.59,30.59,0,0,1-3.59,3.2,10.76,10.76,0,0,0-1.15.84,30,30,0,0,1-8.76,4.31,1,1,0,0,0,.25,2,.77.77,0,0,0,.25,0,30.5,30.5,0,0,0,7-3.18,9.33,9.33,0,0,0,7.5,4.2h.52a11.41,11.41,0,0,0,8-3.47A1.51,1.51,0,0,0,202,186a11.46,11.46,0,0,0-8.13-4.13,10.23,10.23,0,0,0-1.11,0c.6-.59,1.19-1.21,1.77-1.87a1.74,1.74,0,0,0,.3-.36v0a34,34,0,0,0,3.65-5.25,9.3,9.3,0,0,0,5,1.48,10,10,0,0,0,3.08-.51,9.33,9.33,0,0,0,6.17-6.19,1.5,1.5,0,0,0-.5-1.5A9.25,9.25,0,0,0,203.6,166.26Zm2.29-15.8a6.49,6.49,0,0,1,4.22-2.45,6.78,6.78,0,0,1-5.7,7.1A6.5,6.5,0,0,1,205.89,150.46ZM181.76,128a8.12,8.12,0,0,1-3.76-5.22,8.46,8.46,0,0,1,10.1,6.29A8.1,8.1,0,0,1,181.76,128Zm11.85,16.75a6.45,6.45,0,0,1-4-2.86,6.75,6.75,0,0,1,8.79,2.32A6.43,6.43,0,0,1,193.61,144.79Zm.93,16.19a6.47,6.47,0,0,1-2.77-4,6.75,6.75,0,0,1,7.51,5.13A6.48,6.48,0,0,1,194.54,161Zm-5.64,12.93a6.46,6.46,0,0,1-.58-4.84,6.78,6.78,0,0,1,4.26,8A6.52,6.52,0,0,1,188.9,173.91Zm4.8,10.91a8.34,8.34,0,0,1,4.87,2,8.08,8.08,0,0,1-5,1.55,6.47,6.47,0,0,1-4.46-2A6.42,6.42,0,0,1,193.7,184.82Zm4.61-53.72a6.48,6.48,0,0,1,2.86-3.95,6.79,6.79,0,0,1-2.32,8.8A6.46,6.46,0,0,1,198.31,131.1Zm7.32,41.35a6.5,6.5,0,0,1-4.87-.25,6.75,6.75,0,0,1,8.64-2.83A6.44,6.44,0,0,1,205.63,172.45Z"/><path class="cls-1" d="M200.79,230.39H136.14a1.5,1.5,0,0,0-1.5,1.5v61.92a1.51,1.51,0,0,0,1.5,1.5h64.65a1.5,1.5,0,0,0,1.5-1.5V231.89A1.5,1.5,0,0,0,200.79,230.39Zm-24.46,3L137.64,289V233.39ZM146.7,281.26l8.51,11.05H139Zm1.2-1.72.22-.33h18l-8.74,12.63Zm51.39,12.77H160.71l36.12-52.21a1.5,1.5,0,0,0-2.47-1.71l-26.85,38.82h-18L180,233.39h19.3Z"/><path class="cls-1" d="M297.75,251.15a1.47,1.47,0,0,0,.73.19,1.49,1.49,0,0,0,1.31-.77l14.06-25.13a1.49,1.49,0,0,0-1.31-2.23H295.29A1.51,1.51,0,0,0,294,224l-7.35,13-7.34-13a1.51,1.51,0,0,0-1.31-.76H260.72a1.49,1.49,0,0,0-1.31,2.22l15.44,28-.23.11h0l-.67.36-.1.07h0a25.92,25.92,0,1,0,26.27.35h0l-.19-.11h0a25.52,25.52,0,0,0-4.74-2.21l-6.78-12,7.81-13.84H310l-12.82,22.9A1.51,1.51,0,0,0,297.75,251.15Zm-34.49-24.94h5.06L282.27,251a26.18,26.18,0,0,0-4.67,1.25Zm46.3,50.35a22.93,22.93,0,1,1-34.27-19.92l0,0h0l.68-.36a22.63,22.63,0,0,1,10.61-2.61,22.91,22.91,0,0,1,11.71,3.21h0l.12.07.05,0h0A22.79,22.79,0,0,1,309.56,276.56Zm-22.93-25.93-1.11,0-13.76-24.45h5.34l8.23,14.58L291.1,251A25.62,25.62,0,0,0,286.63,250.63Z"/><path class="cls-1" d="M286.63,257.29a19.27,19.27,0,1,0,19.27,19.27A19.29,19.29,0,0,0,286.63,257.29Zm0,35.54a16.27,16.27,0,1,1,16.27-16.27A16.28,16.28,0,0,1,286.63,292.83Z"/><path class="cls-1" d="M295.17,267.93h-10.9a1,1,0,0,0-.91.61l-6.54,15.25a1,1,0,0,0,.92,1.4h10.89a1,1,0,0,0,.92-.61l6.54-15.25a1,1,0,0,0-.08-.95A1,1,0,0,0,295.17,267.93ZM288,283.19h-8.72l5.68-13.26h8.73Z"/><path class="cls-1" d="M80.11,286.06l-10-7.4h0L68,277.1h.07l2.34-.55a1.49,1.49,0,0,0,.63.71,1.62,1.62,0,0,0,.73.19,1.49,1.49,0,0,0,1.31-.77l.31-.56A34.84,34.84,0,1,0,55.76,292l.43-.19,1.13,7.85a1.5,1.5,0,0,0,1.11,1.24,1.57,1.57,0,0,0,.37.05,1.51,1.51,0,0,0,1.2-.59l7.4-9.69,12.06-1.91a1.52,1.52,0,0,0,1.22-1.13A1.5,1.5,0,0,0,80.11,286.06ZM10.8,260.64h8.33a43.94,43.94,0,0,0,2.74,15.13c-3.61-.6-6.24-1.19-7.53-1.5A31.64,31.64,0,0,1,10.8,260.64Zm3.52-15.58c1.37-.3,4-.84,7.51-1.39a43.49,43.49,0,0,0-2.7,15H10.8A31.73,31.73,0,0,1,14.32,245.06Zm60.21,13.58H65.61a44,44,0,0,0-2.72-15.2c2.71.44,5.44,1,8.15,1.68A31.62,31.62,0,0,1,74.53,258.64Zm-10.92,0h-11a90.66,90.66,0,0,0-1.48-16.48c3.09.18,6.27.48,9.49.93A41.79,41.79,0,0,1,63.61,258.64ZM42.88,291.53h-.33c-1.3-1.4-4-5-6.06-12.16,2.38.14,4.87.22,7.49.22,1.5,0,3,0,4.59-.08C46.72,286.87,44.13,290.25,42.88,291.53ZM36,277.35a74.82,74.82,0,0,1-1.85-16.71H50.64A85.89,85.89,0,0,1,49,277.49,130.24,130.24,0,0,1,36,277.35Zm-11.77-1.22a40.73,40.73,0,0,1-3.06-15.49h11a78,78,0,0,0,1.75,16.56C30.18,276.92,26.91,276.53,24.19,276.13Zm9.92-17.49a74.54,74.54,0,0,1,1.81-16.45c4.08-.23,8.53-.31,13.19-.12a87.51,87.51,0,0,1,1.53,16.57Zm8.56-30.88h.23c1.29,1.29,3.92,4.7,5.76,12.29-4.3-.15-8.41-.09-12.22.12,2-7.27,4.81-11,6.12-12.41Zm8,12.38c-1.39-6-3.28-9.69-4.83-11.88a26.25,26.25,0,0,1,13.77,12.68C56.63,240.55,53.64,240.29,50.72,240.14Zm-16.42.15c-3.39.23-6.49.56-9.24.91a26.73,26.73,0,0,1,14.59-13A36.07,36.07,0,0,0,34.3,240.29Zm-.49,2a78.51,78.51,0,0,0-1.7,16.31h-11a40.89,40.89,0,0,1,2.94-15.29C26.9,243,30.19,242.59,33.81,242.33Zm.55,36.91a36.16,36.16,0,0,0,5.24,11.84A27.38,27.38,0,0,1,25.23,278.3C27.87,278.66,31,279,34.36,279.24Zm16.31.16,2.2-.12,1.5-.13.79,5.51q-.49.52-1,1A26.22,26.22,0,0,1,45.93,291,33.64,33.64,0,0,0,50.67,279.4Zm4.62-11.75a1.5,1.5,0,0,0-2.37,1.42l1.16,8.1-1.36.11-1.62.1a89.42,89.42,0,0,0,1.54-16.74h11a45.39,45.39,0,0,1-1.45,11.06c-.08.29-.18.56-.26.84ZM71,274.34c-1.07.28-2.16.55-3.28.79l-1.8.37h0l-2.29-1.7c.17-.52.35-1,.49-1.57a47.85,47.85,0,0,0,1.52-11.59h8.93A31.94,31.94,0,0,1,71,274.34Zm-1.28-31.61c-2.58-.6-5.16-1.08-7.72-1.47A29.29,29.29,0,0,0,51.39,229,32,32,0,0,1,69.68,242.73ZM33.55,229.09a29.47,29.47,0,0,0-10.8,12.43c-3,.43-5.39.87-7.1,1.22A32,32,0,0,1,33.55,229.09ZM15.7,276.63c1.69.37,4.11.84,7.11,1.31a29.24,29.24,0,0,0,10.48,12.18A32,32,0,0,1,15.7,276.63Zm35.85,13.64a28,28,0,0,0,4-3.14l.23,1.58c-.38.17-.74.35-1.12.5A31.11,31.11,0,0,1,51.55,290.27Zm14.79-2.48a1.46,1.46,0,0,0-1,.57l-5.61,7.33-.9-6.29-.74-5.11-.93-6.47-.81-5.62,5,3.69h0l2.71,2h0l4.25,3.15h0l7.12,5.28Z"/><path class="cls-1" d="M308,383.75l.26-.24.08-.05.25-.27c2.57-.43,5.08-.92,7.48-1.5a32.41,32.41,0,0,1-2.95,4.73,1.51,1.51,0,0,0,.3,2.1,1.54,1.54,0,0,0,.9.3,1.52,1.52,0,0,0,1.21-.6,36.06,36.06,0,0,0-3.86-47.56,1.8,1.8,0,0,0-.2-.19,36,36,0,0,0-49.75,0l-.12.12A36,36,0,0,0,259.16,390a14.88,14.88,0,0,0-1.65,6.81V401a1.5,1.5,0,0,0,1.5,1.5h12.43v2.63a1.5,1.5,0,0,0,1.5,1.5h26.84a1.5,1.5,0,0,0,1.5-1.5v-2.5h13a1.5,1.5,0,0,0,1.5-1.5v-4.32a14.92,14.92,0,0,0-2.19-7.78A15.12,15.12,0,0,0,308,383.75ZM291,371.5a10.57,10.57,0,0,0-8.9-.19,10.8,10.8,0,0,0-2.83-3.7H294A10.79,10.79,0,0,0,291,371.5Zm-30.14,15.88a32.89,32.89,0,0,1-3.47-5.25c1.66.32,4.12.74,7.22,1.17l.05.07,0,0a1.27,1.27,0,0,0,.27.25l.07.06.13.07A14.91,14.91,0,0,0,260.89,387.38Zm49.6-21.77-.13-.12A47.93,47.93,0,0,0,308.3,352c3.05.5,6,1.12,8.85,1.84a32.79,32.79,0,0,1,2.54,11.81Zm-9.66-.5a10.73,10.73,0,0,0-3.18.5H297l-.12-.11a98.21,98.21,0,0,0-1.17-14.91c3.57.21,7,.55,10.32,1a45.12,45.12,0,0,1,2.29,13.91l-.09.09H304A10.83,10.83,0,0,0,300.83,365.11Zm-28.4,0a10.8,10.8,0,0,0-3.23.5h-4.82l-.09-.09a44,44,0,0,1,2.34-13.87c3.46-.44,7-.77,10.47-1a85.34,85.34,0,0,0-1.37,14.83l-.12.12h0A11,11,0,0,0,272.43,365.11Zm14.2-31.58h.22a16.1,16.1,0,0,1,2.51,3.43c-1.78-.07-3.57-.07-5.34,0a20.12,20.12,0,0,1,2.5-3.41ZM282.91,339c2.47-.11,5-.1,7.49,0a43.75,43.75,0,0,1,2.94,9.45c-4.47-.19-9.08-.17-13.74,0A44.29,44.29,0,0,1,282.91,339Zm12.48,9.57a48.9,48.9,0,0,0-2.73-9.38c2,.16,4.11.38,6.14.7a29.19,29.19,0,0,1,6.46,9.61C302.09,349.06,298.79,348.75,295.39,348.56Zm-3.7-11.47a22.38,22.38,0,0,0-1.79-3,27.4,27.4,0,0,1,6.07,3.39C294.55,337.32,293.12,337.18,291.69,337.09Zm-10,0c-1.54.09-3.08.22-4.61.4a29.2,29.2,0,0,1,6.54-3.5A28.28,28.28,0,0,0,281.66,337.06Zm-7.53,2.82c2.13-.34,4.31-.59,6.5-.75a47.91,47.91,0,0,0-3.11,9.5c-3.36.2-6.74.51-10.07.9A29,29,0,0,1,274.13,339.88Zm3.7,25.73-.1-.1a82.35,82.35,0,0,1,1.43-15c4.94-.25,9.83-.27,14.55-.06a95.31,95.31,0,0,1,1.21,15l-.1.1Zm29.71-15.8a32.34,32.34,0,0,0-5.46-9.34q3.48.7,6.84,1.73l.58.52a33.13,33.13,0,0,1,6.55,8.75C313.31,350.81,310.46,350.26,307.54,349.81ZM299.73,338a28.9,28.9,0,0,0-4.17-3.25A33.08,33.08,0,0,1,304.9,339Q302.34,338.44,299.73,338Zm-26.52,0c-1.74.28-3.3.6-4.66.92a32.72,32.72,0,0,1,8.76-4.05A30.84,30.84,0,0,0,273.21,338Zm-9.44,4.72h0l.67-.62a62.63,62.63,0,0,1,6.35-1.62,31.83,31.83,0,0,0-5.61,9.34c-3.34.44-6,.9-7.75,1.23A33,33,0,0,1,263.77,342.72Zm-7.44,10.59c1.38-.28,4.21-.82,8.09-1.37a47,47,0,0,0-2.13,13.55l-.13.12h-8.58A32.7,32.7,0,0,1,256.33,353.31Zm5.47,14.3c0,1.77.13,3.51.33,5.27a11,11,0,0,0-.42,3,10.49,10.49,0,0,0,1.38,5.21c-3.22-.48-5.57-.93-6.77-1.17a33.15,33.15,0,0,1-2.75-12.27Zm3,.67c0-.22,0-.44,0-.67h.74C265.29,367.83,265.05,368.05,264.82,368.28Zm43-.67a.81.81,0,0,1,0,.16l-.17-.16Zm2.44,13.26a10.56,10.56,0,0,0,.36-9.27c.11-1.31.17-2.64.2-4h8.82a32.79,32.79,0,0,1-2.51,11.75Q313.85,380.22,310.3,380.87Zm-49.79,15.94a11.88,11.88,0,0,1,6.9-10.79,11.26,11.26,0,0,1,1.31-.53,1.51,1.51,0,0,0,.22-2.77,7.75,7.75,0,0,1-1.85-1.32l-.23-.24h0a7.67,7.67,0,0,1-1.78-7.68h0a7.71,7.71,0,0,1,14.47-.59,10.65,10.65,0,0,0-3.51,5.39h0a10.53,10.53,0,0,0-.4,2.88,10.83,10.83,0,0,0,.33,2.56v0a1.6,1.6,0,0,0,0,.21s0,.05,0,.08l0,.11c.09.31.19.62.31.92h0a10.75,10.75,0,0,0,1.49,2.61h0a10.5,10.5,0,0,0,1.28,1.39A14.92,14.92,0,0,0,274,393.8h0c-.17.24-.32.49-.47.75h0a14.65,14.65,0,0,0-1.53,3.63h0a11.78,11.78,0,0,0-.29,1.31H260.51Zm37.77,6.82H274.44v-1.52a12,12,0,0,1,.43-3.13h0a11.84,11.84,0,0,1,1.23-2.91h0c.12-.2.25-.4.38-.59h0a11.93,11.93,0,0,1,4.37-3.92h0a12.18,12.18,0,0,1,1.8-.77,1.5,1.5,0,0,0,.22-2.76,7.75,7.75,0,0,1-2.6-2.17h0a7.9,7.9,0,0,1-1.08-1.89h0a7,7,0,0,1-.27-.81h0a7.89,7.89,0,0,1-.27-2,7.34,7.34,0,0,1,.29-2.07h0a7.72,7.72,0,0,1,14.9.11h0a7.82,7.82,0,0,1,.26,2,7.45,7.45,0,0,1-.22,1.73h0c0,.07,0,.14-.05.21l-.05.14h0a7.06,7.06,0,0,1-.32,1h0a8,8,0,0,1-.64,1.19h0a7.8,7.8,0,0,1-2.94,2.62,1.5,1.5,0,0,0,.21,2.76,12.28,12.28,0,0,1,2.12.94h0a12.08,12.08,0,0,1,4.08,3.77c.15.23.29.46.43.69h0a12.24,12.24,0,0,1,1.21,2.94h0a12,12,0,0,1,.37,3v1.52Zm14.47-4H301.07c-.07-.41-.15-.83-.26-1.23h0a14.94,14.94,0,0,0-1.51-3.69h0c-.17-.29-.35-.58-.54-.86a15.11,15.11,0,0,0-5.09-4.71h0l-.08-.05a11,11,0,0,0,1.72-2h0a11.29,11.29,0,0,0,.89-1.64h0a8.71,8.71,0,0,0,.48-1.4h0l0-.11c0-.12.07-.23.09-.35h0a10.58,10.58,0,0,0,.3-2.41,11,11,0,0,0-.35-2.71h0a10.74,10.74,0,0,0-3.15-5.2,7.77,7.77,0,0,1,3.14-3.92h0a7.73,7.73,0,0,1,11.84,6.53,7.64,7.64,0,0,1-1.65,4.73,10.42,10.42,0,0,1-1.21,1.24,7.54,7.54,0,0,1-1.37.91,1.5,1.5,0,0,0,.21,2.77c.32.1.62.22.93.35A12,12,0,0,1,311,390.6a11.82,11.82,0,0,1,1.75,6.21Z"/><path class="cls-1" d="M308.91,135.74l-34.4-16.53a1.47,1.47,0,0,0-1.45.08,1.5,1.5,0,0,0-.7,1.27v37.87l-11.05,16.34a1.5,1.5,0,0,0,.3,2l5.26,4.24a1.49,1.49,0,0,0,2-.14l4.93-5.17L307.61,192a1.5,1.5,0,0,0,2.15-1.35V137.09A1.5,1.5,0,0,0,308.91,135.74Zm-41.24,42.07-3.1-2.5,10.53-15.58h0l10.49-15.5,8,6.36-20.85,21.88Zm39.09,10.41L276,173.43l20.94-22a1.51,1.51,0,0,0,.41-1.14,1.49,1.49,0,0,0-.56-1.07l-10.59-8.39a1.48,1.48,0,0,0-2.17.34L275.36,154V122.94l31.4,15.1Z"/><path class="cls-1" d="M265.37,182.88l-5.26-4.24a1.51,1.51,0,0,0-1.1-.32,1.49,1.49,0,0,0-1,.55l-4.23,5.26a1.49,1.49,0,0,0,.22,2.11l5.26,4.23a1.48,1.48,0,0,0,.94.33h.16a1.49,1.49,0,0,0,1-.55l4.23-5.25A1.5,1.5,0,0,0,265.37,182.88ZM260,187.19,257,184.84l2.36-2.92,2.92,2.35Z"/><path class="cls-1" d="M318.33,125.19H296.17a1.5,1.5,0,0,0,0,3h20.66v51.06h-4.54a1.5,1.5,0,0,0,0,3h6a1.5,1.5,0,0,0,1.5-1.5V126.69A1.5,1.5,0,0,0,318.33,125.19Z"/><path class="cls-1" d="M185.44,362.65a1,1,0,0,0-.87-.51h-5.22l6.06-9.85a1,1,0,0,0-.85-1.53h-7a1,1,0,0,0-.85.48L170,362.14h-4.64l1.46-2.37.09-.12,3.62-5.9a1,1,0,0,0-.85-1.53h-14a1,1,0,0,0-.86.48l-3.62,5.9a1,1,0,0,0,.85,1.52h5.19l-5.16,8.4a1,1,0,0,0,0,1,1,1,0,0,0,.87.51h5.21l-6.06,9.85a1,1,0,0,0,.85,1.52h21a1,1,0,0,0,.86-.47l10.62-17.28A1,1,0,0,0,185.44,362.65Zm-14.31,1.49h4.65L170,373.52h-4.65Zm7-11.38h4.65L177,362.14h-4.65Zm-4.73,26.65H154.73l6.06-9.85a1,1,0,0,0,0-1,1,1,0,0,0-.87-.51h-5.21l5.16-8.39a1,1,0,0,0-.85-1.53h-5.19l2.39-3.9h11.65l-2.61,4.25-.09.13-2.47,4a1,1,0,0,0,0,1,1,1,0,0,0,.87.51h5.21L162.72,374a1,1,0,0,0,.85,1.53h7a1,1,0,0,0,.85-.48l6.71-10.9h4.65Z"/><path class="cls-1" d="M209.43,378.33a2.31,2.31,0,0,0-2.33,0,40.61,40.61,0,0,1-8.89,3.7A33.86,33.86,0,1,0,137.88,381a19.07,19.07,0,0,1-8.16-3.14,2.12,2.12,0,0,0-2.2-.13,2.16,2.16,0,0,0-1.15,1.9v13.7a1.49,1.49,0,0,0,.17.68c2.43,4.71,7.27,5.54,9.12,5.69v2.82a2.12,2.12,0,0,0,3,1.94c2.94-1.25,13.86-5.07,31.17-1.61A98.37,98.37,0,0,0,189,405c7.47,0,10.84-1.29,11.06-1.38a1.5,1.5,0,0,0,.94-1.39V387a1.5,1.5,0,0,0-.05-.37,3.24,3.24,0,0,0-1.18-1.94,41.57,41.57,0,0,0,7.8-3.22L207.35,393a9,9,0,0,1-4.6,3.53,1.5,1.5,0,0,0,.42,2.94,1.52,1.52,0,0,0,.42-.06,11.75,11.75,0,0,0,6.58-5.3,1.46,1.46,0,0,0,.17-.68l.22-13.05A2.33,2.33,0,0,0,209.43,378.33Zm-13,7.87-1,.22.37-.5Zm-28.11-51a30.86,30.86,0,0,1,22.57,51.9c-.71.07-1.36.11-1.92.11-2.38,0-5-.12-7.86-.37-5.94-.51-10.72-1.39-10.76-1.4-.53-.1-13.1-2.43-17.9-2.43-.44,0-.84,0-1.25,0a23.89,23.89,0,0,1-7-17,24.13,24.13,0,0,1,48.25,0,23.9,23.9,0,0,1-7.2,17.17c-.38.38-.78.75-1.19,1.1a1.5,1.5,0,0,0-.15,2.11A1.45,1.45,0,0,0,185,387a1.5,1.5,0,0,0,1-.36c.46-.39.9-.8,1.34-1.23a27.13,27.13,0,1,0-39.94-2,30.6,30.6,0,0,0-4.11.78,30.54,30.54,0,0,1-5.85-18A30.9,30.9,0,0,1,168.32,335.22ZM136.07,387.7a1.52,1.52,0,0,0-.41,1v7.91a8.12,8.12,0,0,1-6.29-3.75V381.15a22.24,22.24,0,0,0,10.28,3c.21.34.43.66.66,1A12.7,12.7,0,0,0,136.07,387.7ZM198,401.06c-2.69.66-11.26,2.07-27.6-1.2s-27.35-.3-31.71,1.31V389.42a14.79,14.79,0,0,1,4.47-2.14,29.66,29.66,0,0,1,7.52-1.21c.58,0,1.17,0,1.8,0,4.53,0,17.22,2.36,17.35,2.38s5,.91,11,1.44c2.93.25,5.66.38,8.12.38a25.22,25.22,0,0,0,2.81-.18,56.55,56.55,0,0,0,6.19-1.13Z"/><path class="cls-1" d="M35.38,364.15h5.45l-5.39,8.77a1,1,0,0,0,.85,1.52h5.48l-6.33,10.29a1,1,0,0,0,0,1,1,1,0,0,0,.87.51h21.8a1,1,0,0,0,.85-.48l11-17.93a1,1,0,0,0,0-1,1,1,0,0,0-.87-.51H63.64L70,356a1,1,0,0,0-.85-1.52H61.85A1,1,0,0,0,61,355l-7,11.33H49.11l1.55-2.52a.38.38,0,0,0,.09-.13l3.77-6.12a1,1,0,0,0-.85-1.52H39.14a1,1,0,0,0-.85.47l-3.77,6.13a1,1,0,0,0,.86,1.52Zm19.77,4.17h4.92l-6,9.81H49.11Zm7.26-11.81h4.91l-6,9.81H56.37ZM39.7,358H51.88l-2.75,4.47a.38.38,0,0,0-.09.13l-2.57,4.17a1,1,0,0,0,0,1,1,1,0,0,0,.87.51H52.8L46.47,378.6a1,1,0,0,0,.85,1.53h7.27a1,1,0,0,0,.85-.48l7-11.33h4.92l-9.8,15.93H38.08L44.41,374a1,1,0,0,0,0-1,1,1,0,0,0-.87-.52H38.08l5.39-8.77a1,1,0,0,0,0-1,1,1,0,0,0-.88-.51H37.16Z"/><path class="cls-1" d="M12.71,344.05a1.5,1.5,0,0,0-1.5,1.5v46.06a1.5,1.5,0,0,0,1.5,1.5H75.86a1.5,1.5,0,0,0,1.5-1.5V345.55a1.5,1.5,0,0,0-1.5-1.5Zm61.65,46.06H14.21V347.05H74.36Z"/><path class="cls-1" d="M83.62,387.89a1.5,1.5,0,0,0,1.5-1.5V338.58a1.5,1.5,0,0,0-1.5-1.5H4.87a1.5,1.5,0,0,0-1.5,1.5v60a1.5,1.5,0,0,0,1.5,1.5H83.62a1.5,1.5,0,0,0,1.5-1.5v-7a1.5,1.5,0,0,0-3,0v5.47H6.37v-57H82.12v46.31A1.5,1.5,0,0,0,83.62,387.89Z"/><path class="cls-1" d="M9.82,138.46a1.5,1.5,0,0,0-1.5,1.5V183a1.5,1.5,0,0,0,1.5,1.5H78.68a1.5,1.5,0,0,0,1.5-1.5V140a1.5,1.5,0,0,0-1.5-1.5Zm67.36,5.44h-23a1,1,0,0,0-1,1v10H39.22a1,1,0,0,0-1,1v5.54H34.38v-9.18H36.3a1,1,0,0,0,1-1v-9.81H77.18Zm-42.8,19.55h3.84v18.07H34.38Zm5.84-6.54H53.16v24.61H40.22ZM35.3,141.46v8.81h-24v-8.81Zm-24,10.81H32.38v29.25H11.32Zm43.84,29.25V145.9h22v6.32H72.24a1,1,0,0,0-1,1v7.46a1,1,0,0,0,1,1h4.94v19.84Zm21.73-27.3v5.46H73.24v-5.46Z"/><path class="cls-1" d="M66.59,152.22H60.94a1,1,0,0,0-1,1v7.46a1,1,0,0,0,1,1h5.65a1,1,0,0,0,1-1v-7.46A1,1,0,0,0,66.59,152.22Zm-1,7.46H61.94v-5.46h3.65Z"/><path class="cls-1" d="M66.59,165.27H60.94a1,1,0,0,0-1,1v7.45a1,1,0,0,0,1,1h5.65a1,1,0,0,0,1-1v-7.45A1,1,0,0,0,66.59,165.27Zm-1,7.45H61.94v-5.45h3.65Z"/><path class="cls-1" d="M26.21,156H18.83a1,1,0,0,0-1,1V170a1,1,0,0,0,1,1h7.38a1,1,0,0,0,1-1V157A1,1,0,0,0,26.21,156Zm-1,13.05H19.83V158h5.38Z"/><path class="cls-1" d="M84.78,178.1a1.5,1.5,0,0,0,1.5-1.5V133.91a1.5,1.5,0,0,0-1.5-1.5H72l-.19-.08c-4-1.28-8-2.64-12-4-3.65-1.23-7.41-2.49-11.13-3.69a4.48,4.48,0,0,0-8.92,0l-23.24,7.61-.18.08H3.72a1.5,1.5,0,0,0-1.5,1.5v55.16a1.5,1.5,0,0,0,1.5,1.5H84.78a1.5,1.5,0,0,0,1.5-1.5v-6.41a1.5,1.5,0,0,0-3,0v4.91H5.22V135.41H83.28V176.6A1.5,1.5,0,0,0,84.78,178.1ZM44.25,123.6a1.5,1.5,0,1,1-1.5,1.5A1.5,1.5,0,0,1,44.25,123.6Zm-3.72,4a4.5,4.5,0,0,0,7.46,0c3.64,1.18,7.32,2.41,10.9,3.61l3.59,1.2H25.94Z"/><path class="cls-1" d="M140.92,48.68c-1.78,0-2.84-.61-2.84-1.65s1.14-2,2.77-2a4.16,4.16,0,0,1,2.89,1.15,1,1,0,0,0,1.4.07,1,1,0,0,0,.08-1.41,6.17,6.17,0,0,0-4.37-1.81c-2.77,0-4.77,1.66-4.77,4,0,1.69,1.27,3.65,4.84,3.65.89,0,3.79.15,3.79,2.08,0,.59,0,2.15-3.19,2.15-2.66,0-3.64-1.08-3.66-1.11a1,1,0,1,0-1.56,1.26c.15.19,1.6,1.85,5.22,1.85,4.69,0,5.19-2.9,5.19-4.15C146.71,50.24,144.49,48.68,140.92,48.68Z"/><path class="cls-1" d="M157.32,43.16a1,1,0,0,0-1,1v7.77a2.78,2.78,0,0,1-3,2.89,2.74,2.74,0,0,1-2.74-3V44.16a1,1,0,0,0-2,0v7.66a5.73,5.73,0,0,0,1.45,3.74,4.44,4.44,0,0,0,3.29,1.26,4.74,4.74,0,0,0,5-4.88V44.16A1,1,0,0,0,157.32,43.16Z"/><path class="cls-1" d="M168.63,49a3.69,3.69,0,0,0,.67-2.23A3.47,3.47,0,0,0,166,43.17h-4.85a1,1,0,0,0-1,1V55.88a1,1,0,0,0,1,1h5.61a3.57,3.57,0,0,0,2.42-1,4.42,4.42,0,0,0,1.2-3.3A4.11,4.11,0,0,0,168.63,49Zm-6.46-3.78h3.75a1.46,1.46,0,0,1,1.38,1.55c0,1.33-.8,1.54-1.28,1.54h-3.85Zm4.6,9.71h-4.6V50.26h4.53a2.06,2.06,0,0,1,1.7,2.31C168.4,54.7,167.16,54.88,166.77,54.88Z"/><path class="cls-1" d="M182.38,43.09a1,1,0,0,0-1.06.56l-2.87,6.17-2.82-6.16a1,1,0,0,0-1.06-.57,1,1,0,0,0-.84.86l-1.49,11.83a1,1,0,0,0,.87,1.12h.13a1,1,0,0,0,1-.88l1.05-8.34,2.25,4.93a1,1,0,0,0,.91.59h0a1,1,0,0,0,.91-.58l2.3-5,1,8.24a1,1,0,0,0,2-.24L183.22,44A1,1,0,0,0,182.38,43.09Z"/><path class="cls-1" d="M187.43,43.08a1,1,0,0,0-1,1V55.91a1,1,0,0,0,2,0V44.08A1,1,0,0,0,187.43,43.08Z"/><path class="cls-1" d="M199.86,43.08H191a1,1,0,0,0,0,2h3.44V55.91a1,1,0,0,0,2,0V45.08h3.44a1,1,0,0,0,0-2Z"/><path class="cls-1" d="M202.77,31.09h-5.33v-27a1.5,1.5,0,0,0-1.5-1.5H141a1.5,1.5,0,0,0-1.5,1.5v27h-5.32a8.61,8.61,0,0,0-8.36,8.83V60.07a8.61,8.61,0,0,0,8.36,8.82h5.38l-.06,11.64a1.52,1.52,0,0,0,.44,1.07A1.5,1.5,0,0,0,141,82h39.49l.33,2.28a1.51,1.51,0,0,0,1.11,1.24,1.58,1.58,0,0,0,.38,0,1.52,1.52,0,0,0,1.19-.59l6.21-8.13,10.1-1.6A1.5,1.5,0,0,0,201,74.16a1.48,1.48,0,0,0-.56-1.56l-5-3.71h7.31a8.61,8.61,0,0,0,8.36-8.82V39.92A8.61,8.61,0,0,0,202.77,31.09ZM142.49,5.61h51.95V31.09H142.49Zm0,73.43.05-10.15h36L180.05,79Zm46.14-5a1.48,1.48,0,0,0-1,.57l-4.41,5.77-1.89-13.18-.81-5.6,9.46,7,5.78,4.28Zm19.49-13.95a5.61,5.61,0,0,1-5.36,5.82H191.42L179.47,57a1.52,1.52,0,0,0-1.67-.09,1.49,1.49,0,0,0-.71,1.5l1.07,7.45h-44a5.61,5.61,0,0,1-5.36-5.82V39.92a5.62,5.62,0,0,1,5.36-5.83h68.6a5.62,5.62,0,0,1,5.36,5.83Z"/><path class="cls-1" d="M195.17,76.61a1.5,1.5,0,0,0-1.5,1.5v.69H190.5a1.5,1.5,0,0,0,0,3h4.67a1.5,1.5,0,0,0,1.5-1.5V78.11A1.5,1.5,0,0,0,195.17,76.61Z"/><path class="cls-1" d="M187.51,18.61H150.22a1.5,1.5,0,0,0,0,3h37.29a1.5,1.5,0,0,0,0-3Z"/><path class="cls-1" d="M67.83,24.69a1.48,1.48,0,0,0,1.36.88,1.5,1.5,0,0,0,.62-.13l13-5.87a1.5,1.5,0,1,0-1.24-2.73l-13,5.87A1.49,1.49,0,0,0,67.83,24.69Z"/><path class="cls-1" d="M63.11,16.75a1.48,1.48,0,0,0,2-.54L72.79,3.15A1.5,1.5,0,0,0,70.2,1.64L62.57,14.7A1.49,1.49,0,0,0,63.11,16.75Z"/><path class="cls-1" d="M87.28,35.19l-14.85-2.9a1.5,1.5,0,1,0-.57,3l14.85,2.89a1.43,1.43,0,0,0,.29,0,1.5,1.5,0,0,0,.28-3Z"/><path class="cls-1" d="M73,49.49a1.5,1.5,0,0,0-2.74,1.23l.66,1.47a.61.61,0,0,1,0,.5,1.12,1.12,0,0,1-.6.57l-3.65,1.65a.92.92,0,0,1-1.22-.25L43.4,5.84c-.16-.35.13-.86.62-1.08l3.66-1.64a1.13,1.13,0,0,1,.82-.07.61.61,0,0,1,.4.31L68.07,45.93a1.5,1.5,0,1,0,2.74-1.23L51.63,2.13A3.58,3.58,0,0,0,49.4.18a4.16,4.16,0,0,0-3,.2L42.79,2a3.88,3.88,0,0,0-2.13,5l.26.56L22.5,29.33h0L3.1,38.11A4.67,4.67,0,0,0,.78,44.27l.26.56c-.87,1.54-1.91,4.72.2,9.37s5.18,6,6.91,6.35l.25.55A4.59,4.59,0,0,0,11,63.54a4.66,4.66,0,0,0,1.64.3,4.38,4.38,0,0,0,.95-.1C13.78,66,14.64,69.83,17.42,76c3,6.67,5.47,9.79,7,11.23a3.73,3.73,0,0,0,2.56,1,3.83,3.83,0,0,0,1.61-.35L43.52,81.1a4.38,4.38,0,0,0,2.48-3,4.09,4.09,0,0,0-.92-3.6c-3.27-3.77-8.84-11.2-10.64-19.81l27.88.49.33.74A3.72,3.72,0,0,0,66.1,58a4.17,4.17,0,0,0,1.74-.38L71.5,56a4.17,4.17,0,0,0,2.1-2.08,3.66,3.66,0,0,0,0-3ZM3.06,53.38a9.32,9.32,0,0,1-.87-6L7,58A9.24,9.24,0,0,1,3.06,53.38Zm9,7.35a1.64,1.64,0,0,1-.93-.86L3.52,43a1.58,1.58,0,0,1,0-1.26,1.64,1.64,0,0,1,.86-.93L23,32.42l9,19.85L13.32,60.69A1.58,1.58,0,0,1,12.06,60.73Zm31,16.7a1.37,1.37,0,0,1-.79.94L27.34,85.13a.8.8,0,0,1-.87-.11c-1.09-1-3.35-3.73-6.32-10.29-3.31-7.31-3.64-10.91-3.61-12.2l15.05-6.81c2,9.08,7.81,16.79,11.23,20.71A1.17,1.17,0,0,1,43.07,77.43ZM35,51.67,25.4,30.54,42.22,10.73,61,52.13Z"/><path class="cls-1" d="M319,9.79H270.66c-.77-2.71-3.14-5.9-8.78-5.9-7.19,0-9.09,5.2-9.09,8v63a8.81,8.81,0,0,0,2.11,6.29c1.91,2.14,4.89,3.23,8.87,3.23h45.54a1.5,1.5,0,0,0,0-3H263.77c-3.07,0-5.29-.74-6.61-2.2a5.92,5.92,0,0,1-1.38-4.1v0s0,0,0,0A6.16,6.16,0,0,1,268,75a1.51,1.51,0,0,0,1.5,1.41H319a1.5,1.5,0,0,0,1.5-1.5V11.29A1.5,1.5,0,0,0,319,9.79Zm-51,59a10.07,10.07,0,0,0-12.18,0V11.85c0-.51.24-5,6.09-5s6.08,4.43,6.09,5Zm49.52,4.62H271.07L271,12.79h46.52Z"/><path class="cls-1" d="M313.65,77.85H263.73c-2.45,0-3.1-.78-3.41-1.15a1.8,1.8,0,0,1,0-2.46,2.05,2.05,0,0,1,1.67-.71,2.07,2.07,0,0,1,2.24,1.83,1,1,0,0,0,2-.22A4.29,4.29,0,0,0,258.79,73a3.81,3.81,0,0,0,0,5c.73.86,1.95,1.86,4.94,1.86h49.92a1,1,0,0,0,0-2Z"/><path class="cls-1" d="M277.81,41.18h33.11a1,1,0,0,0,1-1V21.65a1,1,0,0,0-1-1H277.81a1,1,0,0,0-1,1V40.18A1,1,0,0,0,277.81,41.18Zm1-18.53h31.11V39.18H278.81Z"/><path class="cls-1" d="M277.81,47.07H292a1,1,0,0,0,0-2H277.81a1,1,0,0,0,0,2Z"/><path class="cls-1" d="M277.81,53.31H292a1,1,0,0,0,0-2H277.81a1,1,0,0,0,0,2Z"/><path class="cls-1" d="M277.81,59.33H292a1,1,0,0,0,0-2H277.81a1,1,0,0,0,0,2Z"/><path class="cls-1" d="M277.81,65.91H292a1,1,0,0,0,0-2H277.81a1,1,0,0,0,0,2Z"/><path class="cls-1" d="M310.92,45.07H296.77a1,1,0,0,0,0,2h14.15a1,1,0,0,0,0-2Z"/><path class="cls-1" d="M310.92,51.31H296.77a1,1,0,0,0,0,2h14.15a1,1,0,0,0,0-2Z"/><path class="cls-1" d="M310.92,57.33H296.77a1,1,0,0,0,0,2h14.15a1,1,0,0,0,0-2Z"/><path class="cls-1" d="M310.92,63.91H296.77a1,1,0,0,0,0,2h14.15a1,1,0,0,0,0-2Z"/></g></g></svg>