<?xml version="1.0" encoding="UTF-8"?>
<svg xmlns="http://www.w3.org/2000/svg" xmlns:xlink="http://www.w3.org/1999/xlink" viewBox="0 0 1200 328">
  <defs>
    <style>
      .cls-1 {
        fill: #009245;
      }

      .cls-2 {
        fill: url(#linear-gradient);
      }

      .cls-3 {
        fill: #006837;
      }

      .cls-4 {
        clip-path: url(#clippath);
      }

      .cls-5 {
        fill: none;
      }
    </style>
    <clipPath id="clippath">
      <rect width="1200" height="328" style="fill: none;"/>
    </clipPath>
    <linearGradient id="linear-gradient" x1="121.43539" y1="304.2429" x2="925.68198" y2="144.83865" gradientTransform="matrix(1, 0, 0, 1, 0, 0)" gradientUnits="userSpaceOnUse">
      <stop offset=".10985" stop-color="#006837"/>
      <stop offset=".21291" stop-color="#006f39"/>
      <stop offset=".3695" stop-color="#008440"/>
      <stop offset=".44884" stop-color="#009245"/>
    </linearGradient>
  </defs>
  <g id="Layer_1" data-name="Layer 1"/>
  <g id="Layer_2" data-name="Layer 2">
    <g id="Layer_1-2" data-name="Layer 1">
      <g style="clip-path: url(#clippath);">
        <circle cx="914" cy="134" r="38" style="fill: #006837;"/>
        <ellipse cx="593.5" cy="130.5" rx="15.5" ry="23.5" style="fill: #009245;"/>
        <ellipse cx="762" cy="231" rx="30" ry="42" style="fill: #009245;"/>
        <ellipse cx="898.92394" cy="338.01917" rx="79.57149" ry="149.01398" transform="translate(478.79749 1201.62497) rotate(-84.66562)" style="fill: #009245;"/>
        <g>
          <path d="M1268.73454,190.35508c-2.50884-1.08439-2.50884-4.62577,0-5.71017,34.34238-14.84374,57.26546-41.59984,57.26546-72.14492,0-46.66809-59.00195-84.5-125-84.5-6.05774,0-6.90418,0-12.8737,.94191-.88232,.13922-1.7786-.11817-2.47723-.67475-6.49037-5.17067-14.70583-8.26716-23.64906-8.26716-8.11517,0-15.63135,2.54949-21.80303,6.88485-1.50441,1.05679-3.59719,.5974-4.49094-1.00922-6.61865-11.89788-18.78692-19.87562-32.70603-19.87562-19.15931,0-35.00032,15.1142-37.61441,34.76468-.16162,1.21492-1.05043,2.20039-2.22749,2.54199-1.34003,.38889-2.6678,.79439-3.98287,1.21636-.99749,.32006-2.09762,.14334-2.90256-.52711-6.01228-5.00772-13.56467-7.99592-21.77267-7.99592-10.27127,0-19.51748,4.67479-25.99844,12.13967-1.11494,1.28421-3.03295,1.51152-4.34472,.42915-5.75857-4.75149-12.90794-7.56882-20.65684-7.56882-13.98576,0-26.02304,9.16887-31.43917,22.34496-.54013,1.314-1.89341,2.06887-3.30301,1.89183-1.23366-.15494-2.48699-.23679-3.75782-.23679-10.72514,0-20.28502,5.55425-26.51536,14.22584-1.18887,1.65471-3.57074,1.76866-4.91465,.2372-5.06386-5.77055-11.83746-9.57954-19.53727-10.29849-17.87146-1.6687-33.94092,13.91803-35.89197,34.81396-.28988,3.1045-.24935,6.15049,.0857,9.09344,.21619,1.89892-1.31202,3.49396-3.2228,3.4546-2.62652-.0541-5.26406,.28346-7.85826,1.05669-10.50592,3.13146-17.73938,12.57062-20.01393,24.23417-.16247,.83312-.63964,1.56935-1.34709,2.0384-9.33904,6.19191-17.26521,13.43352-23.4121,21.45787-1.05381,1.37567-3.02597,1.6375-4.38363,.56058-7.8585-6.2335-17.22176-8.6201-25.59825-5.54132-13.41452,4.93057-19.68347,22.17898-15.30345,40.05735,.26332,1.07482-.03376,2.20162-.80902,2.99127-11.85996,12.07993-19.38547,26.44767-20.96281,41.98366-.13084,1.2887-1.07267,2.34202-2.31873,2.69584-43.95571,12.48127-74.99637,42.89436-74.99637,78.43894,0,46.66803,53.50195,84.5,119.5,84.5,23.43461,0,45.29187-4.77183,63.73948-13.01365,.61336-.27403,1.29085-.33963,1.94523-.18767,11.74092,2.72647,24.28442,4.20132,37.31529,4.20132,15.77378,0,30.83003-2.16587,44.6162-6.09231,.6378-.18165,1.30874-.15277,1.9287,.08266,16.81309,6.38486,36.03453,10.00965,56.4551,10.00965,33.4508,0,63.691-9.71902,85.38223-25.38112,.69426-.50129,1.5535-.69445,2.39464-.53387,9.95329,1.90011,20.42042,2.915,31.22313,2.915,39.96562,0,75.34318-13.8761,97.03828-35.18339,.60494-.59413,1.41545-.9168,2.26298-.89176,1.55886,.04607,3.12384,.07515,4.69874,.07515,65.99805,0,119.5-37.83197,119.5-84.5,0-30.54508-22.92308-57.30117-57.26546-72.14492Z" style="fill: #006837;"/>
          <path d="M1110,289c-11.09732,0-21.20555,4.60252-28.83231,12.14802-1.31255,1.29857-3.34259,1.53891-4.87276,.50563-10.40865-7.02867-22.67368-13.29502-36.36867-18.51824-2.96281-1.13-4.92865-3.96442-4.92626-7.1354h0c0-19.32996-15.67004-35.00001-35-35.00001-9.30481,0-17.75488,3.63794-24.02393,9.5603,.01392-.35175,.02393-.70471,.02393-1.0603,0-12.9787-9.4021-23.5-21-23.5-3.81687,0-7.39402,1.1417-10.47713,3.13469-1.99888,1.29212-4.64795,.32337-5.40819-1.9321-5.96484-17.69658-20.55408-30.20259-37.61468-30.20259-11.30229,0-21.51721,5.49272-28.86176,14.34374-2.38384,2.8728-6.55269,3.36272-9.50122,1.07322-9.85662-7.65352-21.59444-13.40681-34.57141-16.55422-3.16756-.76825-5.8281-2.91941-7.33269-5.81075-5.63667-10.83188-15.72257-18.05199-27.23291-18.05199-7.33688,0-14.09564,2.93297-19.49221,7.86494-2.76221,2.52441-6.88548,2.78798-9.96435,.66125-5.25608-3.63064-10.758-6.66243-16.41923-9.02979-2.53575-1.06037-4.22508-3.5174-4.14844-6.26486,.01602-.57431,.02423-1.15151,.02423-1.73152,0-24.57666-13.87915-44.5-31-44.5-5.91019,0-11.43177,2.37792-16.13076,6.49983-2.18661,1.91807-5.49276,1.82484-7.43462-.34068-14.58792-16.2681-33.83539-26.15915-54.93462-26.15915-4.07442,0-8.07866,.37278-11.99426,1.08703-2.28278,.41641-4.55863-.71778-5.70715-2.73406-6.31542-11.08698-16.85644-18.35297-28.79858-18.35297-13.02739,0-24.3858,8.6467-30.41053,21.46859-1.18332,2.51834-4.17697,3.69432-6.73415,2.59746-3.13764-1.34584-6.44216-2.06605-9.85532-2.06605-7.16278,0-13.84551,3.17184-19.50917,8.65109-2.21449,2.14239-5.13698,3.36322-8.21815,3.34951-.09086-.0004-.18175-.00061-.27269-.00061-16.54925,0-31.96646,6.01176-44.91274,16.37014-4.60824,3.68707-11.11597,3.74321-15.73448,.06901-11.72183-9.32515-25.71089-16.9553-41.28974-22.36076-2.59948-.90195-4.62282-2.92624-5.64765-5.47978-5.3155-13.24445-18.27059-22.59862-33.41539-22.59862-4.2384,0-8.30322,.73662-12.07832,2.08428-2.90636,1.03753-6.12104,.34337-8.39275-1.74535-6.86187-6.30914-14.6543-11.86919-23.31207-16.45575-18.20461-9.64419-37.81991-13.72863-56.78385-12.84158-2.64597,.12377-5.11789-1.22865-6.46362-3.5102-5.55836-9.42366-14.44636-15.53139-24.46939-15.53139-4.32668,0-8.44083,1.14137-12.1683,3.19391-1.76099,.96969-3.95761,.29334-4.8169-1.52408-4.70161-9.94391-13.69128-16.66984-24.01479-16.66984-9.0388,0-17.05377,5.15771-22.06518,13.11518-1.20491,1.91324-3.37632,2.98013-5.62126,2.71078-4.52394-.54278-9.13352-.82597-13.81357-.82597-9.88424,0-19.45894,1.24796-28.56232,3.57953-2.99174,.76625-6.13751-.61397-7.4636-3.40308-5.80973-12.21937-15.27761-20.17645-25.97408-20.17645-11.54691,0-21.66231,9.27195-27.28899,23.16966-1.31922,3.25844-4.98935,4.89609-8.28021,3.65997-16.68765-6.26825-35.71688-9.82964-55.9308-9.82964-65.99805,0-119.5,37.83191-119.5,84.5,0,38.90375,37.1826,71.663,87.78795,81.48784,.8324,.16161,1.01206,1.25372,.27747,1.67726-25.85043,14.90481-43.06542,41.50155-43.06542,71.8349,0,46.66803,40.74207,84.5,91,84.5,24.90207,0,47.46628-9.28948,63.8974-24.33823,.34349-.31459,.86171-.31459,1.2052,0,16.43112,15.04875,38.99533,24.33823,63.8974,24.33823,20.65669,0,39.7021-6.39539,54.97549-17.1643,.32377-.22829,.75252-.2165,1.06329,.0292,15.88162,12.55651,36.46807,20.1351,58.96123,20.1351,16.73603,0,32.41443-4.19852,45.88678-11.51835,.47751-.25944,1.06381-.04487,1.2625,.46095,2.93023,7.45937,7.02025,14.55522,12.3072,21.04312,29.23723,35.87839,84.0442,39.69699,122.95023,8.78946,.35357-.28088,.85507-.25867,1.18242,.05237,13.97542,13.27911,31.44961,21.17244,50.41087,21.17244,18.3008,0,35.21782-7.35073,48.93945-19.80201,.37369-.33909,.94885-.30809,1.28377,.06934,14.7366,16.60721,34.30237,26.73267,55.77678,26.73267,32.8893,0,61.30533-23.74287,74.73904-58.16691,.23565-.60385,.99746-.77364,1.46719-.32696,18.43112,17.52676,41.56276,26.91122,64.37084,24.70434,.42546-.04117,.81413,.21645,.94152,.62447,11.49107,36.80438,68.22364,68.81246,139.01999,75.42293,45.21284,4.2216,86.70356-2.80115,115.50722-17.29156,.10487-.05276,.21858-.08362,.3357-.09173,47.92286-3.31726,86.96564-19.80147,103.52799-43.74123,.18433-.26644,.49362-.40658,.81569-.37146,1.40648,.15338,2.83137,.2381,4.27482,.2381,23.74829,0,43-21.0426,43-47s-19.25171-47-43-47Z" style="fill: url(#linear-gradient);"/>
        </g>
      </g>
    </g>
  </g>
</svg>