<svg id="Layer_17" data-name="Layer 17" xmlns="http://www.w3.org/2000/svg" viewBox="0 0 600 600"><defs><style>.cls-1{fill:#706f6f;}</style></defs><path class="cls-1" d="M578.94,27C550.78-4.56,501.48-5,471.59,24.9L309.24,187.25a13.06,13.06,0,0,1-18.47,0L127.46,23.93A73.21,73.21,0,0,0,23.93,127.46L187.24,290.78a13.06,13.06,0,0,1,0,18.47L23.93,472.56A73.2,73.2,0,0,0,127.45,576.07L290.76,412.76a13.06,13.06,0,0,1,18.47,0l163.3,163.3A73.2,73.2,0,0,0,573,578.92c31.51-28.17,32-77.47,2.06-107.36L412.76,309.23a13.06,13.06,0,0,1,0-18.47l163.3-163.3A73.23,73.23,0,0,0,578.94,27Z"/></svg>