<?xml version="1.0" encoding="UTF-8"?>
<svg xmlns="http://www.w3.org/2000/svg" xmlns:xlink="http://www.w3.org/1999/xlink" viewBox="0 0 1194 367.22581">
  <defs>
    <style>
      .cls-1 {
        fill: #ffc440;
      }

      .cls-2 {
        isolation: isolate;
      }

      .cls-3 {
        fill: #fff;
        mix-blend-mode: overlay;
      }

      .cls-4 {
        filter: url(#drop-shadow-1);
        mix-blend-mode: multiply;
        opacity: .78;
      }

      .cls-5 {
        clip-path: url(#clippath);
      }

      .cls-6 {
        fill: none;
      }
    </style>
    <clipPath id="clippath">
      <rect width="1194" height="359" style="fill: none;"/>
    </clipPath>
    <filter id="drop-shadow-1" filterUnits="userSpaceOnUse">
      <feOffset dx="0" dy="3"/>
      <feGaussianBlur result="blur" stdDeviation="2"/>
      <feFlood flood-color="#e88400" flood-opacity=".49"/>
      <feComposite in2="blur" operator="in"/>
      <feComposite in="SourceGraphic"/>
    </filter>
  </defs>
  <g style="isolation: isolate;">
    <g id="Layer_1" data-name="Layer 1"/>
    <g id="Layer_2" data-name="Layer 2">
      <g id="Layer_1-2" data-name="Layer 1">
        <g/>
        <g style="clip-path: url(#clippath);">
          <g style="filter: url(#drop-shadow-1); mix-blend-mode: multiply; opacity: .78;">
            <path d="M0,0V153s28.91984,6.80279,75.37027,13.70219c14.66463,2.17818,33.73192,5.13576,47.62973,10.29781,35,13,44.3022,33.13516,33,58-5,11-14.63211,42.87922-13,59,2.47324,24.42891,19.23384,44,51,44,48.56372,0,62.59887-44.15114,44.19611-82.18872-21.19611-43.81128-10.76801-75.60376,30.80389-74.81128,22.02588,.41986,39.38904,10.52356,42,28,3.59113,24.03735-8,37-8.04059,53.57544-.02924,11.95752,5.05877,34.03302,36.42279,34.03302,25.6178,0,35.6178-20.60848,35.6178-39.60846,0-23-15-24.70752-15-50,0-9.88099,4.14406-18.62541,8-24,4.55465-6.34848,12.39224-12.43956,20.03984-14.04022,121.56665-25.44421,182.94169-82.36383,439.96016-82.36383,59,0,78,12.40405,176,12.40405,68,0,131,36,164,47,9.65918,3.21973,26,7,26,7V0H0Z" style="fill: #ffc440;"/>
            <path d="M193.4001,320.10124c.81527,1.72644,.77312,3.64516,.22523,4.88437-.86039,1.94603-2.97168,4.67456-8.85067,4.66821-11.49488-.0124-16.76911-3.27698-24.26548-13.64671-7.49637-10.36973-7.30068-21.94649-7.32742-24.12921-.05082-4.14927,3.93058-7.55328,8.4982,3.32108s10.3241,20.82053,19.4,21.03669c3.89277,.09271,9.79616-1.47926,12.32013,3.86556Z" style="fill: #fff; mix-blend-mode: overlay;"/>
            <path d="M315.13908,247.95436c-1.21889,1.06026-2.44282,3.79977-2.82948,5.69722-.98703,4.84358-2.91419,15.05975,5.1588,25.54773,10.68748,13.88459,24.77452,5.02723,12.6318-2.69332s-10.32712-20.82979-11.54799-26.78961c-.67148-3.27791-2.18602-2.82942-3.41313-1.76201Z" style="fill: #fff; mix-blend-mode: overlay;"/>
            <path d="M200.18381,320.45296c-1.95174,4.97782,2.53635,9.24236,7.35173,7.26004,.33851-.13935,.69094-.29941,1.05782-.48194,7.50938-3.73593,10.49993-11.06032,4.43983-10.83536-4.84808,.17996-10.94772-.79283-12.84938,4.05726Z" style="fill: #fff; mix-blend-mode: overlay;"/>
            <path d="M115.71157,148.51995s-19.54041-.69968-56.12594-11.74197c-36.58553-11.04229-32.91754,4.19465-17.42966,9.82097s62.32673,16.7616,87.47691,17.25093c25.15018,.48932,16.68856-12.75348-13.92131-15.32993Z" style="fill: #fff; mix-blend-mode: overlay;"/>
            <path d="M152.70745,164.29478s-15.14727,5.608-1.98811,14.30039,13.53657-17.64081,1.98811-14.30039Z" style="fill: #fff; mix-blend-mode: overlay;"/>
            <path d="M377.7418,150.22675s-17.43807,7.19902-13.08058,12.53099,23.38786,.13889,20.97061-8.49563c-2.41726-8.63452-7.89003-4.03536-7.89003-4.03536Z" style="fill: #fff; mix-blend-mode: overlay;"/>
          </g>
        </g>
      </g>
    </g>
  </g>
</svg>