<svg xmlns="http://www.w3.org/2000/svg" viewBox="0 0 417.37 417.91"><defs><style>.cls-1{fill:#ffd7d7;}.cls-2{fill:#c97955;}.cls-3{fill:#e28f56;}.cls-4{fill:#f7a269;}</style></defs><g id="Layer_2" data-name="Layer 2"><g id="Layer_1-2" data-name="Layer 1"><path class="cls-1" d="M180.68,70.24S10.3,129.91.5,254.05C-7.65,357.27,85.41,413.78,177.87,417.61c54,2.23,245.92-3.76,239.34-158.43C411.57,126.78,293,89.26,180.68,70.24Z"/><path class="cls-1" d="M149.35,81.85S123.06,58.3,112.08,12.06c-1.35-5.7,4.52-10.77,11.28-9.82,19.57,2.76,51.82,3.34,70.4,1.91C208.59,3,225,4.3,243.1.28c7.09-1.58,13.65,3.74,12.13,9.83L229.51,76.85a6.6,6.6,0,0,1-6.41,5Z"/><path class="cls-2" d="M155.1,83.05a3.7,3.7,0,0,0-3.94,1.53c-7.22,10.74-39,59.71-41.55,93.09-2.06,27.37-5.52,37.45-7.25,40.91a3.71,3.71,0,0,0,.24,3.8c1.71,2.47,4.73,5.76,7,2.25C113,219.47,113.8,207,121,165.28c5.72-33.29,27.62-65,36.22-76.4a3.71,3.71,0,0,0-2.09-5.83Z"/><path class="cls-3" d="M157.92,83.45a4.27,4.27,0,0,0-3.37,2.38C150.33,96.07,132.16,142.42,138,168c4.77,21,4,29.55,3.16,32.66a2.39,2.39,0,0,0,1.17,2.75c2.22,1.3,5.9,2.79,7.21-.53,1.92-4.89-.36-14.43-3.8-47.64C143,128.72,156,98.31,161.33,87.13c1-2.09-.8-4-3.41-3.68Z"/><path class="cls-2" d="M151.57,78.71s-12.39-1.27-8,5.84c4.11,6.72,65,11.38,89.18-1.46a4.46,4.46,0,0,0-1.91-8.4c-2.59-.07-6.32.71-11.69,3C200,86,151.57,78.71,151.57,78.71Z"/><path class="cls-4" d="M158.84,89.46s.66-7.93,7.88-9c0,0-3.11-6.1-9.3-5.07s-8.37,4.29-8.19,12.08S158.84,89.46,158.84,89.46Z"/></g></g></svg>